<svg width="1080" height="720" viewBox="0 0 1080 720" fill="none" xmlns="http://www.w3.org/2000/svg">
<g clip-path="url(#clip0)">
<path d="M0 0.000289904V730.872H1080V0.000289904H0ZM1060.5 651.487C1050.64 661.539 1039.32 669.128 1027.15 674.462C1004.5 697.641 968.016 714.257 909.507 717.334C769.421 724.923 422.983 696 243.891 694.359C242.843 694.564 241.794 694.769 240.746 695.18C202.159 704.616 170.703 705.436 145.118 699.487C51.1689 714.462 -18.2446 621.539 4.4039 514.462C22.8583 427.487 12.1631 260.923 4.4039 188.513C-5.033 114.052 16.567 -27.0766 179.091 4.30798C294.221 29.5387 548.179 77.7439 642.548 69.3336C674.423 66.4618 717.204 59.6926 763.13 53.949C941.173 1.43619 961.515 -1.02537 1017.3 65.8464C1018.97 67.8977 1020.65 70.1541 1021.91 72.4105C1041.2 84.7182 1055.67 101.744 1062.59 125.128C1096.57 237.744 1071.61 398.154 1064.48 482.052C1081.05 574.769 1087.97 623.59 1060.5 651.487Z" fill="white"/>
<path d="M914.12 675.487C861.484 658.256 518.4 628.103 243.891 694.564C422.983 696.205 769.421 724.923 909.507 717.539C968.016 714.462 1004.5 697.846 1027.15 674.667C993.39 689.436 952.917 688 914.12 675.487Z" fill="#5DACDA"/>
<path d="M48.2334 349.334C48.2334 334.565 3.56547 166.36 22.4393 129.232C41.313 92.1035 52.2179 33.8471 278.494 81.4368C339.519 98.2573 516.094 126.565 722.866 65.4368C736.917 61.3342 750.338 57.2317 762.711 53.5394C716.785 59.2829 674.214 66.0522 642.129 68.924C547.76 77.3342 294.012 29.1291 178.672 3.89834C16.148 -27.4863 -5.66172 113.642 3.98489 188.103C11.7441 260.514 22.4393 427.283 3.98489 514.052C-18.6637 621.129 50.5402 714.052 144.699 699.078C-12.7918 663.796 48.2334 380.103 48.2334 349.334Z" fill="#5DACDA"/>
<path d="M1062.59 125.128C1055.46 101.744 1041.2 84.7179 1021.91 72.4102C1052.53 121.026 1019.81 216.41 1045.61 374.564C1052.32 415.795 1058.82 451.282 1064.48 481.846C1071.61 398.154 1096.57 237.744 1062.59 125.128Z" fill="#5DACDA"/>
</g>
<defs>
<clipPath id="clip0">
<rect width="1080" height="720" fill="white"/>
</clipPath>
</defs>
</svg>
