<svg width="499" height="525" viewBox="0 0 499 525" fill="none" xmlns="http://www.w3.org/2000/svg">
<path opacity="0.85" d="M487.787 421.255C485.282 409.228 481.211 373.984 476.722 330.478C477.036 354.95 478.497 377.331 481.002 397.306C486.952 443.113 493.737 456.708 488.622 474.592C483.507 492.37 463.257 501.783 441.127 501.783C419.102 501.783 231.837 495.822 183.612 501.783C136.952 507.535 83.2985 516.424 58.2463 503.247C67.6409 517.261 83.2985 527.51 109.395 523.954C177.975 514.646 302.296 506.175 372.547 507.012C442.797 507.849 467.328 511.3 487.578 489.233C508.038 467.062 496.242 462.042 487.787 421.255Z" fill="#5DACDA"/>
<path opacity="0.85" d="M300 33.4999C349.478 31.6174 409.052 24.0786 434 19.9999C431.599 17.0716 428.914 14.3277 425.887 12.3406C408.455 0.732057 398.852 -2.9283 372.651 4.70616C346.451 12.3406 272.547 24.2629 207.62 29.2829C198.852 30.0149 186.373 30.2907 177.5 30.4999C219.462 33.5327 252.505 35.2778 300 33.4999Z" fill="#5DACDA"/>
<path opacity="0.85" d="M40.501 91.6135C41.3361 86.489 32.881 63.5857 70.1461 38.1723C76.7223 33.6753 81.9416 30.3287 86.4301 27.9233C59.7077 26.6683 37.1607 26.1454 22.3382 29.3875C-12.3173 37.0219 3.75783 105.732 3.75783 105.732C3.75783 105.732 38.309 232.171 44.3633 315.314C46.9729 350.349 46.0334 398.875 45.1983 426.38C50.1044 382.141 56.8894 311.653 55.7411 256.434C54.3841 191.803 39.5616 96.738 40.501 91.6135Z" fill="#5DACDA"/>
</svg>
