<?xml version="1.0" encoding="utf-8"?>
<!-- Generator: Adobe Illustrator 18.1.1, SVG Export Plug-In . SVG Version: 6.00 Build 0)  -->
<svg version="1.1" id="Layer_1" xmlns="http://www.w3.org/2000/svg" xmlns:xlink="http://www.w3.org/1999/xlink" x="0px" y="0px"
	 viewBox="-181 47.3 479 502" enable-background="new -181 47.3 479 502" xml:space="preserve">
<g>
	<path fill="#FFFFFF" d="M-181,48v501.3h479V48H-181z M297.7,120.3c-1.6,15.4-13,86.5-17.9,142.9c-3.1,36.1-4.5,69.7-4.1,100.1
		c0.3,23.4,1.7,44.8,4.1,63.9c5.7,43.8,12.2,56.8,7.3,73.9c-4.9,17-24.3,26-45.5,26c-21.1,0-200.5-5.7-246.7,0
		c-44.7,5.5-96.1,14-120.1,1.4c-0.9-0.5-1.7-0.9-2.5-1.4c-22.7-14.6-15.4-21.1-14.6-32.5c0.3-3.8,2.1-18.6,4.5-39.6
		c4.7-42.3,11.2-109.7,10.1-162.5c-1.3-61.8-15.4-152.6-14.6-157.5c0.8-4.9-7.3-26.8,28.4-51.1c6.3-4.3,11.3-7.5,15.6-9.8
		c19.7-10.7,23.1-2.4,67.2,0.9c8.3,0.6,16.1,1.2,23.5,1.7c40.2,2.8,69,4,114.5,2.3c47.4-1.8,103.9-8.7,127.8-12.6
		c2.7-0.4,5.1-0.9,6.9-1.2c17.9-3.5,20.7-4.8,32.5,0C295.8,74,299.3,104.9,297.7,120.3z"/>
	<g>
		<path opacity="0.85" fill="#5DACDA" enable-background="new    " d="M286.3,450.1c-2.4-11.5-6.3-45.2-10.6-86.8
			c0.3,23.4,1.7,44.8,4.1,63.9c5.7,43.8,12.2,56.8,7.3,73.9c-4.9,17-24.3,26-45.5,26c-21.1,0-200.5-5.7-246.7,0
			c-44.7,5.5-96.1,14-120.1,1.4c9,13.4,24,23.2,49,19.8c65.7-8.9,184.8-17,252.1-16.2c67.3,0.8,90.8,4.1,110.2-17
			C305.7,493.9,294.4,489.1,286.3,450.1z"/>
		<path opacity="0.85" fill="#5DACDA" enable-background="new    " d="M106.9,78.9c47.4-1.8,103.9-8.7,127.8-12.6
			c-2.3-2.8-4.8-5.3-7.7-7.2C210.3,48,201.1,44.5,176,51.8c-25.1,7.3-95.9,18.7-158.1,23.5c-8.4,0.7-17,1-25.5,1.2
			C32.6,79.4,61.4,80.6,106.9,78.9z"/>
		<path opacity="0.85" fill="#5DACDA" enable-background="new    " d="M-142.2,134.9c0.8-4.9-7.3-26.8,28.4-51.1
			c6.3-4.3,11.3-7.5,15.6-9.8c-25.6-1.2-47.2-1.7-61.4,1.4c-33.2,7.3-17.8,73-17.8,73s33.1,120.9,38.9,200.4
			c2.5,33.5,1.6,79.9,0.8,106.2c4.7-42.3,11.2-109.7,10.1-162.5C-128.9,230.7-143.1,139.8-142.2,134.9z"/>
	</g>
</g>
</svg>
