<svg width="26" height="26" viewBox="0 0 26 26" fill="none" xmlns="http://www.w3.org/2000/svg">
<path fill-rule="evenodd" clip-rule="evenodd" d="M7.7091 0.243748C9.0776 0.180748 9.51393 0.166748 12.9999 0.166748C16.4859 0.166748 16.9223 0.181915 18.2896 0.243748C19.6569 0.305581 20.5903 0.523748 21.4069 0.839915C22.2621 1.16308 23.0379 1.66825 23.6796 2.32158C24.3329 2.96208 24.8369 3.73675 25.1589 4.59308C25.4763 5.40975 25.6933 6.34308 25.7563 7.70808C25.8193 9.07891 25.8333 9.51525 25.8333 13.0001C25.8333 16.4861 25.8181 16.9224 25.7563 18.2909C25.6944 19.6559 25.4763 20.5892 25.1589 21.4059C24.8369 22.2624 24.3321 23.0383 23.6796 23.6797C23.0379 24.3331 22.2621 24.8371 21.4069 25.1591C20.5903 25.4764 19.6569 25.6934 18.2919 25.7564C16.9223 25.8194 16.4859 25.8334 12.9999 25.8334C9.51393 25.8334 9.0776 25.8182 7.7091 25.7564C6.3441 25.6946 5.41076 25.4764 4.5941 25.1591C3.73767 24.837 2.96172 24.3322 2.32026 23.6797C1.66737 23.0389 1.16213 22.2633 0.839762 21.4071C0.523595 20.5904 0.306595 19.6571 0.243595 18.2921C0.180595 16.9212 0.166595 16.4849 0.166595 13.0001C0.166595 9.51408 0.181762 9.07775 0.243595 7.71041C0.305429 6.34308 0.523595 5.40975 0.839762 4.59308C1.16261 3.73684 1.66823 2.96128 2.32143 2.32041C2.96198 1.66767 3.73715 1.16243 4.59293 0.839915C5.4096 0.523748 6.34293 0.306748 7.70793 0.243748H7.7091ZM18.1858 2.55375C16.8324 2.49191 16.4264 2.47908 12.9999 2.47908C9.57343 2.47908 9.16743 2.49191 7.8141 2.55375C6.56226 2.61091 5.88326 2.81975 5.4306 2.99591C4.8321 3.22925 4.40393 3.50575 3.95476 3.95491C3.52898 4.36914 3.20131 4.87341 2.99576 5.43075C2.8196 5.88341 2.61076 6.56241 2.5536 7.81425C2.49176 9.16758 2.47893 9.57358 2.47893 13.0001C2.47893 16.4266 2.49176 16.8326 2.5536 18.1859C2.61076 19.4377 2.8196 20.1167 2.99576 20.5694C3.2011 21.1259 3.52893 21.6311 3.95476 22.0452C4.36893 22.4711 4.8741 22.7989 5.4306 23.0042C5.88326 23.1804 6.56226 23.3892 7.8141 23.4464C9.16743 23.5082 9.57226 23.5211 12.9999 23.5211C16.4276 23.5211 16.8324 23.5082 18.1858 23.4464C19.4376 23.3892 20.1166 23.1804 20.5693 23.0042C21.1678 22.7709 21.5959 22.4944 22.0451 22.0452C22.4709 21.6311 22.7988 21.1259 23.0041 20.5694C23.1803 20.1167 23.3891 19.4377 23.4463 18.1859C23.5081 16.8326 23.5209 16.4266 23.5209 13.0001C23.5209 9.57358 23.5081 9.16758 23.4463 7.81425C23.3891 6.56241 23.1803 5.88341 23.0041 5.43075C22.7708 4.83225 22.4943 4.40408 22.0451 3.95491C21.6308 3.52916 21.1266 3.20149 20.5693 2.99591C20.1166 2.81975 19.4376 2.61091 18.1858 2.55375ZM11.3608 16.9562C12.2762 17.3373 13.2955 17.3887 14.2447 17.1018C15.1938 16.8148 16.0139 16.2071 16.5648 15.3827C17.1157 14.5582 17.3633 13.5681 17.2653 12.5814C17.1673 11.5946 16.7298 10.6725 16.0274 9.97258C15.5797 9.52514 15.0383 9.18253 14.4423 8.96942C13.8463 8.75631 13.2104 8.678 12.5805 8.74013C11.9506 8.80226 11.3423 9.00329 10.7994 9.32873C10.2565 9.65418 9.79246 10.0959 9.44078 10.6222C9.0891 11.1485 8.85848 11.7463 8.76553 12.3724C8.67258 12.9985 8.71961 13.6374 8.90322 14.2432C9.08684 14.8489 9.40249 15.4065 9.82744 15.8756C10.2524 16.3447 10.7761 16.7138 11.3608 16.9562ZM8.3356 8.33575C8.94812 7.72322 9.6753 7.23733 10.4756 6.90584C11.2759 6.57434 12.1337 6.40372 12.9999 6.40372C13.8662 6.40372 14.7239 6.57434 15.5242 6.90584C16.3246 7.23733 17.0517 7.72322 17.6643 8.33575C18.2768 8.94828 18.7627 9.67545 19.0942 10.4758C19.4257 11.2761 19.5963 12.1338 19.5963 13.0001C19.5963 13.8663 19.4257 14.7241 19.0942 15.5244C18.7627 16.3247 18.2768 17.0519 17.6643 17.6644C16.4272 18.9015 14.7494 19.5964 12.9999 19.5964C11.2505 19.5964 9.57265 18.9015 8.3356 17.6644C7.09854 16.4274 6.40357 14.7495 6.40357 13.0001C6.40357 11.2506 7.09854 9.57281 8.3356 8.33575ZM21.0593 7.38608C21.2111 7.2429 21.3326 7.07071 21.4166 6.87972C21.5007 6.68873 21.5455 6.48281 21.5486 6.27417C21.5516 6.06552 21.5128 5.85839 21.4343 5.66503C21.3559 5.47167 21.2394 5.29601 21.0919 5.14846C20.9443 5.00091 20.7687 4.88446 20.5753 4.80602C20.382 4.72757 20.1748 4.68872 19.9662 4.69176C19.7575 4.6948 19.5516 4.73968 19.3606 4.82373C19.1696 4.90778 18.9974 5.02929 18.8543 5.18108C18.5758 5.47628 18.4233 5.86839 18.4292 6.27417C18.4352 6.67994 18.599 7.06744 18.8859 7.3544C19.1729 7.64136 19.5604 7.80518 19.9662 7.8111C20.372 7.81701 20.7641 7.66455 21.0593 7.38608Z" fill="white"/>
</svg>
