<svg width="24" height="26" viewBox="0 0 24 26" fill="none" xmlns="http://www.w3.org/2000/svg">
<path d="M21.0353 2.66604C20.425 2.07959 17.9551 0.209969 12.4481 0.184907C12.4481 0.184907 5.95606 -0.221096 2.79413 2.80639C1.03536 4.64092 0.415473 7.33258 0.348197 10.6658C0.280922 13.9991 0.199231 20.2445 5.97048 21.9387H5.97528L5.97048 24.5251C5.97048 24.5251 5.93203 25.5727 6.59517 25.7832C7.39286 26.0438 7.86379 25.2469 8.62784 24.3897C9.04591 23.9186 9.62255 23.2269 10.0598 22.7006C14.0099 23.0464 17.042 22.2545 17.388 22.1392C18.1857 21.8685 22.698 21.267 23.4284 15.0216C24.1876 8.57565 23.0632 4.50559 21.0353 2.66604ZM21.7032 14.5504C21.0834 19.7633 17.4265 20.0941 16.7537 20.3197C16.4654 20.4149 13.7984 21.1066 10.4491 20.8811C10.4491 20.8811 7.95029 24.0238 7.17182 24.8409C6.91713 25.1065 6.63842 25.0815 6.64323 24.5552C6.64323 24.2093 6.66245 20.2595 6.66245 20.2595C6.65764 20.2595 6.65764 20.2595 6.66245 20.2595C1.77059 18.846 2.05891 13.5279 2.11177 10.746C2.16463 7.96414 2.66919 5.6835 4.15885 4.14971C6.83544 1.61845 12.3472 1.99438 12.3472 1.99438C17.0036 2.01443 19.2333 3.47805 19.7523 3.96926C21.4678 5.50305 22.3424 9.17212 21.7032 14.5504ZM15.0238 10.5004C15.043 10.9315 14.4231 10.9615 14.4039 10.5305C14.351 9.42776 13.8561 8.89143 12.8373 8.83128C12.4241 8.80622 12.4625 8.15962 12.871 8.18468C14.2117 8.25987 14.9565 9.06185 15.0238 10.5004ZM15.9993 11.0668C16.0473 8.94155 14.7739 7.27744 12.3568 7.09198C11.9483 7.06191 11.9916 6.41531 12.4001 6.44538C15.1872 6.6559 16.672 8.65585 16.6192 11.0818C16.6144 11.5129 15.9897 11.4929 15.9993 11.0668ZM18.2578 11.7385C18.2626 12.1695 17.6379 12.1745 17.6379 11.7435C17.6091 7.65838 14.9998 5.43288 11.833 5.40782C11.4246 5.40281 11.4246 4.76122 11.833 4.76122C15.3746 4.78628 18.2242 7.33759 18.2578 11.7385ZM17.7148 16.6556V16.6656C17.1958 17.618 16.2251 18.6706 15.2256 18.3348L15.216 18.3197C14.2021 18.024 11.8138 16.7408 10.3049 15.4877C9.52645 14.8462 8.81525 14.0893 8.26744 13.3625C7.77249 12.7159 7.27273 11.949 6.78739 11.0267C5.76384 9.09694 5.53799 8.23481 5.53799 8.23481C5.21603 7.19223 6.22035 6.17973 7.13818 5.63839H7.14779C7.58988 5.39779 8.01275 5.47799 8.29627 5.83387C8.29627 5.83387 8.89214 6.57571 9.14682 6.94161C9.38709 7.28245 9.70905 7.8288 9.87724 8.13456C10.1704 8.68091 9.98776 9.23729 9.69944 9.46786L9.1228 9.94905C8.82967 10.1947 8.86811 10.6508 8.86811 10.6508C8.86811 10.6508 9.72347 14.0241 12.919 14.8762C12.919 14.8762 13.3563 14.9163 13.5918 14.6106L14.0531 14.0091C14.2741 13.7083 14.8075 13.5179 15.3313 13.8236C16.0377 14.2397 16.9363 14.8862 17.5322 15.4727C17.8686 15.7584 17.9454 16.1945 17.7148 16.6556Z" fill="white"/>
</svg>
