<svg width="66" height="59" viewBox="0 0 66 59" fill="none" xmlns="http://www.w3.org/2000/svg">
<g filter="url(#filter0_d)">
<ellipse cx="40" cy="41" rx="23" ry="11" fill="white"/>
<path d="M62.5 41C62.5 43.7344 60.1654 46.3578 56.0477 48.3271C51.9666 50.2789 46.2935 51.5 40 51.5C33.7065 51.5 28.0334 50.2789 23.9523 48.3271C19.8346 46.3578 17.5 43.7344 17.5 41C17.5 38.2656 19.8346 35.6422 23.9523 33.6729C28.0334 31.7211 33.7065 30.5 40 30.5C46.2935 30.5 51.9666 31.7211 56.0477 33.6729C60.1654 35.6422 62.5 38.2656 62.5 41Z" stroke="url(#paint0_linear)"/>
</g>
<g clip-path="url(#clip0)">
<rect width="42" height="42" transform="translate(23 2)" fill="white"/>
<path d="M44.1551 27.2306L44.1641 27.2341L44.1731 27.2306C47.0174 26.1339 49.4404 24.2389 51.1934 21.7361C53.004 19.1511 53.9611 16.1167 53.9611 12.961V5.83905V5.81901L53.9415 5.81465L44.1695 3.63633L44.1701 3.63378L44.1586 3.63633L34.387 5.81465L34.3674 5.81901V5.83905V12.961C34.3674 16.117 35.3245 19.1514 37.135 21.7361C38.8878 24.2389 41.3108 26.1339 44.1551 27.2306ZM55.5517 12.961C55.5517 16.4451 54.4952 19.7951 52.4964 22.6488C50.4976 25.5023 47.7104 27.6402 44.436 28.8308C44.3483 28.8625 44.256 28.8786 44.1641 28.8786C44.0725 28.8786 43.9802 28.8625 43.8925 28.8308C40.618 27.6399 37.8309 25.5023 35.8321 22.6485C33.8333 19.7951 32.7768 16.4451 32.7768 12.961V5.18152C32.7768 4.80902 33.0353 4.48624 33.3991 4.40515L43.991 2.04388C44.105 2.01871 44.2231 2.01871 44.3372 2.04387C44.3372 2.04388 44.3372 2.04388 44.3372 2.04388L54.9294 4.40515C55.2929 4.48624 55.5517 4.80903 55.5517 5.18152V12.961Z" fill="#898899" stroke="white" stroke-width="0.05"/>
<path d="M52.5155 7.61523V7.64023H52.5158V12.9611C52.5158 15.8187 51.649 18.5665 50.0097 20.907C48.6094 22.9064 46.7037 24.5028 44.4983 25.5241C44.3924 25.5732 44.2783 25.5977 44.1643 25.5977C44.0503 25.5977 43.936 25.5732 43.8301 25.5241C41.625 24.5031 39.7193 22.9064 38.3186 20.907C36.9007 18.8826 36.0489 16.5156 35.8557 14.062C35.8397 13.858 35.8282 13.651 35.8212 13.4473C35.8059 13.0083 36.1495 12.6401 36.5885 12.6249C37.025 12.61 37.3956 12.9533 37.4108 13.3926C37.4169 13.573 37.4272 13.756 37.4417 13.9371C37.6125 16.1077 38.3664 18.2025 39.6216 19.9945C40.7874 21.659 42.3482 23.0079 44.1528 23.9141L44.164 23.9197L44.1752 23.9141C45.9798 23.0076 47.5409 21.659 48.7068 19.9945L48.6863 19.9802L48.7068 19.9945C50.1578 17.9226 50.9249 15.4906 50.9249 12.9611V8.27277V8.25273L50.9053 8.24837L44.1694 6.74681L44.17 6.74426L44.1586 6.74681L36.7809 8.39128L36.7809 8.39128C36.3525 8.48697 35.9272 8.21699 35.8318 7.78829L35.8318 7.78827C35.7361 7.35955 36.0061 6.93456 36.4348 6.83887C36.4348 6.83887 36.4348 6.83887 36.4348 6.83887L43.9909 5.15435C44.105 5.12918 44.2234 5.12918 44.3374 5.15435L51.8932 6.83887L51.8987 6.81447L51.8932 6.83887C52.257 6.91995 52.5155 7.24242 52.5155 7.61523Z" fill="#898899" stroke="white" stroke-width="0.05"/>
<path d="M42.4004 17.4832L42.4005 17.4832C42.4181 17.4845 42.4358 17.4851 42.4535 17.4851C42.6498 17.4851 42.8403 17.4124 42.9869 17.2797L48.9342 11.899C49.2597 11.6045 49.2849 11.1015 48.9904 10.7756C48.6956 10.45 48.1926 10.4249 47.867 10.7194L42.5488 15.5307L42.5296 15.5481L42.5129 15.5283L40.995 13.7329L40.995 13.7329C40.7117 13.3977 40.2096 13.3555 39.8745 13.6391L39.8744 13.6391C39.5389 13.9227 39.497 14.4245 39.7803 14.76L42.4004 17.4832ZM42.4004 17.4832C42.1851 17.4689 41.9853 17.368 41.8461 17.2033L41.827 17.2195L41.8461 17.2033L39.7803 14.76L42.4004 17.4832Z" fill="#FF2C2C" stroke="white" stroke-width="0.05"/>
<path d="M27.5513 29.8741C27.512 30.2875 27.6283 30.6976 27.8791 31.0287L27.8793 31.0289L35.0182 40.3247C35.0182 40.3247 35.0182 40.3248 35.0182 40.3248C35.1215 40.4593 35.1777 40.6242 35.1777 40.7939V43.1798C35.1777 43.6053 34.8326 43.9501 34.4074 43.9501C33.9819 43.9501 33.6371 43.6053 33.6371 43.1798V41.0726V41.0557L33.6268 41.0422L26.6543 31.9632C26.6543 31.9632 26.6542 31.9632 26.6542 31.9631C26.1667 31.3194 25.9415 30.5273 26.0176 29.7288L26.0176 29.7288L26.8956 20.4692C27.0274 19.0795 28.1793 18.0314 29.5756 18.0314C31.0598 18.0314 32.2675 19.2392 32.2675 20.7234V28.1239C32.2675 28.4861 32.3888 28.8435 32.6095 29.1307L32.8505 29.4447L32.8959 29.5039L32.9334 29.4393C33.0896 29.17 33.2967 28.9255 33.5532 28.7215C34.1015 28.2854 34.7859 28.0934 35.4811 28.1799C36.1762 28.2667 36.7925 28.6211 37.2166 29.1789L37.2166 29.1789L40.5286 33.531C41.3897 34.6628 41.8639 36.0694 41.8639 37.4915V43.1798C41.8639 43.6053 41.5191 43.9501 41.0936 43.9501C40.6681 43.9501 40.3233 43.6053 40.3233 43.1798V37.4915C40.3233 36.4042 39.9608 35.3291 39.3024 34.4638L35.9907 30.1117C35.9907 30.1117 35.9907 30.1117 35.9907 30.1117C35.8198 29.8869 35.5709 29.7435 35.2906 29.7085L35.2906 29.7085C35.0104 29.6738 34.7339 29.7513 34.5128 29.9272C34.0724 30.2774 33.9917 30.9234 34.33 31.3712L34.3303 31.3715L35.7203 33.1816C35.9794 33.5192 35.9159 34.0028 35.5786 34.2619C35.2413 34.5209 34.7577 34.4575 34.4983 34.1201L33.1136 32.3168L33.1135 32.3168L33.1135 32.3168L33.1135 32.3168L33.1135 32.3167L33.1135 32.3167L33.1135 32.3167L33.1134 32.3167L33.1134 32.3167L33.1134 32.3166L33.1134 32.3166L33.1134 32.3166L33.1134 32.3166L33.1134 32.3166L33.1133 32.3165L33.1133 32.3165L33.1133 32.3165L33.1133 32.3165L33.1133 32.3165L33.1133 32.3164L33.1133 32.3164L33.1132 32.3164L33.1132 32.3164L33.1132 32.3163L33.1132 32.3163L33.1132 32.3163L33.1132 32.3163L33.1131 32.3163L33.1131 32.3162L33.1131 32.3162L33.1131 32.3162L33.1131 32.3162L33.1131 32.3162L33.1131 32.3161L33.113 32.3161L33.113 32.3161L33.113 32.3161L33.113 32.3161L33.113 32.316L33.113 32.316L33.113 32.316L33.1129 32.316L33.1129 32.316L33.1129 32.3159L33.1129 32.3159L33.1129 32.3159L33.1129 32.3159L33.1128 32.3159L33.1128 32.3158L33.1128 32.3158L33.1128 32.3158L33.1128 32.3158L33.1128 32.3157L33.1128 32.3157L33.1127 32.3157L33.1127 32.3157L33.1127 32.3157L33.1127 32.3156L33.1127 32.3156L33.1127 32.3156L33.1127 32.3156L33.1126 32.3156L33.1126 32.3155L33.1126 32.3155L33.1126 32.3155L33.1126 32.3155L33.1126 32.3155L33.1125 32.3154L33.1125 32.3154L33.1125 32.3154L33.1125 32.3154L33.1125 32.3154L33.1125 32.3153L33.1125 32.3153L33.1124 32.3153L33.1124 32.3153L33.1124 32.3153L33.1124 32.3152L33.1124 32.3152L33.1124 32.3152L33.1124 32.3152L33.1123 32.3151L33.1123 32.3151L33.1123 32.3151L33.1123 32.3151L33.1123 32.3151L33.1123 32.315L33.1122 32.315L33.1122 32.315L33.1122 32.315L33.1122 32.315L33.1122 32.3149L33.1122 32.3149L33.1122 32.3149L33.1121 32.3149L33.1121 32.3149L33.1121 32.3148L33.1121 32.3148L33.1121 32.3148L33.1121 32.3148L33.1121 32.3148L33.112 32.3147L33.112 32.3147L33.112 32.3147L33.112 32.3147L33.112 32.3147L33.112 32.3146L33.1119 32.3146L33.1119 32.3146L33.1119 32.3146L33.1119 32.3146L33.1119 32.3145L33.1119 32.3145L33.1119 32.3145L33.1118 32.3145L33.1118 32.3144L33.1118 32.3144L33.1118 32.3144L33.1118 32.3144L33.1118 32.3144L33.1118 32.3143L33.1117 32.3143L33.1117 32.3143L33.1117 32.3143L33.1117 32.3143L33.1117 32.3142L33.1117 32.3142L33.1116 32.3142L33.1116 32.3142L33.1116 32.3142L33.1116 32.3141L33.1116 32.3141L33.1116 32.3141L33.1116 32.3141L33.1115 32.3141L33.1115 32.314L33.1115 32.314L33.1115 32.314L33.1115 32.314L33.1115 32.314L33.1115 32.3139L33.1114 32.3139L33.1114 32.3139L33.1114 32.3139L33.1114 32.3138L33.1114 32.3138L33.1114 32.3138L33.1113 32.3138L33.1113 32.3138L33.1113 32.3137L33.1113 32.3137L33.1113 32.3137L33.1113 32.3137L33.1113 32.3137L33.1112 32.3136L33.1112 32.3136L33.1112 32.3136L33.1112 32.3136L33.1112 32.3136L33.1112 32.3135L33.1112 32.3135L33.1111 32.3135L33.1111 32.3135L33.1111 32.3135L33.1111 32.3134L33.1111 32.3134L33.1111 32.3134L33.111 32.3134L33.111 32.3134L33.111 32.3133L33.111 32.3133L33.111 32.3133L33.111 32.3133L33.111 32.3132L33.1109 32.3132L33.1109 32.3132L33.1109 32.3132L33.1109 32.3132L33.1109 32.3131L33.1109 32.3131L33.1109 32.3131L33.1108 32.3131L33.1108 32.3131L33.1108 32.313L33.1108 32.313L33.1108 32.313L33.1108 32.313L33.1107 32.313L33.1107 32.3129L33.1107 32.3129L33.1107 32.3129L33.1107 32.3129L33.1107 32.3129L33.1107 32.3128L33.1106 32.3128L33.1106 32.3128L33.1106 32.3128L33.1106 32.3128L33.1106 32.3127L33.1106 32.3127L33.1106 32.3127L33.1105 32.3127L33.1105 32.3126L33.1105 32.3126L33.1105 32.3126L33.1105 32.3126L33.1105 32.3126L33.1104 32.3125L33.1104 32.3125L33.1104 32.3125L33.1104 32.3125L33.1104 32.3125L33.1104 32.3124L33.1104 32.3124L33.1103 32.3124L33.1103 32.3124L33.1103 32.3124L33.1103 32.3123L33.1103 32.3123L33.1103 32.3123L33.1102 32.3123L33.1102 32.3123L33.1102 32.3122L33.1102 32.3122L33.1102 32.3122L33.1102 32.3122L33.1102 32.3122L33.1101 32.3121L33.1101 32.3121L33.1101 32.3121L33.1101 32.3121L33.1101 32.3121L33.1101 32.312L33.1101 32.312L33.11 32.312L33.11 32.312L33.11 32.3119L33.11 32.3119L33.11 32.3119L33.11 32.3119L33.1099 32.3119L33.1099 32.3118L33.1099 32.3118L33.1099 32.3118L33.1099 32.3118L33.1099 32.3118L33.1099 32.3117L33.1098 32.3117L33.1098 32.3117L33.1098 32.3117L33.1098 32.3117L33.1098 32.3116L33.1098 32.3116L33.1098 32.3116L33.1097 32.3116L33.1097 32.3116L33.1097 32.3115L33.1097 32.3115L33.1097 32.3115L33.1097 32.3115L33.1096 32.3115L33.1096 32.3114L33.1096 32.3114L33.1096 32.3114L33.1096 32.3114L33.1096 32.3113L33.1096 32.3113L33.1095 32.3113L33.1095 32.3113L33.1095 32.3113L33.1095 32.3112L33.1095 32.3112L33.1095 32.3112L33.1095 32.3112L33.1094 32.3112L33.1094 32.3111L33.1094 32.3111L33.1094 32.3111L33.1094 32.3111L33.1094 32.3111L33.1093 32.311L33.1093 32.311L33.1093 32.311L33.1093 32.311L33.1093 32.311L33.1093 32.3109L33.1093 32.3109L33.1092 32.3109L33.1092 32.3109L33.1092 32.3109L33.1092 32.3108L33.1092 32.3108L33.1092 32.3108L33.1092 32.3108L33.1091 32.3108L33.1091 32.3107L33.1091 32.3107L33.1091 32.3107L33.1091 32.3107L33.1091 32.3106L33.109 32.3106L33.109 32.3106L33.109 32.3106L33.109 32.3106L33.109 32.3105L33.109 32.3105L33.109 32.3105L33.1089 32.3105L33.1089 32.3105L33.1089 32.3104L33.1089 32.3104L33.1089 32.3104L33.1089 32.3104L33.1089 32.3104L33.1088 32.3103L33.1088 32.3103L33.1088 32.3103L33.1088 32.3103L33.1088 32.3103L33.1088 32.3102L33.1087 32.3102L33.1087 32.3102L33.1087 32.3102L33.1087 32.3102L33.1087 32.3101L33.1087 32.3101L33.1087 32.3101L33.1086 32.3101L33.1086 32.31L33.1086 32.31L33.1086 32.31L33.1086 32.31L33.1086 32.31L33.1086 32.3099L33.1085 32.3099L33.1085 32.3099L33.1085 32.3099L33.1085 32.3099L33.1085 32.3098L33.1085 32.3098L33.1084 32.3098L33.1084 32.3098L33.1084 32.3098L33.1084 32.3097L33.1084 32.3097L33.1084 32.3097L33.1084 32.3097L33.1083 32.3097L33.1083 32.3096L33.1083 32.3096L33.1083 32.3096L33.1083 32.3096L33.1083 32.3096L33.1083 32.3095L33.1082 32.3095L33.1082 32.3095L33.1082 32.3095L33.1082 32.3094L33.1082 32.3094L33.1082 32.3094L33.1081 32.3094L33.1081 32.3094L33.1081 32.3093L33.1081 32.3093L33.1081 32.3093L33.1081 32.3093L33.1081 32.3093L33.108 32.3092L33.108 32.3092L33.108 32.3092L33.108 32.3092L33.108 32.3092L33.108 32.3091L33.108 32.3091L33.1079 32.3091L33.1079 32.3091L33.1079 32.3091L33.1079 32.309L33.1079 32.309L33.1079 32.309L33.1078 32.309L33.1078 32.309L33.1078 32.3089L33.1078 32.3089L33.1078 32.3089L33.1078 32.3089L33.1078 32.3089L33.1077 32.3088L33.1077 32.3088L33.1077 32.3088L33.1077 32.3088L33.1077 32.3087L33.1077 32.3087L33.1077 32.3087L33.1076 32.3087L33.1076 32.3087L33.1076 32.3086L33.1076 32.3086L33.1076 32.3086L33.1076 32.3086L33.1075 32.3086L33.1075 32.3085L33.1075 32.3085L33.1075 32.3085L33.1075 32.3085L33.1075 32.3085L33.1075 32.3084L33.1074 32.3084L33.1074 32.3084L33.1074 32.3084L33.1074 32.3084L33.1074 32.3083L33.1074 32.3083L33.1074 32.3083L33.1073 32.3083L33.1073 32.3083L33.1073 32.3082L33.1073 32.3082L33.1073 32.3082L33.1073 32.3082L33.1072 32.3081L33.1072 32.3081L33.1072 32.3081L33.1072 32.3081L33.1072 32.3081L33.1072 32.308L33.1072 32.308L33.1071 32.308L33.1071 32.308L33.1071 32.308L33.1071 32.3079L33.1071 32.3079L33.1071 32.3079L33.1071 32.3079L33.107 32.3079L33.107 32.3078L33.107 32.3078L33.107 32.3078L33.107 32.3078L33.107 32.3078L33.1069 32.3077L33.1069 32.3077L33.1069 32.3077L33.1069 32.3077L33.1069 32.3077L33.1069 32.3076L33.1069 32.3076L33.1068 32.3076L33.1068 32.3076L33.1068 32.3075L33.1068 32.3075L33.1068 32.3075L33.1068 32.3075L33.1068 32.3075L33.1067 32.3074L33.1067 32.3074L33.1067 32.3074L33.1067 32.3074L33.1067 32.3074L33.1067 32.3073L33.1066 32.3073L33.1066 32.3073L33.1066 32.3073L33.1066 32.3073L33.1066 32.3072L33.1066 32.3072L33.1066 32.3072L33.1065 32.3072L33.1065 32.3072L33.1065 32.3071L33.1065 32.3071L33.1065 32.3071L33.1065 32.3071L33.1065 32.3071L33.1064 32.307L33.1064 32.307L33.1064 32.307L33.1064 32.307L33.1064 32.3069L33.1064 32.3069L33.1063 32.3069L33.1063 32.3069L33.1063 32.3069L33.1063 32.3068L33.1063 32.3068L33.1063 32.3068L33.1063 32.3068L33.1062 32.3068L33.1062 32.3067L33.1062 32.3067L33.1062 32.3067L33.1062 32.3067L33.1062 32.3067L33.1061 32.3066L33.1061 32.3066L33.1061 32.3066L33.1061 32.3066L33.1061 32.3066L33.1061 32.3065L33.1061 32.3065L33.106 32.3065L33.106 32.3065L33.106 32.3065L33.106 32.3064L33.106 32.3064L33.106 32.3064L33.106 32.3064L33.1059 32.3064L33.1059 32.3063L33.1059 32.3063L33.1059 32.3063L33.1059 32.3063L33.1059 32.3062L33.1059 32.3062L33.1051 32.3052L31.3879 30.0689L31.3879 30.0689C30.9617 29.5143 30.7269 28.8236 30.7269 28.1239V20.7234C30.7269 20.0886 30.2107 19.5721 29.5756 19.5721C28.9788 19.5721 28.4859 20.0204 28.4296 20.6149C28.4296 20.6149 28.4296 20.6149 28.4296 20.6149L27.5513 29.8741ZM27.5513 29.8741L27.601 29.8789M27.5513 29.8741L27.5513 29.8742L27.601 29.8789M27.601 29.8789C27.5629 30.2797 27.6757 30.6774 27.9189 30.9985L27.601 29.8789Z" fill="#898899" stroke="white" stroke-width="0.1"/>
<path d="M55.4885 29.1307L55.4885 29.1307C55.7089 28.8435 55.8305 28.4861 55.8305 28.1239V20.7234C55.8305 19.2392 57.0383 18.0314 58.5225 18.0314C59.9185 18.0314 61.0707 19.0795 61.2025 20.4692L62.0808 29.7288C62.1565 30.5273 61.9313 31.3195 61.447 31.959C61.447 31.959 61.447 31.9591 61.447 31.9591L54.4716 41.0422L54.4613 41.0557V41.0726V43.1798C54.4613 43.6053 54.1164 43.9501 53.691 43.9501C53.2655 43.9501 52.9206 43.6053 52.9206 43.1798V40.7942C52.9206 40.6244 52.9766 40.4592 53.0798 40.3248C53.0798 40.3248 53.0798 40.3247 53.0798 40.3247L60.222 31.0248L60.2222 31.0245C60.4698 30.6975 60.5861 30.2877 60.5471 29.8742L60.5471 29.8742L59.6688 20.6149L59.6688 20.6148C59.6122 20.0204 59.1193 19.5721 58.5225 19.5721C57.8876 19.5721 57.3711 20.0886 57.3711 20.7234V28.1239C57.3711 28.8236 57.1364 29.5143 56.7105 30.0692C56.7105 30.0692 56.7105 30.0692 56.7105 30.0692L54.9933 32.3054L54.9926 32.3062L54.9886 32.3114L54.9859 32.315L54.9859 32.315L54.9853 32.3158L53.6 34.1201C53.3406 34.4575 52.8571 34.5209 52.5198 34.2619C52.1825 34.0028 52.119 33.5193 52.3781 33.1816C52.3781 33.1816 52.3781 33.1816 52.3781 33.1816L53.7678 31.3715L53.768 31.3712C54.1067 30.9234 54.0256 30.2774 53.5856 29.9272C53.3645 29.7513 53.088 29.6738 52.8078 29.7085L52.8077 29.7085C52.5275 29.7438 52.2786 29.8869 52.1073 30.1117L52.1073 30.1117L48.7956 34.4638C48.1372 35.3291 47.7747 36.4042 47.7747 37.4915V43.1798C47.7747 43.6053 47.4299 43.9501 47.0044 43.9501C46.5793 43.9501 46.2341 43.6053 46.2341 43.1798V37.4918C46.2341 36.0694 46.7086 34.6628 47.5697 33.531L50.8814 29.1789L50.8814 29.1789C51.3056 28.6211 51.9218 28.2667 52.6169 28.1799C53.3121 28.0934 53.9965 28.2854 54.5448 28.7215C54.8013 28.9258 55.0084 29.1703 55.1643 29.4393L55.2017 29.5039L55.2472 29.4447L55.4885 29.1307Z" fill="#898899" stroke="white" stroke-width="0.1"/>
<path d="M37.3518 10.3142L37.3518 10.3141C37.2642 9.99582 36.9791 9.76225 36.6488 9.74421L37.3518 10.3142ZM37.3518 10.3142C37.4334 10.61 37.3196 10.9373 37.0766 11.1245M37.3518 10.3142L37.0766 11.1245M37.0766 11.1245C36.8188 11.3231 36.4514 11.3347 36.1804 11.154M37.0766 11.1245L36.1804 11.154M36.1804 11.154C35.8826 10.9536 35.7608 10.5645 35.8924 10.2305L36.1804 11.154ZM35.8924 10.2304C36.0124 9.92639 36.3218 9.72648 36.6488 9.74421L35.8924 10.2304Z" fill="#898899" stroke="white" stroke-width="0.1"/>
</g>
<defs>
<filter id="filter0_d" x="10" y="27" width="56" height="32" filterUnits="userSpaceOnUse" color-interpolation-filters="sRGB">
<feFlood flood-opacity="0" result="BackgroundImageFix"/>
<feColorMatrix in="SourceAlpha" type="matrix" values="0 0 0 0 0 0 0 0 0 0 0 0 0 0 0 0 0 0 127 0"/>
<feOffset dx="-2" dy="2"/>
<feGaussianBlur stdDeviation="2.5"/>
<feColorMatrix type="matrix" values="0 0 0 0 0.439649 0 0 0 0 0.470085 0 0 0 0 0.529167 0 0 0 0.2 0"/>
<feBlend mode="normal" in2="BackgroundImageFix" result="effect1_dropShadow"/>
<feBlend mode="normal" in="SourceGraphic" in2="effect1_dropShadow" result="shape"/>
</filter>
<linearGradient id="paint0_linear" x1="17" y1="54" x2="65" y2="38" gradientUnits="userSpaceOnUse">
<stop stop-color="#FF0000"/>
<stop offset="1" stop-color="#FF0000" stop-opacity="0"/>
</linearGradient>
<clipPath id="clip0">
<rect width="42" height="42" fill="white" transform="translate(23 2)"/>
</clipPath>
</defs>
</svg>
