<svg width="28" height="30" viewBox="0 0 28 30" fill="none" xmlns="http://www.w3.org/2000/svg">
<path d="M24.3261 3.18959C23.6286 2.51936 20.8058 0.382648 14.5122 0.354006C14.5122 0.354006 7.0927 -0.109999 3.47906 3.34998C1.46905 5.44659 0.760598 8.52277 0.683712 12.3322C0.606826 16.1416 0.513464 23.2792 7.10917 25.2155H7.11466L7.10917 28.1713C7.10917 28.1713 7.06524 29.3686 7.82311 29.6092C8.73476 29.9071 9.27296 28.9962 10.1462 28.0167C10.624 27.4782 11.283 26.6877 11.7827 26.0862C16.297 26.4815 19.7624 25.5764 20.1578 25.4446C21.0694 25.1353 26.2263 24.4479 27.0611 17.3102C27.9288 9.94342 26.6437 5.29193 24.3261 3.18959V3.18959ZM25.0895 16.7717C24.381 22.7293 20.2017 23.1074 19.4329 23.3652C19.1034 23.474 16.0554 24.2645 12.2276 24.0068C12.2276 24.0068 9.37181 27.5985 8.48213 28.5322C8.19107 28.8358 7.87254 28.8072 7.87803 28.2057C7.87803 27.8105 7.9 23.2964 7.9 23.2964C7.89451 23.2964 7.89451 23.2964 7.9 23.2964C2.3093 21.681 2.63881 15.6031 2.69922 12.4238C2.75963 9.24456 3.33627 6.63811 5.03875 4.88521C8.0977 1.99234 14.3969 2.42197 14.3969 2.42197C19.7185 2.44489 22.2667 4.11759 22.8598 4.67898C24.8204 6.43189 25.8199 10.6251 25.0895 16.7717V16.7717ZM17.4558 12.1431C17.4778 12.6358 16.7693 12.6702 16.7474 12.1775C16.687 10.9173 16.1213 10.3043 14.957 10.2356C14.4847 10.2069 14.5287 9.46796 14.9955 9.49661C16.5277 9.58253 17.3789 10.4991 17.4558 12.1431ZM18.5707 12.7905C18.6256 10.3616 17.1702 8.45976 14.4078 8.24781C13.941 8.21343 13.9905 7.47446 14.4573 7.50884C17.6425 7.74943 19.3395 10.0351 19.2791 12.8076C19.2736 13.3003 18.5597 13.2774 18.5707 12.7905V12.7905ZM21.1518 13.5581C21.1573 14.0507 20.4434 14.0565 20.4434 13.5638C20.4104 8.89512 17.4284 6.35169 13.8092 6.32305C13.3424 6.31732 13.3424 5.58408 13.8092 5.58408C17.8567 5.61272 21.1134 8.5285 21.1518 13.5581V13.5581ZM20.5312 19.1777V19.1891C19.9381 20.2775 18.8288 21.4805 17.6865 21.0967L17.6755 21.0795C16.5167 20.7415 13.7873 19.2751 12.0628 17.843C11.1731 17.1097 10.3603 16.2447 9.73428 15.4141C9.16862 14.6751 8.59746 13.7987 8.04279 12.7446C6.87302 10.5392 6.61491 9.55389 6.61491 9.55389C6.24695 8.36237 7.39475 7.20523 8.44369 6.58656H8.45467C8.95992 6.31159 9.44321 6.40325 9.76723 6.80996C9.76723 6.80996 10.4482 7.65778 10.7393 8.07595C11.0139 8.46549 11.3818 9.08989 11.574 9.43932C11.909 10.0637 11.7004 10.6996 11.3708 10.9631L10.7118 11.513C10.3768 11.7937 10.4208 12.315 10.4208 12.315C10.4208 12.315 11.3983 16.1702 15.0504 17.1441C15.0504 17.1441 15.5501 17.1899 15.8192 16.8405L16.3465 16.1531C16.5991 15.8094 17.2087 15.5917 17.8073 15.9411C18.6146 16.4166 19.6416 17.1555 20.3226 17.8258C20.707 18.1523 20.7949 18.6507 20.5312 19.1777Z" fill="#FF2C2C"/>
</svg>
