<svg width="18" height="17" viewBox="0 0 18 17" fill="none" xmlns="http://www.w3.org/2000/svg">
<path d="M3.54 2.37664C3.6 3.15568 3.75 3.91721 3.99 4.64374L2.79 5.69413C2.38 4.64374 2.12 3.53207 2.03 2.37664H3.54ZM13.4 12.8981C14.25 13.1082 15.12 13.2395 16 13.292V14.5962C14.68 14.5175 13.41 14.2899 12.2 13.9397L13.4 12.8981ZM4.5 0.625977H1C0.45 0.625977 0 1.01987 0 1.50131C0 9.72065 7.61 16.3819 17 16.3819C17.55 16.3819 18 15.988 18 15.5066V12.4517C18 11.9702 17.55 11.5763 17 11.5763C15.76 11.5763 14.55 11.4013 13.43 11.0774C13.33 11.0424 13.22 11.0336 13.12 11.0336C12.86 11.0336 12.61 11.1212 12.41 11.2875L10.21 13.2132C7.38 11.944 5.06 9.92197 3.62 7.44479L5.82 5.51907C6.1 5.27398 6.18 4.9326 6.07 4.62623C5.7 3.64586 5.5 2.59547 5.5 1.50131C5.5 1.01987 5.05 0.625977 4.5 0.625977Z" fill="#FF2C2C"/>
</svg>
