<svg width="48" height="48" viewBox="0 0 48 48" fill="none" xmlns="http://www.w3.org/2000/svg">
<circle cx="24" cy="24" r="24" fill="white"/>
<path d="M33.6016 14.2731C32.3442 13.004 30.8467 11.9979 29.1964 11.3133C27.5462 10.6287 25.7762 10.2794 23.9897 10.2857C16.5034 10.2857 10.4023 16.3851 10.3954 23.8731C10.3954 26.2714 11.0228 28.6045 12.2074 30.6702L10.2857 37.7142L17.4925 35.8251C19.4863 36.9101 21.7198 37.4788 23.9897 37.4794H23.9965C31.4845 37.4794 37.5839 31.3799 37.5908 23.8851C37.5925 22.0989 37.2407 20.33 36.5558 18.6804C35.8709 17.0307 34.8663 15.5329 33.5999 14.2731H33.6016ZM23.9897 35.1788C21.9651 35.1795 19.9777 34.6347 18.2365 33.6017L17.8251 33.3548L13.5497 34.4759L14.6914 30.3051L14.424 29.8748C13.2922 28.0754 12.6937 25.992 12.6977 23.8663C12.6977 17.6503 17.7668 12.5794 23.9965 12.5794C25.4806 12.5768 26.9506 12.8679 28.3217 13.436C29.6928 14.0042 30.9378 14.8381 31.9851 15.8897C33.036 16.9372 33.8691 18.1824 34.4364 19.5535C35.0036 20.9246 35.2938 22.3945 35.2902 23.8783C35.2833 30.1165 30.2142 35.1788 23.9897 35.1788ZM30.1868 26.7205C29.8491 26.5508 28.1811 25.7297 27.8674 25.6131C27.5554 25.5017 27.3274 25.4434 27.1045 25.7828C26.8765 26.1205 26.2251 26.8902 26.0297 27.1114C25.8342 27.3394 25.6319 27.3651 25.2925 27.1971C24.9548 27.0257 23.8594 26.6691 22.5634 25.5085C21.552 24.6085 20.8748 23.4943 20.6725 23.1565C20.4771 22.8171 20.6537 22.6354 20.8234 22.4657C20.9725 22.3148 21.1611 22.068 21.3308 21.8725C21.5022 21.6771 21.5588 21.5331 21.6702 21.3068C21.7817 21.0771 21.7285 20.8817 21.6445 20.712C21.5588 20.5423 20.8817 18.8674 20.5954 18.192C20.3211 17.5251 20.0417 17.6177 19.8325 17.6091C19.6371 17.5971 19.4091 17.5971 19.1811 17.5971C19.0089 17.6014 18.8395 17.6412 18.6834 17.7141C18.5274 17.787 18.3881 17.8913 18.2743 18.0206C17.9623 18.36 17.0897 19.1811 17.0897 20.856C17.0897 22.5308 18.3068 24.1405 18.4783 24.3685C18.6462 24.5965 20.868 28.0234 24.2777 29.4977C25.0834 29.8491 25.7177 30.0565 26.2131 30.2142C27.0274 30.4748 27.7628 30.4354 28.3491 30.3514C29.0005 30.252 30.3565 29.5285 30.6428 28.7348C30.9239 27.9394 30.9239 27.2605 30.8382 27.1182C30.7542 26.9742 30.5262 26.8902 30.1868 26.7205Z" fill="#FF2C2C"/>
</svg>
