<svg width="71" height="251" viewBox="0 0 71 251" fill="none" xmlns="http://www.w3.org/2000/svg">
<path d="M33.3453 71.9995C24.3182 73.4889 18.2077 82.0142 19.6971 91.0413C21.1865 100.068 29.7119 106.179 38.739 104.69C47.7661 103.2 53.8766 94.6748 52.3871 85.6476C50.8977 76.6205 42.3724 70.51 33.3453 71.9995Z" stroke="#5DACDA" stroke-width="3" stroke-miterlimit="22.9256"/>
<path d="M48.79 3.37317C39.9378 4.83373 33.9457 13.1939 35.4063 22.046C36.8668 30.8982 45.227 36.8903 54.0791 35.4297C62.9313 33.9692 68.9234 25.609 67.4628 16.7569C66.0023 7.9047 57.6422 1.91261 48.79 3.37317Z" stroke="#F3EE93" stroke-width="3" stroke-miterlimit="22.9256"/>
<path d="M16.678 217.422C8.57132 218.759 3.08385 226.416 4.42141 234.522C5.75897 242.629 13.415 248.116 21.5217 246.779C29.6284 245.441 35.1159 237.785 33.7783 229.678C32.4408 221.572 24.7847 216.084 16.678 217.422Z" stroke="#F3EE93" stroke-width="3" stroke-miterlimit="22.9256"/>
</svg>
