<svg width="250" height="74" viewBox="0 0 250 74" fill="none" xmlns="http://www.w3.org/2000/svg">
<path d="M111.594 39.2985L111.582 39.1869L111.547 39.0805C111.162 37.9257 110.983 37.0095 110.983 35.9116C110.983 33.5379 111.792 24.7808 113.729 16.6243C114.698 12.5447 115.932 8.69049 117.449 5.87923C119.01 2.98633 120.65 1.58914 122.286 1.58914C123.373 1.58914 124.451 2.16201 125.532 3.3916C126.616 4.62441 127.611 6.41993 128.503 8.60551C130.283 12.9688 131.553 18.6341 132.37 23.7425L132.552 24.8815L133.663 24.5695C158.413 17.6149 195.307 14.9482 203.879 14.9482C220.638 14.9482 233.96 24.8171 235.124 37.0366L235.212 37.9668H236.147H236.149H236.151H236.154H236.156H236.159H236.161H236.163H236.166H236.168H236.171H236.173H236.175H236.178H236.18H236.183H236.185H236.187H236.19H236.192H236.195H236.197H236.199H236.202H236.204H236.207H236.209H236.212H236.214H236.216H236.219H236.221H236.224H236.226H236.228H236.231H236.233H236.236H236.238H236.24H236.243H236.245H236.248H236.25H236.252H236.255H236.257H236.26H236.262H236.265H236.267H236.269H236.272H236.274H236.277H236.279H236.281H236.284H236.286H236.289H236.291H236.293H236.296H236.298H236.301H236.303H236.305H236.308H236.31H236.313H236.315H236.318H236.32H236.322H236.325H236.327H236.33H236.332H236.334H236.337H236.339H236.342H236.344H236.346H236.349H236.351H236.354H236.356H236.358H236.361H236.363H236.366H236.368H236.37H236.373H236.375H236.378H236.38H236.383H236.385H236.387H236.39H236.392H236.395H236.397H236.399H236.402H236.404H236.407H236.409H236.411H236.414H236.416H236.419H236.421H236.423H236.426H236.428H236.431H236.433H236.436H236.438H236.44H236.443H236.445H236.448H236.45H236.452H236.455H236.457H236.46H236.462H236.464H236.467H236.469H236.472H236.474H236.476H236.479H236.481H236.484H236.486H236.489H236.491H236.493H236.496H236.498H236.501H236.503H236.505H236.508H236.51H236.513H236.515H236.517H236.52H236.522H236.525H236.527H236.529H236.532H236.534H236.537H236.539H236.541H236.544H236.546H236.549H236.551H236.554H236.556H236.558H236.561H236.563H236.566H236.568H236.57H236.573H236.575H236.578H236.58H236.582H236.585H236.587H236.59H236.592H236.594H236.597H236.599H236.602H236.604H236.607H236.609H236.611H236.614H236.616H236.619H236.621H236.623H236.626H236.628H236.631H236.633H236.635H236.638H236.64H236.643H236.645H236.647H236.65H236.652H236.655H236.657H236.66H236.662H236.664H236.667H236.669H236.672H236.674H236.676H236.679H236.681H236.684H236.686H236.688H236.691H236.693H236.696H236.698H236.7H236.703H236.705H236.708H236.71H236.712H236.715H236.717H236.72H236.722H236.725H236.727H236.729H236.732H236.734H236.737H236.739H236.741H236.744H236.746H236.749H236.751H236.753H236.756H236.758H236.761H236.763H236.765H236.768H236.77H236.773H236.775H236.778H236.78H236.782H236.785H236.787H236.79H236.792H236.794H236.797H236.799H236.802H236.804H236.806H236.809H236.811H236.814H236.816H236.818H236.821H236.823H236.826H236.828H236.831H236.833H236.835H236.838H236.84H236.843H236.845H236.847H236.85H236.852H236.855H236.857H236.859H236.862H236.864H236.867H236.869H236.871H236.874H236.876H236.879H236.881H236.883H236.886H236.888H236.891H236.893H236.896H236.898H236.9H236.903H236.905H236.908H236.91H236.912H236.915H236.917H236.92H236.922H236.924H236.927H236.929H236.932H236.934H236.936H236.939H236.941H236.944H236.946H236.949H236.951H236.953H236.956H236.958H236.961H236.963H236.965H236.968H236.97H236.973H236.975H236.977H236.98H236.982H236.985H236.987H236.989H236.992H236.994H236.997H236.999H237.002H237.004H237.006H237.009H237.011H237.014H237.016H237.018H237.021H237.023H237.026H237.028H237.03H237.033H237.035H237.038H237.04H237.042H237.045H237.047H237.05H237.052H237.054H237.057H237.059H237.062H237.064H237.067H237.069H237.071H237.074H237.076H237.079H237.081H237.083H237.086H237.088H237.091H237.093H237.095H237.098H237.1H237.103H237.105H237.107H237.11H237.112H237.115H237.117H237.12H237.122H237.124H237.127H237.129H237.132H237.134H237.136H237.139H237.141H237.144H237.146H237.148H237.151H237.153H237.156H237.158H237.16H237.163H237.165H237.168H237.17H237.173H237.175H237.177H237.18H237.182H237.185H237.187H237.189H237.192H237.194H237.197H237.199H237.201H237.204H237.206H237.209H237.211H237.213H237.216H237.218H237.221H237.223H237.225H237.228H237.23H237.233H237.235H237.238H237.24H237.242H237.245H237.247H237.25H237.252H237.254H237.257H237.259H237.262H237.264H237.266H237.269H237.271H237.274H237.276H237.278H237.281H237.283H237.286H237.288H237.291H237.293H237.295H237.298H237.3H237.303H237.305H237.307H237.31H237.312H237.315H237.317H237.319H237.322H237.324H237.327H237.329H237.331H237.334H237.336H237.339H237.341H237.344H237.346H237.348H237.351H237.353H237.356H237.358H237.36H237.363H237.365H237.368H237.37H237.372H237.375H237.377H237.38C243.389 37.9668 248.272 42.8503 248.272 48.8595C248.272 54.7171 243.337 58.5778 237.192 59.7696C222.269 62.4268 216.78 62.6295 203.887 62.6296C197.459 62.5265 174.66 60.8877 153.244 57.0707C142.527 55.1607 132.215 52.715 124.488 49.6666C120.621 48.1412 117.457 46.4858 115.22 44.7091C112.976 42.926 111.784 41.1182 111.594 39.2985Z" fill="white" stroke="#5DACDA" stroke-width="2.05523"/>
<path d="M142.301 52.6736C149.757 44.7836 158.394 37.4241 160.323 35.8998C165.204 32.1499 172.176 33.0675 176.156 37.9957C180.106 42.8865 179.167 50.0471 174.466 53.8096C172.59 55.2896 162.906 61.3629 152.973 66.2014C148.009 68.6194 143.047 70.6969 139.01 71.7404C136.988 72.2633 135.26 72.5098 133.91 72.4393C132.559 72.3688 131.755 71.9937 131.321 71.4554C130.882 70.862 130.729 69.9905 131.011 68.7188C131.296 67.4368 131.996 65.8926 133.055 64.1487C135.169 60.6686 138.565 56.6272 142.301 52.6736Z" fill="white" stroke="#5DACDA" stroke-width="2.05523"/>
<path d="M147.977 43.3104C150.134 43.3104 151.882 41.5621 151.882 39.4054C151.882 37.2488 150.134 35.5005 147.977 35.5005C145.821 35.5005 144.072 37.2488 144.072 39.4054C144.072 41.5621 145.821 43.3104 147.977 43.3104Z" fill="#5DACDA"/>
<path d="M134.207 43.3104C136.363 43.3104 138.112 41.5621 138.112 39.4054C138.112 37.2488 136.363 35.5005 134.207 35.5005C132.05 35.5005 130.302 37.2488 130.302 39.4054C130.302 41.5621 132.05 43.3104 134.207 43.3104Z" fill="#5DACDA"/>
<path fill-rule="evenodd" clip-rule="evenodd" d="M0.411047 21.1138C8.42646 21.1138 18.2916 27.896 26.307 27.896C34.7335 27.896 41.1047 21.1138 49.5312 21.1138C57.3411 21.1138 65.1509 26.0463 72.9608 26.0463C80.9763 26.0463 88.9917 21.1138 97.2126 21.1138L96.596 43.5158C88.5806 43.5158 80.5652 48.4484 72.5498 48.4484C64.7399 48.4484 56.7245 43.5158 48.9146 43.5158C40.6936 43.5158 34.1169 50.2981 25.896 50.2981C17.8805 50.2981 8.01542 43.5158 0 43.5158L6.57675 31.5955L0.411047 21.1138Z" fill="#EC6277"/>
<path fill-rule="evenodd" clip-rule="evenodd" d="M22.1964 40.6386C22.1964 41.0496 21.9909 41.4607 21.5799 41.6662C21.1688 41.8717 20.7578 42.0772 20.1412 42.0772C19.5246 42.0772 19.1136 41.8717 18.7025 41.6662C18.2915 41.4607 17.8804 41.2551 17.6749 41.0496C17.4694 40.8441 17.4694 40.8441 17.2639 40.6386L15.8252 42.0772L16.0307 42.2828C16.2362 42.4883 16.2362 42.4883 16.6473 42.6938C16.8528 42.8993 17.2639 43.1049 17.4694 43.3104C17.8804 43.5159 18.2915 43.7214 18.7025 43.7214C19.3191 43.927 19.7301 43.927 20.3467 43.927C21.7854 43.927 22.813 43.5159 23.6351 42.8993C24.4572 42.2828 24.8682 41.2551 24.8682 40.2275C24.8682 39.4054 24.6627 38.7889 24.2517 38.3778C23.8406 37.9668 23.4296 37.5557 22.813 37.3502C22.1964 37.1447 21.5799 36.9392 21.1688 36.7336C20.5522 36.5281 20.1412 36.3226 19.7301 36.1171C19.3191 35.9115 19.1136 35.5005 19.1136 35.0894C19.1136 34.6784 19.3191 34.4729 19.5246 34.2673C19.7301 34.0618 20.1412 33.8563 20.7578 33.8563C21.1688 33.8563 21.5799 33.8563 21.9909 34.0618C22.4019 34.2673 22.6075 34.4729 22.813 34.4729C23.0185 34.6784 23.0185 34.6784 23.0185 34.6784L24.4572 33.0342L24.2517 33.4453C24.2517 33.2397 24.0461 33.2397 23.8406 33.0342C23.6351 32.8287 23.4296 32.6232 23.0185 32.6232C22.813 32.4176 22.4019 32.4176 21.9909 32.2121C21.5799 32.0066 21.1688 32.0066 20.5522 32.0066C19.3191 32.0066 18.2915 32.4176 17.4694 33.0342C16.8528 33.6508 16.4418 34.4729 16.4418 35.5005C16.4418 36.3226 16.6473 36.9392 17.0583 37.3502C17.4694 37.7612 17.8804 38.1723 18.497 38.3778C19.1136 38.5833 19.7301 38.7889 20.1412 38.9944C20.7578 39.1999 21.1688 39.4054 21.5799 39.611C21.9909 39.8165 22.1964 40.2275 22.1964 40.6386Z" fill="#F0D8E4"/>
<path fill-rule="evenodd" clip-rule="evenodd" d="M36.9943 34.0619L32.8838 28.9238H30.623V40.8442H33.0893V33.0343L36.9943 37.7613L40.6937 33.0343V40.8442H43.16V28.9238H41.1047L36.9943 34.0619Z" fill="#F0D8E4"/>
<path d="M52.4087 25.6353H49.9424V37.5556H52.4087V25.6353Z" fill="#F0D8E4"/>
<path fill-rule="evenodd" clip-rule="evenodd" d="M66.7952 40.8442V38.5834H61.2461V28.9238H58.7798V40.8442H66.7952Z" fill="#F0D8E4"/>
<path fill-rule="evenodd" clip-rule="evenodd" d="M74.605 41.6662V38.9944H79.5375V36.7336H74.605V34.2673H80.7707V32.0066H72.1387V43.927H80.9762V41.6662H74.605Z" fill="#F0D8E4"/>
<path fill-rule="evenodd" clip-rule="evenodd" d="M127.425 23.169H90.5914C90.5914 23.169 85.8801 18.5447 127.425 23.169Z" fill="#EC6277"/>
<path d="M202.441 40.2275C204.143 40.2275 205.524 38.8472 205.524 37.1446C205.524 35.442 204.143 34.0618 202.441 34.0618C200.738 34.0618 199.358 35.442 199.358 37.1446C199.358 38.8472 200.738 40.2275 202.441 40.2275Z" fill="#5DACDA"/>
<path d="M200.424 46.1223C200.424 46.1223 203.382 52.0381 211.517 52.0383C219.652 52.0384 222.61 46.122 222.61 46.122" stroke="#5DACDA" stroke-width="2.05523"/>
<path fill-rule="evenodd" clip-rule="evenodd" d="M219.294 34.2671C220.938 34.2671 222.171 35.5002 222.171 37.1444C222.171 38.7886 220.938 40.2273 219.294 40.2273C217.649 40.2273 216.211 38.9941 216.211 37.1444C216.211 35.2947 217.649 34.2671 219.294 34.2671Z" fill="#5DACDA"/>
</svg>
