<svg width="100" height="93" viewBox="0 0 100 93" fill="none" xmlns="http://www.w3.org/2000/svg">
<path fill-rule="evenodd" clip-rule="evenodd" d="M35.0473 88.0052C38.8151 89.0341 42.7809 89.5833 46.875 89.5833C71.6128 89.5833 91.6667 69.5294 91.6667 44.7917C91.6667 39.1787 90.6342 33.8069 88.7489 28.8558C92.5414 26.0472 95 21.5399 95 16.4583C95 7.94394 88.0977 1.04166 79.5833 1.04166C75.2933 1.04166 71.4126 2.79395 68.6178 5.62183C62.1792 2.04019 54.7654 0 46.875 0C22.1372 0 2.08333 20.0539 2.08333 44.7917C2.08333 49.682 2.86706 54.3894 4.31576 58.7949C1.76889 59.9631 0 62.5354 0 65.5208C0 69.6054 3.31123 72.9167 7.39583 72.9167C8.09017 72.9167 8.76216 72.821 9.39933 72.6421C8.97696 74.0485 8.75 75.5394 8.75 77.0833C8.75 85.5977 15.6523 92.5 24.1667 92.5C28.4134 92.5 32.259 90.7829 35.0473 88.0052Z" fill="#5DACDA"/>
<mask id="path-2-inside-1" fill="white">
<path fill-rule="evenodd" clip-rule="evenodd" d="M40.0473 88.0052C37.259 90.7829 33.4134 92.5 29.1667 92.5C20.6523 92.5 13.75 85.5977 13.75 77.0833C13.75 75.5394 13.977 74.0485 14.3993 72.6421C13.7622 72.821 13.0902 72.9167 12.3958 72.9167C8.31123 72.9167 5 69.6054 5 65.5208C5 62.5354 6.76889 59.9631 9.31576 58.7949C7.86706 54.3894 7.08333 49.682 7.08333 44.7917C7.08333 20.0539 27.1372 0 51.875 0C59.7654 0 67.1792 2.04019 73.6178 5.62183C76.4126 2.79395 80.2933 1.04166 84.5833 1.04166C93.0977 1.04166 100 7.94394 100 16.4583C100 21.5399 97.5414 26.0473 93.7489 28.8558C95.6342 33.8069 96.6667 39.1787 96.6667 44.7917C96.6667 69.5294 76.6128 89.5833 51.875 89.5833C47.7809 89.5833 43.8151 89.0341 40.0473 88.0052Z"/>
</mask>
<path d="M40.0473 88.0052L40.3107 87.0405L39.7519 86.8879L39.3415 87.2967L40.0473 88.0052ZM14.3993 72.6421L15.3571 72.9297L15.8803 71.1876L14.129 71.6793L14.3993 72.6421ZM9.31576 58.7949L9.73268 59.7038L10.5448 59.3313L10.2657 58.4825L9.31576 58.7949ZM73.6178 5.62183L73.1316 6.49571L73.7952 6.86486L74.329 6.32476L73.6178 5.62183ZM93.7489 28.8558L93.1538 28.0521L92.5446 28.5032L92.8144 29.2116L93.7489 28.8558ZM39.3415 87.2967C36.733 89.8954 33.1382 91.5 29.1667 91.5V93.5C33.6886 93.5 37.785 91.6705 40.753 88.7136L39.3415 87.2967ZM29.1667 91.5C21.2046 91.5 14.75 85.0454 14.75 77.0833H12.75C12.75 86.15 20.1 93.5 29.1667 93.5V91.5ZM14.75 77.0833C14.75 75.6379 14.9624 74.2438 15.3571 72.9297L13.4416 72.3545C12.9915 73.8531 12.75 75.4409 12.75 77.0833H14.75ZM14.129 71.6793C13.579 71.8337 12.9979 71.9167 12.3958 71.9167V73.9167C13.1824 73.9167 13.9453 73.8082 14.6696 73.6049L14.129 71.6793ZM12.3958 71.9167C8.86351 71.9167 6 69.0532 6 65.5208H4C4 70.1577 7.75894 73.9167 12.3958 73.9167V71.9167ZM6 65.5208C6 62.9406 7.52795 60.7151 9.73268 59.7038L8.89883 57.886C6.00983 59.2111 4 62.1302 4 65.5208H6ZM10.2657 58.4825C8.84975 54.1765 8.08333 49.5746 8.08333 44.7917H6.08333C6.08333 49.7895 6.88436 54.6022 8.3658 59.1073L10.2657 58.4825ZM8.08333 44.7917C8.08333 20.6062 27.6895 1 51.875 1V-1C26.585 -1 6.08333 19.5016 6.08333 44.7917H8.08333ZM51.875 1C59.5909 1 66.8379 2.99466 73.1316 6.49571L74.1039 4.74794C67.5205 1.08572 59.9398 -1 51.875 -1V1ZM74.329 6.32476C76.9437 3.67916 80.5713 2.04166 84.5833 2.04166V0.0416641C80.0153 0.0416641 75.8815 1.90873 72.9065 4.91889L74.329 6.32476ZM84.5833 2.04166C92.5454 2.04166 99 8.49622 99 16.4583H101C101 7.39165 93.65 0.0416641 84.5833 0.0416641V2.04166ZM99 16.4583C99 21.2096 96.7026 25.4241 93.1538 28.0521L94.344 29.6594C98.3803 26.6704 101 21.8702 101 16.4583H99ZM92.8144 29.2116C94.6571 34.0509 95.6667 39.3022 95.6667 44.7917H97.6667C97.6667 39.0552 96.6114 33.5629 94.6835 28.4999L92.8144 29.2116ZM95.6667 44.7917C95.6667 68.9771 76.0605 88.5833 51.875 88.5833V90.5833C77.165 90.5833 97.6667 70.0817 97.6667 44.7917H95.6667ZM51.875 88.5833C47.8707 88.5833 43.9935 88.0461 40.3107 87.0405L39.7838 88.9698C43.6367 90.022 47.6911 90.5833 51.875 90.5833V88.5833Z" fill="#EC6277" mask="url(#path-2-inside-1)"/>
</svg>
