<svg width="56" height="126" viewBox="0 0 56 126" fill="none" xmlns="http://www.w3.org/2000/svg">
<path d="M37.6127 54.5557C46.6398 53.0663 52.7503 44.541 51.2609 35.5139C49.7715 26.4867 41.2462 20.3762 32.219 21.8657C23.1919 23.3551 17.0814 31.8804 18.5709 40.9075C20.0603 49.9346 28.5856 56.0451 37.6127 54.5557Z" stroke="#5DACDA" stroke-width="3" stroke-miterlimit="22.9256"/>
<path d="M22.1675 123.182C31.0197 121.721 37.0118 113.361 35.5512 104.509C34.0907 95.657 25.7305 89.6649 16.8784 91.1254C8.0262 92.586 2.03412 100.946 3.49467 109.798C4.95523 118.65 13.3154 124.643 22.1675 123.182Z" stroke="#EC6277" stroke-width="3" stroke-miterlimit="22.9256"/>
<path d="M38.6345 33.9478C46.7412 32.6102 52.2286 24.9541 50.8911 16.8474C49.5535 8.74074 41.8975 3.25327 33.7908 4.59083C25.6841 5.92839 20.1966 13.5845 21.5342 21.6912C22.8717 29.7978 30.5278 35.2853 38.6345 33.9478Z" stroke="#F3EE93" stroke-width="3" stroke-miterlimit="22.9256"/>
</svg>
