<svg width="198" height="166" viewBox="0 0 198 166" fill="none" xmlns="http://www.w3.org/2000/svg">
<path d="M177.826 119.124L177.794 119.123H177.763H177.744H177.723H177.699H177.672H177.642H177.608H177.572H177.533H177.492H177.447H177.399H177.349H177.295H177.239H177.18H177.118H177.053H176.986H176.915H176.842H176.766H176.688H176.606H176.522H176.435H176.346H176.253H176.158H176.061H175.96H175.857H175.752H175.643H175.533H175.419H175.303H175.184H175.063H174.939H174.813H174.684H174.553H174.419H174.282H174.144H174.002H173.858H173.712H173.563H173.412H173.258H173.102H172.944H172.783H172.62H172.455H172.287H172.117H171.944H171.769H171.592H171.413H171.231H171.047H170.861H170.672H170.482H170.289H170.094H169.896H169.697H169.495H169.291H169.085H168.877H168.667H168.455H168.24H168.024H167.805H167.584H167.361H167.137H166.91H166.681H166.45H166.217H165.983H165.746H165.507H165.266H165.024H164.779H164.533H164.284H164.034H163.782H163.528H163.272H163.014H162.755H162.493H162.23H161.965H161.698H161.43H161.16H160.888H160.614H160.338H160.061H159.782H159.502H159.219H158.935H158.65H158.363H158.074H157.783H157.491H157.197H156.902H156.605H156.307H156.007H155.705H155.402H155.098H154.792H154.484H154.175H153.865H153.553H153.24H152.925H152.609H152.291H151.972H151.652H151.33H151.007H150.682H150.356H150.029H149.701H149.371H149.04H148.708H148.374H148.039H147.703H147.366H147.027H146.688H146.347H146.004H145.661H145.317H144.971H144.624H144.276H143.928H143.577H143.226H142.874H142.521H142.166H141.811H141.454H141.097H140.739H140.379H140.019H139.657H139.295H138.931H138.567H138.202H137.836H137.469H137.101H136.732H136.363H135.992H135.621H135.249H134.876H134.502H134.127H133.752H133.376H132.999H132.621H132.243H131.864H131.484H131.103H130.722H130.34H129.957H129.574H129.19H128.806H128.421H128.035H127.649H127.262H126.874H126.486H126.098H125.709H125.319H124.929H124.538H124.147H123.755H123.363H122.971H122.578H122.184H121.79H121.396H121.001H120.606H120.211H119.815H119.419H119.023H118.626H118.229H117.831H117.434H117.036H116.638H116.239H115.84H115.441H115.042H114.643H114.243H113.843H113.443H113.043H112.643H112.243H111.842H111.442H111.041H110.64H110.239H109.838H109.437H109.036H108.635H108.234H107.833H107.432H107.031H106.63H106.229H105.828H105.427H105.026H104.625H104.224H103.824H103.423H103.023H102.623H102.223H101.823H101.424H101.024H100.625H100.226H99.827H99.4285H99.0302H98.6321H98.2343H97.8369H97.4397H97.0428H96.6462H96.25H95.8541H95.4586H95.0635H94.6687H94.2743H93.8803H93.4868H93.0937H92.701H92.3087H91.917H91.5257H91.1348H90.7445H90.3547H89.9654H89.5767H89.1885H88.8008H88.4137H88.0272H87.6413H87.256H86.8713H86.4872H86.1038H85.721H85.3389H84.9575H84.5768H84.1967H83.8174H83.4387H83.0609H82.6837H82.3073H81.9317H81.5569H81.1828H80.8096H80.4372H80.0656H79.6948H79.3249H78.9559H78.5877H78.2204H77.854H77.4886H77.124H76.7604H76.3977H76.036H75.6752H75.3155H74.9567H74.5989H74.2422H73.8864H73.5317H73.1781H72.8255H72.474H72.1236H71.7743H71.4261H71.079H70.733H70.3882H70.0446H69.7021H69.3608H69.0207H68.6818H68.3441H68.0076H67.6724H67.3384H67.0057H66.6743H66.3441H66.0153H65.6877H65.3615H65.0366H64.7131H64.3909H64.07H63.7506H63.4326H63.1159H62.8007H62.4869H62.1745H61.8636H61.5542H61.2462H60.9397H60.6347H60.3312H60.0293H59.7289H59.43H59.1327H58.8369H58.5427H58.2502H57.9592H57.6698H57.3821H57.096H56.8115H56.5287H56.2476H55.9682H55.6905H55.4145H55.1402H54.8676H54.5968H54.3277H54.0605H53.7949H53.5312H53.2693H53.0092H52.7509H52.4945H52.2399H51.9872H51.7364H51.4874H51.2403H50.9952H50.752H50.5107H50.2713H50.0339H49.7985H49.565H49.3336H49.1041H48.8767H48.6513H48.4279H48.2066H47.9873H47.7701H47.555H47.342H47.1312H46.9224H46.7158H46.5113H46.3089H46.1088H45.9108H45.715H45.5214H45.33H45.1409H44.954H44.7693H44.5869H44.4068H44.229H44.0534H43.8802H43.7093H43.5407H43.3745H43.2106H43.0491H42.89H42.7332H42.5789H42.427H42.2775H42.1305H41.9859H41.8437H41.7041H41.5669H41.4322H41.3001H41.1704H41.0433H40.9187H40.7967H40.6773H40.5604H40.4461H40.3345H40.2254H40.119H40.0152H39.9141H39.8156H39.7198H39.6267H39.5363H39.4486H39.3636H39.2813H39.2018H39.1251H39.0511H38.9799H38.9115H38.8459H38.7831H38.7231H38.666H38.6117H38.5603H38.5117H38.4661H38.4233H38.3835H38.3466H38.3126H38.2815H38.2534H38.2283H38.2062H38.197C24.9642 118.775 15.447 113.23 9.50633 105.262C3.52628 97.2415 1.07111 86.6244 2.31387 76.061C3.55537 65.5082 8.47611 55.1216 17.0972 47.5715C25.695 40.0418 38.093 35.2288 54.4983 36.01L56.0028 36.0816L56.4872 34.6554C62.7052 16.3469 77.8107 3.10903 95.7628 2.09287L95.774 2.09224L95.7851 2.09149C115.762 0.737131 133.635 14.6244 141.258 35.068L141.847 36.6452L143.501 36.335C165.357 32.237 183.26 46.206 183.26 65.0723V67.0723H185.26C190.953 67.0723 196.964 70.3492 201.439 75.3725C205.909 80.391 208.542 86.8139 207.905 92.7043L207.888 92.8669L207.897 93.0302C208.548 104.745 199.111 119.8 177.826 119.124Z" fill="white" stroke="#5DACDA" stroke-width="4"/>
<path fill-rule="evenodd" clip-rule="evenodd" d="M69.231 56.1475C71.7301 56.1475 73.5151 58.2895 73.5151 60.7886C73.5151 63.2877 71.3731 65.4298 69.231 65.4298C66.7319 65.4298 64.5898 63.2877 64.5898 60.7886C64.5898 58.2895 66.7319 56.1475 69.231 56.1475Z" fill="#5DACDA"/>
<path d="M94.5784 65.4298C97.1417 65.4298 99.2196 63.3519 99.2196 60.7886C99.2196 58.2254 97.1417 56.1475 94.5784 56.1475C92.0152 56.1475 89.9373 58.2254 89.9373 60.7886C89.9373 63.3519 92.0152 65.4298 94.5784 65.4298Z" fill="#5DACDA"/>
<path d="M43.3235 89.0488L74.4313 143.201" stroke="#595FA7" stroke-width="4"/>
<path d="M55.3074 75.0686C55.3074 75.0686 62.448 89.348 82.0835 89.3484C101.719 89.3488 108.859 75.0679 108.859 75.0679" stroke="#5DACDA" stroke-width="4"/>
<path fill-rule="evenodd" clip-rule="evenodd" d="M43.5257 90.0635L14.2507 106.843L31.7443 108.271L24.2471 123.623L53.1651 106.843L43.5257 90.0635Z" fill="#EC6277"/>
<path fill-rule="evenodd" clip-rule="evenodd" d="M88.1968 140.97C96.6538 136.233 100.53 129.465 101.235 122.02C101.939 115.253 100.177 108.146 97.0061 101.04L107.93 96.6412L117.444 92.9189C118.501 95.626 119.558 98.6715 120.263 101.379C124.491 119.99 116.739 140.632 91.7205 150.106C93.13 153.152 93.8348 156.874 89.6063 158.566L75.5114 163.98C72.6924 164.996 69.8734 163.642 68.8163 161.273L64.5878 151.122C63.5307 148.753 64.9402 145.707 67.4068 144.692C74.4542 142.324 85.7302 135.894 88.1968 140.97Z" fill="white"/>
<mask id="path-8-inside-1" fill="white">
<path fill-rule="evenodd" clip-rule="evenodd" d="M120.284 98.6313C124.568 118.267 116.714 140.045 91.3658 150.041C92.7939 153.254 93.5079 157.181 89.2238 158.966L74.9433 164.679C72.0872 165.75 69.2311 164.322 68.16 161.822L63.8759 151.112C62.8049 148.613 64.2329 145.4 66.732 144.329C73.5152 141.473 84.9396 135.047 87.0817 140.402C95.65 135.404 99.9338 125.05 99.9338 117.91"/>
</mask>
<path fill-rule="evenodd" clip-rule="evenodd" d="M120.284 98.6313C124.568 118.267 116.714 140.045 91.3658 150.041C92.7939 153.254 93.5079 157.181 89.2238 158.966L74.9433 164.679C72.0872 165.75 69.2311 164.322 68.16 161.822L63.8759 151.112C62.8049 148.613 64.2329 145.4 66.732 144.329C73.5152 141.473 84.9396 135.047 87.0817 140.402C95.65 135.404 99.9338 125.05 99.9338 117.91" fill="white"/>
<path d="M91.3658 150.041L89.8984 146.32L86.0153 147.851L87.7106 151.666L91.3658 150.041ZM89.2238 158.966L90.7093 162.68L90.7359 162.67L90.7622 162.659L89.2238 158.966ZM74.9433 164.679L76.3478 168.424L76.3885 168.409L76.4288 168.392L74.9433 164.679ZM68.16 161.822L64.4461 163.308L64.4643 163.353L64.4835 163.398L68.16 161.822ZM63.8759 151.112L67.5898 149.627L67.5717 149.581L67.5525 149.536L63.8759 151.112ZM66.732 144.329L65.1798 140.642L65.168 140.647L65.1563 140.652L66.732 144.329ZM87.0817 140.402L83.3678 141.887L85.0905 146.194L89.0972 143.857L87.0817 140.402ZM116.376 99.484C118.346 108.514 117.501 117.918 113.363 126.155C109.245 134.35 101.738 141.651 89.8984 146.32L92.8333 153.762C106.341 148.435 115.435 139.849 120.511 129.747C125.566 119.687 126.506 108.384 124.192 97.7787L116.376 99.484ZM87.7106 151.666C88.3388 153.079 88.5205 154.065 88.4613 154.598C88.4408 154.783 88.401 154.825 88.3922 154.837C88.3778 154.856 88.2308 155.047 87.6853 155.274L90.7622 162.659C92.3588 161.993 93.7291 161.024 94.7411 159.704C95.7588 158.377 96.2545 156.903 96.4124 155.481C96.7103 152.8 95.8209 150.216 95.0211 148.417L87.7106 151.666ZM87.7382 155.252L73.4577 160.965L76.4288 168.392L90.7093 162.68L87.7382 155.252ZM73.5388 160.933C73.1081 161.095 72.7676 161.05 72.5068 160.934C72.2201 160.807 71.9733 160.566 71.8366 160.247L64.4835 163.398C66.3536 167.762 71.3899 170.283 76.3478 168.424L73.5388 160.933ZM71.874 160.337L67.5898 149.627L60.162 152.598L64.4461 163.308L71.874 160.337ZM67.5525 149.536C67.5214 149.464 67.4583 149.189 67.6417 148.761C67.8268 148.329 68.1214 148.085 68.3077 148.005L65.1563 140.652C60.7978 142.52 58.1865 147.991 60.1993 152.688L67.5525 149.536ZM68.2842 148.015C72.1255 146.398 76.0974 144.324 79.8865 143.089C81.7465 142.483 82.9835 142.295 83.6662 142.344C83.9584 142.365 83.9251 142.417 83.7525 142.309C83.5265 142.168 83.3999 141.968 83.3678 141.887L90.7956 138.916C90.228 137.497 89.2758 136.326 87.9885 135.523C86.7547 134.752 85.4243 134.45 84.2383 134.365C81.9645 134.202 79.5198 134.795 77.408 135.483C73.2537 136.837 68.1218 139.404 65.1798 140.642L68.2842 148.015ZM89.0972 143.857C99.1018 138.021 103.934 126.215 103.934 117.91H95.9338C95.9338 123.885 92.1981 132.786 85.0662 136.947L89.0972 143.857Z" fill="#5DACDA" mask="url(#path-8-inside-1)"/>
</svg>
