<svg width="49" height="50" viewBox="0 0 49 50" fill="none" xmlns="http://www.w3.org/2000/svg">
<path d="M23.7824 21.8187C23.774 24.022 22.9329 26.2648 21.6992 28.123C21.1033 29.0206 20.3327 29.8871 19.4868 30.5084C19.0918 30.7985 18.5825 31.0958 18.1858 31.2578C17.7261 31.4456 17.2111 31.5715 16.7881 31.6067C15.7827 31.6905 14.8618 31.4221 13.9965 30.9289C13.0539 30.3914 12.2701 29.6163 11.5887 28.7526C10.223 27.0214 9.28248 24.7228 9.08906 22.5752C8.88402 20.2987 9.69155 18.0797 11.3349 16.4921C12.9695 14.913 15.3399 14.1822 17.5774 14.543C19.3168 14.8235 20.8702 15.716 22.0229 17.0397C23.1658 18.3521 23.7745 20.0834 23.7824 21.8187C23.7857 22.5302 24.8892 22.5305 24.8859 21.8187C24.8748 19.3833 23.8178 17.0361 21.9784 15.4345C20.0862 13.787 17.58 13.1042 15.1092 13.4566C12.7267 13.7964 10.5941 15.25 9.28894 17.2514C7.95863 19.2914 7.70815 21.7533 8.21916 24.0951C8.72397 26.4086 9.89222 28.6554 11.5322 30.3662C13.0832 31.9841 15.2088 33.0362 17.4801 32.6174C19.733 32.202 21.522 30.4036 22.7301 28.5615C24.0003 26.6248 24.841 24.2708 24.8849 21.9429C24.8856 21.9015 24.8859 21.8601 24.8859 21.8187C24.8886 21.107 23.7852 21.1073 23.7824 21.8187Z" fill="white" fill-opacity="0.9"/>
<path d="M31.7392 43.1186C31.7392 45.2285 31.7392 47.3383 31.7392 49.4482C31.9231 49.2643 32.107 49.0804 32.291 48.8965C30.9722 48.8965 29.6536 48.8965 28.3348 48.8965C25.2889 48.8965 22.243 48.8965 19.1971 48.8965C15.7894 48.8965 12.3817 48.8965 8.97394 48.8965C6.56974 48.8965 4.16555 48.8965 1.76136 48.8965C1.3609 48.8965 0.960395 48.8965 0.559941 48.8965C0.743853 49.0804 0.927764 49.2643 1.11168 49.4482C1.11168 48.2278 1.11168 47.0074 1.11168 45.7869C1.11168 45.0619 1.11168 44.3369 1.11168 43.6119C1.11168 43.0096 1.11777 42.405 1.22008 41.8201C1.61118 39.5844 3.00223 37.6431 4.9632 36.5203C5.93998 35.9611 7.05433 35.6343 8.17277 35.5596C8.89601 35.5112 9.6295 35.5435 10.3537 35.5435C10.431 35.5435 10.5082 35.5435 10.5855 35.5435C10.4267 35.4525 10.2679 35.3613 10.1091 35.2703C11.6519 37.3762 13.1948 39.4821 14.7376 41.588C15.1494 42.1501 15.5612 42.7123 15.9731 43.2745C16.2302 43.6255 16.6691 43.6279 16.9259 43.2745C18.462 41.1603 19.9982 39.0461 21.5343 36.9319C21.9368 36.378 22.3391 35.8241 22.7416 35.2703C22.5828 35.3613 22.424 35.4525 22.2652 35.5435C22.8835 35.5435 23.5017 35.5435 24.1199 35.5435C25.1552 35.5435 26.1982 35.7381 27.1449 36.1481C29.2179 37.0461 30.7988 38.8334 31.4366 40.9918C31.6436 41.6923 31.736 42.3901 31.7392 43.1186C31.7424 43.83 32.8459 43.8303 32.8427 43.1186C32.8319 40.6848 31.8031 38.34 30.0028 36.6985C28.33 35.1733 26.1771 34.4401 23.9325 34.4401C23.5357 34.4401 23.139 34.4401 22.7423 34.4401C22.3827 34.4401 22.0295 34.3821 21.7869 34.7161C21.6091 34.9608 21.4312 35.2056 21.2533 35.4505C20.3447 36.7011 19.436 37.9517 18.5273 39.2023C17.6759 40.374 16.8245 41.5458 15.9732 42.7175C16.2908 42.7175 16.6084 42.7175 16.926 42.7175C15.3832 40.6117 13.8403 38.5058 12.2975 36.3998C11.963 35.9433 11.6285 35.4867 11.294 35.0301C11.2224 34.9324 11.1509 34.8347 11.0793 34.737C10.88 34.4649 10.6524 34.4402 10.3539 34.4402C9.62851 34.4402 8.89738 34.4142 8.17287 34.4562C6.94083 34.5275 5.74388 34.8691 4.64913 35.4354C2.52979 36.5317 0.945998 38.5429 0.312081 40.8343C-0.0787567 42.247 0.00825971 43.727 0.00825971 45.1769C0.00825971 46.6008 0.00825971 48.0245 0.00825971 49.4483C0.00825971 49.7491 0.25922 50.0001 0.559994 50.0001C1.87869 50.0001 3.19744 50.0001 4.51614 50.0001C7.56203 50.0001 10.608 50.0001 13.6539 50.0001C17.0616 50.0001 20.4693 50.0001 23.8771 50.0001C26.2813 50.0001 28.6854 50.0001 31.0896 50.0001C31.4901 50.0001 31.8906 50.0001 32.291 50.0001C32.5918 50.0001 32.8427 49.7491 32.8427 49.4483C32.8427 47.3384 32.8427 45.2285 32.8427 43.1186C32.8426 42.4069 31.7392 42.407 31.7392 43.1186Z" fill="white" fill-opacity="0.9"/>
<path d="M41.6407 25.272C41.6354 26.3577 41.3607 27.4199 40.9349 28.4529C40.5104 29.4832 39.8794 30.4606 39.1019 31.2585C38.3798 31.9996 37.5321 32.5451 36.5164 32.7195C36.3862 32.7419 36.0831 32.7539 35.8699 32.7451C35.6247 32.735 35.4519 32.7021 35.1758 32.628C34.6931 32.4986 34.2874 32.2832 33.8503 31.9839C32.0653 30.7615 30.9192 28.4578 30.5542 26.3371C30.1844 24.1887 31.0614 21.9051 32.9222 20.6442C34.6361 19.4828 36.8971 19.3793 38.7129 20.3574C40.513 21.327 41.6287 23.238 41.6407 25.272C41.6449 25.9834 42.7484 25.9838 42.7442 25.272C42.7296 22.7973 41.3436 20.4905 39.1474 19.3395C36.9349 18.18 34.1589 18.3803 32.1396 19.85C30.1488 21.2989 29.1238 23.7206 29.4225 26.1583C29.7075 28.4841 30.8511 30.8448 32.6158 32.4071C33.4731 33.1661 34.4845 33.6879 35.6264 33.8285C36.7081 33.9616 37.8102 33.5947 38.7086 33.0087C40.6808 31.7225 41.9829 29.409 42.5129 27.1574C42.6578 26.5419 42.7411 25.9045 42.7442 25.272C42.7478 24.5603 41.6442 24.5606 41.6407 25.272Z" fill="white" fill-opacity="0.9"/>
<path d="M36.5541 41.9735C38.0224 39.9525 39.4908 37.9317 40.9592 35.9107C40.9942 35.8626 41.0292 35.8144 41.0642 35.7662C40.9054 35.8573 40.7466 35.9484 40.5878 36.0394C41.2477 36.0394 41.9152 36.0107 42.5736 36.06C43.6494 36.1405 44.7428 36.5788 45.589 37.2441C46.4615 37.9299 47.1283 38.8521 47.4913 39.8915C47.7463 40.6218 47.8108 41.3455 47.8108 42.1112C47.8108 43.6403 47.8108 45.1694 47.8108 46.6986C47.9947 46.5147 48.1786 46.3308 48.3625 46.1468C45.8891 46.1468 43.4156 46.1468 40.9422 46.1468C39.3207 46.1468 37.6992 46.1468 36.0777 46.1468C35.3661 46.1468 35.3661 47.2503 36.0777 47.2503C38.5511 47.2503 41.0246 47.2503 43.498 47.2503C45.1195 47.2503 46.741 47.2503 48.3625 47.2503C48.6633 47.2503 48.9143 46.9993 48.9143 46.6986C48.9143 45.397 48.9143 44.0953 48.9143 42.7937C48.9143 42.2411 48.9343 41.6826 48.8803 41.1321C48.7612 39.9158 48.3229 38.7423 47.5985 37.7563C46.8886 36.79 45.9395 36.0103 44.84 35.5271C43.8619 35.0972 42.8432 34.936 41.7803 34.936C41.4088 34.936 41.0372 34.936 40.6657 34.936C40.3843 34.936 40.2064 35.0784 40.0513 35.2919C39.7552 35.6994 39.4591 36.107 39.1629 36.5146C37.9757 38.1486 36.7885 39.7825 35.6013 41.4165C35.4241 41.6603 35.5591 42.0307 35.7992 42.1714C36.0782 42.3348 36.3776 42.2162 36.5541 41.9735Z" fill="white" fill-opacity="0.9"/>
<path d="M41.7412 3.433C41.7253 2.15539 41.0198 0.972051 39.8801 0.381327C39.3108 0.0861756 38.6968 0 38.0657 0C36.8758 0 35.6858 0 34.4959 0C31.7725 0 29.0493 0 26.326 0C24.3591 0 22.8263 1.57066 22.8263 3.52642C22.8263 4.87439 22.8263 6.22241 22.8263 7.57037C22.8263 8.33544 22.8263 9.10051 22.8263 9.86553C22.8263 10.2606 22.8063 10.663 22.8407 11.0572C22.9543 12.3567 23.8007 13.476 25.0071 13.9606C25.794 14.2767 26.6654 14.2001 27.4959 14.2001C27.7198 14.2001 27.9437 14.2001 28.1676 14.2001C27.9837 14.0162 27.7998 13.8322 27.6159 13.6483C27.6159 14.958 27.6159 16.2676 27.6159 17.5773C27.6159 18.0775 28.2078 18.2824 28.5578 17.9675C30.0129 16.6578 31.4681 15.3481 32.9234 14.0385C32.7933 14.0923 32.6633 14.1462 32.5332 14.2001C33.7974 14.2001 35.0615 14.2001 36.3257 14.2001C36.9417 14.2001 37.5576 14.2001 38.1737 14.2001C39.1313 14.2001 40.013 13.8848 40.7114 13.2185C41.4051 12.5567 41.7412 11.6189 41.7412 10.6736C41.7412 10.162 41.7412 9.65036 41.7412 9.13872C41.7412 7.53732 41.7412 5.93592 41.7412 4.33453C41.7412 4.03402 41.7412 3.73351 41.7412 3.433C41.7412 2.72142 40.6377 2.72142 40.6377 3.433C40.6377 5.86157 40.6377 8.2902 40.6377 10.7188C40.6377 11.5903 40.1998 12.3628 39.4443 12.8013C38.9216 13.1048 38.365 13.0966 37.7732 13.0966C36.2381 13.0966 34.7029 13.0966 33.1677 13.0966C32.9728 13.0966 32.7778 13.0966 32.5829 13.0966C32.3746 13.0966 32.2166 13.192 32.0687 13.3251C31.633 13.7172 31.1974 14.1093 30.7618 14.5014C29.7708 15.3932 28.7798 16.2851 27.7889 17.177C27.7851 17.1803 27.7812 17.1837 27.7775 17.1872C28.0914 17.3172 28.4054 17.4473 28.7194 17.5773C28.7194 16.2676 28.7194 14.958 28.7194 13.6483C28.7194 13.3476 28.4684 13.0966 28.1676 13.0966C27.5463 13.0966 26.9251 13.0966 26.3037 13.0966C25.359 13.0966 24.4594 12.5464 24.104 11.6618C23.9095 11.1778 23.9297 10.706 23.9297 10.1944C23.9297 9.49109 23.9297 8.78776 23.9297 8.08448C23.9297 6.62244 23.9297 5.16045 23.9297 3.69841C23.9297 3.05808 24.0359 2.46205 24.4507 1.96097C24.9307 1.38123 25.6063 1.10347 26.3447 1.10347C29.0945 1.10347 31.8443 1.10347 34.5941 1.10347C35.7222 1.10347 36.8503 1.10347 37.9783 1.10347C38.3616 1.10347 38.7012 1.11214 39.0722 1.23063C40.0105 1.53035 40.6256 2.46557 40.6377 3.433C40.6466 4.14405 41.7501 4.14489 41.7412 3.433Z" fill="white" fill-opacity="0.9"/>
<path d="M32.605 7.25287C32.5882 7.66946 31.9792 7.66946 31.9623 7.25287C31.9455 6.83566 32.5883 6.83776 32.605 7.25287C32.6337 7.96193 33.7373 7.96471 33.7085 7.25287C33.6763 6.45512 33.0814 5.86031 32.2837 5.82804C31.4868 5.79583 30.8892 6.50394 30.8589 7.25287C30.8267 8.04973 31.5347 8.64744 32.2837 8.67771C33.0805 8.70992 33.6782 8.00186 33.7085 7.25287C33.7373 6.54104 32.6337 6.54387 32.605 7.25287Z" fill="white" fill-opacity="0.9"/>
<path d="M28.2395 7.25288C28.2226 7.66947 27.6136 7.66947 27.5968 7.25288C27.5799 6.83567 28.2227 6.83777 28.2395 7.25288C28.2681 7.96194 29.3717 7.96472 29.3429 7.25288C29.3107 6.45518 28.7158 5.86031 27.9181 5.82804C27.1213 5.79583 26.5236 6.50394 26.4933 7.25288C26.4611 8.04974 27.1692 8.64746 27.9181 8.67772C28.715 8.70993 29.3127 8.00182 29.3429 7.25288C29.3717 6.54104 28.2681 6.54388 28.2395 7.25288Z" fill="white" fill-opacity="0.9"/>
<path d="M36.9709 7.25287C36.9541 7.66946 36.345 7.66946 36.3282 7.25287C36.3113 6.83566 36.9542 6.83776 36.9709 7.25287C36.9996 7.96193 38.1032 7.96471 38.0744 7.25287C38.0422 6.45512 37.4473 5.86031 36.6496 5.82804C35.8527 5.79583 35.255 6.50394 35.2247 7.25287C35.1925 8.04973 35.9006 8.64744 36.6496 8.67771C37.4464 8.70992 38.0441 8.00186 38.0744 7.25287C38.1032 6.54104 36.9996 6.54387 36.9709 7.25287Z" fill="white" fill-opacity="0.9"/>
</svg>
