<svg width="50" height="36" viewBox="0 0 50 36" fill="none" xmlns="http://www.w3.org/2000/svg">
<path d="M42.8162 0.00528826L0.64081 1.92772C0.470703 1.9362 0.3101 2.00872 0.191241 2.1307C0.0723818 2.25269 0.00406359 2.41512 4.4276e-07 2.58539V26.0592C-0.000104373 26.1507 0.0184017 26.2413 0.0543931 26.3254C0.0903845 26.4095 0.143109 26.4854 0.20936 26.5485C0.275611 26.6116 0.354004 26.6606 0.439772 26.6924C0.52554 26.7243 0.616889 26.7383 0.708265 26.7338L11.2985 26.2616V35.2498C11.2985 35.4287 11.3696 35.6002 11.4961 35.7267C11.6226 35.8532 11.7941 35.9243 11.973 35.9243H49.3255C49.5044 35.9243 49.6759 35.8532 49.8024 35.7267C49.9289 35.6002 50 35.4287 50 35.2498V11.7591C50 11.5802 49.9289 11.4086 49.8024 11.2821C49.6759 11.1556 49.5044 11.0846 49.3255 11.0845H43.5919V0.679824C43.5926 0.583683 43.5728 0.488482 43.5338 0.400623C43.4947 0.312764 43.4374 0.234273 43.3655 0.170398C43.2936 0.106523 43.209 0.0587309 43.1171 0.030254C43.0253 0.00177713 42.9284 -0.00672188 42.833 0.00528826C42.8274 0.00521823 42.8218 0.00521823 42.8162 0.00528826ZM38.4992 1.53986L11.8381 11.1014C11.8154 11.1058 11.7928 11.1114 11.7707 11.1181L11.7369 11.1348C11.7255 11.1401 11.7143 11.1457 11.7032 11.1516C11.6861 11.1565 11.6693 11.1621 11.6526 11.1683C11.5896 11.2039 11.5326 11.2495 11.484 11.3032C11.4781 11.3142 11.4725 11.3254 11.4672 11.3367C11.4615 11.3421 11.4558 11.3477 11.4503 11.3534C11.4444 11.3644 11.4388 11.3755 11.4335 11.3868C11.3525 11.4943 11.3056 11.6235 11.2986 11.7578V24.9282L1.34918 25.3666V3.22498L38.4993 1.53864L38.4992 1.53986ZM42.2428 1.62417V11.0845H15.8685L42.2428 1.62417ZM19.3761 6.09298L3.00169 6.98674C2.91281 6.99075 2.8256 7.01226 2.74506 7.05007C2.66453 7.08789 2.59226 7.14125 2.53241 7.20708C2.47256 7.27291 2.4263 7.34992 2.3963 7.43368C2.3663 7.51744 2.35314 7.60631 2.35758 7.69516C2.36202 7.78402 2.38398 7.87113 2.42219 7.95147C2.4604 8.03182 2.5141 8.10382 2.58022 8.16335C2.64634 8.22288 2.72357 8.26877 2.80748 8.29836C2.89138 8.32795 2.9803 8.34065 3.06914 8.33578L19.4604 7.44205C19.549 7.43651 19.6356 7.41358 19.7153 7.37456C19.795 7.33555 19.8663 7.28121 19.925 7.21466C19.9837 7.14811 20.0288 7.07066 20.0575 6.9867C20.0863 6.90275 20.0983 6.81394 20.0927 6.72535C20.0872 6.63677 20.0643 6.55015 20.0253 6.47043C19.9863 6.39071 19.9319 6.31944 19.8654 6.26072C19.7988 6.202 19.7214 6.15697 19.6374 6.12819C19.5534 6.0994 19.4646 6.08744 19.3761 6.09298ZM8.90388 11.6073C8.85282 11.6071 8.8019 11.6127 8.75211 11.624L3.28837 12.0287C3.19976 12.0353 3.11333 12.0594 3.03401 12.0994C2.95469 12.1394 2.88403 12.1947 2.82607 12.262C2.76811 12.3294 2.72399 12.4075 2.69621 12.4918C2.66844 12.5762 2.65757 12.6653 2.66421 12.7539C2.67086 12.8425 2.69489 12.9289 2.73494 13.0082C2.77499 13.0875 2.83027 13.1582 2.89763 13.2161C2.96498 13.2741 3.04309 13.3182 3.1275 13.3459C3.2119 13.3737 3.30095 13.3845 3.38955 13.3779L8.85329 12.9562C8.94194 12.9597 9.03039 12.9456 9.11359 12.9148C9.1968 12.884 9.27312 12.8372 9.33819 12.7769C9.40326 12.7166 9.45581 12.644 9.49283 12.5634C9.52985 12.4828 9.55061 12.3957 9.55393 12.307C9.55726 12.2184 9.54307 12.1299 9.51219 12.0468C9.48131 11.9636 9.43434 11.8873 9.37396 11.8224C9.31359 11.7574 9.24099 11.7049 9.16033 11.668C9.07966 11.6311 8.99253 11.6105 8.90388 11.6073ZM12.6476 12.4336H48.6509V34.5752H12.6476V25.6376C12.6487 25.6152 12.6487 25.5926 12.6476 25.5702V12.4336ZM30.6914 13.5972C30.1145 13.8314 29.511 14.5321 29.511 15.351C29.511 16.1698 30.1654 16.9607 30.2698 17.0205C30.3743 17.0801 30.085 16.3873 30.4722 16.2278C30.754 16.1117 30.8573 15.7234 30.6914 15.4859C31.1491 15.9857 30.9955 16.185 30.7251 16.4133C30.4522 16.6444 30.3699 17.0106 30.7083 17.0205C31.0466 17.0302 31.6739 16.7671 31.7707 15.6039C31.8675 14.4408 31.2684 13.8315 30.6914 13.5972ZM30.0675 17.2228C29.3033 17.2228 28.8196 17.9007 28.8196 18.5887V21.523H25.1096C23.7762 21.523 22.6813 22.6176 22.6813 23.9513V29.0609H22.1922C21.4996 29.0609 20.9106 29.6331 20.9106 30.3257V31.1857C20.9106 31.8783 21.4996 32.4673 22.1922 32.4673H39.1062C39.7989 32.4673 40.3879 31.8783 40.3879 31.1857V30.3257C40.3879 29.6331 39.7989 29.0609 39.1062 29.0609H38.6172V23.9513C38.6172 22.6176 37.5223 21.523 36.1889 21.523H32.4789V18.5887C32.4789 17.9008 31.9952 17.2228 31.231 17.2228H30.0675ZM8.75211 17.4083L3.28837 17.813C3.19978 17.8196 3.11337 17.8437 3.03406 17.8837C2.95476 17.9237 2.88412 17.979 2.82617 18.0463C2.76823 18.1137 2.72411 18.1917 2.69635 18.2761C2.66859 18.3605 2.65772 18.4495 2.66436 18.5381C2.671 18.6267 2.69503 18.7131 2.73507 18.7924C2.77511 18.8717 2.83038 18.9424 2.89772 19.0003C2.96506 19.0582 3.04316 19.1023 3.12754 19.1301C3.21193 19.1579 3.30096 19.1687 3.38955 19.1621L8.85329 18.7574C8.94188 18.7507 9.02829 18.7267 9.10759 18.6866C9.1869 18.6466 9.25754 18.5914 9.31548 18.524C9.37343 18.4567 9.41754 18.3786 9.4453 18.2942C9.47307 18.2098 9.48394 18.1208 9.4773 18.0322C9.47065 17.9436 9.44662 17.8572 9.40658 17.7779C9.36654 17.6986 9.31127 17.628 9.24393 17.57C9.17659 17.5121 9.0985 17.468 9.01411 17.4402C8.92972 17.4125 8.8407 17.4016 8.75211 17.4083ZM30.1686 18.5719H31.1298C31.1297 18.5778 31.1298 18.5659 31.1298 18.5886V21.5228H30.1686V18.5886C30.1686 18.5659 30.1688 18.5778 30.1686 18.5719ZM25.1096 22.872H27.5717V26.3459C27.5717 26.681 27.7054 27.0024 27.9427 27.2397C28.18 27.477 28.5013 27.6107 28.8364 27.6107H29.6796C29.6926 27.6107 29.7003 27.5939 29.7133 27.5939C29.7693 27.8062 29.8088 28.0267 29.9663 28.1842C30.2036 28.4214 30.5249 28.5552 30.86 28.5552H31.7032C32.0384 28.5552 32.3596 28.4214 32.597 28.1842C32.6285 28.1529 32.6612 28.1203 32.6813 28.083C32.7414 27.9709 32.753 27.8351 32.7993 27.712H33.4401C33.5325 27.712 33.6245 27.7174 33.7099 27.6953C33.9664 27.6352 34.1855 27.4793 34.3508 27.3074C34.5713 27.0783 34.7049 26.7656 34.7049 26.4305V22.8724H36.1889C36.7972 22.8724 37.2681 23.3431 37.2681 23.9516V29.0612H24.0304V23.9516C24.0304 23.3431 24.5012 22.872 25.1096 22.872ZM28.9207 22.872H33.3558V26.3628H32.6476C32.5454 26.2998 32.4283 26.2652 32.3083 26.2626C32.1884 26.2599 32.0699 26.2893 31.9651 26.3477C31.8602 26.4062 31.7729 26.4915 31.712 26.5949C31.6512 26.6983 31.619 26.8161 31.6189 26.9361V27.206H30.9443V26.3459C30.9455 26.3234 30.9455 26.3009 30.9443 26.2784C30.9399 26.2557 30.9343 26.2332 30.9275 26.211C30.9231 26.1882 30.9174 26.1657 30.9107 26.1435C30.9057 26.1264 30.9001 26.1095 30.8938 26.0928C30.8583 26.0104 30.8067 25.9358 30.7421 25.8735C30.7365 25.8735 30.7308 25.8735 30.7252 25.8735C30.7148 25.8561 30.7035 25.8392 30.6915 25.8228C30.6859 25.8228 30.6803 25.8228 30.6747 25.8228C30.6237 25.781 30.5669 25.747 30.506 25.7216C30.4623 25.7059 30.4171 25.6947 30.3711 25.6882C30.3041 25.678 30.2358 25.678 30.1688 25.6882C30.1463 25.6871 30.1238 25.6871 30.1013 25.6882C30.0842 25.6931 30.0674 25.6987 30.0508 25.7049C30.045 25.7104 30.0394 25.716 30.0339 25.7216C30.0168 25.7266 30 25.7321 29.9834 25.7384C29.9603 25.7483 29.9377 25.7594 29.9159 25.7718C29.8986 25.7822 29.8817 25.7934 29.8653 25.8053C29.7562 25.8859 29.6739 25.9976 29.6292 26.1257C29.6292 26.1313 29.6292 26.1369 29.6292 26.1424C29.623 26.1591 29.6173 26.176 29.6124 26.1932C29.6056 26.2153 29.6 26.2379 29.5956 26.2606H28.921V22.871L28.9207 22.872ZM22.2597 30.41H39.0388V31.1182H22.2597V30.41Z" fill="white" fill-opacity="0.9"/>
</svg>
