<svg width="153" height="235" viewBox="0 0 153 235" fill="none" xmlns="http://www.w3.org/2000/svg">
<path d="M114.116 67.0275L114.116 67.0409C113.713 86.9931 105.101 104.911 93.9805 118.305C82.8202 131.747 69.3269 140.409 59.4042 142.122L57.6845 142.419L58.2363 144.074L58.2392 144.083C59.0607 146.547 60.3022 150.272 61.5464 153.59L61.6376 153.833C61.5799 153.868 61.5188 153.902 61.4572 153.933C61.3585 153.982 61.2769 154.015 61.2232 154.032C61.2231 154.032 61.223 154.032 61.2228 154.032H51.8419C51.7636 154.032 51.7203 154.022 51.6999 154.017C51.68 154.011 51.6613 154.003 51.6365 153.988C51.593 153.962 51.5472 153.927 51.4705 153.856L51.4985 153.807C53.2183 150.798 54.49 146.982 55.304 144.54L55.3221 144.486L55.8937 142.771L54.1031 142.525C44.1719 141.162 31.0122 132.256 20.3777 118.263C9.79188 104.334 1.91887 85.6268 2.32247 65.0434L2.32249 65.0423C2.72791 43.5548 9.7119 27.592 20.1952 17.0588C30.6811 6.52299 44.7773 1.3072 59.6289 1.50544C74.4643 1.90896 88.3636 7.92 98.4084 18.9642C108.45 30.0048 114.724 46.1713 114.116 67.0275Z" fill="white" stroke="#EC6277" stroke-width="3"/>
<path d="M56.4999 154C56.4999 154 60.5623 162.98 60.5 168C60.4086 175.36 53.5 185.5 53.5 185.5C53.5 185.5 47.411 193.136 46 199C44.7665 204.126 44.8346 207.358 46 212.5C48.2448 222.404 62 233 62 233" stroke="#EC6277" stroke-width="3"/>
<mask id="path-3-inside-1" fill="white">
<path fill-rule="evenodd" clip-rule="evenodd" d="M82.7006 72.0086C78.5862 79.0032 69.1229 83.9405 58.4254 83.9405C47.3164 83.9405 38.2646 79.0032 34.1501 71.5972"/>
</mask>
<path d="M80.1148 70.4876C76.6635 76.3548 68.3298 80.9405 58.4254 80.9405V86.9405C69.9161 86.9405 80.5088 81.6516 85.2864 73.5297L80.1148 70.4876ZM58.4254 80.9405C48.1464 80.9405 40.2429 76.3868 36.7726 70.1402L31.5277 73.0541C36.2863 81.6196 46.4863 86.9405 58.4254 86.9405V80.9405Z" fill="#EC6277" mask="url(#path-3-inside-1)"/>
<path d="M38.5 56.5L49.5 61V62.5L38 65.5" stroke="#EC6277" stroke-width="3"/>
<path fill-rule="evenodd" clip-rule="evenodd" d="M69.9457 56.3726C72.4144 56.3726 74.4716 58.4298 74.4716 60.8985C74.4716 63.3671 72.4144 65.4243 69.9457 65.4243C67.477 65.4243 65.4198 63.3671 65.4198 60.8985C65.4198 58.0183 67.477 56.3726 69.9457 56.3726Z" fill="#EC6277"/>
<path fill-rule="evenodd" clip-rule="evenodd" d="M76.529 60.8989H128.782C134.131 60.8989 138.657 65.4248 138.657 70.7736V102.455C138.657 107.804 134.131 112.33 128.782 112.33H76.529C71.1802 112.33 66.6543 107.804 66.6543 102.455V70.7736C66.6543 65.4248 71.1802 60.8989 76.529 60.8989Z" fill="#5DACDA"/>
<path fill-rule="evenodd" clip-rule="evenodd" d="M45.6705 104.924C36.2073 103.279 29.6241 98.7528 25.9211 91.7582C22.6296 85.998 21.3952 78.1806 21.3952 69.9517H9.46335H0.974123L0.000244141 79.4149C3.2918 99.1642 18.9266 115.622 45.6705 115.622C45.6705 118.914 46.0819 123.028 51.0193 123.028H66.2427C69.1228 123.028 71.18 120.559 71.18 117.679V106.57C71.18 103.69 68.7114 101.633 65.8313 101.633C58.8367 101.221 45.6705 99.1642 45.6705 104.924Z" fill="white"/>
<path fill-rule="evenodd" clip-rule="evenodd" d="M102.45 70.3633C111.502 70.3633 118.908 77.7693 118.908 86.8211C118.908 95.8729 111.502 103.279 102.45 103.279C93.3981 103.279 85.9921 95.8729 85.9921 86.8211C86.4035 77.7693 93.3981 70.3633 102.45 70.3633Z" fill="white"/>
<path fill-rule="evenodd" clip-rule="evenodd" d="M102.45 76.5352C108.21 76.5352 112.324 81.061 112.324 86.4098C112.324 91.7586 107.799 96.2845 102.45 96.2845C97.101 96.2845 92.5751 91.7586 92.5751 86.4098C92.5751 81.061 97.101 76.5352 102.45 76.5352Z" fill="#5DACDA"/>
<path d="M121.23 71.7433V69.3945H128.105V71.7433H121.23Z" fill="white" stroke="white" stroke-width="3"/>
<mask id="path-12-inside-2" fill="white">
<path fill-rule="evenodd" clip-rule="evenodd" d="M0 79.4141C3.29156 99.1634 18.9265 115.621 45.6704 115.621C45.6704 118.913 46.0818 123.027 51.0191 123.027H66.2426C69.1227 123.027 71.1799 120.559 71.1799 117.678V106.569C71.1799 103.689 68.7113 101.632 65.8311 101.632C58.8366 101.632 45.6704 99.9863 45.6704 105.747C36.2071 104.101 28.8011 98.752 25.5096 91.7574"/>
</mask>
<path fill-rule="evenodd" clip-rule="evenodd" d="M0 79.4141C3.29156 99.1634 18.9265 115.621 45.6704 115.621C45.6704 118.913 46.0818 123.027 51.0191 123.027H66.2426C69.1227 123.027 71.1799 120.559 71.1799 117.678V106.569C71.1799 103.689 68.7113 101.632 65.8311 101.632C58.8366 101.632 45.6704 99.9863 45.6704 105.747C36.2071 104.101 28.8011 98.752 25.5096 91.7574" fill="white"/>
<path d="M45.6704 115.621H48.6704V112.621H45.6704V115.621ZM45.6704 105.747L45.1563 108.702L48.6704 109.313V105.747H45.6704ZM-2.95918 79.9073C0.567493 101.067 17.4239 118.621 45.6704 118.621V112.621C20.429 112.621 6.01562 97.2595 2.95918 78.9209L-2.95918 79.9073ZM42.6704 115.621C42.6704 117.257 42.741 119.762 43.81 121.9C44.3824 123.045 45.2605 124.132 46.5636 124.909C47.8554 125.68 49.3651 126.027 51.0191 126.027V120.027C50.2045 120.027 49.8112 119.86 49.6373 119.756C49.4746 119.659 49.3241 119.512 49.1765 119.217C48.8054 118.475 48.6704 117.277 48.6704 115.621H42.6704ZM51.0191 126.027H66.2426V120.027H51.0191V126.027ZM66.2426 126.027C71.0846 126.027 74.1799 121.893 74.1799 117.678H68.1799C68.1799 119.224 67.1608 120.027 66.2426 120.027V126.027ZM74.1799 117.678V106.569H68.1799V117.678H74.1799ZM74.1799 106.569C74.1799 101.727 70.0456 98.6321 65.8311 98.6321V104.632C67.3769 104.632 68.1799 105.651 68.1799 106.569H74.1799ZM65.8311 98.6321C62.7589 98.6321 57.1743 98.2213 52.9062 98.5374C50.7257 98.6989 48.3931 99.0639 46.5211 99.9775C44.4952 100.966 42.6704 102.817 42.6704 105.747H48.6704C48.6704 105.676 48.6798 105.657 48.6752 105.672C48.6702 105.687 48.6626 105.699 48.6635 105.697C48.6708 105.688 48.7766 105.553 49.1526 105.37C49.9679 104.972 51.364 104.668 53.3494 104.521C57.4131 104.22 61.9088 104.632 65.8311 104.632V98.6321ZM46.1844 102.791C37.5005 101.281 31.0258 96.4338 28.224 90.48L22.7951 93.0348C26.5764 101.07 34.9137 106.921 45.1563 108.702L46.1844 102.791Z" fill="#EC6277" mask="url(#path-12-inside-2)"/>
<path d="M137.277 60.8997V59.3997H135.777H125.345V53.9051C125.345 51.8534 126.73 50.4678 128.782 50.4678H147.709C149.76 50.4678 151.146 51.8534 151.146 53.9051V71.1858C151.146 73.2375 149.76 74.6231 147.709 74.6231H140.714C138.662 74.6231 137.277 73.2375 137.277 71.1858V60.8997Z" fill="white" stroke="#EC6277" stroke-width="3"/>
</svg>
