<svg width="145" height="166" viewBox="0 0 145 166" fill="none" xmlns="http://www.w3.org/2000/svg">
<path d="M133.25 1.41132C128.527 2.19057 125.33 6.65095 126.109 11.3739C126.889 16.0968 131.349 19.2937 136.072 18.5145C140.795 17.7352 143.992 13.2748 143.213 8.55194C142.433 3.82903 137.973 0.632065 133.25 1.41132Z" fill="#EC6277"/>
<path d="M30.8632 37.3399C38.6963 38.6323 43.9985 46.0299 42.7061 53.863C41.4137 61.696 34.016 66.9982 26.183 65.7058C18.3499 64.4134 13.0477 57.0158 14.3401 49.1827C15.6325 41.3497 23.0302 36.0475 30.8632 37.3399Z" fill="#7CC1EE"/>
<path d="M19.5222 134.146C27.6289 135.484 33.1163 143.14 31.7788 151.247C30.4412 159.354 22.7851 164.841 14.6785 163.503C6.57177 162.166 1.08431 154.51 2.42186 146.403C3.75942 138.296 11.4155 132.809 19.5222 134.146Z" stroke="#F3EE93" stroke-width="3" stroke-miterlimit="22.9256"/>
</svg>
