<svg width="57" height="225" viewBox="0 0 57 225" fill="none" xmlns="http://www.w3.org/2000/svg">
<path d="M18.3453 37.3526C9.31817 35.8632 3.20767 27.3378 4.69709 18.3107C6.18651 9.28362 14.7119 3.17311 23.739 4.66254C32.7661 6.15196 38.8766 14.6773 37.3871 23.7044C35.8977 32.7315 27.3724 38.842 18.3453 37.3526Z" stroke="#5DACDA" stroke-width="3" stroke-miterlimit="22.9256"/>
<path d="M23.5845 222.941C18.8616 222.162 15.6646 217.702 16.4439 212.979C17.2231 208.256 21.6835 205.059 26.4064 205.838C31.1293 206.617 34.3263 211.078 33.547 215.801C32.7678 220.524 28.3074 223.72 23.5845 222.941Z" fill="#EC6277"/>
<path d="M33.79 105.979C24.9378 104.518 18.9457 96.1582 20.4063 87.306C21.8668 78.4538 30.227 72.4618 39.0791 73.9223C47.9313 75.3829 53.9234 83.743 52.4628 92.5952C51.0023 101.447 42.6422 107.439 33.79 105.979Z" stroke="#F3EE93" stroke-width="3" stroke-miterlimit="22.9256"/>
</svg>
