<svg width="71" height="269" viewBox="0 0 71 269" fill="none" xmlns="http://www.w3.org/2000/svg">
<path d="M37.5225 138.306C29.6895 139.599 24.3873 146.996 25.6797 154.829C26.9721 162.662 34.3697 167.965 42.2028 166.672C50.0358 165.38 55.338 157.982 54.0456 150.149C52.7532 142.316 45.3556 137.014 37.5225 138.306Z" fill="#5DACDA"/>
<path d="M11.3735 1.41107C16.0964 2.19033 19.2934 6.65071 18.5141 11.3736C17.7349 16.0965 13.2745 19.2935 8.55158 18.5142C3.82867 17.735 0.63171 13.2746 1.41096 8.55169C2.19022 3.82878 6.6506 0.631821 11.3735 1.41107Z" fill="#EC6277"/>
<path d="M48.8636 235.113C40.7569 236.45 35.2694 244.106 36.607 252.213C37.9445 260.32 45.6006 265.807 53.7073 264.47C61.814 263.132 67.3014 255.476 65.9639 247.369C64.6263 239.263 56.9702 233.775 48.8636 235.113Z" stroke="#F3EE93" stroke-width="3" stroke-miterlimit="22.9256"/>
</svg>
