<svg width="205" height="247" viewBox="0 0 205 247" fill="none" xmlns="http://www.w3.org/2000/svg">
<path fill-rule="evenodd" clip-rule="evenodd" d="M52.7947 104.841C65.0669 90.4295 83.8213 65.4447 83.8213 46.8791C83.8213 19.4398 65.3186 1.06299 42.4106 1.06299C19.5655 1.06299 0.999886 19.4398 0.999886 46.942C0.999886 65.4447 19.7543 90.4925 32.0264 104.904H52.7947V104.841Z" fill="#EC6277" stroke="white" stroke-width="0.9998" stroke-miterlimit="10"/>
<path fill-rule="evenodd" clip-rule="evenodd" d="M49.7738 104.841C58.4587 90.4295 71.8008 65.4447 71.8008 46.8791C71.8008 19.4398 58.6475 1.06299 42.4105 1.06299C26.1735 1.06299 13.0202 19.4398 13.0202 46.942C13.0202 65.4447 26.3623 90.4925 35.0472 104.904H49.7738V104.841Z" fill="#F0D8E4" stroke="white" stroke-width="0.9998" stroke-miterlimit="10"/>
<path fill-rule="evenodd" clip-rule="evenodd" d="M45.872 104.841C49.8998 90.4295 56.0674 65.4446 56.0674 46.879C56.0674 19.3768 49.9628 1 42.4107 1C34.8586 1 28.7539 19.3768 28.7539 46.879C28.7539 65.3817 34.9215 90.4295 38.9493 104.841H45.872Z" fill="#EC6277" stroke="white" stroke-width="0.9998" stroke-miterlimit="10"/>
<path d="M30.1388 113.715H54.7461V123.722H30.1388V113.715Z" fill="#595FA7" stroke="white" stroke-width="1.1123" stroke-miterlimit="10"/>
<path d="M30.1388 104.842H54.7461V107.17H30.1388V104.842Z" fill="#EC6277" stroke="white" stroke-width="0.9998" stroke-miterlimit="10"/>
<path fill-rule="evenodd" clip-rule="evenodd" d="M42.4111 104.842H39.0127H42.4111ZM39.0127 104.842H35.0478H39.0127ZM35.0478 104.842H32.027H35.0478ZM32.027 104.842H30.076H32.027Z" fill="url(#paint0_linear)" stroke="#504F56" stroke-width="0.9998" stroke-miterlimit="22.9256"/>
<path fill-rule="evenodd" clip-rule="evenodd" d="M35.0469 104.842H32.026H35.0469Z" fill="url(#paint1_linear)" stroke="white" stroke-width="0.9998" stroke-miterlimit="10"/>
<path fill-rule="evenodd" clip-rule="evenodd" d="M39.0117 104.842H35.0469H39.0117Z" fill="white" stroke="white" stroke-width="0.9998" stroke-miterlimit="10"/>
<path fill-rule="evenodd" clip-rule="evenodd" d="M42.4111 104.842H39.0127H42.4111Z" fill="#EC6277" stroke="white" stroke-width="0.9998" stroke-miterlimit="10"/>
<path d="M30.076 104.842H42.4111V107.17H30.076V104.842Z" fill="#EC6277" stroke="white" stroke-width="0.9998" stroke-miterlimit="10"/>
<path fill-rule="evenodd" clip-rule="evenodd" d="M35.0477 104.841H32.0269C21.4539 92.4434 6.09799 72.1786 2.00727 54.9976C1.31499 52.2285 1.00032 49.5223 1.00032 46.8791C1.00032 46.2497 1.00032 45.6204 1.00032 45.054C1.37793 33.537 4.96518 23.7193 10.8181 16.2931L10.881 16.2301C10.9439 16.1672 10.9439 16.1672 11.0069 16.1043C18.6219 6.6012 29.7613 1.06299 42.2852 1.06299C26.1111 1.18886 13.0208 19.5027 13.0208 46.942C13.0208 65.4447 26.3628 90.4295 35.0477 104.841Z" fill="#F0D8E4" stroke="white" stroke-width="0.9998" stroke-miterlimit="10"/>
<path fill-rule="evenodd" clip-rule="evenodd" d="M39.0121 104.841H35.0473C26.3624 90.4295 13.0203 65.4446 13.0203 46.879C13.0203 19.4397 26.1106 1.12587 42.2847 1H42.3477C34.8585 1.06293 28.7539 19.4397 28.7539 46.879C28.7539 65.4446 34.9844 90.4295 39.0121 104.841Z" fill="#EC6277" stroke="white" stroke-width="0.9998" stroke-miterlimit="10"/>
<path fill-rule="evenodd" clip-rule="evenodd" d="M42.4107 104.841H39.0123C34.9845 90.4295 28.8169 65.4446 28.8169 46.879C28.8169 19.4397 34.9215 1.06293 42.4107 1H42.4736V104.841H42.4107Z" fill="#F0D8E4" stroke="white" stroke-width="0.9998" stroke-miterlimit="10"/>
<path fill-rule="evenodd" clip-rule="evenodd" d="M39.0117 104.842H35.0469H39.0117Z" fill="white" stroke="white" stroke-width="0.9998" stroke-miterlimit="10"/>
<path fill-rule="evenodd" clip-rule="evenodd" d="M42.4111 104.842H39.0127H42.4111Z" fill="#EC6277" stroke="white" stroke-width="0.9998" stroke-miterlimit="10"/>
<path fill-rule="evenodd" clip-rule="evenodd" d="M159.298 218.963C177.14 198.011 204.404 161.688 204.404 134.698C204.404 94.8073 177.505 68.0914 144.202 68.0914C110.99 68.0914 84.0001 94.8073 84.0001 134.79C84.0001 161.688 111.265 198.102 129.106 219.054H159.298V218.963Z" fill="#EC6277" stroke="white" stroke-width="0.9998" stroke-miterlimit="10"/>
<path fill-rule="evenodd" clip-rule="evenodd" d="M154.907 218.963C167.533 198.011 186.93 161.688 186.93 134.698C186.93 94.8073 167.808 68.0914 144.203 68.0914C120.598 68.0914 101.476 94.8073 101.476 134.79C101.476 161.688 120.872 198.102 133.498 219.054H154.907V218.963Z" fill="#F0D8E4" stroke="white" stroke-width="0.9998" stroke-miterlimit="10"/>
<path fill-rule="evenodd" clip-rule="evenodd" d="M149.234 218.963C155.089 198.011 164.056 161.688 164.056 134.698C164.056 94.7158 155.181 68 144.202 68C133.223 68 124.348 94.7158 124.348 134.698C124.348 161.597 133.314 198.011 139.17 218.963H149.234Z" fill="#EC6277" stroke="white" stroke-width="0.9998" stroke-miterlimit="10"/>
<path d="M126.361 231.863H162.135V246.41H126.361V231.863Z" fill="#595FA7" stroke="white" stroke-width="1.1123" stroke-miterlimit="10"/>
<path d="M126.361 218.963H162.135V222.348H126.361V218.963Z" fill="#EC6277" stroke="white" stroke-width="0.9998" stroke-miterlimit="10"/>
<path fill-rule="evenodd" clip-rule="evenodd" d="M144.202 218.963H139.262H144.202ZM139.262 218.963H133.498H139.262ZM133.498 218.963H129.106H133.498ZM129.106 218.963H126.27H129.106Z" fill="url(#paint2_linear)" stroke="#504F56" stroke-width="0.9998" stroke-miterlimit="22.9256"/>
<path fill-rule="evenodd" clip-rule="evenodd" d="M133.497 218.963H129.105H133.497Z" fill="url(#paint3_linear)" stroke="white" stroke-width="0.9998" stroke-miterlimit="10"/>
<path fill-rule="evenodd" clip-rule="evenodd" d="M139.262 218.963H133.498H139.262Z" fill="white" stroke="white" stroke-width="0.9998" stroke-miterlimit="10"/>
<path fill-rule="evenodd" clip-rule="evenodd" d="M144.202 218.963H139.262H144.202Z" fill="#EC6277" stroke="white" stroke-width="0.9998" stroke-miterlimit="10"/>
<path d="M126.27 218.963H144.202V222.348H126.27V218.963Z" fill="#EC6277" stroke="white" stroke-width="0.9998" stroke-miterlimit="10"/>
<path fill-rule="evenodd" clip-rule="evenodd" d="M133.498 218.963H129.106C113.735 200.939 91.4113 171.478 85.4643 146.501C84.4579 142.475 84.0004 138.541 84.0004 134.698C84.0004 133.783 84.0004 132.868 84.0004 132.045C84.5494 115.302 89.7644 101.029 98.2733 90.2326L98.3647 90.1411C98.4562 90.0496 98.4562 90.0496 98.5477 89.9582C109.618 76.1428 125.813 68.0914 144.02 68.0914C120.506 68.2744 101.475 94.8988 101.475 134.79C101.475 161.688 120.872 198.011 133.498 218.963Z" fill="#F0D8E4" stroke="white" stroke-width="0.9998" stroke-miterlimit="10"/>
<path fill-rule="evenodd" clip-rule="evenodd" d="M139.261 218.963H133.497C120.871 198.011 101.475 161.688 101.475 134.698C101.475 94.8073 120.505 68.183 144.019 68H144.11C133.223 68.0915 124.348 94.8073 124.348 134.698C124.348 161.688 133.406 198.011 139.261 218.963Z" fill="#EC6277" stroke="white" stroke-width="0.9998" stroke-miterlimit="10"/>
<path fill-rule="evenodd" clip-rule="evenodd" d="M144.202 218.963H139.262C133.406 198.011 124.44 161.688 124.44 134.698C124.44 94.8073 133.315 68.0915 144.202 68H144.294V218.963H144.202Z" fill="#F0D8E4" stroke="white" stroke-width="0.9998" stroke-miterlimit="10"/>
<path fill-rule="evenodd" clip-rule="evenodd" d="M139.262 218.963H133.498H139.262Z" fill="white" stroke="white" stroke-width="0.9998" stroke-miterlimit="10"/>
<path fill-rule="evenodd" clip-rule="evenodd" d="M144.202 218.963H139.262H144.202Z" fill="#EC6277" stroke="white" stroke-width="0.9998" stroke-miterlimit="10"/>
<defs>
<linearGradient id="paint0_linear" x1="-nan" y1="-nan" x2="-nan" y2="-nan" gradientUnits="userSpaceOnUse">
<stop stop-color="#EFF7F6"/>
<stop offset="1" stop-color="#B9DCD8"/>
</linearGradient>
<linearGradient id="paint1_linear" x1="-nan" y1="-nan" x2="-nan" y2="-nan" gradientUnits="userSpaceOnUse">
<stop stop-color="#EFF7F6"/>
<stop offset="1" stop-color="#B9DCD8"/>
</linearGradient>
<linearGradient id="paint2_linear" x1="-nan" y1="-nan" x2="-nan" y2="-nan" gradientUnits="userSpaceOnUse">
<stop stop-color="#EFF7F6"/>
<stop offset="1" stop-color="#B9DCD8"/>
</linearGradient>
<linearGradient id="paint3_linear" x1="-nan" y1="-nan" x2="-nan" y2="-nan" gradientUnits="userSpaceOnUse">
<stop stop-color="#EFF7F6"/>
<stop offset="1" stop-color="#B9DCD8"/>
</linearGradient>
</defs>
</svg>
