<svg width="112" height="256" viewBox="0 0 112 256" fill="none" xmlns="http://www.w3.org/2000/svg">
<path d="M14.1832 252.706C6.35014 251.414 1.0479 244.016 2.34031 236.183C3.63272 228.35 11.0304 223.048 18.8634 224.34C26.6965 225.632 31.9987 233.03 30.7063 240.863C29.4139 248.696 22.0162 253.998 14.1832 252.706Z" fill="#5DACDA"/>
<path d="M103.374 1.41083C108.097 2.19008 111.294 6.65047 110.515 11.3734C109.735 16.0963 105.275 19.2932 100.552 18.514C95.8292 17.7347 92.6322 13.2744 93.4115 8.55145C94.1907 3.82854 98.6511 0.631576 103.374 1.41083Z" fill="#EC6277"/>
<path d="M70.9519 193.779C62.8452 192.441 57.3578 184.785 58.6953 176.678C60.0329 168.572 67.689 163.084 75.7957 164.422C83.9024 165.759 89.3898 173.416 88.0523 181.522C86.7147 189.629 79.0586 195.116 70.9519 193.779Z" stroke="#F3EE93" stroke-width="3" stroke-miterlimit="22.9256"/>
</svg>
