<svg width="85" height="125" viewBox="0 0 85 125" fill="none" xmlns="http://www.w3.org/2000/svg">
<path fill-rule="evenodd" clip-rule="evenodd" d="M52.7947 104.841C65.0669 90.4295 83.8213 65.4447 83.8213 46.8791C83.8213 19.4398 65.3186 1.06299 42.4106 1.06299C19.5655 1.06299 0.999886 19.4398 0.999886 46.942C0.999886 65.4447 19.7543 90.4925 32.0264 104.904H52.7947V104.841Z" fill="#EC6277" stroke="#FEFEFE" stroke-width="0.9998" stroke-miterlimit="10"/>
<path fill-rule="evenodd" clip-rule="evenodd" d="M49.7741 104.841C58.459 90.4295 71.801 65.4447 71.801 46.8791C71.801 19.4398 58.6478 1.06299 42.4108 1.06299C26.1737 1.06299 13.0205 19.4398 13.0205 46.942C13.0205 65.4447 26.3625 90.4925 35.0475 104.904H49.7741V104.841Z" fill="#F0D8E4" stroke="#FEFEFE" stroke-width="0.9998" stroke-miterlimit="10"/>
<path fill-rule="evenodd" clip-rule="evenodd" d="M45.872 104.841C49.8998 90.4295 56.0674 65.4446 56.0674 46.879C56.0674 19.3768 49.9628 1 42.4107 1C34.8586 1 28.7539 19.3768 28.7539 46.879C28.7539 65.3817 34.9215 90.4295 38.9493 104.841H45.872Z" fill="#EC6277" stroke="#FEFEFE" stroke-width="0.9998" stroke-miterlimit="10"/>
<path d="M30.1383 113.715H54.7456V123.722H30.1383V113.715Z" fill="#595FA7" stroke="#FEFEFE" stroke-width="1.1123" stroke-miterlimit="10"/>
<path d="M30.1383 104.842H54.7456V107.17H30.1383V104.842Z" fill="#EC6277" stroke="#FEFEFE" stroke-width="0.9998" stroke-miterlimit="10"/>
<path fill-rule="evenodd" clip-rule="evenodd" d="M42.4106 104.842H39.0122H42.4106ZM39.0122 104.842H35.0473H39.0122ZM35.0473 104.842H32.0265H35.0473ZM32.0265 104.842H30.0755H32.0265Z" fill="url(#paint0_linear)" stroke="black" stroke-width="0.9998" stroke-miterlimit="22.9256"/>
<path fill-rule="evenodd" clip-rule="evenodd" d="M35.0471 104.842H32.0263H35.0471Z" fill="url(#paint1_linear)" stroke="#FEFEFE" stroke-width="0.9998" stroke-miterlimit="10"/>
<path fill-rule="evenodd" clip-rule="evenodd" d="M39.0122 104.842H35.0474H39.0122Z" fill="#FCFDF9" stroke="#FEFEFE" stroke-width="0.9998" stroke-miterlimit="10"/>
<path fill-rule="evenodd" clip-rule="evenodd" d="M42.4106 104.842H39.0122H42.4106Z" fill="#E94A45" stroke="#FEFEFE" stroke-width="0.9998" stroke-miterlimit="10"/>
<path d="M30.0755 104.842H42.4106V107.17H30.0755V104.842Z" fill="#EC6277" stroke="#FEFEFE" stroke-width="0.9998" stroke-miterlimit="10"/>
<path fill-rule="evenodd" clip-rule="evenodd" d="M1.0628 45.054C1.44041 33.537 5.02766 23.7193 10.8805 16.2931C5.02766 23.7193 1.37747 33.537 1.0628 45.054ZM10.9435 16.2301C11.0064 16.1672 11.0064 16.1672 11.0693 16.1042C11.0064 16.1672 10.9435 16.2301 10.9435 16.2301Z" fill="url(#paint2_linear)" stroke="black" stroke-width="0.9998" stroke-miterlimit="22.9256"/>
<path fill-rule="evenodd" clip-rule="evenodd" d="M35.0472 104.841H32.0264C21.4534 92.4434 6.0975 72.1786 2.00678 54.9976C1.31451 52.2285 0.999832 49.5223 0.999832 46.8791C0.999832 46.2497 0.999832 45.6204 0.999832 45.054C1.37744 33.537 4.96469 23.7193 10.8176 16.2931L10.8805 16.2301C10.9434 16.1672 10.9434 16.1672 11.0064 16.1043C18.6214 6.6012 29.7608 1.06299 42.2847 1.06299C26.1106 1.18886 13.0203 19.5027 13.0203 46.942C13.0203 65.4447 26.3623 90.4295 35.0472 104.841Z" fill="#F0D8E4" stroke="#FEFEFE" stroke-width="0.9998" stroke-miterlimit="10"/>
<path fill-rule="evenodd" clip-rule="evenodd" d="M39.0121 104.841H35.0473C26.3624 90.4295 13.0203 65.4446 13.0203 46.879C13.0203 19.4397 26.1106 1.12587 42.2847 1H42.3477C34.8585 1.06293 28.7539 19.4397 28.7539 46.879C28.7539 65.4446 34.9844 90.4295 39.0121 104.841Z" fill="#EC6277" stroke="#FEFEFE" stroke-width="0.9998" stroke-miterlimit="10"/>
<path fill-rule="evenodd" clip-rule="evenodd" d="M42.4107 104.841H39.0123C34.9845 90.4295 28.8169 65.4446 28.8169 46.879C28.8169 19.4397 34.9215 1.06293 42.4107 1H42.4736V104.841H42.4107Z" fill="#F0D8E4" stroke="#FEFEFE" stroke-width="0.9998" stroke-miterlimit="10"/>
<path fill-rule="evenodd" clip-rule="evenodd" d="M39.0122 104.842H35.0474H39.0122Z" fill="#FEFEFB" stroke="#FEFEFE" stroke-width="0.9998" stroke-miterlimit="10"/>
<path fill-rule="evenodd" clip-rule="evenodd" d="M42.4106 104.842H39.0122H42.4106Z" fill="#EC6864" stroke="#FEFEFE" stroke-width="0.9998" stroke-miterlimit="10"/>
<defs>
<linearGradient id="paint0_linear" x1="-nan" y1="-nan" x2="-nan" y2="-nan" gradientUnits="userSpaceOnUse">
<stop stop-color="#EFF7F6"/>
<stop offset="1" stop-color="#B9DCD8"/>
</linearGradient>
<linearGradient id="paint1_linear" x1="-nan" y1="-nan" x2="-nan" y2="-nan" gradientUnits="userSpaceOnUse">
<stop stop-color="#EFF7F6"/>
<stop offset="1" stop-color="#B9DCD8"/>
</linearGradient>
<linearGradient id="paint2_linear" x1="6.03278" y1="45.0611" x2="6.03278" y2="16.1119" gradientUnits="userSpaceOnUse">
<stop stop-color="#EFF7F6"/>
<stop offset="1" stop-color="#B9DCD8"/>
</linearGradient>
</defs>
</svg>
