<svg width="265" height="218" viewBox="0 0 265 218" fill="none" xmlns="http://www.w3.org/2000/svg">
<path d="M41.012 151.024L41.0369 151.023H41.0618H41.0841H41.1102H41.14H41.1736H41.211H41.252H41.2968H41.3452H41.3974H41.4532H41.5126H41.5757H41.6424H41.7127H41.7866H41.864H41.9451H42.0296H42.1177H42.2093H42.3044H42.403H42.5051H42.6106H42.7196H42.832H42.9478H43.067H43.1896H43.3155H43.4448H43.5775H43.7134H43.8527H43.9952H44.1411H44.2901H44.4425H44.5981H44.7569H44.9189H45.084H45.2524H45.4239H45.5986H45.7764H45.9573H46.1413H46.3284H46.5185H46.7117H46.908H47.1073H47.3096H47.5148H47.7231H47.9343H48.1485H48.3656H48.5856H48.8086H49.0344H49.2631H49.4947H49.7291H49.9664H50.2064H50.4493H50.695H50.9434H51.1946H51.4485H51.7052H51.9645H52.2266H52.4913H52.7588H53.0288H53.3016H53.5769H53.8548H54.1354H54.4185H54.7042H54.9924H55.2832H55.5765H55.8723H56.1705H56.4713H56.7745H57.0802H57.3883H57.6988H58.0117H58.327H58.6447H58.9647H59.2871H59.6118H59.9388H60.2681H60.5997H60.9335H61.2697H61.608H61.9486H62.2914H62.6363H62.9835H63.3328H63.6843H64.0379H64.3936H64.7514H65.1113H65.4733H65.8373H66.2034H66.5715H66.9417H67.3138H67.6879H68.064H68.4421H68.8221H69.204H69.5878H69.9735H70.3611H70.7506H71.1419H71.5351H71.9301H72.3268H72.7254H73.1258H73.5279H73.9318H74.3374H74.7447H75.1537H75.5644H75.9768H76.3908H76.8065H77.2238H77.6428H78.0633H78.4854H78.9091H79.3343H79.7611H80.1894H80.6192H81.0505H81.4833H81.9176H82.3533H82.7904H83.229H83.669H84.1103H84.5531H84.9972H85.4426H85.8894H86.3375H86.7869H87.2376H87.6895H88.1427H88.5972H89.0529H89.5098H89.9679H90.4272H90.8876H91.3492H91.812H92.2758H92.7408H93.2069H93.674H94.1423H94.6115H95.0818H95.5531H96.0255H96.4988H96.9731H97.4483H97.9245H98.4017H98.8797H99.3587H99.8385H100.319H100.801H101.283H101.766H102.25H102.735H103.221H103.707H104.194H104.682H105.171H105.66H106.15H106.641H107.132H107.624H108.117H108.61H109.104H109.598H110.094H110.589H111.085H111.582H112.079H112.577H113.075H113.574H114.073H114.572H115.072H115.572H116.073H116.574H117.076H117.578H118.08H118.582H119.085H119.588H120.092H120.595H121.099H121.604H122.108H122.612H123.117H123.622H124.127H124.632H125.138H125.643H126.149H126.654H127.16H127.666H128.172H128.678H129.184H129.689H130.195H130.701H131.207H131.712H132.218H132.724H133.229H133.734H134.239H134.744H135.249H135.754H136.258H136.763H137.267H137.77H138.274H138.777H139.28H139.783H140.285H140.787H141.289H141.79H142.291H142.791H143.291H143.791H144.29H144.789H145.288H145.785H146.283H146.78H147.276H147.772H148.267H148.762H149.256H149.749H150.242H150.735H151.226H151.717H152.207H152.697H153.186H153.674H154.162H154.648H155.134H155.619H156.104H156.587H157.07H157.552H158.033H158.513H158.992H159.471H159.948H160.425H160.901H161.375H161.849H162.322H162.793H163.264H163.734H164.202H164.67H165.137H165.602H166.066H166.53H166.992H167.452H167.912H168.371H168.828H169.284H169.739H170.193H170.646H171.097H171.547H171.995H172.443H172.889H173.333H173.777H174.218H174.659H175.098H175.536H175.972H176.407H176.84H177.272H177.703H178.132H178.559H178.985H179.409H179.832H180.253H180.673H181.091H181.507H181.922H182.335H182.746H183.156H183.564H183.97H184.375H184.778H185.179H185.578H185.975H186.371H186.765H187.157H187.547H187.936H188.322H188.707H189.089H189.47H189.849H190.226H190.601H190.974H191.345H191.714H192.081H192.445H192.808H193.169H193.528H193.884H194.239H194.591H194.941H195.289H195.635H195.979H196.32H196.659H196.996H197.331H197.664H197.994H198.322H198.648H198.971H199.292H199.61H199.927H200.241H200.552H200.861H201.168H201.472H201.774H202.073H202.37H202.664H202.956H203.245H203.532H203.816H204.098H204.377H204.653H204.927H205.198H205.466H205.732H205.995H206.256H206.514H206.769H207.021H207.271H207.517H207.761H208.003H208.241H208.476H208.709H208.939H209.166H209.39H209.611H209.83H210.045H210.257H210.467H210.673H210.877H211.077H211.275H211.469H211.661H211.849H212.034H212.216H212.395H212.571H212.744H212.914H213.08H213.244H213.404H213.561H213.714H213.865H214.012H214.156H214.296H214.434H214.568H214.698H214.825H214.949H215.07H215.187H215.301H215.411H215.518H215.622H215.722H215.818H215.911H216.001H216.087H216.169H216.248H216.323H216.395H216.463H216.528H216.589H216.646H216.7H216.75H216.796H216.838H216.877H216.912H216.944H216.971H216.99C233.842 150.548 246.018 143.433 253.621 133.179C261.26 122.875 264.371 109.276 262.774 95.7745C261.178 82.2829 254.892 68.992 243.875 59.314C232.879 49.6546 217.062 43.4997 196.215 44.4473L194.876 44.5082L194.421 43.2471C186.106 20.1919 166.92 3.4001 144.201 1.9075C118.869 0.420444 95.9216 17.9383 86.4707 44.023L85.9445 45.4751L84.4263 45.1917C56.3376 39.9485 33.6001 57.889 33.6001 82.0743V83.8936H31.7808C24.33 83.8936 16.5705 88.1831 10.8059 94.645C5.04523 101.103 1.55472 109.421 2.26874 117.096L2.28259 117.245L2.27194 117.395C1.19046 132.535 13.8289 151.768 41.012 151.024Z" fill="white" stroke="#5DACDA" stroke-width="3.63864"/>
<path fill-rule="evenodd" clip-rule="evenodd" d="M145.861 75.1139C148.955 75.1139 151.662 77.4342 151.662 80.5278C151.662 83.6215 149.342 86.3285 145.861 86.3285C142.381 86.3285 140.061 84.0082 140.061 80.5278C140.061 77.8209 142.381 75.1139 145.861 75.1139Z" fill="#5DACDA"/>
<path fill-rule="evenodd" clip-rule="evenodd" d="M177.57 75.1139C180.664 75.1139 183.371 77.4342 183.371 80.5278C183.371 83.6215 181.051 86.3285 177.57 86.3285C174.09 86.3285 171.77 84.0082 171.77 80.5278C171.77 77.8209 174.477 75.1139 177.57 75.1139Z" fill="#5DACDA"/>
<path d="M189.591 119.636C189.591 119.636 181.857 104.169 160.588 104.168C139.319 104.168 131.584 119.637 131.584 119.637" stroke="#5DACDA" stroke-width="3.63864"/>
<path fill-rule="evenodd" clip-rule="evenodd" d="M228.229 123.452C253.366 132.733 266.127 160.963 256.459 185.713C246.792 210.462 218.948 223.61 194.199 213.943C169.063 204.662 156.301 176.432 165.969 151.682C175.25 126.933 203.093 114.171 228.229 123.452Z" fill="#EC6277"/>
<path fill-rule="evenodd" clip-rule="evenodd" d="M193.811 214.329C168.675 205.048 155.914 176.819 165.581 152.069C174.862 126.933 203.092 114.171 227.842 123.839L193.811 214.329Z" fill="#595FA7"/>
<path fill-rule="evenodd" clip-rule="evenodd" d="M193.811 214.329C168.675 205.048 155.914 176.819 165.581 152.069C174.862 126.933 203.092 114.171 227.842 123.839C194.198 123.452 162.874 175.658 193.811 214.329Z" fill="#EC6277"/>
<path fill-rule="evenodd" clip-rule="evenodd" d="M194.198 214.329C219.334 223.61 247.178 211.235 256.459 186.099C266.126 160.963 253.365 133.12 228.615 123.839C254.138 145.881 242.924 205.822 194.198 214.329Z" fill="#595FA7"/>
<path fill-rule="evenodd" clip-rule="evenodd" d="M156.687 169.084C145.086 165.604 138.125 158.257 134.645 148.975C131.551 140.855 131.551 130.8 133.098 120.746L118.016 118.425L105.255 116.492C104.481 120.359 104.481 124.226 104.481 128.48C105.255 153.616 121.11 177.592 154.754 182.233C153.98 186.486 153.98 191.514 159.781 192.287L178.73 194.994C182.21 195.381 185.69 193.06 186.077 189.58L188.011 175.272C188.397 171.791 186.077 168.311 182.597 167.924C174.089 166.764 157.847 161.737 156.687 169.084Z" fill="white"/>
<mask id="path-10-inside-1" fill="white">
<path fill-rule="evenodd" clip-rule="evenodd" d="M104.481 128.093C105.255 153.229 121.11 177.205 154.754 181.846C153.98 186.1 153.98 191.127 159.781 191.9L178.73 194.607C182.21 194.994 185.69 192.674 186.077 189.193L188.011 174.885C188.397 171.405 186.077 167.924 182.597 167.538C173.702 166.377 157.847 161.35 156.687 168.698C145.086 165.217 136.578 156.71 134.258 147.042"/>
</mask>
<path fill-rule="evenodd" clip-rule="evenodd" d="M104.481 128.093C105.255 153.229 121.11 177.205 154.754 181.846C153.98 186.1 153.98 191.127 159.781 191.9L178.73 194.607C182.21 194.994 185.69 192.674 186.077 189.193L188.011 174.885C188.397 171.405 186.077 167.924 182.597 167.538C173.702 166.377 157.847 161.35 156.687 168.698C145.086 165.217 136.578 156.71 134.258 147.042" fill="white"/>
<path d="M154.754 181.846L155.251 178.241L159.013 178.76L158.334 182.497L154.754 181.846ZM159.781 191.9L160.262 188.294L160.279 188.296L160.295 188.298L159.781 191.9ZM178.73 194.607L178.328 198.224L178.271 198.217L178.215 198.209L178.73 194.607ZM186.077 189.193L182.461 188.792L182.466 188.749L182.471 188.706L186.077 189.193ZM188.011 174.885L191.627 175.287L191.622 175.33L191.617 175.372L188.011 174.885ZM182.597 167.538L182.195 171.154L182.161 171.15L182.126 171.146L182.597 167.538ZM156.687 168.698L160.281 169.265L159.632 173.38L155.642 172.183L156.687 168.698ZM108.118 127.981C108.483 139.832 112.397 151.288 120.062 160.298C127.699 169.274 139.235 176.032 155.251 178.241L154.256 185.45C136.629 183.019 123.415 175.469 114.52 165.013C105.653 154.591 101.253 141.491 100.844 128.205L108.118 127.981ZM158.334 182.497C157.964 184.528 157.934 186.068 158.254 187.028C158.385 187.42 158.546 187.626 158.72 187.766C158.905 187.914 159.329 188.169 160.262 188.294L159.3 195.507C157.332 195.245 155.582 194.581 154.159 193.436C152.726 192.284 151.848 190.821 151.35 189.329C150.413 186.519 150.769 183.418 151.174 181.195L158.334 182.497ZM160.295 188.298L179.244 191.005L178.215 198.209L159.266 195.502L160.295 188.298ZM179.131 190.991C180.996 191.198 182.336 189.913 182.461 188.792L189.694 189.595C189.045 195.434 183.424 198.79 178.328 198.224L179.131 190.991ZM182.471 188.706L184.405 174.398L191.617 175.372L189.683 189.681L182.471 188.706ZM184.394 174.483C184.602 172.619 183.317 171.279 182.195 171.154L182.999 163.921C188.838 164.57 192.193 170.191 191.627 175.287L184.394 174.483ZM182.126 171.146C179.77 170.838 176.963 170.277 174.285 169.772C171.528 169.252 168.827 168.775 166.406 168.55C163.905 168.319 162.12 168.404 161.033 168.735C160.535 168.886 160.37 169.035 160.345 169.06C160.335 169.07 160.334 169.073 160.33 169.08C160.326 169.088 160.301 169.141 160.281 169.265L153.093 168.13C153.35 166.502 154.055 165.061 155.192 163.921C156.291 162.82 157.625 162.165 158.916 161.772C161.406 161.015 164.358 161.052 167.077 161.304C169.877 161.563 172.88 162.101 175.634 162.621C178.466 163.155 180.977 163.657 183.067 163.93L182.126 171.146ZM155.642 172.183C143.025 168.398 133.394 159.032 130.72 147.891L137.796 146.193C139.763 154.388 147.147 162.037 157.733 165.213L155.642 172.183Z" fill="#5DACDA" mask="url(#path-10-inside-1)"/>
</svg>
