<svg width="152" height="21" viewBox="0 0 152 21" fill="none" xmlns="http://www.w3.org/2000/svg">
<path d="M9.88371 20.6826C7.82969 20.6826 6.06038 20.225 4.57579 19.3098C3.11154 18.3743 1.98284 17.1236 1.18971 15.5577C0.396569 13.9918 0 12.253 0 10.3413C0 8.42962 0.406737 6.69082 1.22021 5.12489C2.03368 3.55895 3.18272 2.3184 4.66731 1.40324C6.17223 0.467747 7.93137 0 9.94472 0C12.1208 0 14.0019 0.538926 15.5882 1.61678C17.1948 2.6743 18.3743 4.04703 19.1268 5.73499H16.6254C16.0153 4.65714 15.1611 3.80299 14.0629 3.17255C12.9851 2.54211 11.6734 2.22689 10.1278 2.22689C8.5008 2.22689 7.09756 2.59295 5.91802 3.32507C4.73849 4.03686 3.8335 5.00286 3.20305 6.22308C2.59295 7.44329 2.2879 8.81602 2.2879 10.3413C2.2879 11.8462 2.59295 13.219 3.20305 14.4595C3.81316 15.6797 4.69781 16.6559 5.85701 17.388C7.03655 18.0998 8.43979 18.4557 10.0667 18.4557C11.287 18.4557 12.436 18.1913 13.5138 17.6626C14.612 17.1338 15.4967 16.3712 16.1678 15.3747C16.8592 14.3782 17.205 13.1783 17.205 11.775H9.8227V9.70068H19.3098V20.4385H17.205V16.8694C16.7779 17.5202 16.2288 18.1405 15.5577 18.7302C14.8866 19.2997 14.0731 19.7674 13.1173 20.1335C12.1818 20.4995 11.1039 20.6826 9.88371 20.6826Z" fill="white"/>
<path d="M23.326 20.4385V0.244041H32.9962C35.0706 0.244041 36.7179 0.813473 37.9381 1.95234C39.1786 3.0912 39.7989 4.62663 39.7989 6.55863C39.7989 7.86019 39.5447 8.89737 39.0363 9.67017C38.5482 10.443 37.9279 11.0327 37.1754 11.4395C36.423 11.8259 35.6705 12.1106 34.9181 12.2936L40.226 20.4385H37.511L32.6302 12.6902H25.6139V20.4385H23.326ZM25.6139 10.5243H32.5997C33.3318 10.5243 34.0741 10.4125 34.8265 10.1888C35.579 9.96506 36.2094 9.56849 36.7179 8.99906C37.2466 8.40929 37.511 7.59581 37.511 6.55863C37.511 5.27741 37.0738 4.27074 36.1993 3.53861C35.3248 2.78615 34.1656 2.40992 32.7217 2.40992H25.6139V10.5243Z" fill="white"/>
<path d="M52.0603 20.6826C50.3927 20.6826 48.9081 20.3165 47.6066 19.5844C46.3254 18.8319 45.3187 17.7846 44.5866 16.4423C43.8544 15.1001 43.4884 13.5342 43.4884 11.7445V0.244041H45.7763V11.8055C45.7763 13.3715 46.0711 14.6425 46.6609 15.6187C47.271 16.5949 48.054 17.3168 49.0098 17.7846C49.986 18.232 51.0028 18.4557 52.0603 18.4557C53.1382 18.4557 54.155 18.232 55.1109 17.7846C56.0667 17.3168 56.8497 16.5949 57.4598 15.6187C58.0699 14.6425 58.3749 13.3715 58.3749 11.8055V0.244041H60.6628V11.7445C60.6628 13.5138 60.2968 15.0696 59.5646 16.4118C58.8325 17.7541 57.8157 18.8014 56.5141 19.5539C55.2329 20.3063 53.7483 20.6826 52.0603 20.6826Z" fill="white"/>
<path d="M63.7739 20.4385V18.2727L76.9522 2.37941H63.9569V0.244041H79.7587V2.44042L66.5804 18.3032H79.7587V20.4385H63.7739Z" fill="white"/>
<path d="M93.2202 20.4385V0.244041H102.311C104.466 0.244041 106.165 0.833809 107.405 2.01335C108.646 3.17255 109.266 4.74865 109.266 6.74166C109.266 8.73468 108.646 10.321 107.405 11.5005C106.165 12.6597 104.466 13.2393 102.311 13.2393H95.508V20.4385H93.2202ZM95.508 11.1039H102.158C103.744 11.1039 104.944 10.7175 105.758 9.94472C106.571 9.17192 106.978 8.10423 106.978 6.74166C106.978 5.39943 106.571 4.34192 105.758 3.56912C104.944 2.79632 103.744 2.40992 102.158 2.40992H95.508V11.1039Z" fill="#FF5F15"/>
<path d="M112.375 20.4385V0.244041H122.045C124.12 0.244041 125.767 0.813473 126.987 1.95234C128.228 3.0912 128.848 4.62663 128.848 6.55863C128.848 7.86019 128.594 8.89737 128.086 9.67017C127.597 10.443 126.977 11.0327 126.225 11.4395C125.472 11.8259 124.72 12.1106 123.967 12.2936L129.275 20.4385H126.56L121.679 12.6902H114.663V20.4385H112.375ZM114.663 10.5243H121.649C122.381 10.5243 123.123 10.4125 123.876 10.1888C124.628 9.96506 125.259 9.56849 125.767 8.99906C126.296 8.40929 126.56 7.59581 126.56 6.55863C126.56 5.27741 126.123 4.27074 125.249 3.53861C124.374 2.78615 123.215 2.40992 121.771 2.40992H114.663V10.5243Z" fill="#FF5F15"/>
<path d="M141.75 20.6826C140.225 20.6826 138.832 20.4182 137.571 19.8894C136.31 19.3607 135.222 18.6184 134.307 17.6626C133.412 16.7067 132.721 15.6085 132.233 14.368C131.745 13.1071 131.5 11.7649 131.5 10.3413C131.5 8.89737 131.745 7.55514 132.233 6.31459C132.721 5.07404 133.412 3.97585 134.307 3.02002C135.222 2.06419 136.31 1.32189 137.571 0.793136C138.832 0.264379 140.225 0 141.75 0C143.275 0 144.669 0.264379 145.929 0.793136C147.19 1.32189 148.268 2.06419 149.163 3.02002C150.078 3.97585 150.78 5.07404 151.268 6.31459C151.756 7.55514 152 8.89737 152 10.3413C152 11.7649 151.756 13.1071 151.268 14.368C150.78 15.6085 150.078 16.7067 149.163 17.6626C148.268 18.6184 147.19 19.3607 145.929 19.8894C144.669 20.4182 143.275 20.6826 141.75 20.6826ZM141.75 18.4557C143.398 18.4557 144.811 18.0998 145.99 17.388C147.19 16.6559 148.105 15.6797 148.736 14.4595C149.387 13.219 149.712 11.8462 149.712 10.3413C149.712 8.81602 149.387 7.44329 148.736 6.22308C148.105 5.00286 147.19 4.03686 145.99 3.32507C144.811 2.59295 143.398 2.22689 141.75 2.22689C140.123 2.22689 138.71 2.59295 137.51 3.32507C136.31 4.03686 135.385 5.00286 134.734 6.22308C134.104 7.44329 133.788 8.81602 133.788 10.3413C133.788 11.8462 134.104 13.219 134.734 14.4595C135.385 15.6797 136.31 16.6559 137.51 17.388C138.71 18.0998 140.123 18.4557 141.75 18.4557Z" fill="#FF5F15"/>
</svg>
