<svg width="40" height="40" viewBox="0 0 40 40" fill="none" xmlns="http://www.w3.org/2000/svg">
<rect width="40" height="40" rx="20" fill="#5DACDA"/>
<path fill-rule="evenodd" clip-rule="evenodd" d="M32.7215 13.7789C32.9069 13.1608 32.7215 12.7065 31.8392 12.7065H28.9218C28.18 12.7065 27.8382 13.0989 27.6528 13.5317C27.6528 13.5317 26.1691 17.1478 24.0674 19.4967C23.3874 20.1766 23.0784 20.3927 22.7075 20.3927C22.522 20.3927 22.2536 20.1766 22.2536 19.5586V13.7789C22.2536 13.037 22.0383 12.7065 21.4201 12.7065H16.8357C16.3722 12.7065 16.0934 13.0508 16.0934 13.3771C16.0934 14.0804 17.1441 14.2425 17.2524 16.2205V20.5167C17.2524 21.4586 17.0824 21.6295 16.7115 21.6295C15.7225 21.6295 13.3169 17.9969 11.8899 13.8408C11.6103 13.0329 11.3298 12.7065 10.5842 12.7065H7.66686C6.83333 12.7065 6.66663 13.0989 6.66663 13.5317C6.66663 14.3044 7.65581 18.137 11.2719 23.2057C13.6828 26.6669 17.0791 28.5436 20.1698 28.5436C22.0244 28.5436 22.2536 28.1268 22.2536 27.4089V24.7927C22.2536 23.9592 22.4293 23.7929 23.0163 23.7929C23.4493 23.7929 24.1909 24.0092 25.922 25.6781C27.8999 27.6559 28.2258 28.5436 29.3386 28.5436H32.2559C33.0895 28.5436 33.5062 28.1268 33.2658 27.3043C33.0028 26.4845 32.0584 25.2955 30.8052 23.8856C30.1252 23.0819 29.1052 22.2165 28.7964 21.7839C28.3636 21.2275 28.4871 20.9803 28.7964 20.4861C28.7964 20.4861 32.3505 15.4791 32.7215 13.7791V13.7789Z" fill="white"/>
</svg>
