<svg width="66" height="138" viewBox="0 0 66 138" fill="none" xmlns="http://www.w3.org/2000/svg">
<path d="M16.9846 137.667C18.879 131.471 26.8351 125.543 31.1363 123.203" stroke="#EC6277" stroke-width="2.21102" stroke-miterlimit="3.8637"/>
<path d="M47.5305 137.525C45.6362 131.33 37.68 125.402 33.3788 123.062" stroke="#EC6277" stroke-width="2.21102" stroke-miterlimit="3.8637"/>
<path d="M31.5151 122.937C24.4949 117.432 8.27048 115.805 8.64935 122.692C9.02821 129.511 27.2806 125.166 31.1361 123.204C31.2698 123.138 31.3814 123.071 31.5151 122.937Z" stroke="#EC6277" stroke-width="2.21102" stroke-miterlimit="3.8637"/>
<path d="M33.0001 122.796C40.0202 117.291 56.2447 115.664 55.8658 122.55C55.4869 129.37 37.2346 125.024 33.379 123.063C33.2453 122.996 33.1338 122.929 33.0001 122.796Z" stroke="#EC6277" stroke-width="2.21102" stroke-miterlimit="3.8637"/>
<path fill-rule="evenodd" clip-rule="evenodd" d="M64.3652 38.3994C64.8109 15.2886 50.4139 2.34025 33.9221 2.00596C17.3634 1.69395 2.4539 13.6394 2.00818 37.1291C1.56245 59.9948 19.436 78.4478 30.8689 80.1416C30.3563 81.5233 29.6655 83.4177 28.8409 85.1337C28.6403 85.4457 28.7071 85.7577 28.8409 86.0252C29.0191 86.3372 29.3534 86.4709 29.6654 86.5377L34.7913 86.6046C35.1033 86.6046 35.3708 86.4709 35.549 86.2257C35.7273 85.9806 35.7942 85.6463 35.6828 85.3343C35.0587 83.6182 34.301 81.6125 33.8553 80.2085C45.355 78.8267 63.9194 60.4405 64.3652 38.3994Z" fill="white"/>
<path d="M64.3652 38.3994C64.8109 15.2886 50.4139 2.34025 33.9221 2.00596C17.3634 1.69395 2.4539 13.6394 2.00818 37.1291C1.56245 59.9948 19.436 78.4478 30.8689 80.1416C30.3563 81.5233 29.6655 83.4177 28.8409 85.1337C28.6403 85.4457 28.7071 85.7577 28.8409 86.0252C29.0192 86.3372 29.3534 86.4709 29.6654 86.5377L34.7913 86.6046C35.1033 86.6046 35.3708 86.4709 35.549 86.2257C35.7273 85.9806 35.7942 85.6463 35.6828 85.3343C35.0587 83.6183 34.301 81.6125 33.8553 80.2084C45.355 78.8267 63.9194 60.4405 64.3652 38.3994Z" stroke="#EC6277" stroke-width="2.21102" stroke-miterlimit="3.8637"/>
<path d="M46.491 41.0511C44.2178 44.9735 39.092 47.6924 33.2307 47.6924C27.3471 47.6924 22.1768 44.9067 19.9705 40.9397" stroke="#EC6277" stroke-width="2.21102" stroke-miterlimit="3.8637"/>
<path fill-rule="evenodd" clip-rule="evenodd" d="M39.5382 32.4478H39.4714C39.9171 32.4478 40.3627 32.5815 40.7416 32.7598C41.1205 33.005 41.3657 33.2724 41.6331 33.6513C41.8337 34.0301 41.9452 34.4759 41.9452 34.8547V34.9216C41.9452 35.3005 41.8114 35.7462 41.6331 36.125C41.388 36.5039 41.1205 36.7491 40.7416 37.0165C40.3627 37.1948 39.9171 37.3285 39.5382 37.3285C39.0925 37.3285 38.6467 37.1948 38.2679 37.0165C37.889 36.7714 37.6439 36.5039 37.3765 36.125C37.1982 35.7462 37.0645 35.3005 37.0645 34.9216C37.0645 34.4759 37.1982 34.0301 37.3765 33.6513C37.6216 33.2724 37.889 33.0273 38.2679 32.7598C38.6467 32.5592 39.0925 32.4478 39.4714 32.4478H39.5382Z" fill="#EC6277"/>
<path d="M39.5382 32.4478H39.4714C39.9171 32.4478 40.3627 32.5815 40.7416 32.7598C41.1205 33.005 41.3657 33.2724 41.6331 33.6513C41.8337 34.0301 41.9452 34.4759 41.9452 34.8547V34.9216C41.9452 35.3005 41.8114 35.7462 41.6331 36.125C41.388 36.5039 41.1205 36.7491 40.7416 37.0165C40.3627 37.1948 39.9171 37.3285 39.5382 37.3285C39.0925 37.3285 38.6467 37.1948 38.2679 37.0165C37.889 36.7714 37.6439 36.5039 37.3765 36.125C37.1982 35.7462 37.0645 35.3005 37.0645 34.9216C37.0645 34.4759 37.1982 34.0301 37.3765 33.6513C37.6216 33.2724 37.889 33.0273 38.2679 32.7598C38.6467 32.5592 39.0925 32.4478 39.4714 32.4478H39.5382Z" stroke="#EC6277" stroke-width="0.505452" stroke-miterlimit="3.8637"/>
<path d="M21.8428 36.995L28.5956 35.1675V34.6104L22.0434 31.8246" stroke="#EC6277" stroke-width="2.21102" stroke-miterlimit="3.8637"/>
<path d="M32.2061 86.4696L32.4512 122.93" stroke="#EC6277" stroke-width="2.21102" stroke-miterlimit="3.8637"/>
</svg>
