<svg width="109" height="35" viewBox="0 0 109 35" fill="none" xmlns="http://www.w3.org/2000/svg">
<path fill-rule="evenodd" clip-rule="evenodd" d="M44.9451 18.5934C44.8046 18.0827 44.728 17.5465 44.728 16.9592C44.728 14.6738 46.209 1 50.3328 1C53.014 1 54.5716 6.75807 55.3249 11.4565C66.5474 8.27739 83.3747 7.03893 87.2815 7.03893C94.993 7.03893 101.326 11.5969 101.9 17.4571C102.079 17.4188 102.258 17.4188 102.475 17.4188C105.449 17.4188 107.862 19.8446 107.862 22.8066C107.862 25.7686 105.398 27.6965 102.475 28.1944C95.6697 29.4201 93.2056 29.4967 87.2815 29.4967C81.4213 29.5222 45.8388 26.6241 44.9451 18.5934Z" fill="white"/>
<path d="M44.9451 18.5934C44.8046 18.0827 44.728 17.5465 44.728 16.9592C44.728 14.6738 46.209 1 50.3328 1C53.014 1 54.5716 6.75807 55.3249 11.4565C66.5474 8.27739 83.3747 7.03893 87.2815 7.03893C94.993 7.03893 101.326 11.5969 101.9 17.4571C102.079 17.4188 102.258 17.4188 102.475 17.4188C105.449 17.4188 107.862 19.8446 107.862 22.8066C107.862 25.7686 105.398 27.6965 102.475 28.1944C95.6697 29.4201 93.2056 29.4967 87.2815 29.4967C81.4213 29.5222 45.8388 26.6241 44.9451 18.5934Z" stroke="#5DACDA" stroke-width="1.26665" stroke-miterlimit="3.8637"/>
<path fill-rule="evenodd" clip-rule="evenodd" d="M67.3008 16.6008C69.6883 14.7496 73.2376 15.1836 75.1527 17.5711C77.0678 20.0352 76.672 23.5463 74.2845 25.4231C72.5098 26.8402 56.589 36.5689 54.0227 33.3516C51.4948 30.1087 65.5261 17.9797 67.3008 16.6008Z" fill="white"/>
<path d="M67.3008 16.6008C69.6883 14.7496 73.2376 15.1836 75.1527 17.5711C77.0678 20.0352 76.672 23.5463 74.2845 25.4231C72.5098 26.8402 56.589 36.5689 54.0227 33.3516C51.4948 30.1087 65.5261 17.9797 67.3008 16.6008Z" stroke="#5DACDA" stroke-width="0.977085" stroke-miterlimit="3.8637"/>
<path fill-rule="evenodd" clip-rule="evenodd" d="M61.8748 16.7797C61.9131 16.7797 61.9131 16.7797 61.9514 16.7797C62.2451 16.7797 62.5643 16.8563 62.8196 17.035C63.1133 17.1755 63.3303 17.3925 63.4708 17.6862C63.6495 17.9415 63.726 18.2607 63.726 18.5543C63.726 18.8863 63.6495 19.2055 63.4708 19.4608C63.3303 19.7545 63.1133 19.9715 62.8196 20.112C62.5643 20.2907 62.2451 20.3673 61.9514 20.3673C61.6195 20.3673 61.3003 20.2907 61.0449 20.112C60.7513 19.9715 60.5342 19.7545 60.3938 19.4608C60.215 19.2055 60.1384 18.8863 60.1384 18.5543C60.1384 18.2607 60.215 17.9415 60.3938 17.6862C60.5342 17.3925 60.7513 17.1755 61.0449 17.035C61.3003 16.8563 61.5812 16.7797 61.8748 16.7797Z" fill="#5DACDA"/>
<path fill-rule="evenodd" clip-rule="evenodd" d="M55.6824 16.7797C55.7207 16.7797 55.7207 16.7797 55.759 16.7797C56.0526 16.7797 56.3718 16.8563 56.6272 17.035C56.9208 17.1755 57.1379 17.3925 57.2783 17.6862C57.457 17.9415 57.5337 18.2607 57.5337 18.5543C57.5337 18.8863 57.457 19.2055 57.2783 19.4608C57.1379 19.7545 56.9208 19.9715 56.6272 20.112C56.3718 20.2907 56.0526 20.3673 55.759 20.3673C55.427 20.3673 55.1079 20.2907 54.8526 20.112C54.5589 19.9715 54.3418 19.7545 54.2014 19.4608C54.0227 19.2055 53.946 18.8863 53.946 18.5543C53.946 18.2607 54.0227 17.9415 54.2014 17.6862C54.3418 17.3925 54.5589 17.1755 54.8526 17.035C55.1079 16.8563 55.4015 16.7797 55.6824 16.7797Z" fill="#5DACDA"/>
<path d="M1 14.4307C12.2608 24.0573 43.8854 23.4828 54.5589 11.0601L56.5124 10.3324" stroke="#595FA7" stroke-width="1.33904" stroke-miterlimit="3.8637"/>
<path fill-rule="evenodd" clip-rule="evenodd" d="M86.5923 16.2435H86.5539C86.8093 16.2435 87.0647 16.3201 87.2434 16.4223C87.4605 16.5244 87.6392 16.7159 87.7541 16.9329C87.869 17.1117 87.9328 17.367 87.9328 17.5841V17.6224C87.9328 17.8394 87.8562 18.0948 87.7541 18.2735C87.6392 18.4906 87.4605 18.6693 87.2434 18.7842C87.0647 18.8991 86.8093 18.963 86.5923 18.963C86.3369 18.963 86.0816 18.8864 85.9029 18.7842C85.6858 18.6821 85.507 18.4906 85.3921 18.2735C85.2772 18.0948 85.2134 17.8394 85.2134 17.6224C85.2134 17.367 85.29 17.1117 85.3921 16.9329C85.4943 16.7159 85.6858 16.5372 85.9029 16.4223C86.0816 16.3073 86.3369 16.2435 86.5539 16.2435H86.5923Z" fill="#5DACDA"/>
<path d="M98.1723 21.0185C96.9084 23.2655 94.0485 24.7848 90.7545 24.7848C87.4222 24.7848 84.5623 23.2272 83.2983 20.9802" stroke="#5DACDA" stroke-width="1.23052" stroke-miterlimit="3.8637"/>
<path fill-rule="evenodd" clip-rule="evenodd" d="M94.2656 16.2435H94.2273C94.4826 16.2435 94.738 16.3201 94.9168 16.4223C95.1338 16.5244 95.3125 16.7159 95.4274 16.9329C95.5295 17.1117 95.6062 17.367 95.6062 17.5841V17.6224C95.6062 17.8394 95.5295 18.0948 95.4274 18.2735C95.3125 18.4906 95.1338 18.6693 94.9168 18.7842C94.738 18.8991 94.4827 18.963 94.2656 18.963C94.0103 18.963 93.7549 18.8864 93.5761 18.7842C93.3591 18.6821 93.1804 18.4906 93.0655 18.2735C92.9506 18.0948 92.8867 17.8394 92.8867 17.6224C92.8867 17.367 92.9633 17.1117 93.0655 16.9329C93.1804 16.7159 93.3591 16.5372 93.5761 16.4223C93.7549 16.3073 94.0102 16.2435 94.2273 16.2435H94.2656Z" fill="#5DACDA"/>
<path d="M11.2138 23.7764C10.1285 20.2271 5.57054 16.831 3.10645 15.4904" stroke="#595FA7" stroke-width="0.723781" stroke-miterlimit="3.8637"/>
<path d="M2.88965 15.3376C6.91136 12.184 16.2443 11.2521 15.989 15.1972C15.7719 19.104 5.31542 16.6143 3.10667 15.4908C3.03007 15.4525 2.95349 15.4142 2.88965 15.3376Z" stroke="#595FA7" stroke-width="0.723781" stroke-miterlimit="3.8637"/>
</svg>
