<svg width="95" height="79" viewBox="0 0 95 79" fill="none" xmlns="http://www.w3.org/2000/svg">
<path d="M24.5735 77.1708H114.229C115.053 77.1708 115.878 77.1708 116.703 77.1039C122.454 76.7918 126.756 74.585 129.654 71.5534C132.507 68.5218 134.023 64.7323 134.068 61.188V59.9843V59.9174V59.8505C134.135 59.5385 134.135 59.1595 134.135 58.8474C134.135 55.1248 132.374 51.2684 129.721 48.3037C127.068 45.339 123.524 43.1767 119.935 42.7978H118.999H118.174V41.973C118.174 40.8361 118.04 39.7662 117.862 38.6293C117.037 33.8813 114.518 29.8466 110.796 26.9933C107.073 24.1623 102.191 22.4459 96.7746 22.5128C95.2588 22.5128 93.743 22.6465 92.0935 22.8917L91.4694 23.0255L91.2241 22.4013C88.8166 15.6917 84.6482 10.0743 79.4098 6.28479C74.3496 2.62904 68.2196 0.667414 61.7775 1.04636C55.9595 1.42531 50.6541 3.69903 46.2851 7.3102C41.7377 11.0328 38.1933 16.1598 36.0533 22.1561L35.8751 22.7357H35.2955C19.179 22.0447 8.81358 29.5568 4.08784 39.2981C2.32684 42.9538 1.30148 46.8771 1.05627 50.8003C0.81107 54.6567 1.36833 58.5799 2.7058 62.1019C5.67053 70.3943 13.0043 76.8587 24.5735 77.1708Z" fill="white" stroke="#5DACDA" stroke-width="1.88" stroke-miterlimit="3.8637"/>
</svg>
