<svg width="16" height="21" fill="none" xmlns="http://www.w3.org/2000/svg"><g clip-path="url(#clip0)"><path d="M8.822 20.576C14.876 11.936 16 11.05 16 7.875 16 3.525 12.418 0 8 0S0 3.526 0 7.875c0 3.175 1.124 4.062 7.178 12.701a1.01 1.01 0 001.644 0zM8 11.156c-1.841 0-3.333-1.469-3.333-3.281S6.159 4.594 8 4.594c1.841 0 3.333 1.469 3.333 3.281S9.841 11.156 8 11.156z" fill="#fff"/></g><defs><clipPath id="clip0"><path fill="#fff" transform="matrix(-1 0 0 1 16 0)" d="M0 0h16v21H0z"/></clipPath></defs></svg>