<svg width="60" height="60" viewBox="0 0 60 60" fill="none" xmlns="http://www.w3.org/2000/svg">
<path d="M58.5151 30.8942L50.2985 26.1333L58.5151 21.3735C58.8139 21.2009 58.9981 20.8823 58.9985 20.5373C58.9981 20.1923 58.8139 19.8737 58.5151 19.7011L40.1485 9.0678C39.8494 8.89513 39.4809 8.89513 39.1818 9.0678L37.2485 10.1862C36.7754 10.4337 36.5926 11.0178 36.84 11.4909C37.0875 11.9639 37.6716 12.1468 38.1447 11.8993C38.1687 11.8867 38.1923 11.8731 38.2153 11.8586L39.6652 11.0205L56.0986 20.5373L48.3653 25.0168L36.6918 18.2579L37.5618 17.0206C37.8677 16.583 37.761 15.9803 37.3235 15.6745C37.1599 15.5601 36.9649 15.4992 36.7653 15.5H33.8652C33.8562 7.49564 27.3696 1.00906 19.3653 1H9.69859C9.16475 1 8.73192 1.43282 8.73192 1.96667C8.73192 2.50051 9.16475 2.93333 9.69859 2.93333H19.3653C26.3023 2.94131 31.9239 8.56296 31.9319 15.5V16.4667C31.9319 17.0005 32.3647 17.4333 32.8986 17.4333H34.9093L29.9986 24.4475L25.0878 17.4333H27.0985C27.6323 17.4333 28.0651 17.0005 28.0651 16.4667V14.5333C28.062 11.3314 25.4671 8.73647 22.2651 8.73333H17.4318C16.898 8.73333 16.4651 9.16616 16.4651 9.7C16.4651 10.2338 16.898 10.6667 17.4318 10.6667H22.2651C24.4006 10.6667 26.1318 12.3978 26.1318 14.5333V15.5H23.2318C22.698 15.5002 22.2654 15.9333 22.2656 16.4671C22.2657 16.6651 22.3266 16.8583 22.4401 17.0206L23.3053 18.2579L11.6318 25.0168L3.89847 20.5373L16.1626 13.4362C16.6356 13.1887 16.8185 12.6046 16.571 12.1315C16.3235 11.6585 15.7394 11.4755 15.2663 11.723C15.2423 11.7356 15.2187 11.7492 15.1958 11.7637L1.4818 19.7011C1.01998 19.969 0.862773 20.5605 1.13066 21.0223C1.21512 21.1679 1.3362 21.289 1.4818 21.3735L9.69847 26.1333L1.4818 30.8932C1.01998 31.1611 0.862773 31.7526 1.13066 32.2144C1.21512 32.36 1.3362 32.4811 1.4818 32.5655L10.6651 37.8822V47.4C10.6655 47.745 10.8496 48.0636 11.1485 48.2362L29.5151 58.8695C29.5374 58.883 29.5635 58.8879 29.5867 58.8995C29.6099 58.9111 29.6398 58.9227 29.6679 58.9333C29.8799 59.0222 30.1189 59.0222 30.331 58.9333C30.359 58.9227 30.3851 58.912 30.4122 58.8995C30.4393 58.8869 30.4615 58.883 30.4837 58.8695L48.8504 48.2362C49.1485 48.0631 49.3318 47.7446 49.3318 47.4V37.8832L58.5151 32.5665C58.977 32.2986 59.1342 31.7071 58.8663 31.2453C58.7817 31.0997 58.6607 30.9786 58.5151 30.8942ZM3.89847 31.7294L11.6318 27.2498L28.0651 36.7667L20.3318 41.2462L3.89847 31.7294ZM29.0318 56.3571L12.5985 46.8432V39.0026L19.8485 43.1989C20.1475 43.3715 20.5161 43.3715 20.8151 43.1989L29.0318 38.4429V56.3571ZM29.9985 35.6502L13.5651 26.1333L24.4227 19.85L29.2068 26.6872C29.5131 27.1245 30.1159 27.2306 30.5531 26.9243C30.6453 26.8597 30.7255 26.7794 30.7902 26.6872L35.579 19.85L46.4366 26.1333L29.9985 35.6502ZM47.3985 46.8432L30.9651 56.3571V38.4429L39.1818 43.1989C39.4809 43.3715 39.8494 43.3715 40.1485 43.1989L47.3985 39.0026V46.8432ZM39.6651 41.2462L31.9318 36.7667L48.3651 27.2498L56.0985 31.7294L39.6651 41.2462Z" fill="white"/>
<path d="M6.15486 1H4.09263C3.5232 1 3.06152 1.46168 3.06152 2.03111C3.06152 2.60054 3.5232 3.06222 4.09263 3.06222H6.15486C6.72429 3.06222 7.18597 2.60054 7.18597 2.03111C7.18597 1.46168 6.72429 1 6.15486 1Z" fill="white"/>
<path d="M16.4665 5.12439H8.21764C7.6482 5.12439 7.18652 5.58607 7.18652 6.1555C7.18652 6.72493 7.6482 7.18661 8.21764 7.18661H16.4665C17.036 7.18661 17.4976 6.72493 17.4976 6.1555C17.4976 5.58607 17.036 5.12439 16.4665 5.12439Z" fill="white"/>
<path d="M45.3993 42.5227C44.8298 42.5227 44.3682 42.9844 44.3682 43.5538V45.6161C44.3682 46.1855 44.8298 46.6472 45.3993 46.6472C45.9687 46.6472 46.4304 46.1855 46.4304 45.6161V43.5538C46.4304 42.9844 45.9687 42.5227 45.3993 42.5227Z" fill="white"/>
<path d="M41.972 44.5C41.4026 44.5 40.9409 44.9617 40.9409 45.5311V47.5933C40.9409 48.1628 41.4026 48.6245 41.972 48.6245C42.5414 48.6245 43.0031 48.1628 43.0031 47.5933V45.5311C43.0031 44.9617 42.5414 44.5 41.972 44.5Z" fill="white"/>
<path d="M13.5292 11.0327C14.2069 11.0327 14.7566 10.4814 14.7566 9.80346C14.7566 9.12556 14.2069 8.57605 13.5292 8.57605C12.8514 8.57605 12.3018 9.12569 12.3018 9.80346V9.8069C12.3018 10.4848 12.8514 11.0327 13.5292 11.0327Z" fill="#FF2C2C"/>
</svg>
