<svg width="60" height="60" viewBox="0 0 60 60" fill="none" xmlns="http://www.w3.org/2000/svg">
<path d="M45.6445 9.625H40.0547V9.35853C40.0547 7.7047 38.7094 6.359 37.0552 6.359H35.1357C34.2598 4.34732 32.2538 3 30.01 3H29.8103C27.5665 3 25.5605 4.34732 24.6846 6.359H22.7651C21.1109 6.359 19.7656 7.7047 19.7656 9.35853V9.625H14.1758C10.9349 9.625 9 11.1729 9 13.7656V50.8242C9 53.6782 11.3218 56 14.1758 56H45.6445C48.4985 56 50.8203 53.6782 50.8203 50.8242V27.3953C50.8203 26.8236 50.3569 26.3602 49.7851 26.3602C49.2134 26.3602 48.75 26.8236 48.75 27.3953V50.8242C48.75 52.5367 47.357 53.9297 45.6445 53.9297H14.1758C12.4633 53.9297 11.0703 52.5367 11.0703 50.8242V13.7656C11.0703 13.2537 11.0703 11.6953 14.1758 11.6953H19.7656V13.1445C19.7656 13.7163 20.229 14.1797 20.8008 14.1797H39.0195C39.5913 14.1797 40.0547 13.7163 40.0547 13.1445V11.6953H45.6445C47.357 11.6953 48.75 13.0883 48.75 14.8008V18.2859C48.75 18.8577 49.2134 19.3211 49.7851 19.3211C50.3569 19.3211 50.8203 18.8577 50.8203 18.2859V14.8008C50.8203 11.9468 48.4985 9.625 45.6445 9.625ZM37.9844 12.1094H21.8359V9.35853C21.8359 8.84621 22.2528 8.42931 22.7651 8.42931H25.4153C25.8827 8.42931 26.292 8.11634 26.4145 7.66548C26.8289 6.13741 28.2256 5.07031 29.8103 5.07031H30.01C31.5947 5.07031 32.9914 6.13741 33.4062 7.66548C33.5283 8.11634 33.938 8.42931 34.405 8.42931H37.0556C37.5679 8.42931 37.9844 8.84621 37.9844 9.35853V12.1094Z" fill="white"/>
<path d="M49.7852 21.5822C49.513 21.5822 49.2457 21.6917 49.0533 21.8842C48.8608 22.0779 48.75 22.344 48.75 22.6161C48.75 22.8894 48.8608 23.1555 49.0533 23.3488C49.2457 23.5417 49.513 23.6525 49.7852 23.6525C50.0573 23.6525 50.3246 23.5417 50.517 23.3488C50.7095 23.1563 50.8203 22.8894 50.8203 22.6161C50.8203 22.344 50.7095 22.0767 50.517 21.8842C50.3246 21.6917 50.0573 21.5822 49.7852 21.5822Z" fill="#FF2C2C"/>
<path d="M46.6288 24.5311H34.7593C34.1875 24.5311 33.7241 24.9945 33.7241 25.5663C33.7241 26.138 34.1875 26.6014 34.7593 26.6014H46.6292C47.2006 26.6014 47.6644 26.138 47.6644 25.5663C47.6644 24.9945 47.2006 24.5311 46.6288 24.5311Z" fill="white"/>
<path d="M46.6288 19.5626H34.7593C34.1875 19.5626 33.7241 20.026 33.7241 20.5978C33.7241 21.1695 34.1875 21.6329 34.7593 21.6329H46.6292C47.2006 21.6329 47.6644 21.1695 47.6644 20.5978C47.6644 20.026 47.2006 19.5626 46.6288 19.5626Z" fill="white"/>
<path d="M46.6288 36.9531H34.7593C34.1875 36.9531 33.7241 37.4165 33.7241 37.9883C33.7241 38.56 34.1875 39.0234 34.7593 39.0234H46.6292C47.2006 39.0234 47.6644 38.56 47.6644 37.9883C47.6644 37.4165 47.2006 36.9531 46.6288 36.9531Z" fill="white"/>
<path d="M46.6288 31.9843H34.7593C34.1875 31.9843 33.7241 32.4476 33.7241 33.0194C33.7241 33.5912 34.1875 34.0546 34.7593 34.0546H46.6292C47.2006 34.0546 47.6644 33.5912 47.6644 33.0194C47.6644 32.4476 47.2006 31.9843 46.6288 31.9843Z" fill="white"/>
<path d="M46.6288 49.3751H34.7593C34.1875 49.3751 33.7241 49.8385 33.7241 50.4103C33.7241 50.982 34.1875 51.4454 34.7593 51.4454H46.6292C47.2006 51.4454 47.6644 50.982 47.6644 50.4103C47.6644 49.8385 47.2006 49.3751 46.6288 49.3751Z" fill="white"/>
<path d="M46.6288 44.4062H34.7593C34.1875 44.4062 33.7241 44.8696 33.7241 45.4414C33.7241 46.0132 34.1875 46.4766 34.7593 46.4766H46.6292C47.2006 46.4766 47.6644 46.0132 47.6644 45.4414C47.6644 44.8696 47.2006 44.4062 46.6288 44.4062Z" fill="white"/>
<path d="M18.5093 21.4061L20.5135 25.2912L25.524 19.6794" stroke="white" stroke-width="1.7" stroke-linecap="round"/>
<path d="M18.5093 34.0326L20.5135 37.9177L25.524 32.3059" stroke="white" stroke-width="1.7" stroke-linecap="round"/>
<path d="M18.5093 46.6591L20.5135 50.5441L25.524 44.9324" stroke="white" stroke-width="1.7" stroke-linecap="round"/>
</svg>
