<svg width="65" height="59" viewBox="0 0 65 59" fill="none" xmlns="http://www.w3.org/2000/svg">
<g filter="url(#filter0_d)">
<ellipse cx="39" cy="41" rx="23" ry="11" fill="white"/>
<path d="M61.5 41C61.5 43.7344 59.1654 46.3578 55.0477 48.3271C50.9666 50.2789 45.2935 51.5 39 51.5C32.7065 51.5 27.0334 50.2789 22.9523 48.3271C18.8346 46.3578 16.5 43.7344 16.5 41C16.5 38.2656 18.8346 35.6422 22.9523 33.6729C27.0334 31.7211 32.7065 30.5 39 30.5C45.2935 30.5 50.9666 31.7211 55.0477 33.6729C59.1654 35.6422 61.5 38.2656 61.5 41Z" stroke="url(#paint0_linear)"/>
</g>
<rect width="39" height="39" transform="translate(26 5)" fill="white"/>
<path d="M38.336 14.5672C38.1943 14.4255 37.9978 14.344 37.7975 14.344C37.5972 14.344 37.4006 14.4255 37.2589 14.5672C37.1173 14.7089 37.0358 14.9054 37.0358 15.1057C37.0358 15.306 37.1173 15.5026 37.2589 15.6442C37.4006 15.786 37.5972 15.8674 37.7975 15.8674C37.9978 15.8674 38.1943 15.7859 38.336 15.6442C38.4776 15.5026 38.5592 15.306 38.5592 15.1057C38.5592 14.9054 38.4777 14.7089 38.336 14.5672Z" fill="#898899"/>
<path d="M64.7772 8.18744L63.8353 7.24451L64.7769 6.30295C65.0743 6.0055 65.0743 5.52318 64.7769 5.22565C64.4794 4.9282 63.9972 4.9282 63.6996 5.22565L62.7586 6.1666L61.8306 5.23746C61.6877 5.09456 61.4941 5.01412 61.2921 5.01405L48.3997 5.00689C48.3989 5.00689 48.3983 5.00689 48.3976 5.00689C47.3795 5.00689 46.4224 5.40328 45.7025 6.12319L39.2691 12.5567C38.9716 12.8541 38.9716 13.3364 39.2691 13.634C39.5666 13.9314 40.0488 13.9314 40.3464 13.634L46.7798 7.20048C47.212 6.76828 47.7865 6.5304 48.3976 6.5304C48.398 6.5304 48.3985 6.5304 48.3989 6.5304L60.9757 6.53741L61.6815 7.24398L58.8552 10.0703C57.6567 9.35242 56.0767 9.50895 55.045 10.5405C54.4557 11.1299 54.1311 11.9135 54.1311 12.7469C54.1311 13.5804 54.4557 14.364 55.045 14.9534C55.6533 15.5617 56.4524 15.8659 57.2516 15.8659C58.0506 15.8659 58.8497 15.5617 59.458 14.9534C60.488 13.9233 60.6456 12.3464 59.9315 11.1485L62.7582 8.32189L63.4765 9.04102L63.4695 21.6008C63.4691 22.2114 63.2311 22.7855 62.7993 23.2173L44.2116 41.8048C43.7795 42.237 43.2049 42.4749 42.5939 42.4749C41.9828 42.4749 41.4083 42.237 40.9762 41.8048L28.1936 29.0222C27.7614 28.5901 27.5234 28.0155 27.5234 27.4045C27.5234 26.7934 27.7614 26.2189 28.1936 25.7867L36.4045 17.5759C36.7019 17.2784 36.7019 16.7961 36.4045 16.4986C36.1069 16.2011 35.6248 16.2011 35.3272 16.4986L27.1163 24.7094C26.3965 25.4293 26 26.3864 26 27.4045C26 28.4225 26.3965 29.3797 27.1163 30.0995L39.8989 42.8821C40.6419 43.6251 41.6178 43.9967 42.5939 43.9967C43.57 43.9967 44.5459 43.6251 45.2889 42.8821L63.8765 24.2944C64.5958 23.5752 64.9922 22.6187 64.9928 21.6015L65 8.72613C65.0002 8.52412 64.9199 8.33034 64.7772 8.18744ZM58.3807 13.876C58.0791 14.1777 57.6781 14.3438 57.2516 14.3438C56.8249 14.3438 56.424 14.1777 56.1223 13.876C55.4996 13.2534 55.4996 12.2402 56.1223 11.6176C56.4337 11.3062 56.8425 11.1506 57.2516 11.1506C57.4056 11.1506 57.5595 11.1728 57.7084 11.217L56.8292 12.0961C56.5317 12.3936 56.5317 12.8759 56.8292 13.1734C56.978 13.3222 57.1729 13.3965 57.3678 13.3965C57.5627 13.3965 57.7577 13.3222 57.9064 13.1734L58.7832 12.2967C58.9415 12.839 58.8075 13.4492 58.3807 13.876Z" fill="#898899"/>
<path d="M58.5375 20.338L49.6606 11.4609C48.4846 10.285 46.5711 10.2852 45.3953 11.4609L31.3476 25.5087C30.7779 26.0783 30.4642 26.8357 30.4642 27.6413C30.4642 28.4469 30.7778 29.2043 31.3475 29.774L40.2246 38.6509C40.7943 39.2206 41.5516 39.5343 42.3572 39.5343C43.1628 39.5343 43.9202 39.2206 44.4898 38.6509L58.5375 24.6032C59.1072 24.0335 59.4209 23.2762 59.4209 22.4706C59.4209 21.665 59.1072 20.9076 58.5375 20.338ZM57.4602 23.5259L43.4126 37.5738C43.1307 37.8556 42.7559 38.0109 42.3573 38.0109C41.9587 38.0109 41.5838 37.8556 41.302 37.5737L32.4248 28.6967C32.1429 28.4148 31.9877 28.0401 31.9877 27.6414C31.9876 27.2427 32.1429 26.8678 32.4248 26.586L46.4726 12.5382C46.7636 12.2473 47.1457 12.1018 47.528 12.1018C47.9101 12.1018 48.2924 12.2473 48.5833 12.5382L57.4602 21.4152C57.7422 21.6971 57.8974 22.0719 57.8974 22.4706C57.8974 22.8692 57.7422 23.244 57.4602 23.5259Z" fill="#898899"/>
<path d="M49.3369 19.7286L49.2695 19.687C48.1328 18.9849 46.6821 19.0832 45.769 19.9961C45.2359 20.5292 44.9623 21.2535 45.0003 22.0383C45.037 22.796 45.3631 23.5207 45.9204 24.0785L49.3369 19.7286ZM49.3369 19.7286L49.3928 19.6726M49.3369 19.7286L49.3928 19.6726M43.7096 22.9911C43.7096 22.9911 43.7096 22.9912 43.7096 22.9912C43.968 23.2496 43.968 23.6686 43.7096 23.927L43.7096 23.927C43.1324 24.5043 43.2204 25.4972 43.8621 26.139L43.8622 26.139C44.5039 26.7807 45.4968 26.8687 46.0741 26.2915L46.0741 26.2915C46.651 25.7147 46.5634 24.7227 45.9228 24.0809L43.7803 22.9204L43.7096 22.9911ZM43.7096 22.9911C43.4511 22.7328 43.0322 22.7327 42.7737 22.9912M43.7096 22.9911L42.7737 22.9912M42.7737 22.9912C41.8606 23.9042 41.7624 25.3549 42.4646 26.4917L42.5061 26.559L42.4502 26.615L41.9298 27.1353C41.9298 27.1353 41.9298 27.1353 41.9298 27.1353C41.6714 27.3937 41.6714 27.8127 41.9298 28.0712C42.0595 28.2006 42.2286 28.2651 42.3981 28.2651C42.5676 28.2651 42.7367 28.2005 42.866 28.0713C42.866 28.0713 42.866 28.0713 42.866 28.0713L43.3867 27.5506L43.4426 27.4947L43.5099 27.5362C44.0061 27.8426 44.5627 27.9975 45.1085 27.9975C45.8116 27.9974 46.4956 27.7419 47.0101 27.2274C48.0888 26.1486 48.0302 24.3173 46.8581 23.1445L46.8581 23.1445L46.8575 23.1439C46.5346 22.821 46.3432 22.4061 46.3223 21.9743L46.3223 21.9743C46.3028 21.5716 46.4369 21.2 46.7049 20.932C47.2734 20.3635 48.2449 20.4403 48.8873 21.0556L48.8879 21.0556L48.9165 21.0843C48.9166 21.0843 48.9166 21.0843 48.9166 21.0844C48.9167 21.0844 48.9167 21.0844 48.9168 21.0845C48.9168 21.0846 48.9169 21.0846 48.917 21.0847C49.5586 21.7265 49.6465 22.7193 49.0693 23.2964C48.8109 23.5548 48.8109 23.9738 49.0693 24.2323L42.7737 22.9912ZM49.3928 19.6726L49.8314 19.2341C49.8314 19.2341 49.8314 19.2341 49.8314 19.234M49.3928 19.6726L49.8314 19.234M50.2727 20.6645L50.3287 20.6085L50.7673 20.1699C51.0257 19.9115 51.0257 19.4925 50.7673 19.2341C50.7673 19.234 50.7673 19.234 50.7673 19.234M50.2727 20.6645L50.7673 19.234M50.2727 20.6645L50.3143 20.7318M50.2727 20.6645L50.3143 20.7318M50.7673 19.234C50.5088 18.9757 50.09 18.9756 49.8314 19.234M50.7673 19.234L49.8314 19.234M50.3143 20.7318C51.0165 21.8685 50.9182 23.3192 50.0051 24.2323C49.8758 24.3616 49.7067 24.4261 49.5372 24.4261C49.3677 24.4261 49.1986 24.3616 49.0693 24.2323L50.3143 20.7318Z" fill="#FF2C2C" stroke="white" stroke-width="0.2"/>
<path d="M43.1286 32.8688L39.2163 28.9564C38.9189 28.6592 38.4367 28.6591 38.139 28.9564C37.8416 29.2539 37.8416 29.7362 38.139 30.0337L42.0514 33.9461C42.2001 34.0948 42.3951 34.1692 42.59 34.1692C42.7849 34.1692 42.9798 34.0948 43.1286 33.9461C43.4261 33.6486 43.4261 33.1663 43.1286 32.8688Z" fill="#898899"/>
<path d="M37.1293 26.8697C36.9877 26.7281 36.7919 26.6465 36.5909 26.6465C36.3905 26.6465 36.1948 26.728 36.0523 26.8697C35.9107 27.0114 35.8292 27.2079 35.8292 27.409C35.8292 27.6094 35.9106 27.8059 36.0523 27.9476C36.194 28.0892 36.3905 28.1707 36.5909 28.1707C36.792 28.1707 36.9877 28.0892 37.1293 27.9476C37.2718 27.8051 37.3533 27.6094 37.3533 27.409C37.3533 27.2079 37.2718 27.0122 37.1293 26.8697Z" fill="#898899"/>
<defs>
<filter id="filter0_d" x="9" y="27" width="56" height="32" filterUnits="userSpaceOnUse" color-interpolation-filters="sRGB">
<feFlood flood-opacity="0" result="BackgroundImageFix"/>
<feColorMatrix in="SourceAlpha" type="matrix" values="0 0 0 0 0 0 0 0 0 0 0 0 0 0 0 0 0 0 127 0"/>
<feOffset dx="-2" dy="2"/>
<feGaussianBlur stdDeviation="2.5"/>
<feColorMatrix type="matrix" values="0 0 0 0 0.439649 0 0 0 0 0.470085 0 0 0 0 0.529167 0 0 0 0.2 0"/>
<feBlend mode="normal" in2="BackgroundImageFix" result="effect1_dropShadow"/>
<feBlend mode="normal" in="SourceGraphic" in2="effect1_dropShadow" result="shape"/>
</filter>
<linearGradient id="paint0_linear" x1="16" y1="54" x2="64" y2="38" gradientUnits="userSpaceOnUse">
<stop stop-color="#FF0000"/>
<stop offset="1" stop-color="#FF0000" stop-opacity="0"/>
</linearGradient>
</defs>
</svg>
