<svg width="24" height="24" viewBox="0 0 24 24" fill="none" xmlns="http://www.w3.org/2000/svg">
<g clip-path="url(#clip0)">
<path d="M4.49998 2.99986C4.37198 2.99986 4.24398 2.95086 4.14598 2.85386L2.49998 1.20686L0.853982 2.85386C0.658982 3.04886 0.341982 3.04886 0.146982 2.85386C-0.0480176 2.65886 -0.0480176 2.34186 0.146982 2.14686L2.14698 0.14686C2.34198 -0.0481396 2.65898 -0.0481396 2.85398 0.14686L4.85398 2.14686C5.04898 2.34186 5.04898 2.65886 4.85398 2.85386C4.75598 2.95086 4.62798 2.99986 4.49998 2.99986Z" fill="#222222"/>
<path d="M21.5 24.0002C21.372 24.0002 21.244 23.9512 21.146 23.8542C20.951 23.6592 20.951 23.3422 21.146 23.1472L22.792 21.5012L21.146 19.8552C20.951 19.6602 20.951 19.3432 21.146 19.1482C21.341 18.9532 21.658 18.9532 21.853 19.1482L23.853 21.1482C24.048 21.3432 24.048 21.6602 23.853 21.8552L21.853 23.8552C21.756 23.9512 21.628 24.0002 21.5 24.0002Z" fill="#222222"/>
<path d="M2.5 24.0001C2.224 24.0001 2 23.7761 2 23.5001V0.750122C2 0.474122 2.224 0.250122 2.5 0.250122C2.776 0.250122 3 0.474122 3 0.750122V23.5001C3 23.7761 2.776 24.0001 2.5 24.0001Z" fill="#222222"/>
<path d="M23.25 22H0.5C0.224 22 0 21.776 0 21.5C0 21.224 0.224 21 0.5 21H23.25C23.526 21 23.75 21.224 23.75 21.5C23.75 21.776 23.526 22 23.25 22Z" fill="#222222"/>
<path d="M13 10.0001C12.939 10.0001 12.878 9.98912 12.82 9.96712L6.32 7.46712C6.127 7.39312 6 7.20712 6 7.00012C6 6.79312 6.127 6.60712 6.32 6.53312L12.82 4.03312C12.935 3.98912 13.064 3.98912 13.179 4.03312L19.679 6.53312C19.873 6.60712 20 6.79312 20 7.00012C20 7.20712 19.873 7.39312 19.68 7.46712L13.18 9.96712C13.122 9.98912 13.061 10.0001 13 10.0001ZM7.893 7.00012L13 8.96412L18.107 7.00012L13 5.03612L7.893 7.00012Z" fill="#222222"/>
<path d="M13 17.9999C12.939 17.9999 12.878 17.9889 12.82 17.9669L6.32 15.4669C6.127 15.3929 6 15.2069 6 14.9999V6.99988C6 6.72388 6.224 6.49988 6.5 6.49988C6.776 6.49988 7 6.72388 7 6.99988V14.6569L13 16.9649L19 14.6569V6.99988C19 6.72388 19.224 6.49988 19.5 6.49988C19.776 6.49988 20 6.72388 20 6.99988V14.9999C20 15.2069 19.873 15.3929 19.68 15.4669L13.18 17.9669C13.122 17.9889 13.061 17.9999 13 17.9999Z" fill="#222222"/>
<path d="M13 18C12.724 18 12.5 17.776 12.5 17.5V9.5C12.5 9.224 12.724 9 13 9C13.276 9 13.5 9.224 13.5 9.5V17.5C13.5 17.776 13.276 18 13 18Z" fill="#222222"/>
</g>
<defs>
<clipPath id="clip0">
<rect width="24" height="24" fill="white"/>
</clipPath>
</defs>
</svg>
