<svg width="56" height="57" viewBox="0 0 56 57" fill="none" xmlns="http://www.w3.org/2000/svg">
<g filter="url(#filter0_d)">
<ellipse cx="30" cy="39" rx="23" ry="11" fill="white"/>
<path d="M52.5 39C52.5 41.7344 50.1654 44.3578 46.0477 46.3271C41.9666 48.2789 36.2935 49.5 30 49.5C23.7065 49.5 18.0334 48.2789 13.9523 46.3271C9.83457 44.3578 7.5 41.7344 7.5 39C7.5 36.2656 9.83457 33.6422 13.9523 31.6729C18.0334 29.7211 23.7065 28.5 30 28.5C36.2935 28.5 41.9666 29.7211 46.0477 31.6729C50.1654 33.6422 52.5 36.2656 52.5 39Z" stroke="url(#paint0_linear)"/>
</g>
<g clip-path="url(#clip0)">
<rect width="33" height="42" transform="translate(17)" fill="white"/>
<path d="M45.1216 28.5693V22.45C45.1216 22.434 45.1211 22.418 45.1201 22.402L44.5551 12.8587C44.4 10.2373 42.9368 9.84591 42.0784 9.84591C41.4772 9.84591 40.8845 10.0199 40.3815 10.3291L39.7535 5.67726C39.446 3.39971 38.0143 2.76683 36.8816 2.91637C35.6667 3.07707 34.4715 4.10839 33.9253 5.53641L32.9806 2.40531C32.4685 0.707973 31.3696 0.214548 30.7601 0.0715651C29.7299 -0.170185 28.5848 0.210364 27.7715 1.06457C26.7991 2.08587 26.4832 3.56738 26.9266 5.02756L29.5655 13.7197C28.0403 13.3955 26.7023 14.1045 25.1248 15.3685C23.382 16.7651 20.5707 18.2296 19.9132 18.5454C19.2275 18.8747 18.8699 19.6201 18.98 20.4907C19.0471 21.0201 19.3003 21.6082 19.7374 22.0879C19.4129 22.3064 19.1463 22.568 18.959 22.8449C18.5113 23.5067 18.4852 24.253 18.8893 24.841C19.006 25.0107 19.1411 25.178 19.2843 25.3551C19.7452 25.9254 20.3763 26.7065 20.9942 28.3391C21.8736 30.6629 23.3862 31.7074 24.6016 32.5467C25.7573 33.3448 26.5759 33.9112 26.7951 35.295C26.4035 35.3604 26.105 35.6967 26.105 36.103V41.1798C26.105 41.6329 26.476 42.0001 26.9337 42.0001H43.6018C44.0595 42.0001 44.4305 41.6329 44.4305 41.1798V36.103C44.4305 35.693 44.1263 35.3543 43.7295 35.2934C43.8368 34.4096 44.0961 33.5056 44.3678 32.5608C44.7383 31.272 45.1216 29.9394 45.1216 28.5693ZM42.7731 40.3594H27.7623V36.9232H31.5384C31.9961 36.9232 32.3671 36.5559 32.3671 36.1029C32.3671 35.6498 31.9961 35.2826 31.5384 35.2826H28.4656C28.2038 33.0339 26.8567 32.1034 25.5498 31.2009C24.4166 30.4184 23.2447 29.6093 22.5461 27.7635C21.8355 25.8859 21.079 24.9497 20.5785 24.3302C20.4524 24.1743 20.3434 24.0393 20.2619 23.9214C20.2656 23.8802 20.3159 23.729 20.5314 23.5445C20.8531 23.2691 21.4347 23.0243 22.1028 23.163C23.3078 23.4131 23.6597 23.886 24.1922 24.6018C24.6746 25.2503 25.2751 26.0574 26.5773 26.7308C27.5007 27.2083 28.2767 27.5553 29.1536 27.3222C29.9823 27.1021 30.7024 26.4047 31.6664 25.2747C32.4305 24.379 32.5309 23.356 31.957 22.3163C31.5147 21.5148 30.727 20.7639 29.8188 19.9356C28.3444 18.5905 26.7657 19.5255 25.4973 20.2768C24.3317 20.9671 23.1264 21.6811 21.6691 21.385C21.0097 21.2511 20.755 20.7127 20.6927 20.5508C20.5835 20.2672 20.6182 20.0674 20.6461 20.017C21.5095 19.6014 24.3401 18.1082 26.1674 16.6439C28.2493 14.9757 29.0904 14.9931 30.4161 15.8785C30.7936 16.1306 31.132 16.2414 31.404 16.3303C31.763 16.4478 32.0223 16.5327 32.4527 16.945C32.7815 17.26 33.3061 17.2516 33.6244 16.926C33.9427 16.6005 33.9341 16.0811 33.6052 15.766C32.9024 15.0927 32.36 14.9152 31.9241 14.7726C31.793 14.7297 31.6829 14.6933 31.5772 14.6465L28.5137 4.55538C28.1235 3.27001 28.7081 2.47299 28.9775 2.18997C29.3858 1.76111 29.9226 1.56103 30.3778 1.66808C30.9565 1.80393 31.249 2.3994 31.3926 2.87495L34.7365 13.9577C34.9398 14.6813 35.322 15.1804 35.6593 15.621C36.1148 16.2158 36.5081 16.7296 36.6178 17.8697C36.6586 18.2943 37.0195 18.6123 37.4417 18.6122C37.468 18.6122 37.4946 18.611 37.5212 18.6085C37.9768 18.5656 38.311 18.1652 38.2676 17.7141C38.1132 16.11 37.485 15.2893 36.98 14.63C36.6838 14.243 36.4498 13.9374 36.3316 13.5129C36.33 13.5073 36.3284 13.5017 36.3267 13.4961L35.9087 12.1105L35.3018 7.61462C35.0758 5.94091 36.2352 4.65735 37.101 4.54275C37.7731 4.45407 38.0208 5.22895 38.1106 5.89473L40.0748 20.4442C40.1305 20.8564 40.4862 21.156 40.8951 21.156C40.9316 21.156 40.9686 21.1536 41.0058 21.1487C41.4595 21.0886 41.7781 20.6759 41.7174 20.2269L40.6987 12.6814C40.6551 12.3823 40.8001 12.1427 40.9296 11.9943C41.2031 11.6812 41.6432 11.4867 42.0781 11.4867C42.3168 11.4867 42.8135 11.4867 42.9003 12.9549L43.4642 22.4741V28.5693C43.4642 29.7104 43.1288 30.8767 42.7737 32.1115C42.4776 33.1413 42.1732 34.1996 42.063 35.2826H38.9964C38.5388 35.2826 38.1678 35.6498 38.1678 36.1029C38.1678 36.5559 38.5388 36.9232 38.9964 36.9232H42.7731V40.3594ZM24.6347 22.5952C25.2624 22.3278 25.8306 21.9913 26.3483 21.6846C27.7523 20.8531 28.2025 20.6918 28.6959 21.142C30.7615 23.0263 30.9382 23.5855 30.4002 24.2162C29.8133 24.9044 29.1553 25.6232 28.7244 25.7376C28.45 25.8105 28.0609 25.647 27.3448 25.2766C26.3823 24.7789 25.9667 24.2204 25.5268 23.6289C25.2726 23.2873 25.0039 22.9261 24.6347 22.5952Z" fill="#898899"/>
<path d="M35.1562 35.2825H35.1555C34.6967 35.2825 34.3251 35.6498 34.3251 36.1028C34.3251 36.5559 34.6974 36.9232 35.1562 36.9232C35.615 36.9232 35.9869 36.5559 35.9869 36.1028C35.9869 35.6498 35.615 35.2825 35.1562 35.2825Z" fill="#FF2C2C"/>
</g>
<defs>
<filter id="filter0_d" x="0" y="25" width="56" height="32" filterUnits="userSpaceOnUse" color-interpolation-filters="sRGB">
<feFlood flood-opacity="0" result="BackgroundImageFix"/>
<feColorMatrix in="SourceAlpha" type="matrix" values="0 0 0 0 0 0 0 0 0 0 0 0 0 0 0 0 0 0 127 0"/>
<feOffset dx="-2" dy="2"/>
<feGaussianBlur stdDeviation="2.5"/>
<feColorMatrix type="matrix" values="0 0 0 0 0.439649 0 0 0 0 0.470085 0 0 0 0 0.529167 0 0 0 0.2 0"/>
<feBlend mode="normal" in2="BackgroundImageFix" result="effect1_dropShadow"/>
<feBlend mode="normal" in="SourceGraphic" in2="effect1_dropShadow" result="shape"/>
</filter>
<linearGradient id="paint0_linear" x1="7" y1="52" x2="55" y2="36" gradientUnits="userSpaceOnUse">
<stop stop-color="#FF0000"/>
<stop offset="1" stop-color="#FF0000" stop-opacity="0"/>
</linearGradient>
<clipPath id="clip0">
<rect width="33" height="42" fill="white" transform="translate(17)"/>
</clipPath>
</defs>
</svg>
