<svg width="18" height="34" viewBox="0 0 18 34" fill="none" xmlns="http://www.w3.org/2000/svg">
<path d="M1.70412 0.289916C1.31195 -0.0989571 0.678789 -0.0962856 0.289915 0.295883C-0.0989571 0.688052 -0.0962849 1.32121 0.295883 1.71008L1.70412 0.289916ZM0.28994 32.2959C-0.0989456 32.688 -0.0962963 33.3212 0.295858 33.7101C0.688013 34.0989 1.32117 34.0963 1.71006 33.7041L0.28994 32.2959ZM16.2958 17.5756L17.0059 18.2798L16.2958 17.5756ZM0.295883 1.71008L15.5858 16.8715L16.994 15.4513L1.70412 0.289916L0.295883 1.71008ZM15.5858 16.8715L0.28994 32.2959L1.71006 33.7041L17.0059 18.2798L15.5858 16.8715ZM15.5858 16.8715L15.5858 16.8715L17.0059 18.2798C17.7837 17.4954 17.7784 16.2291 16.994 15.4513L15.5858 16.8715Z" fill="#C4C4D0"/>
</svg>
