<svg width="65" height="59" viewBox="0 0 65 59" fill="none" xmlns="http://www.w3.org/2000/svg">
<g filter="url(#filter0_d)">
<ellipse cx="38" cy="41" rx="23" ry="11" fill="white"/>
<path d="M60.5 41C60.5 43.7344 58.1654 46.3578 54.0477 48.3271C49.9666 50.2789 44.2935 51.5 38 51.5C31.7065 51.5 26.0334 50.2789 21.9523 48.3271C17.8346 46.3578 15.5 43.7344 15.5 41C15.5 38.2656 17.8346 35.6422 21.9523 33.6729C26.0334 31.7211 31.7065 30.5 38 30.5C44.2935 30.5 49.9666 31.7211 54.0477 33.6729C58.1654 35.6422 60.5 38.2656 60.5 41Z" stroke="url(#paint0_linear)"/>
</g>
<g clip-path="url(#clip0)">
<rect width="40" height="40" transform="translate(25 4)" fill="white"/>
<path d="M64.9229 25.8477C64.5637 22.2353 62.9499 18.8297 60.3784 16.2582C58.1809 14.0607 55.4912 12.6486 52.661 12.0207V10.0357C53.8169 9.74809 54.6762 8.70174 54.6762 7.45805C54.6762 5.99334 53.4846 4.80176 52.0199 4.80176H46.3948C44.9301 4.80176 43.7385 5.99334 43.7385 7.45805C43.7385 8.70166 44.5977 9.74801 45.7536 10.0357V12.0262C42.9321 12.6568 40.2513 14.067 38.06 16.2583C37.5804 16.7378 37.1382 17.2409 36.7335 17.7637C36.7139 17.7622 36.6942 17.7607 36.6742 17.7607H31.1069C30.6755 17.7607 30.3256 18.1105 30.3256 18.542C30.3256 18.9735 30.6755 19.3232 31.1069 19.3232H35.6704C35.0976 20.2822 34.6357 21.2894 34.2841 22.3261H25.7813C25.3498 22.3261 25 22.6759 25 23.1074C25 23.5388 25.3498 23.8886 25.7813 23.8886H33.8426C33.6175 24.877 33.4883 25.8829 33.4549 26.8916H30.0001C29.5687 26.8916 29.2188 27.2413 29.2188 27.6728C29.2188 28.1043 29.5687 28.4541 30.0001 28.4541H33.4798C33.5458 29.4653 33.7083 30.4713 33.9676 31.457H28.9063C28.4749 31.457 28.125 31.8068 28.125 32.2383C28.125 32.6698 28.4749 33.0195 28.9063 33.0195H34.4662C35.2327 35.047 36.4304 36.9473 38.06 38.5768C40.6339 41.1508 44.043 42.765 47.6592 43.1223C48.1753 43.1732 48.6918 43.1985 49.2076 43.1985C52.2562 43.1985 55.2661 42.3162 57.82 40.653C58.1816 40.4175 58.2839 39.9336 58.0484 39.572C57.8129 39.2104 57.3289 39.1082 56.9674 39.3436C51.3769 42.9841 43.8898 42.197 39.1648 37.472C33.6208 31.928 33.6208 22.9073 39.1648 17.3632C44.7087 11.8193 53.7294 11.8193 59.2735 17.3632C63.9922 22.082 64.7837 29.5627 61.1553 35.1504C60.9202 35.5123 61.0231 35.9962 61.3849 36.2312C61.747 36.4662 62.2307 36.3633 62.4657 36.0014C64.4043 33.0158 65.277 29.4099 64.9229 25.8477ZM45.301 7.45813C45.301 6.85499 45.7917 6.36436 46.3948 6.36436H52.0199C52.623 6.36436 53.1136 6.85499 53.1136 7.45813C53.1136 8.06126 52.623 8.55189 52.0199 8.55189H51.8797H46.5349H46.3948C45.7917 8.55189 45.301 8.06118 45.301 7.45813ZM47.3161 11.7576V10.1144H51.0985V11.7548C49.8425 11.6055 48.5719 11.6064 47.3161 11.7576Z" fill="#898899"/>
<path d="M59.8262 37.2428C59.6199 37.2428 59.4191 37.3264 59.2739 37.4717C59.1278 37.617 59.0449 37.8185 59.0449 38.024C59.0449 38.2295 59.1278 38.431 59.2739 38.5764C59.4191 38.7225 59.62 38.8053 59.8262 38.8053C60.0316 38.8053 60.2324 38.7225 60.3785 38.5764C60.5238 38.431 60.6074 38.2295 60.6074 38.024C60.6074 37.8185 60.5239 37.617 60.3785 37.4717C60.2324 37.3264 60.0316 37.2428 59.8262 37.2428Z" fill="#FF2C2C"/>
<path d="M49.2193 15.2978C42.5365 15.2978 37.0996 20.7346 37.0996 27.4175C37.0996 34.1003 42.5365 39.5371 49.2193 39.5371C55.902 39.5371 61.3389 34.1003 61.3389 27.4175C61.3389 20.7346 55.902 15.2978 49.2193 15.2978ZM49.2193 37.9746C43.398 37.9746 38.6621 33.2387 38.6621 27.4175C38.6621 21.5963 43.398 16.8603 49.2193 16.8603C55.0405 16.8603 59.7764 21.5963 59.7764 27.4175C59.7764 33.2387 55.0405 37.9746 49.2193 37.9746Z" fill="#898899"/>
<path d="M54.1614 21.3706L50.2918 25.2401C49.9682 25.0801 49.6042 24.9897 49.2195 24.9897C48.8346 24.9897 48.4707 25.0801 48.1471 25.2401L46.4153 23.5083C46.1101 23.2032 45.6156 23.2032 45.3104 23.5083C45.0053 23.8134 45.0053 24.3081 45.3104 24.6132L47.0422 26.345C46.8821 26.6686 46.7918 27.0326 46.7918 27.4173C46.7918 28.756 47.8808 29.845 49.2195 29.845C50.5582 29.845 51.6472 28.756 51.6472 27.4173C51.6472 27.0326 51.5568 26.6686 51.3968 26.345L55.1528 22.589L55.2663 22.4755C55.5714 22.1704 55.5714 21.6757 55.2663 21.3706C54.9612 21.0655 54.4667 21.0655 54.1614 21.3706ZM49.2195 28.2826C48.7424 28.2826 48.3543 27.8945 48.3543 27.4174C48.3543 26.9404 48.7424 26.5522 49.2195 26.5522C49.6965 26.5522 50.0846 26.9404 50.0846 27.4174C50.0846 27.8945 49.6965 28.2826 49.2195 28.2826Z" fill="#898899"/>
<path d="M57.5725 26.6457H56.8486C56.4172 26.6457 56.0674 26.9955 56.0674 27.4269C56.0674 27.8584 56.4172 28.2082 56.8486 28.2082H57.5725C58.0039 28.2082 58.3537 27.8584 58.3537 27.4269C58.3537 26.9955 58.0039 26.6457 57.5725 26.6457Z" fill="#898899"/>
<path d="M41.59 26.6266H40.8662C40.4348 26.6266 40.085 26.9764 40.085 27.4079C40.085 27.8394 40.4348 28.1891 40.8662 28.1891H41.59C42.0214 28.1891 42.3712 27.8394 42.3712 27.4079C42.3712 26.9764 42.0214 26.6266 41.59 26.6266Z" fill="#898899"/>
<path d="M49.2285 20.5693C49.6599 20.5693 50.0098 20.2195 50.0098 19.788V19.0643C50.0098 18.6328 49.6599 18.2831 49.2285 18.2831C48.7971 18.2831 48.4473 18.6328 48.4473 19.0643V19.788C48.4473 20.2195 48.7971 20.5693 49.2285 20.5693Z" fill="#898899"/>
<path d="M49.2095 34.2656C48.7781 34.2656 48.4282 34.6153 48.4282 35.0468V35.7706C48.4282 36.202 48.7781 36.5518 49.2095 36.5518C49.6409 36.5518 49.9907 36.202 49.9907 35.7706V35.0468C49.9907 34.6153 49.6409 34.2656 49.2095 34.2656Z" fill="#898899"/>
<path d="M25.7812 31.4568C25.5758 31.4568 25.3742 31.5403 25.2289 31.6857C25.0836 31.831 25 32.0325 25 32.238C25 32.4443 25.0835 32.645 25.2289 32.7904C25.3743 32.9357 25.5758 33.0193 25.7812 33.0193C25.9867 33.0193 26.1883 32.9357 26.3335 32.7904C26.4788 32.645 26.5625 32.4435 26.5625 32.238C26.5625 32.0325 26.4789 31.831 26.3335 31.6857C26.1883 31.5403 25.9867 31.4568 25.7812 31.4568Z" fill="#898899"/>
</g>
<defs>
<filter id="filter0_d" x="8" y="27" width="56" height="32" filterUnits="userSpaceOnUse" color-interpolation-filters="sRGB">
<feFlood flood-opacity="0" result="BackgroundImageFix"/>
<feColorMatrix in="SourceAlpha" type="matrix" values="0 0 0 0 0 0 0 0 0 0 0 0 0 0 0 0 0 0 127 0"/>
<feOffset dx="-2" dy="2"/>
<feGaussianBlur stdDeviation="2.5"/>
<feColorMatrix type="matrix" values="0 0 0 0 0.439649 0 0 0 0 0.470085 0 0 0 0 0.529167 0 0 0 0.2 0"/>
<feBlend mode="normal" in2="BackgroundImageFix" result="effect1_dropShadow"/>
<feBlend mode="normal" in="SourceGraphic" in2="effect1_dropShadow" result="shape"/>
</filter>
<linearGradient id="paint0_linear" x1="15" y1="54" x2="63" y2="38" gradientUnits="userSpaceOnUse">
<stop stop-color="#FF0000"/>
<stop offset="1" stop-color="#FF0000" stop-opacity="0"/>
</linearGradient>
<clipPath id="clip0">
<rect width="40" height="40" fill="white" transform="translate(25 4)"/>
</clipPath>
</defs>
</svg>
