<svg width="56" height="54" viewBox="0 0 56 54" fill="none" xmlns="http://www.w3.org/2000/svg">
<g filter="url(#filter0_d)">
<ellipse cx="30" cy="36" rx="23" ry="11" fill="white"/>
<path d="M52.5 36C52.5 38.7344 50.1654 41.3578 46.0477 43.3271C41.9666 45.2789 36.2935 46.5 30 46.5C23.7065 46.5 18.0334 45.2789 13.9523 43.3271C9.83457 41.3578 7.5 38.7344 7.5 36C7.5 33.2656 9.83457 30.6422 13.9523 28.6729C18.0334 26.7211 23.7065 25.5 30 25.5C36.2935 25.5 41.9666 26.7211 46.0477 28.6729C50.1654 30.6422 52.5 33.2656 52.5 36Z" stroke="url(#paint0_linear)"/>
</g>
<rect width="39" height="39" transform="translate(17)" fill="white"/>
<path d="M55.9956 32.3594C55.9369 30.9223 55.2752 29.5646 54.1799 28.6329L41.6702 17.6419L49.3257 9.98628L52.1507 8.84399C52.3256 8.77318 52.4678 8.64017 52.5503 8.47087L54.7292 3.98982C54.8711 3.69762 54.8125 3.34771 54.5828 3.118L52.3491 0.884319C52.1158 0.651043 51.7591 0.594509 51.4651 0.744175L47.051 2.99006C46.8871 3.07337 46.7591 3.21292 46.6901 3.38312L45.5484 6.20654L37.6473 14.1076L34.0497 10.9468C35.0206 8.13167 34.3175 5.02409 32.1874 2.89365C30.0289 0.735248 26.7875 0.0324429 23.9289 1.10361C23.6864 1.19436 23.5067 1.40235 23.4517 1.65556C23.3969 1.90848 23.4743 2.1724 23.6576 2.35539L27.0743 5.77212L26.437 8.17838L24.0313 8.81513L20.6146 5.3984C20.4316 5.21511 20.1677 5.13745 19.9147 5.1925C19.6615 5.24725 19.4535 5.42726 19.3628 5.66976C18.2919 8.528 18.9944 11.7695 21.1528 13.9279C23.2836 16.0586 26.3914 16.7614 29.2062 15.7902L31.1632 18.018C30.2334 18.0516 29.3139 18.4214 28.6067 19.1287L25.6761 22.0592C25.3795 22.3559 25.3789 22.8367 25.6741 23.1343C25.9526 23.4163 26.4057 23.4387 26.7113 23.1768C26.7369 23.1551 26.7607 23.1316 26.7827 23.1075L29.6841 20.2061C30.5744 19.3159 32.0246 19.3138 32.9172 20.2014L33.5882 20.8688L22.2671 32.1895C21.9699 32.4871 21.9699 32.9694 22.2671 33.2669C22.4159 33.4157 22.6108 33.4901 22.8057 33.4901C23.0006 33.4901 23.1958 33.4157 23.3446 33.2669L34.6379 21.9732L35.818 23.3164C35.9397 23.5982 36.0046 23.9046 36.0049 24.2209C36.0058 24.8339 35.7677 25.4096 35.3345 25.8431L24.8975 36.2799C24.1042 37.0737 22.906 37.2276 22.0053 36.7039C22.1044 35.8898 21.8345 35.0772 21.2454 34.4872C20.641 33.8829 19.8017 33.6139 18.9659 33.7347C18.2904 32.8233 18.3931 31.4968 19.2539 30.636L21.9024 27.9873C22.1999 27.69 22.1999 27.2077 21.9024 26.9101C21.6051 26.6126 21.1228 26.6126 20.8252 26.9101L18.1768 29.5586C17.4356 30.3001 17.0178 31.2778 17.0006 32.3121C16.983 33.3562 17.3749 34.3321 18.1033 35.0605L18.1604 35.118C18.3663 35.3239 18.6713 35.3944 18.9465 35.2998C19.3863 35.1489 19.8543 35.2504 20.168 35.564C20.4804 35.8773 20.5821 36.343 20.4334 36.7792C20.3334 37.0711 20.4197 37.3942 20.6515 37.5977C21.3638 38.2232 22.2561 38.5317 23.1547 38.5317C24.1717 38.5317 25.1962 38.1363 25.9749 37.357L36.4116 26.9203C36.9112 26.4207 37.2549 25.8068 37.4185 25.138L46.8918 35.9208C47.8237 37.016 49.1814 37.6778 50.6186 37.7364C50.6885 37.7394 50.7581 37.7408 50.8281 37.7408C52.1938 37.7408 53.5167 37.1954 54.4858 36.2266C55.5043 35.2078 56.0545 33.7984 55.9956 32.3594ZM51.663 2.35271L53.1218 3.81158L51.308 7.54133L49.0797 8.4426L47.0915 6.4544L47.9957 4.21863L51.663 2.35271ZM46.1959 7.71332L47.8196 9.33792L40.5231 16.6344L38.7941 15.1151L46.1959 7.71332ZM53.4084 35.1492C52.6797 35.8782 51.71 36.257 50.6808 36.2141C49.6507 36.1722 48.7161 35.7157 48.0493 34.9299C48.0463 34.9266 48.0436 34.9234 48.0406 34.9201L37.1013 22.469C36.9219 22.1232 36.6883 21.8033 36.4042 21.5204L35.3286 20.451L30.0004 14.3867C29.8525 14.2183 29.6427 14.1275 29.4279 14.1275C29.3276 14.1275 29.2265 14.1475 29.1301 14.1885C26.7595 15.1966 24.0509 14.6717 22.2299 12.8508C20.7907 11.4115 20.1558 9.37392 20.4706 7.40893L23.2639 10.2026C23.4558 10.3942 23.7349 10.4698 23.9977 10.4002L27.2549 9.53787C27.5197 9.46765 27.7262 9.26115 27.7965 8.99664L28.6593 5.7385C28.7287 5.47636 28.6534 5.19666 28.4615 5.00504L25.6678 2.21138C27.6331 1.89657 29.6707 2.53154 31.1099 3.97077C32.9306 5.79176 33.4558 8.50003 32.4474 10.8709C32.3189 11.1732 32.3986 11.5243 32.6456 11.7412L37.1713 15.7173C37.1736 15.7194 37.1757 15.7218 37.1778 15.7236L40.0542 18.2503C40.0548 18.2509 40.0557 18.2515 40.0566 18.2521L53.1793 29.7815C53.1825 29.7841 53.1858 29.7871 53.1891 29.7898C53.9752 30.4569 54.4314 31.3915 54.4736 32.4216C54.5156 33.4517 54.1374 34.4202 53.4084 35.1492Z" fill="#898899"/>
<path d="M51.668 32.4141C51.5434 32.1147 51.2345 31.9222 50.9102 31.9457C50.5948 31.9686 50.3198 32.1921 50.2327 32.4962C50.1449 32.8015 50.2624 33.1404 50.5216 33.3249C50.7781 33.5073 51.1253 33.5123 51.3877 33.3388C51.6868 33.1413 51.8055 32.744 51.668 32.4141Z" fill="#898899"/>
<path d="M38.7308 19.3614C38.4327 19.0647 37.9504 19.0659 37.6537 19.364C37.3568 19.6622 37.3582 20.1445 37.6564 20.4415L47.5757 30.3099C47.7245 30.4578 47.9188 30.5319 48.1131 30.5319C48.3086 30.5319 48.5043 30.4569 48.6531 30.3072C48.9498 30.0091 48.9486 29.5267 48.6504 29.2301L38.7308 19.3614Z" fill="#898899"/>
<path d="M23.2057 25.3966C23.3833 25.6605 23.7154 25.7899 24.0245 25.712C24.3298 25.6346 24.5583 25.373 24.5958 25.0606C24.6339 24.7452 24.4598 24.4304 24.1757 24.2903C23.885 24.1472 23.5303 24.2076 23.3009 24.4352C23.0465 24.6881 23.0069 25.0987 23.2057 25.3966Z" fill="#FF2C2C"/>
<defs>
<filter id="filter0_d" x="0" y="22" width="56" height="32" filterUnits="userSpaceOnUse" color-interpolation-filters="sRGB">
<feFlood flood-opacity="0" result="BackgroundImageFix"/>
<feColorMatrix in="SourceAlpha" type="matrix" values="0 0 0 0 0 0 0 0 0 0 0 0 0 0 0 0 0 0 127 0"/>
<feOffset dx="-2" dy="2"/>
<feGaussianBlur stdDeviation="2.5"/>
<feColorMatrix type="matrix" values="0 0 0 0 0.439649 0 0 0 0 0.470085 0 0 0 0 0.529167 0 0 0 0.2 0"/>
<feBlend mode="normal" in2="BackgroundImageFix" result="effect1_dropShadow"/>
<feBlend mode="normal" in="SourceGraphic" in2="effect1_dropShadow" result="shape"/>
</filter>
<linearGradient id="paint0_linear" x1="7" y1="49" x2="55" y2="33" gradientUnits="userSpaceOnUse">
<stop stop-color="#FF0000"/>
<stop offset="1" stop-color="#FF0000" stop-opacity="0"/>
</linearGradient>
</defs>
</svg>
