<svg width="56" height="57" viewBox="0 0 56 57" fill="none" xmlns="http://www.w3.org/2000/svg">
<g filter="url(#filter0_d)">
<ellipse cx="30" cy="39" rx="23" ry="11" fill="white"/>
<path d="M52.5 39C52.5 41.7344 50.1654 44.3578 46.0477 46.3271C41.9666 48.2789 36.2935 49.5 30 49.5C23.7065 49.5 18.0334 48.2789 13.9523 46.3271C9.83457 44.3578 7.5 41.7344 7.5 39C7.5 36.2656 9.83457 33.6422 13.9523 31.6729C18.0334 29.7211 23.7065 28.5 30 28.5C36.2935 28.5 41.9666 29.7211 46.0477 31.6729C50.1654 33.6422 52.5 36.2656 52.5 39Z" stroke="url(#paint0_linear)"/>
</g>
<g clip-path="url(#clip0)">
<rect width="42" height="42" transform="translate(14)" fill="white"/>
<path d="M35.6642 27.8615C35.6642 27.7126 35.5853 27.5812 35.4645 27.4887C35.3437 27.3961 35.179 27.3404 34.999 27.3404C34.8191 27.3404 34.6543 27.3961 34.5336 27.4887C34.4127 27.5812 34.3338 27.7126 34.3338 27.8615V28.1442C34.3338 28.2931 34.4127 28.4245 34.5336 28.517C34.6543 28.6096 34.8191 28.6654 34.999 28.6654C35.179 28.6654 35.3437 28.6096 35.4645 28.517C35.5853 28.4245 35.6642 28.2931 35.6642 28.1442V27.8615Z" fill="#898899" stroke="#898899" stroke-width="0.1"/>
<path d="M35.6642 31.3068C35.6642 31.1579 35.5853 31.0265 35.4645 30.934C35.3437 30.8415 35.179 30.7857 34.999 30.7857C34.8191 30.7857 34.6543 30.8415 34.5336 30.934C34.4127 31.0265 34.3338 31.1579 34.3338 31.3068V31.5895C34.3338 31.7384 34.4127 31.8698 34.5336 31.9624C34.6543 32.0549 34.8191 32.1107 34.999 32.1107C35.179 32.1107 35.3437 32.0549 35.4645 31.9624C35.5853 31.8698 35.6642 31.7384 35.6642 31.5895V31.3068Z" fill="#898899" stroke="#898899" stroke-width="0.1"/>
<path d="M35.6642 34.7521C35.6642 34.6032 35.5853 34.4718 35.4645 34.3793C35.3437 34.2867 35.179 34.2309 34.999 34.2309C34.8191 34.2309 34.6543 34.2867 34.5336 34.3793C34.4127 34.4718 34.3338 34.6032 34.3338 34.7521V35.0348C34.3338 35.1837 34.4127 35.3151 34.5336 35.4076C34.6543 35.5002 34.8191 35.5559 34.999 35.5559C35.179 35.5559 35.3437 35.5002 35.4645 35.4076C35.5853 35.3151 35.6642 35.1837 35.6642 35.0348V34.7521Z" fill="#898899" stroke="#898899" stroke-width="0.1"/>
<path d="M34.999 37.6763C34.8191 37.6763 34.6543 37.732 34.5336 37.8246C34.4127 37.9171 34.3338 38.0485 34.3338 38.1974V38.4801C34.3338 38.629 34.4127 38.7604 34.5336 38.853C34.6543 38.9455 34.8191 39.0013 34.999 39.0013C35.179 39.0013 35.3437 38.9455 35.4645 38.853C35.5853 38.7604 35.6642 38.629 35.6642 38.4801V38.1974C35.6642 38.0485 35.5853 37.9171 35.4645 37.8246C35.3437 37.732 35.179 37.6763 34.999 37.6763Z" fill="#898899" stroke="#898899" stroke-width="0.1"/>
<mask id="path-7-outside-1" maskUnits="userSpaceOnUse" x="18.2554" y="-1" width="33" height="44" fill="black">
<rect fill="white" x="18.2554" y="-1" width="33" height="44"/>
<path d="M50.1664 32.6667C50.5063 32.6667 50.7498 32.4231 50.7498 32.0833L50.7441 30.7469C50.7441 28.3558 49.2706 26.0792 47.1607 25.2109C47.1566 25.2092 47.1526 25.2076 47.1487 25.206L38.8892 22.0074L38.8879 20.4003C40.2971 19.3689 41.2731 17.7809 41.4912 15.9625C43.0916 15.8223 44.2832 14.5463 44.2832 13.0586C44.2832 12.3273 44.0051 11.6125 43.5353 11.0656V8.34396C43.5353 3.74312 39.7921 0 35.1913 0H34.8081C30.2073 0 26.4642 3.74312 26.4642 8.34404V11.1411C25.992 11.6826 25.7163 12.3698 25.7163 13.0665C25.7163 14.531 26.8861 15.825 28.5079 15.9632C28.7201 17.749 29.661 19.3464 31.1068 20.3931V21.9817C30.1417 22.3586 23.6426 24.8968 22.8493 25.2067C22.8458 25.2081 22.8424 25.2095 22.8389 25.2109C21.113 25.9212 19.2554 27.9566 19.2554 30.7469V40.3176C19.2554 41.2453 20.0101 42 20.9378 42H49.0617C49.9894 42 50.7441 41.2453 50.7441 40.3176V37.3333C50.7441 36.9936 50.5063 36.75 50.1664 36.75C49.8266 36.75 49.5831 36.9936 49.5831 37.3333L49.5137 40.3176C49.5137 40.5668 49.3109 40.7695 49.0617 40.7695H45.8052V30.1186C45.8052 29.7788 45.5298 29.5033 45.1899 29.5033C44.8501 29.5033 44.5747 29.7788 44.5747 30.1186V40.7695H25.4248V30.1186C25.4248 29.7788 25.1494 29.5033 24.8096 29.5033C24.4697 29.5033 24.1943 29.7788 24.1943 30.1186V40.7695H20.9378C20.6886 40.7695 20.4858 40.5668 20.4858 40.3176V30.7469C20.4858 28.3752 22.1684 26.8198 23.3025 26.3507L28.4397 24.3444L31.5421 26.917C32.0879 27.3699 32.9038 27.2503 33.2986 26.6655L33.9749 25.6639H36.0247L36.701 26.6655C37.0951 27.2494 37.9111 27.3704 38.4574 26.9171L41.5461 24.3558L46.6982 26.3511C48.0983 26.9305 49.5137 28.6248 49.5137 30.7469L49.5831 32.0833C49.5831 32.4231 49.8266 32.6667 50.1664 32.6667ZM43.0527 13.0587C43.0527 13.8998 42.3841 14.5774 41.5391 14.7174V11.6083C41.6972 11.5923 41.8817 11.5448 42.0278 11.4836C42.2187 11.4038 43.0527 12.0794 43.0527 13.0587ZM28.4604 14.7189C27.6138 14.5818 26.9468 13.9044 26.9468 13.0665C26.9468 12.4804 27.2937 11.9278 27.7832 11.6058C27.8185 11.5826 27.8769 11.5699 27.9357 11.5805C28.1639 11.6215 28.323 11.6172 28.4603 11.6172L28.4604 14.7189ZM28.1045 10.3867C27.8782 10.3867 27.6946 10.2032 27.6946 9.97688V8.34404C27.6946 4.41537 30.8795 1.23048 34.8082 1.23048H35.1913C39.12 1.23048 42.3048 4.41529 42.3048 8.34396V10.2654C42.0585 10.224 41.7898 10.2491 41.5516 10.349C41.3278 10.4429 40.9466 10.3488 40.7166 10.239C40.1988 9.99165 39.8492 9.46222 39.8495 8.8715C39.8497 8.53895 39.6227 8.24929 39.3001 8.16857L39.2827 8.1657C38.9499 8.11025 38.6247 8.27735 38.4616 8.57266C37.8427 9.69297 36.6701 10.3868 35.3896 10.3868L28.1045 10.3867ZM29.6909 15.1898V11.6172H35.3896C36.7695 11.6172 38.033 11.0165 38.8957 10.0667C39.1943 10.6781 39.7097 11.1536 40.3085 11.4051V15.1899C40.3085 18.0643 37.9682 20.411 35.0897 20.414L35.0842 20.4141L35.0792 20.414C31.7281 20.411 29.6909 17.7766 29.6909 15.1898ZM32.2993 25.9465L29.7501 23.8326L31.5167 23.1426L33.2321 24.565C33.1893 24.6285 32.3371 25.8907 32.2993 25.9465ZM35.9587 23.6372C35.7131 23.8408 35.5626 24.1312 35.5309 24.4334H34.4687C34.4376 24.1392 34.291 23.8446 34.0408 23.6372L32.3231 22.2128C32.3288 22.1756 32.3373 22.0847 32.3373 22.0211V21.0921C33.9789 21.7978 35.9094 21.8612 37.6581 21.1079L37.6588 22.0265L37.6589 22.0288C37.6592 22.0919 37.6643 22.1541 37.6739 22.2149L35.9587 23.6372ZM37.7002 25.9465C37.6625 25.8907 36.8102 24.6285 36.7674 24.565L38.4608 23.161C39.8882 23.7138 39.5479 23.582 40.2321 23.8469L37.7002 25.9465Z"/>
</mask>
<path d="M50.1664 32.6667C50.5063 32.6667 50.7498 32.4231 50.7498 32.0833L50.7441 30.7469C50.7441 28.3558 49.2706 26.0792 47.1607 25.2109C47.1566 25.2092 47.1526 25.2076 47.1487 25.206L38.8892 22.0074L38.8879 20.4003C40.2971 19.3689 41.2731 17.7809 41.4912 15.9625C43.0916 15.8223 44.2832 14.5463 44.2832 13.0586C44.2832 12.3273 44.0051 11.6125 43.5353 11.0656V8.34396C43.5353 3.74312 39.7921 0 35.1913 0H34.8081C30.2073 0 26.4642 3.74312 26.4642 8.34404V11.1411C25.992 11.6826 25.7163 12.3698 25.7163 13.0665C25.7163 14.531 26.8861 15.825 28.5079 15.9632C28.7201 17.749 29.661 19.3464 31.1068 20.3931V21.9817C30.1417 22.3586 23.6426 24.8968 22.8493 25.2067C22.8458 25.2081 22.8424 25.2095 22.8389 25.2109C21.113 25.9212 19.2554 27.9566 19.2554 30.7469V40.3176C19.2554 41.2453 20.0101 42 20.9378 42H49.0617C49.9894 42 50.7441 41.2453 50.7441 40.3176V37.3333C50.7441 36.9936 50.5063 36.75 50.1664 36.75C49.8266 36.75 49.5831 36.9936 49.5831 37.3333L49.5137 40.3176C49.5137 40.5668 49.3109 40.7695 49.0617 40.7695H45.8052V30.1186C45.8052 29.7788 45.5298 29.5033 45.1899 29.5033C44.8501 29.5033 44.5747 29.7788 44.5747 30.1186V40.7695H25.4248V30.1186C25.4248 29.7788 25.1494 29.5033 24.8096 29.5033C24.4697 29.5033 24.1943 29.7788 24.1943 30.1186V40.7695H20.9378C20.6886 40.7695 20.4858 40.5668 20.4858 40.3176V30.7469C20.4858 28.3752 22.1684 26.8198 23.3025 26.3507L28.4397 24.3444L31.5421 26.917C32.0879 27.3699 32.9038 27.2503 33.2986 26.6655L33.9749 25.6639H36.0247L36.701 26.6655C37.0951 27.2494 37.9111 27.3704 38.4574 26.9171L41.5461 24.3558L46.6982 26.3511C48.0983 26.9305 49.5137 28.6248 49.5137 30.7469L49.5831 32.0833C49.5831 32.4231 49.8266 32.6667 50.1664 32.6667ZM43.0527 13.0587C43.0527 13.8998 42.3841 14.5774 41.5391 14.7174V11.6083C41.6972 11.5923 41.8817 11.5448 42.0278 11.4836C42.2187 11.4038 43.0527 12.0794 43.0527 13.0587ZM28.4604 14.7189C27.6138 14.5818 26.9468 13.9044 26.9468 13.0665C26.9468 12.4804 27.2937 11.9278 27.7832 11.6058C27.8185 11.5826 27.8769 11.5699 27.9357 11.5805C28.1639 11.6215 28.323 11.6172 28.4603 11.6172L28.4604 14.7189ZM28.1045 10.3867C27.8782 10.3867 27.6946 10.2032 27.6946 9.97688V8.34404C27.6946 4.41537 30.8795 1.23048 34.8082 1.23048H35.1913C39.12 1.23048 42.3048 4.41529 42.3048 8.34396V10.2654C42.0585 10.224 41.7898 10.2491 41.5516 10.349C41.3278 10.4429 40.9466 10.3488 40.7166 10.239C40.1988 9.99165 39.8492 9.46222 39.8495 8.8715C39.8497 8.53895 39.6227 8.24929 39.3001 8.16857L39.2827 8.1657C38.9499 8.11025 38.6247 8.27735 38.4616 8.57266C37.8427 9.69297 36.6701 10.3868 35.3896 10.3868L28.1045 10.3867ZM29.6909 15.1898V11.6172H35.3896C36.7695 11.6172 38.033 11.0165 38.8957 10.0667C39.1943 10.6781 39.7097 11.1536 40.3085 11.4051V15.1899C40.3085 18.0643 37.9682 20.411 35.0897 20.414L35.0842 20.4141L35.0792 20.414C31.7281 20.411 29.6909 17.7766 29.6909 15.1898ZM32.2993 25.9465L29.7501 23.8326L31.5167 23.1426L33.2321 24.565C33.1893 24.6285 32.3371 25.8907 32.2993 25.9465ZM35.9587 23.6372C35.7131 23.8408 35.5626 24.1312 35.5309 24.4334H34.4687C34.4376 24.1392 34.291 23.8446 34.0408 23.6372L32.3231 22.2128C32.3288 22.1756 32.3373 22.0847 32.3373 22.0211V21.0921C33.9789 21.7978 35.9094 21.8612 37.6581 21.1079L37.6588 22.0265L37.6589 22.0288C37.6592 22.0919 37.6643 22.1541 37.6739 22.2149L35.9587 23.6372ZM37.7002 25.9465C37.6625 25.8907 36.8102 24.6285 36.7674 24.565L38.4608 23.161C39.8882 23.7138 39.5479 23.582 40.2321 23.8469L37.7002 25.9465Z" fill="#898899"/>
<path d="M50.1664 32.6667C50.5063 32.6667 50.7498 32.4231 50.7498 32.0833L50.7441 30.7469C50.7441 28.3558 49.2706 26.0792 47.1607 25.2109C47.1566 25.2092 47.1526 25.2076 47.1487 25.206L38.8892 22.0074L38.8879 20.4003C40.2971 19.3689 41.2731 17.7809 41.4912 15.9625C43.0916 15.8223 44.2832 14.5463 44.2832 13.0586C44.2832 12.3273 44.0051 11.6125 43.5353 11.0656V8.34396C43.5353 3.74312 39.7921 0 35.1913 0H34.8081C30.2073 0 26.4642 3.74312 26.4642 8.34404V11.1411C25.992 11.6826 25.7163 12.3698 25.7163 13.0665C25.7163 14.531 26.8861 15.825 28.5079 15.9632C28.7201 17.749 29.661 19.3464 31.1068 20.3931V21.9817C30.1417 22.3586 23.6426 24.8968 22.8493 25.2067C22.8458 25.2081 22.8424 25.2095 22.8389 25.2109C21.113 25.9212 19.2554 27.9566 19.2554 30.7469V40.3176C19.2554 41.2453 20.0101 42 20.9378 42H49.0617C49.9894 42 50.7441 41.2453 50.7441 40.3176V37.3333C50.7441 36.9936 50.5063 36.75 50.1664 36.75C49.8266 36.75 49.5831 36.9936 49.5831 37.3333L49.5137 40.3176C49.5137 40.5668 49.3109 40.7695 49.0617 40.7695H45.8052V30.1186C45.8052 29.7788 45.5298 29.5033 45.1899 29.5033C44.8501 29.5033 44.5747 29.7788 44.5747 30.1186V40.7695H25.4248V30.1186C25.4248 29.7788 25.1494 29.5033 24.8096 29.5033C24.4697 29.5033 24.1943 29.7788 24.1943 30.1186V40.7695H20.9378C20.6886 40.7695 20.4858 40.5668 20.4858 40.3176V30.7469C20.4858 28.3752 22.1684 26.8198 23.3025 26.3507L28.4397 24.3444L31.5421 26.917C32.0879 27.3699 32.9038 27.2503 33.2986 26.6655L33.9749 25.6639H36.0247L36.701 26.6655C37.0951 27.2494 37.9111 27.3704 38.4574 26.9171L41.5461 24.3558L46.6982 26.3511C48.0983 26.9305 49.5137 28.6248 49.5137 30.7469L49.5831 32.0833C49.5831 32.4231 49.8266 32.6667 50.1664 32.6667ZM43.0527 13.0587C43.0527 13.8998 42.3841 14.5774 41.5391 14.7174V11.6083C41.6972 11.5923 41.8817 11.5448 42.0278 11.4836C42.2187 11.4038 43.0527 12.0794 43.0527 13.0587ZM28.4604 14.7189C27.6138 14.5818 26.9468 13.9044 26.9468 13.0665C26.9468 12.4804 27.2937 11.9278 27.7832 11.6058C27.8185 11.5826 27.8769 11.5699 27.9357 11.5805C28.1639 11.6215 28.323 11.6172 28.4603 11.6172L28.4604 14.7189ZM28.1045 10.3867C27.8782 10.3867 27.6946 10.2032 27.6946 9.97688V8.34404C27.6946 4.41537 30.8795 1.23048 34.8082 1.23048H35.1913C39.12 1.23048 42.3048 4.41529 42.3048 8.34396V10.2654C42.0585 10.224 41.7898 10.2491 41.5516 10.349C41.3278 10.4429 40.9466 10.3488 40.7166 10.239C40.1988 9.99165 39.8492 9.46222 39.8495 8.8715C39.8497 8.53895 39.6227 8.24929 39.3001 8.16857L39.2827 8.1657C38.9499 8.11025 38.6247 8.27735 38.4616 8.57266C37.8427 9.69297 36.6701 10.3868 35.3896 10.3868L28.1045 10.3867ZM29.6909 15.1898V11.6172H35.3896C36.7695 11.6172 38.033 11.0165 38.8957 10.0667C39.1943 10.6781 39.7097 11.1536 40.3085 11.4051V15.1899C40.3085 18.0643 37.9682 20.411 35.0897 20.414L35.0842 20.4141L35.0792 20.414C31.7281 20.411 29.6909 17.7766 29.6909 15.1898ZM32.2993 25.9465L29.7501 23.8326L31.5167 23.1426L33.2321 24.565C33.1893 24.6285 32.3371 25.8907 32.2993 25.9465ZM35.9587 23.6372C35.7131 23.8408 35.5626 24.1312 35.5309 24.4334H34.4687C34.4376 24.1392 34.291 23.8446 34.0408 23.6372L32.3231 22.2128C32.3288 22.1756 32.3373 22.0847 32.3373 22.0211V21.0921C33.9789 21.7978 35.9094 21.8612 37.6581 21.1079L37.6588 22.0265L37.6589 22.0288C37.6592 22.0919 37.6643 22.1541 37.6739 22.2149L35.9587 23.6372ZM37.7002 25.9465C37.6625 25.8907 36.8102 24.6285 36.7674 24.565L38.4608 23.161C39.8882 23.7138 39.5479 23.582 40.2321 23.8469L37.7002 25.9465Z" stroke="#898899" stroke-width="0.2" mask="url(#path-7-outside-1)"/>
<path d="M49.5512 34.1477L49.5512 34.1477L49.5865 35.343L49.5512 35.3783C49.5512 35.3783 49.5512 35.3783 49.5512 35.3783C49.7131 35.5404 49.9375 35.6333 50.1665 35.6333C50.3955 35.6333 50.6199 35.5403 50.7818 35.3783L50.7818 35.3783C50.9437 35.2164 51.0368 34.9921 51.0368 34.763C51.0368 34.534 50.9438 34.3097 50.7818 34.1477C50.6199 33.9858 50.3955 33.8927 50.1665 33.8927C49.9375 33.8927 49.7131 33.9858 49.5512 34.1477Z" fill="#FF2C2C" stroke="#898899" stroke-width="0.1"/>
</g>
<defs>
<filter id="filter0_d" x="0" y="25" width="56" height="32" filterUnits="userSpaceOnUse" color-interpolation-filters="sRGB">
<feFlood flood-opacity="0" result="BackgroundImageFix"/>
<feColorMatrix in="SourceAlpha" type="matrix" values="0 0 0 0 0 0 0 0 0 0 0 0 0 0 0 0 0 0 127 0"/>
<feOffset dx="-2" dy="2"/>
<feGaussianBlur stdDeviation="2.5"/>
<feColorMatrix type="matrix" values="0 0 0 0 0.439649 0 0 0 0 0.470085 0 0 0 0 0.529167 0 0 0 0.2 0"/>
<feBlend mode="normal" in2="BackgroundImageFix" result="effect1_dropShadow"/>
<feBlend mode="normal" in="SourceGraphic" in2="effect1_dropShadow" result="shape"/>
</filter>
<linearGradient id="paint0_linear" x1="7" y1="52" x2="55" y2="36" gradientUnits="userSpaceOnUse">
<stop stop-color="#FF0000"/>
<stop offset="1" stop-color="#FF0000" stop-opacity="0"/>
</linearGradient>
<clipPath id="clip0">
<rect width="42" height="42" fill="white" transform="translate(14)"/>
</clipPath>
</defs>
</svg>
