<svg width="57" height="54" viewBox="0 0 57 54" fill="none" xmlns="http://www.w3.org/2000/svg">
<g filter="url(#filter0_d)">
<ellipse cx="30" cy="36" rx="23" ry="11" fill="white"/>
<path d="M52.5 36C52.5 38.7344 50.1654 41.3578 46.0477 43.3271C41.9666 45.2789 36.2935 46.5 30 46.5C23.7065 46.5 18.0334 45.2789 13.9523 43.3271C9.83457 41.3578 7.5 38.7344 7.5 36C7.5 33.2656 9.83457 30.6422 13.9523 28.6729C18.0334 26.7211 23.7065 25.5 30 25.5C36.2935 25.5 41.9666 26.7211 46.0477 28.6729C50.1654 30.6422 52.5 33.2656 52.5 36Z" stroke="url(#paint0_linear)"/>
</g>
<g clip-path="url(#clip0)">
<rect width="41" height="41" transform="translate(16)" fill="white"/>
<path d="M56.6577 21.1321L50.8494 17.7667L56.6577 14.4019C56.869 14.28 56.9991 14.0547 56.9994 13.8109C56.9991 13.567 56.869 13.3417 56.6577 13.2198L43.6744 5.7031C43.463 5.58104 43.2025 5.58104 42.9911 5.7031L41.6244 6.49372C41.29 6.66865 41.1608 7.08155 41.3357 7.41596C41.5106 7.75037 41.9235 7.8796 42.2579 7.70467C42.2749 7.69579 42.2916 7.68613 42.3078 7.67588L43.3328 7.08343L54.9495 13.8109L49.4828 16.9774L41.2309 12.1996L41.8459 11.3249C42.0622 11.0156 41.9867 10.5895 41.6774 10.3733C41.5618 10.2925 41.4239 10.2494 41.2828 10.25H39.2328C39.2264 4.59174 34.6411 0.00640625 28.9828 0H22.1495C21.7721 0 21.4662 0.305963 21.4662 0.683333C21.4662 1.0607 21.7721 1.36667 22.1495 1.36667H28.9828C33.8866 1.3723 37.8605 5.34623 37.8662 10.25V10.9333C37.8662 11.3107 38.1721 11.6167 38.5495 11.6167H39.9708L36.4995 16.5749L33.0281 11.6167H34.4494C34.8268 11.6167 35.1327 11.3107 35.1327 10.9333V9.56667C35.1305 7.30321 33.2962 5.46889 31.0327 5.46667H27.6161C27.2387 5.46667 26.9327 5.77263 26.9327 6.15C26.9327 6.52737 27.2387 6.83333 27.6161 6.83333H31.0327C32.5423 6.83333 33.7661 8.0571 33.7661 9.56667V10.25H31.7161C31.3387 10.2502 31.0329 10.5563 31.0331 10.9337C31.0332 11.0736 31.0762 11.2102 31.1564 11.3249L31.768 12.1996L23.5161 16.9774L18.0494 13.8109L26.7189 8.79108C27.0533 8.61615 27.1825 8.20325 27.0076 7.86884C26.8326 7.53443 26.4197 7.40511 26.0853 7.58005C26.0683 7.58893 26.0517 7.59858 26.0354 7.60883L16.3411 13.2198C16.0146 13.4091 15.9035 13.8272 16.0929 14.1537C16.1526 14.2566 16.2381 14.3422 16.3411 14.4019L22.1494 17.7667L16.3411 21.1314C16.0146 21.3208 15.9035 21.7389 16.0929 22.0653C16.1526 22.1683 16.2381 22.2539 16.3411 22.3136L22.8327 26.0719V32.8C22.833 33.0439 22.9632 33.2691 23.1744 33.3911L36.1577 40.9078C36.1735 40.9173 36.1919 40.9207 36.2083 40.9289C36.2247 40.9371 36.2459 40.9453 36.2657 40.9529C36.4156 41.0157 36.5846 41.0157 36.7345 40.9529C36.7543 40.9453 36.7727 40.9378 36.7919 40.9289C36.811 40.92 36.8267 40.9173 36.8424 40.9078L49.8258 33.3911C50.0365 33.2688 50.1661 33.0436 50.1661 32.8V26.0726L56.6577 22.3142C56.9842 22.1249 57.0953 21.7068 56.906 21.3803C56.8462 21.2774 56.7607 21.1918 56.6577 21.1321ZM18.0494 21.7225L23.5161 18.5559L35.1327 25.2833L29.6661 28.4499L18.0494 21.7225ZM35.8161 39.1318L24.1994 32.4064V26.8639L29.3244 29.8302C29.5358 29.9523 29.7963 29.9523 30.0077 29.8302L35.8161 26.4682V39.1318ZM36.4994 24.4941L24.8827 17.7667L32.5579 13.325L35.9398 18.1582C36.1563 18.4673 36.5824 18.5423 36.8915 18.3258C36.9566 18.2801 37.0134 18.2234 37.0591 18.1582L40.4443 13.325L48.1195 17.7667L36.4994 24.4941ZM48.7994 32.4064L37.1827 39.1318V26.4682L42.9911 29.8302C43.2025 29.9523 43.463 29.9523 43.6744 29.8302L48.7994 26.8639V32.4064ZM43.3327 28.4499L37.8661 25.2833L49.4827 18.5559L54.9494 21.7225L43.3327 28.4499Z" fill="#898899"/>
<path d="M25.7162 6H25.2387C25.1069 6 25 6.18656 25 6.41667C25 6.64678 25.1069 6.83334 25.2387 6.83334H25.7162C25.8481 6.83334 25.955 6.64678 25.955 6.41667C25.955 6.18656 25.8481 6 25.7162 6Z" fill="#FF2C2C"/>
<path d="M19.4162 0H18.0495C17.6722 0 17.3662 0.305963 17.3662 0.683333C17.3662 1.0607 17.6722 1.36667 18.0495 1.36667H19.4162C19.7936 1.36667 20.0995 1.0607 20.0995 0.683333C20.0995 0.305963 19.7936 0 19.4162 0Z" fill="#898899"/>
<path d="M26.2494 2.73334H20.7827C20.4053 2.73334 20.0994 3.0393 20.0994 3.41667C20.0994 3.79404 20.4053 4.1 20.7827 4.1H26.2494C26.6267 4.1 26.9327 3.79404 26.9327 3.41667C26.9327 3.0393 26.6267 2.73334 26.2494 2.73334Z" fill="#898899"/>
<path d="M46.7495 29.3834C46.3721 29.3834 46.0662 29.6893 46.0662 30.0667V31.4334C46.0662 31.8107 46.3721 32.1167 46.7495 32.1167C47.1269 32.1167 47.4328 31.8107 47.4328 31.4334V30.0667C47.4328 29.6893 47.1269 29.3834 46.7495 29.3834Z" fill="#898899"/>
<path d="M44.0161 30.75C43.6387 30.75 43.3328 31.056 43.3328 31.4333V32.8C43.3328 33.1774 43.6387 33.4833 44.0161 33.4833C44.3935 33.4833 44.6994 33.1774 44.6994 32.8V31.4333C44.6994 31.056 44.3935 30.75 44.0161 30.75Z" fill="#898899"/>
</g>
<defs>
<filter id="filter0_d" x="0" y="22" width="56" height="32" filterUnits="userSpaceOnUse" color-interpolation-filters="sRGB">
<feFlood flood-opacity="0" result="BackgroundImageFix"/>
<feColorMatrix in="SourceAlpha" type="matrix" values="0 0 0 0 0 0 0 0 0 0 0 0 0 0 0 0 0 0 127 0"/>
<feOffset dx="-2" dy="2"/>
<feGaussianBlur stdDeviation="2.5"/>
<feColorMatrix type="matrix" values="0 0 0 0 0.439649 0 0 0 0 0.470085 0 0 0 0 0.529167 0 0 0 0.2 0"/>
<feBlend mode="normal" in2="BackgroundImageFix" result="effect1_dropShadow"/>
<feBlend mode="normal" in="SourceGraphic" in2="effect1_dropShadow" result="shape"/>
</filter>
<linearGradient id="paint0_linear" x1="7" y1="49" x2="55" y2="33" gradientUnits="userSpaceOnUse">
<stop stop-color="#FF0000"/>
<stop offset="1" stop-color="#FF0000" stop-opacity="0"/>
</linearGradient>
<clipPath id="clip0">
<rect width="41" height="41" fill="white" transform="translate(16)"/>
</clipPath>
</defs>
</svg>
