<svg width="48" height="48" viewBox="0 0 48 48" fill="none" xmlns="http://www.w3.org/2000/svg">
<circle cx="24" cy="24" r="24" fill="white"/>
<path fill-rule="evenodd" clip-rule="evenodd" d="M17.9533 9.4215C19.5173 9.3495 20.016 9.3335 24 9.3335C27.984 9.3335 28.4827 9.35083 30.0453 9.4215C31.608 9.49216 32.6747 9.7415 33.608 10.1028C34.5853 10.4722 35.472 11.0495 36.2053 11.7962C36.952 12.5282 37.528 13.4135 37.896 14.3922C38.2587 15.3255 38.5067 16.3922 38.5787 17.9522C38.6507 19.5188 38.6667 20.0175 38.6667 24.0002C38.6667 27.9842 38.6493 28.4828 38.5787 30.0468C38.508 31.6068 38.2587 32.6735 37.896 33.6068C37.528 34.5856 36.951 35.4724 36.2053 36.2055C35.472 36.9522 34.5853 37.5282 33.608 37.8962C32.6747 38.2588 31.608 38.5068 30.048 38.5788C28.4827 38.6508 27.984 38.6668 24 38.6668C20.016 38.6668 19.5173 38.6495 17.9533 38.5788C16.3933 38.5082 15.3267 38.2588 14.3933 37.8962C13.4146 37.5281 12.5278 36.9512 11.7947 36.2055C11.0485 35.4731 10.4711 34.5867 10.1027 33.6082C9.74133 32.6748 9.49333 31.6082 9.42133 30.0482C9.34933 28.4815 9.33333 27.9828 9.33333 24.0002C9.33333 20.0162 9.35066 19.5175 9.42133 17.9548C9.49199 16.3922 9.74133 15.3255 10.1027 14.3922C10.4716 13.4136 11.0495 12.5272 11.796 11.7948C12.528 11.0488 13.414 10.4714 14.392 10.1028C15.3253 9.7415 16.392 9.4935 17.952 9.4215H17.9533ZM29.9267 12.0615C28.38 11.9908 27.916 11.9762 24 11.9762C20.084 11.9762 19.62 11.9908 18.0733 12.0615C16.6427 12.1268 15.8667 12.3655 15.3493 12.5668C14.6653 12.8335 14.176 13.1495 13.6627 13.6628C13.1761 14.1362 12.8016 14.7125 12.5667 15.3495C12.3653 15.8668 12.1267 16.6428 12.0613 18.0735C11.9907 19.6202 11.976 20.0842 11.976 24.0002C11.976 27.9162 11.9907 28.3802 12.0613 29.9268C12.1267 31.3575 12.3653 32.1335 12.5667 32.6508C12.8013 33.2868 13.176 33.8642 13.6627 34.3375C14.136 34.8242 14.7133 35.1988 15.3493 35.4335C15.8667 35.6348 16.6427 35.8735 18.0733 35.9388C19.62 36.0095 20.0827 36.0242 24 36.0242C27.9173 36.0242 28.38 36.0095 29.9267 35.9388C31.3573 35.8735 32.1333 35.6348 32.6507 35.4335C33.3347 35.1668 33.824 34.8508 34.3373 34.3375C34.824 33.8642 35.1987 33.2868 35.4333 32.6508C35.6347 32.1335 35.8733 31.3575 35.9387 29.9268C36.0093 28.3802 36.024 27.9162 36.024 24.0002C36.024 20.0842 36.0093 19.6202 35.9387 18.0735C35.8733 16.6428 35.6347 15.8668 35.4333 15.3495C35.1667 14.6655 34.8507 14.1762 34.3373 13.6628C33.8639 13.1763 33.2876 12.8018 32.6507 12.5668C32.1333 12.3655 31.3573 12.1268 29.9267 12.0615V12.0615ZM22.1267 28.5215C23.1729 28.957 24.3378 29.0158 25.4226 28.6878C26.5073 28.3598 27.4445 27.6654 28.0741 26.7232C28.7038 25.7809 28.9867 24.6493 28.8747 23.5216C28.7627 22.3939 28.2627 21.3401 27.46 20.5402C26.9483 20.0288 26.3296 19.6372 25.6484 19.3937C24.9673 19.1501 24.2406 19.0606 23.5207 19.1316C22.8007 19.2027 22.1055 19.4324 21.4851 19.8043C20.8646 20.1763 20.3343 20.6812 19.9324 21.2826C19.5305 21.8841 19.2669 22.5672 19.1607 23.2828C19.0545 23.9983 19.1082 24.7286 19.318 25.4209C19.5279 26.1131 19.8886 26.7503 20.3743 27.2865C20.8599 27.8226 21.4584 28.2444 22.1267 28.5215ZM18.6693 18.6695C19.3694 17.9695 20.2004 17.4142 21.1151 17.0353C22.0297 16.6565 23.01 16.4615 24 16.4615C24.99 16.4615 25.9703 16.6565 26.8849 17.0353C27.7996 17.4142 28.6306 17.9695 29.3307 18.6695C30.0307 19.3695 30.586 20.2006 30.9648 21.1152C31.3437 22.0299 31.5387 23.0102 31.5387 24.0002C31.5387 24.9902 31.3437 25.9705 30.9648 26.8851C30.586 27.7997 30.0307 28.6308 29.3307 29.3308C27.9169 30.7446 25.9994 31.5389 24 31.5389C22.0006 31.5389 20.0831 30.7446 18.6693 29.3308C17.2555 27.917 16.4613 25.9995 16.4613 24.0002C16.4613 22.0008 17.2555 20.0833 18.6693 18.6695V18.6695ZM33.2107 17.5842C33.3841 17.4205 33.523 17.2237 33.6191 17.0055C33.7151 16.7872 33.7664 16.5519 33.7699 16.3134C33.7734 16.075 33.729 15.8382 33.6393 15.6172C33.5497 15.3963 33.4166 15.1955 33.2479 15.0269C33.0793 14.8583 32.8786 14.7252 32.6576 14.6355C32.4366 14.5459 32.1999 14.5015 31.9614 14.5049C31.723 14.5084 31.4876 14.5597 31.2694 14.6558C31.0511 14.7518 30.8543 14.8907 30.6907 15.0642C30.3724 15.4015 30.1982 15.8497 30.2049 16.3134C30.2117 16.7771 30.3989 17.22 30.7269 17.548C31.0548 17.8759 31.4977 18.0631 31.9614 18.0699C32.4252 18.0767 32.8733 17.9024 33.2107 17.5842V17.5842Z" fill="#FF2C2C"/>
</svg>
