<svg width="48" height="48" viewBox="0 0 48 48" fill="none" xmlns="http://www.w3.org/2000/svg">
<circle cx="24" cy="24" r="24" fill="white"/>
<path d="M34.3261 12.1896C33.6286 11.5194 30.8058 9.38265 24.5122 9.35401C24.5122 9.35401 17.0927 8.89 13.4791 12.35C11.469 14.4466 10.7606 17.5228 10.6837 21.3322C10.6068 25.1416 10.5135 32.2792 17.1092 34.2155H17.1147L17.1092 37.1713C17.1092 37.1713 17.0652 38.3686 17.8231 38.6092C18.7348 38.9071 19.273 37.9962 20.1462 37.0167C20.624 36.4782 21.283 35.6877 21.7827 35.0862C26.297 35.4815 29.7624 34.5764 30.1578 34.4446C31.0694 34.1353 36.2263 33.4479 37.0611 26.3102C37.9288 18.9434 36.6437 14.2919 34.3261 12.1896V12.1896ZM35.0895 25.7717C34.381 31.7293 30.2017 32.1074 29.4329 32.3652C29.1034 32.474 26.0554 33.2645 22.2276 33.0068C22.2276 33.0068 19.3718 36.5985 18.4821 37.5322C18.1911 37.8358 17.8725 37.8072 17.878 37.2057C17.878 36.8105 17.9 32.2964 17.9 32.2964C17.8945 32.2964 17.8945 32.2964 17.9 32.2964C12.3093 30.681 12.6388 24.6031 12.6992 21.4238C12.7596 18.2446 13.3363 15.6381 15.0387 13.8852C18.0977 10.9923 24.3969 11.422 24.3969 11.422C29.7185 11.4449 32.2667 13.1176 32.8598 13.679C34.8204 15.4319 35.8199 19.6251 35.0895 25.7717V25.7717ZM27.4558 21.1431C27.4778 21.6358 26.7693 21.6702 26.7474 21.1775C26.687 19.9173 26.1213 19.3043 24.957 19.2356C24.4847 19.2069 24.5287 18.468 24.9955 18.4966C26.5277 18.5825 27.3789 19.4991 27.4558 21.1431ZM28.5707 21.7905C28.6256 19.3616 27.1702 17.4598 24.4078 17.2478C23.941 17.2134 23.9905 16.4745 24.4573 16.5088C27.6425 16.7494 29.3395 19.0351 29.2791 21.8076C29.2736 22.3003 28.5597 22.2774 28.5707 21.7905V21.7905ZM31.1518 22.5581C31.1573 23.0507 30.4434 23.0565 30.4434 22.5638C30.4104 17.8951 27.4284 15.3517 23.8092 15.323C23.3424 15.3173 23.3424 14.5841 23.8092 14.5841C27.8567 14.6127 31.1134 17.5285 31.1518 22.5581V22.5581ZM30.5312 28.1777V28.1891C29.9381 29.2775 28.8288 30.4805 27.6865 30.0967L27.6755 30.0795C26.5167 29.7415 23.7873 28.2751 22.0628 26.843C21.1731 26.1097 20.3603 25.2447 19.7343 24.4141C19.1686 23.6751 18.5975 22.7987 18.0428 21.7446C16.873 19.5392 16.6149 18.5539 16.6149 18.5539C16.247 17.3624 17.3947 16.2052 18.4437 15.5866H18.4547C18.9599 15.3116 19.4432 15.4032 19.7672 15.81C19.7672 15.81 20.4482 16.6578 20.7393 17.076C21.0139 17.4655 21.3818 18.0899 21.574 18.4393C21.909 19.0637 21.7004 19.6996 21.3708 19.9631L20.7118 20.513C20.3768 20.7937 20.4208 21.315 20.4208 21.315C20.4208 21.315 21.3983 25.1702 25.0504 26.1441C25.0504 26.1441 25.5501 26.1899 25.8192 25.8405L26.3465 25.1531C26.5991 24.8094 27.2087 24.5917 27.8073 24.9411C28.6146 25.4166 29.6416 26.1555 30.3226 26.8258C30.707 27.1523 30.7949 27.6507 30.5312 28.1777Z" fill="#FF2C2C"/>
</svg>
