<svg width="24" height="24" viewBox="0 0 24 24" fill="none" xmlns="http://www.w3.org/2000/svg">
<path d="M20.4014 3.48906C19.3011 2.37858 17.9908 1.49819 16.5468 0.899179C15.1029 0.300172 13.5542 -0.00546639 11.9909 7.39956e-05C5.44042 7.39956e-05 0.101939 5.33706 0.0959387 11.889C0.0959387 13.9875 0.644937 16.029 1.68143 17.8365L-6.10352e-05 24L6.30592 22.347C8.05042 23.2964 10.0048 23.794 11.9909 23.7945H11.9969C18.5489 23.7945 23.8859 18.4575 23.8919 11.8995C23.8934 10.3366 23.5856 8.78883 22.9863 7.34537C22.387 5.90191 21.5079 4.59131 20.3999 3.48906H20.4014ZM11.9909 21.7815C10.2194 21.7821 8.48047 21.3054 6.95692 20.4015L6.59692 20.1855L2.85593 21.1665L3.85493 17.517L3.62093 17.1405C2.63064 15.566 2.1069 13.7431 2.11043 11.883C2.11043 6.44405 6.54592 2.00707 11.9969 2.00707C13.2955 2.00474 14.5817 2.25948 15.7814 2.7566C16.9811 3.25373 18.0705 3.9834 18.9869 4.90356C19.9064 5.82013 20.6354 6.90969 21.1318 8.1094C21.6281 9.3091 21.882 10.5952 21.8789 11.8935C21.8729 17.352 17.4374 21.7815 11.9909 21.7815ZM17.4134 14.3805C17.1179 14.232 15.6584 13.5135 15.3839 13.4115C15.1109 13.314 14.9114 13.263 14.7164 13.56C14.5169 13.8555 13.9469 14.529 13.7759 14.7225C13.6049 14.922 13.4279 14.9445 13.1309 14.7975C12.8354 14.6475 11.8769 14.3355 10.7429 13.32C9.85791 12.5325 9.26541 11.5575 9.08841 11.262C8.91741 10.965 9.07191 10.806 9.22041 10.6575C9.35091 10.5255 9.51591 10.3095 9.66441 10.1385C9.81441 9.96754 9.86391 9.84154 9.96141 9.64354C10.0589 9.44254 10.0124 9.27154 9.93891 9.12304C9.86391 8.97455 9.27141 7.50905 9.02091 6.91805C8.78091 6.33455 8.53641 6.41555 8.35341 6.40805C8.18241 6.39755 7.98291 6.39755 7.78341 6.39755C7.63276 6.4013 7.48451 6.43614 7.34796 6.4999C7.21141 6.56366 7.08951 6.65495 6.98992 6.76805C6.71692 7.06505 5.95342 7.78355 5.95342 9.24904C5.95342 10.7145 7.01842 12.123 7.16842 12.3225C7.31542 12.522 9.25941 15.5205 12.2429 16.8105C12.9479 17.118 13.5029 17.2995 13.9364 17.4375C14.6489 17.6655 15.2924 17.631 15.8054 17.5575C16.3754 17.4705 17.5619 16.8375 17.8124 16.143C18.0584 15.447 18.0584 14.853 17.9834 14.7285C17.9099 14.6025 17.7104 14.529 17.4134 14.3805Z" fill="white"/>
</svg>
