<?xml version="1.0" encoding="utf-8"?>
<!-- Generator: Adobe Illustrator 18.1.1, SVG Export Plug-In . SVG Version: 6.00 Build 0)  -->
<svg version="1.1" id="Layer_1" xmlns="http://www.w3.org/2000/svg" xmlns:xlink="http://www.w3.org/1999/xlink" x="0px" y="0px"
	 viewBox="-163 122.3 515 351" enable-background="new -163 122.3 515 351" xml:space="preserve">
<g>
	<path fill="#FFFFFF" d="M-163,122.3v356.3h515V122.3H-163z M342.7,439.9c-4.7,4.9-10.1,8.6-15.9,11.2
		c-10.8,11.3-28.2,19.4-56.1,20.9c-66.8,3.7-232-10.4-317.4-11.2c-0.5,0.1-1,0.2-1.5,0.4c-18.4,4.6-33.4,5-45.6,2.1
		c-44.8,7.3-77.9-38-67.1-90.2c8.8-42.4,3.7-123.6,0-158.9c-4.5-36.3,5.8-105.1,83.3-89.8c54.9,12.3,176,35.8,221,31.7
		c15.2-1.4,35.6-4.7,57.5-7.5c84.9-25.6,94.6-26.8,121.2,5.8c0.8,1,1.6,2.1,2.2,3.2c9.2,6,16.1,14.3,19.4,25.7
		c16.2,54.9,4.3,133.1,0.9,174C352.5,402.5,355.8,426.3,342.7,439.9z"/>
	<g>
		<path fill="#5DACDA" d="M272.9,451.6c-25.1-8.4-188.7-23.1-319.6,9.3c85.4,0.8,250.6,14.8,317.4,11.2c27.9-1.5,45.3-9.6,56.1-20.9
			C310.7,458.4,291.4,457.7,272.9,451.6z"/>
		<path fill="#5DACDA" d="M-140,292.6c0-7.2-21.3-89.2-12.3-107.3c9-18.1,14.2-46.5,122.1-23.3c29.1,8.2,113.3,22,211.9-7.8
			c6.7-2,13.1-4,19-5.8c-21.9,2.8-42.2,6.1-57.5,7.5c-45,4.1-166-19.4-221-31.7c-77.5-15.3-87.9,53.5-83.3,89.8
			c3.7,35.3,8.8,116.6,0,158.9c-10.8,52.2,22.2,97.5,67.1,90.2C-169.1,445.9-140,307.6-140,292.6z"/>
		<path fill="#5DACDA" d="M343.7,183.3c-3.4-11.4-10.2-19.7-19.4-25.7c14.6,23.7-1,70.2,11.3,147.3c3.2,20.1,6.3,37.4,9,52.3
			C348,316.4,359.9,238.2,343.7,183.3z"/>
	</g>
</g>
</svg>
