<svg width="201" height="225" viewBox="0 0 201 225" fill="none" xmlns="http://www.w3.org/2000/svg">
<path d="M114.095 65.062C106.262 63.7696 100.96 56.3719 102.252 48.5389C103.544 40.7058 110.942 35.4036 118.775 36.696C126.608 37.9884 131.91 45.3861 130.618 53.2191C129.325 61.0522 121.928 66.3544 114.095 65.062Z" fill="#5DACDA"/>
<path d="M18.3453 37.2813C9.31817 35.7919 3.20767 27.2665 4.69709 18.2394C6.18651 9.21233 14.7119 3.10183 23.739 4.59125C32.7661 6.08067 38.8766 14.606 37.3871 23.6331C35.8977 32.6602 27.3724 38.7707 18.3453 37.2813Z" stroke="#5DACDA" stroke-width="3" stroke-miterlimit="22.9256"/>
<path d="M23.5845 222.87C18.8616 222.091 15.6646 217.63 16.4439 212.907C17.2231 208.184 21.6835 204.988 26.4064 205.767C31.1293 206.546 34.3263 211.006 33.547 215.729C32.7678 220.452 28.3074 223.649 23.5845 222.87Z" fill="#EC6277"/>
<path d="M33.79 105.908C24.9378 104.447 18.9457 96.0869 20.4063 87.2347C21.8668 78.3826 30.227 72.3905 39.0791 73.851C47.9313 75.3116 53.9234 83.6717 52.4628 92.5239C51.0023 101.376 42.6422 107.368 33.79 105.908Z" stroke="#F3EE93" stroke-width="3" stroke-miterlimit="22.9256"/>
<path d="M178.864 38.707C170.757 37.3695 165.269 29.7134 166.607 21.6067C167.945 13.5 175.601 8.01255 183.707 9.35011C191.814 10.6877 197.301 18.3437 195.964 26.4504C194.626 34.5571 186.97 40.0446 178.864 38.707Z" stroke="#F3EE93" stroke-width="3" stroke-miterlimit="22.9256"/>
</svg>
