<svg width="66" height="169" viewBox="0 0 66 169" fill="none" xmlns="http://www.w3.org/2000/svg">
<path d="M18.8742 2.25613L19.2156 1.51217L19.9567 1.85972L56.1269 18.8223L56.6688 19.0764L56.5863 19.6692L48.3545 78.7888L48.1453 80.2911L47.0113 79.2838L2.35982 39.6213L1.9104 39.2221L2.16111 38.6758L18.8742 2.25613Z" fill="white" stroke="#478C84" stroke-width="1.62363"/>
<path d="M41.4313 119.807L41.6955 120.115L41.6074 120.512C41.4289 121.315 40.9099 121.942 40.3446 122.413C39.775 122.888 39.0937 123.259 38.4649 123.54C37.8311 123.823 37.2193 124.03 36.7686 124.165C36.5423 124.233 36.3541 124.284 36.2211 124.318C36.1546 124.335 36.1016 124.347 36.0645 124.356L36.0207 124.367L36.0082 124.369L36.0043 124.37L36.003 124.371L36.0025 124.371C36.0023 124.371 36.0021 124.371 35.826 123.578L36.0021 124.371L35.9151 124.39H35.826C35.819 124.39 35.8117 124.39 35.8043 124.39C35.5346 124.391 34.992 124.391 34.5036 123.903C34.0151 123.415 34.0159 122.872 34.0163 122.602C34.0163 122.595 34.0163 122.588 34.0163 122.581V122.454L34.0546 122.334L35.773 116.934C35.815 116.616 35.9777 116.354 36.1562 116.176C36.3636 115.968 36.6844 115.782 37.0732 115.782C37.0802 115.782 37.0874 115.782 37.0948 115.782C37.3646 115.782 37.9072 115.781 38.3956 116.269L38.4176 116.291L38.4379 116.315L41.4313 119.807Z" fill="white" stroke="#478C84" stroke-width="1.62363"/>
<path d="M42.4447 123.857L42.1456 123.508L42.2909 123.072C42.5457 122.308 43.0939 121.691 43.6797 121.209C44.2726 120.721 44.9651 120.323 45.6054 120.011C46.2494 119.697 46.8646 119.459 47.3171 119.3C47.5442 119.221 47.7322 119.16 47.8649 119.119C47.9312 119.098 47.9839 119.083 48.0208 119.072L48.064 119.059L48.0764 119.056L48.0801 119.055L48.0814 119.054L48.0819 119.054C48.082 119.054 48.0822 119.054 48.2995 119.836L48.0822 119.054L48.1888 119.025H48.2995C48.3033 119.025 48.3086 119.024 48.3155 119.024C48.4089 119.022 48.7782 119.014 49.0928 119.223C49.4018 119.429 49.5342 119.731 49.584 120.017C49.8606 120.429 49.86 120.839 49.8597 121.062C49.8597 121.069 49.8597 121.077 49.8597 121.084V121.21L49.8214 121.33L48.1031 126.73C48.061 127.048 47.8983 127.31 47.7198 127.489C47.5124 127.696 47.1916 127.882 46.8028 127.882C46.7958 127.882 46.7886 127.882 46.7812 127.882C46.5114 127.883 45.9688 127.883 45.4804 127.395L45.4584 127.373L45.4381 127.349L42.4447 123.857Z" fill="white" stroke="#478C84" stroke-width="1.62363"/>
<path d="M47.4902 100.697L47.7026 101.037L47.5619 101.412C47.2811 102.161 46.6623 102.688 46.038 103.058C45.4015 103.434 44.6581 103.707 43.969 103.904C43.2743 104.102 42.6015 104.233 42.0881 104.314C41.5993 104.392 41.1984 104.434 41.0644 104.434C41.0574 104.434 41.0502 104.434 41.0428 104.434C40.773 104.434 40.2305 104.435 39.742 103.946L39.5043 103.709V103.372V103.371V103.369V103.368V103.367V103.365V103.364V103.362V103.361V103.359V103.358V103.356V103.355V103.353V103.352V103.35V103.349V103.348V103.346V103.345V103.343V103.342V103.34V103.339V103.337V103.336V103.334V103.333V103.331V103.33V103.329V103.327V103.326V103.324V103.323V103.321V103.32V103.318V103.317V103.315V103.314V103.312V103.311V103.31V103.308V103.307V103.305V103.304V103.302V103.301V103.299V103.298V103.296V103.295V103.293V103.292V103.291V103.289V103.288V103.286V103.285V103.283V103.282V103.28V103.279V103.277V103.276V103.274V103.273V103.272V103.27V103.269V103.267V103.266V103.264V103.263V103.261V103.26V103.258V103.257V103.255V103.254V103.253V103.251V103.25V103.248V103.247V103.245V103.244V103.242V103.241V103.239V103.238V103.236V103.235V103.234V103.232V103.231V103.229V103.228V103.226V103.225V103.223V103.222V103.22V103.219V103.217V103.216V103.215V103.213V103.212V103.21V103.209V103.207V103.206V103.204V103.203V103.201V103.2V103.198V103.197V103.196V103.194V103.193V103.191V103.19V103.188V103.187V103.185V103.184V103.182V103.181V103.179V103.178V103.177V103.175V103.174V103.172V103.171V103.169V103.168V103.166V103.165V103.163V103.162V103.16V103.159V103.158V103.156V103.155V103.153V103.152V103.15V103.149V103.147V103.146V103.144V103.143V103.141V103.14V103.139V103.137V103.136V103.134V103.133V103.131V103.13V103.128V103.127V103.125V103.124V103.122V103.121V103.12V103.118V103.117V103.115V103.114V103.112V103.111V103.109V103.108V103.106V103.105V103.103V103.102V103.101V103.099V103.098V103.096V103.095V103.093V103.092V103.09V103.089V103.087V103.086V103.084V103.083V103.082V103.08V103.079V103.077V103.076V103.074V103.073V103.071V103.07V103.068V103.067V103.065V103.064V103.063V103.061V103.06V103.058V103.057V103.055V103.054V103.052V103.051V103.049V103.048V103.046V103.045V103.044V103.042V103.041V103.039V103.038V103.036V103.035V103.033V103.032V103.03V103.029V103.027V103.026V103.025V103.023V103.022V103.02V103.019V103.017V103.016V103.014V103.013V103.011V103.01V103.008V103.007V103.006V103.004V103.003V103.001V103V102.998V102.997V102.995V102.994V102.992V102.991V102.989V102.988V102.987V102.985V102.984V102.982V102.981V102.979V102.978V102.976V102.975V102.973V102.972V102.97V102.969V102.968V102.966V102.965V102.963V102.962V102.96V102.959V102.957V102.956V102.954V102.953V102.951V102.95V102.949V102.947V102.946V102.944V102.943V102.941V102.94V102.938V102.937V102.935V102.934V102.932V102.931V102.93V102.928V102.927V102.925V102.924V102.922V102.921V102.919V102.918V102.916V102.915V102.913V102.912V102.911V102.909V102.908V102.906V102.905V102.903V102.902V102.9V102.899V102.897V102.896V102.894V102.893V102.892V102.89V102.889V102.887V102.886V102.884V102.883V102.881V102.88V102.878V102.877V102.875V102.874V102.873V102.871V102.87V102.868V102.867V102.865V102.864V102.862V102.861V102.859V102.858V102.856V102.855V102.854V102.852V102.851V102.849V102.848V102.846V102.845V102.843V102.842V102.84V102.839V102.837V102.836V102.835V102.833V102.832V102.83V102.829V102.827V102.826V102.824V102.823V102.821V102.82V102.818V102.817V102.816V102.814V102.813V102.811V102.81V102.808V102.807V102.805V102.804V102.802V102.801V102.799V102.798V102.797V102.795V102.794V102.792V102.791V102.789V102.788V102.786V102.785V102.783V102.782V102.78V102.779V102.778V102.776V102.775V102.773V102.772V102.77V102.769V102.767V102.766V102.764V102.763V102.761V102.76V102.759V102.757V102.756V102.754V102.753V102.751V102.75V102.748V102.747V102.745V102.744V102.742V102.741V102.74V102.738V102.737V102.735V102.734V102.732V102.731V102.729V102.728V102.726V102.725V102.723V102.722V102.721V102.719V102.718V102.716V102.715V102.713V102.712V102.71V102.709V102.707V102.706V102.704V102.703V102.702V102.7V102.699V102.697V102.696V102.694V102.693V102.691V102.69V102.688V102.687V102.685V102.684V102.683V102.681V102.68V102.678V102.677V102.675V102.674V102.672V102.671V102.669V102.668V102.666V102.665V102.664V102.662V102.661V102.659V102.658V102.656V102.655V102.653V102.652V102.65V102.649V102.647V102.646V102.645V102.643V102.642V102.64V102.639V102.637V102.636V102.634V102.633V102.631V102.63V102.628V102.627V102.626V102.624V102.441L39.5831 102.275L42.0776 97.0366L42.1377 96.9104L42.2365 96.8116C42.2416 96.8065 42.2468 96.8013 42.2521 96.796C42.3656 96.6824 42.5258 96.5221 42.6977 96.3932C42.869 96.2647 43.1693 96.0749 43.5589 96.0749C43.5659 96.0749 43.5731 96.0749 43.5805 96.0749C43.8503 96.0745 44.3929 96.0737 44.8813 96.5621L44.9467 96.6275L44.9957 96.7059L47.4902 100.697Z" fill="white" stroke="#478C84" stroke-width="1.62363"/>
<path d="M47.8606 104.8L47.6319 104.434L47.8071 104.04C48.1437 103.283 48.751 102.722 49.3964 102.312C50.0452 101.901 50.7841 101.609 51.4702 101.408C52.1589 101.206 52.8243 101.088 53.3448 101.036C53.6032 101.011 53.8427 101 54.041 101.008C54.138 101.011 54.2472 101.02 54.3531 101.042C54.3808 101.048 54.413 101.055 54.4481 101.065C54.7408 101.074 55.1942 101.136 55.6087 101.551L55.8465 101.788V102.125V102.126V102.128V102.129V102.131V102.132V102.133V102.135V102.136V102.138V102.139V102.141V102.142V102.144V102.145V102.147V102.148V102.15V102.151V102.152V102.154V102.155V102.157V102.158V102.16V102.161V102.163V102.164V102.166V102.167V102.169V102.17V102.171V102.173V102.174V102.176V102.177V102.179V102.18V102.182V102.183V102.185V102.186V102.188V102.189V102.19V102.192V102.193V102.195V102.196V102.198V102.199V102.201V102.202V102.204V102.205V102.207V102.208V102.209V102.211V102.212V102.214V102.215V102.217V102.218V102.22V102.221V102.223V102.224V102.226V102.227V102.229V102.23V102.231V102.233V102.234V102.236V102.237V102.239V102.24V102.242V102.243V102.245V102.246V102.248V102.249V102.25V102.252V102.253V102.255V102.256V102.258V102.259V102.261V102.262V102.264V102.265V102.267V102.268V102.269V102.271V102.272V102.274V102.275V102.277V102.278V102.28V102.281V102.283V102.284V102.286V102.287V102.288V102.29V102.291V102.293V102.294V102.296V102.297V102.299V102.3V102.302V102.303V102.305V102.306V102.307V102.309V102.31V102.312V102.313V102.315V102.316V102.318V102.319V102.321V102.322V102.324V102.325V102.326V102.328V102.329V102.331V102.332V102.334V102.335V102.337V102.338V102.34V102.341V102.343V102.344V102.345V102.347V102.348V102.35V102.351V102.353V102.354V102.356V102.357V102.359V102.36V102.362V102.363V102.364V102.366V102.367V102.369V102.37V102.372V102.373V102.375V102.376V102.378V102.379V102.381V102.382V102.383V102.385V102.386V102.388V102.389V102.391V102.392V102.394V102.395V102.397V102.398V102.4V102.401V102.402V102.404V102.405V102.407V102.408V102.41V102.411V102.413V102.414V102.416V102.417V102.419V102.42V102.421V102.423V102.424V102.426V102.427V102.429V102.43V102.432V102.433V102.435V102.436V102.438V102.439V102.44V102.442V102.443V102.445V102.446V102.448V102.449V102.451V102.452V102.454V102.455V102.457V102.458V102.459V102.461V102.462V102.464V102.465V102.467V102.468V102.47V102.471V102.473V102.474V102.476V102.477V102.478V102.48V102.481V102.483V102.484V102.486V102.487V102.489V102.49V102.492V102.493V102.495V102.496V102.497V102.499V102.5V102.502V102.503V102.505V102.506V102.508V102.509V102.511V102.512V102.514V102.515V102.516V102.518V102.519V102.521V102.522V102.524V102.525V102.527V102.528V102.53V102.531V102.533V102.534V102.535V102.537V102.538V102.54V102.541V102.543V102.544V102.546V102.547V102.549V102.55V102.552V102.553V102.554V102.556V102.557V102.559V102.56V102.562V102.563V102.565V102.566V102.568V102.569V102.571V102.572V102.573V102.575V102.576V102.578V102.579V102.581V102.582V102.584V102.585V102.587V102.588V102.59V102.591V102.592V102.594V102.595V102.597V102.598V102.6V102.601V102.603V102.604V102.606V102.607V102.609V102.61V102.611V102.613V102.614V102.616V102.617V102.619V102.62V102.622V102.623V102.625V102.626V102.628V102.629V102.63V102.632V102.633V102.635V102.636V102.638V102.639V102.641V102.642V102.644V102.645V102.647V102.648V102.649V102.651V102.652V102.654V102.655V102.657V102.658V102.66V102.661V102.663V102.664V102.666V102.667V102.668V102.67V102.671V102.673V102.674V102.676V102.677V102.679V102.68V102.682V102.683V102.685V102.686V102.687V102.689V102.69V102.692V102.693V102.695V102.696V102.698V102.699V102.701V102.702V102.704V102.705V102.706V102.708V102.709V102.711V102.712V102.714V102.715V102.717V102.718V102.72V102.721V102.723V102.724V102.725V102.727V102.728V102.73V102.731V102.733V102.734V102.736V102.737V102.739V102.74V102.742V102.743V102.744V102.746V102.747V102.749V102.75V102.752V102.753V102.755V102.756V102.758V102.759V102.761V102.762V102.763V102.765V102.766V102.768V102.769V102.771V102.772V102.774V102.775V102.777V102.778V102.78V102.781V102.782V102.784V102.785V102.787V102.788V102.79V102.791V102.793V102.794V102.796V102.797V102.799V102.8V102.801V102.803V102.804V102.806V102.807V102.809V102.81V102.812V102.813V102.815V102.816V102.818V102.819V102.82V102.822V102.823V102.825V102.826V102.828V102.829V102.831V102.832V102.834V102.835V102.837V102.838V102.839V102.841V102.842V102.844V102.845V102.847V102.848V102.85V102.851V102.853V102.854V102.856V102.857V102.858V102.86V102.861V102.863V102.864V102.866V102.867V102.869V102.87V102.872V102.873V103.056L55.7676 103.222L53.2731 108.461L53.213 108.587L53.1142 108.686C53.1091 108.691 53.1039 108.696 53.0986 108.701C52.9851 108.815 52.8249 108.975 52.6531 109.104C52.4817 109.232 52.1814 109.422 51.7918 109.422C51.7848 109.422 51.7776 109.422 51.7702 109.422C51.5005 109.423 50.9579 109.423 50.4694 108.935L50.4041 108.87L50.3551 108.791L47.8606 104.8Z" fill="white" stroke="#478C84" stroke-width="1.62363"/>
<path d="M43.3176 142.265L43.7027 142.393L43.831 142.778C44.0976 143.578 43.9671 144.402 43.712 145.113C43.4551 145.83 43.0431 146.514 42.6301 147.092C42.214 147.675 41.7764 148.178 41.4451 148.534C41.2787 148.713 41.1374 148.856 41.0366 148.956C40.9861 149.006 40.9457 149.045 40.9172 149.072L40.8836 149.104L40.8803 149.107C40.3947 149.585 39.858 149.584 39.5902 149.584C39.5828 149.584 39.5756 149.584 39.5686 149.584C39.1798 149.584 38.859 149.398 38.6516 149.19C38.468 149.007 38.3011 148.734 38.265 148.405L36.7875 142.741L36.7612 142.64V142.536C36.7612 142.529 36.7612 142.522 36.7612 142.514C36.7608 142.245 36.76 141.702 37.2484 141.213C37.7368 140.725 38.2794 140.726 38.5492 140.726C38.5566 140.726 38.5638 140.726 38.5708 140.726H38.7025L38.8275 140.768L43.3176 142.265Z" fill="white" stroke="#478C84" stroke-width="1.62363"/>
<path d="M46.2964 145.302L45.9113 145.174L45.783 144.789C45.5164 143.989 45.6469 143.165 45.902 142.454C46.159 141.737 46.571 141.053 46.9839 140.475C47.4 139.892 47.8376 139.389 48.1689 139.033C48.3353 138.854 48.4766 138.711 48.5774 138.611C48.6279 138.561 48.6683 138.522 48.6968 138.495L48.7304 138.463L48.7337 138.46C49.2193 137.982 49.756 137.983 50.0238 137.983C50.0312 137.983 50.0384 137.983 50.0454 137.983C50.4342 137.983 50.755 138.169 50.9625 138.377C51.146 138.56 51.3129 138.833 51.349 139.162L52.8265 144.826L52.8528 144.927V145.031C52.8528 145.038 52.8528 145.045 52.8528 145.053C52.8532 145.323 52.854 145.865 52.3656 146.354C51.8772 146.842 51.3346 146.841 51.0648 146.841C51.0574 146.841 51.0502 146.841 51.0432 146.841H50.9115L50.7865 146.799L46.2964 145.302Z" fill="white" stroke="#478C84" stroke-width="1.62363"/>
<path d="M58.1607 160.916L57.7548 160.915L57.5127 160.589C57.01 159.912 56.8771 159.088 56.8975 158.333C56.9181 157.571 57.0962 156.793 57.3082 156.115C57.5219 155.432 57.7808 154.817 57.9846 154.376C58.087 154.154 58.1765 153.974 58.2412 153.847C58.2735 153.784 58.2998 153.734 58.3183 153.7L58.3403 153.659L58.3424 153.655C58.6548 153.049 59.165 152.883 59.4196 152.8C59.4266 152.797 59.4335 152.795 59.4401 152.793C59.8095 152.672 60.1723 152.749 60.4342 152.881C60.6658 152.998 60.9094 153.205 61.0464 153.507L64.2166 158.427L64.273 158.515L64.3055 158.614C64.3077 158.621 64.31 158.627 64.3123 158.634C64.3968 158.891 64.5667 159.406 64.255 160.022C63.9433 160.639 63.4275 160.807 63.1711 160.891C63.164 160.893 63.1572 160.895 63.1505 160.898L63.0253 160.939L62.8936 160.938L58.1607 160.916Z" fill="white" stroke="#478C84" stroke-width="1.62363"/>
<path d="M54.2858 159.933H54.6592L54.9022 160.217C55.4517 160.858 55.6121 161.673 55.6121 162.417C55.6121 163.168 55.4502 163.944 55.252 164.621C55.052 165.305 54.804 165.924 54.6078 166.369C54.5093 166.593 54.4227 166.776 54.3601 166.903C54.3488 166.926 54.3384 166.947 54.3287 166.967C54.1955 167.703 53.4389 168.043 52.7891 168.043C52.5938 168.043 52.4298 167.994 52.317 167.952C52.2136 167.913 52.1177 167.865 52.0613 167.837C52.058 167.835 52.0549 167.834 52.0519 167.832C52.0135 167.813 51.989 167.801 51.9722 167.793H51.6002L51.3601 167.424L48.1565 162.495C47.9683 162.285 47.799 161.99 47.799 161.618C47.799 161.202 48.0107 160.883 48.2239 160.67C48.229 160.665 48.2342 160.66 48.2395 160.654C48.3529 160.541 48.5131 160.38 48.685 160.252C48.8564 160.123 49.1567 159.933 49.5463 159.933H54.2858Z" fill="white" stroke="#478C84" stroke-width="1.62363"/>
<path d="M39.6392 121.583V121.53L39.652 121.479C39.9354 120.345 40.8173 119.408 42.0634 119.408C42.7139 119.408 43.2637 119.734 43.64 120.186C44.0144 120.635 44.2382 121.23 44.2382 121.832C44.2382 122.482 43.9119 123.032 43.4604 123.409C43.0111 123.783 42.4156 124.007 41.814 124.007C41.1635 124.007 40.6137 123.68 40.2374 123.229C39.863 122.78 39.6392 122.184 39.6392 121.583Z" fill="#478C84" stroke="#478C84" stroke-width="0.857273"/>
<path d="M49.975 103.123V103.175L49.9622 103.227C49.6465 104.49 48.3876 105.083 47.1974 104.786C45.9515 104.474 45.3569 103.245 45.6266 102.069C45.6496 101.53 46.0048 101.06 46.44 100.77C46.9008 100.463 47.5224 100.304 48.1536 100.462C49.4148 100.777 49.975 102.014 49.975 103.123Z" fill="#478C84" stroke="#478C84" stroke-width="0.857273"/>
<path d="M46.9092 142.796L46.924 142.819L46.936 142.842C47.5586 144.088 46.9149 145.303 46.042 145.885L46.0198 145.9L45.9959 145.912C44.7553 146.532 43.5442 145.896 42.9597 145.028C42.0605 143.817 42.6292 142.236 43.9079 141.882C45.1386 141.294 46.3338 141.933 46.9092 142.796Z" fill="#478C84" stroke="#478C84" stroke-width="0.857273"/>
<path d="M54.7315 159.195C55.1888 158.738 55.7979 158.508 56.3754 158.508C56.9378 158.508 57.5115 158.73 57.8609 159.224C58.2857 159.662 58.519 160.192 58.519 160.746C58.519 161.311 58.2752 161.853 57.8322 162.296C57.3891 162.739 56.8473 162.983 56.2818 162.983C55.7286 162.983 55.1982 162.749 54.7606 162.325C54.2661 161.975 54.0447 161.402 54.0447 160.839C54.0447 160.262 54.2742 159.653 54.7315 159.195Z" fill="#478C84" stroke="#478C84" stroke-width="0.857273"/>
<path fill-rule="evenodd" clip-rule="evenodd" d="M30.231 29.6123L48.8025 80.684L48.8123 80.7109L48.8202 80.7385L48.0392 80.9616C48.8202 80.7385 48.8202 80.7387 48.8203 80.7389L48.8205 80.7397L48.8212 80.7422L48.8237 80.751L48.8328 80.7834C48.8406 80.8115 48.852 80.8525 48.8665 80.9059C48.8954 81.0126 48.937 81.1685 48.9882 81.3687C49.0905 81.7691 49.2317 82.3468 49.3883 83.0619C49.7012 84.4909 50.0771 86.4743 50.328 88.6905C50.8236 93.0685 50.8584 98.5628 48.7522 102.424C44.8345 109.607 42.9274 114.316 42.2633 122.516C41.5916 130.809 42.4755 135.779 45.5034 143.558C47.0382 147.501 50.1071 152.036 52.833 155.622C54.1893 157.406 55.4482 158.94 56.3678 160.027C56.8274 160.57 57.2019 161.001 57.4609 161.296C57.5904 161.444 57.691 161.557 57.7589 161.633L57.8358 161.719L57.855 161.74L57.8596 161.745L57.8606 161.747L57.8608 161.747L57.2588 162.292C56.6568 162.837 56.6567 162.837 56.6565 162.837L56.6561 162.837L56.6546 162.835L56.649 162.829L56.6279 162.805L56.547 162.715C56.4763 162.636 56.3728 162.519 56.2403 162.368C55.9754 162.067 55.5943 161.628 55.1275 161.076C54.1943 159.973 52.9169 158.417 51.5397 156.605C48.7985 152.999 45.6112 148.314 43.9895 144.147C40.8824 136.165 39.9504 130.949 40.6441 122.384C41.3325 113.885 43.3412 108.952 47.3261 101.646C49.1712 98.2634 49.206 93.2209 48.7138 88.8732C48.4707 86.7265 48.1058 84.7998 47.8013 83.4094C47.6492 82.7148 47.5125 82.1555 47.4143 81.7712C47.3652 81.5791 47.3257 81.4309 47.2987 81.3315C47.2886 81.2943 47.2802 81.2639 47.2738 81.2407L47.2679 81.2196L47.2655 81.2108L28.7076 30.1768L1.56467 40.2357L1.00015 38.7124L28.1525 28.65L18.2998 1.55517L19.8265 1L29.6758 28.0855L56.9765 17.9682L57.541 19.4915L30.231 29.6123Z" fill="#478C84"/>
</svg>
