<svg width="269" height="281" viewBox="0 0 269 281" fill="none" xmlns="http://www.w3.org/2000/svg">
<path d="M266.1 56.4001C266.1 56.4001 274.7 19.7999 256.2 15.6999C248.5 13.9999 236.8 14.2001 222.9 14.9001C218.3 12.3001 215.4 11.5 212 11.5C209.6 11.5 207 11.9001 203.4 12.6001C199.1 13.3001 193.2 14.4 184.5 15C177.9 15.5 172 15.9 166.5 16.3C163.4 16.2 160.3 16 157.3 15.8C122.6 13.1 83.1999 6.79992 69.1999 2.69992C55.1999 -1.40008 50.0999 0.600013 40.6999 6.80001C39.2999 7.80001 38 9.00011 36.8 10.4001C35.1 10.1001 33.6999 9.89991 32.6999 9.69991C31.6999 9.49991 30.7999 9.29991 29.9999 9.19991C26.2999 8.49991 23.8999 7.99996 21.6999 7.99996C19.4999 7.99996 17.5 8.50001 14.3 9.80001C2.49997 14.6 -0.200178 31.2001 0.899822 41.1001C1.19982 43.7001 1.89982 48.9001 2.89982 56.1001C5.29982 73.1001 8.89997 98.7 10.8 120.8C12.8 143.4 13.4999 164.3 12.9999 182.7C10.8999 203 8.89987 219.1 7.69987 225C3.19987 246.7 -3.10013 249.4 7.69987 261.2C18.4999 273 31.6999 271.1 69.1999 270.7C106.7 270.2 173.2 274.8 209.8 279.7C223.2 281.5 231.5 276.5 236.6 269.5C237.4 269.1 238.2 268.7 238.8 268.3C249.3 261.5 248.6 257.6 247.7 253.1C247.5 252 247.3 251 247.2 249.8C247.1 248.7 246.8 245.8 246.3 241.4C245.7 236.3 244.9 229.5 244.1 221.5C243.7 206.5 243.5 184.8 244.7 168.5C247.6 123.8 266.1 56.4001 266.1 56.4001ZM245 241.1C245.5 245.4 245.8 248.3 245.9 249.4C246 250.6 246.2 251.8 246.4 252.8C247.3 257.2 247.9 260.6 238 267C237.8 267.1 237.6 267.2 237.5 267.3C232.9 270 225.9 271.3 216 271.3C204.7 271.3 191.3 269.6 178.3 267.9C175.5 267.5 172.7 267.2 170 266.9C162.4 266 147.4 265.5 125.4 265.5C99.1998 265.5 68.1999 266.2 49.6999 266.6C41.0999 266.8 34.7998 266.9 32.3998 266.9C19.6998 266.9 9.99992 261.4 7.49992 252.8C5.79992 246.7 6.69982 241.4 8.39982 231.8C9.29982 226.7 10.5 220.3 11.6 211.9C13.1 200 13.8998 186.3 13.8998 171.1C13.8998 155.5 13.1 138.5 11.6 120.3C9.70002 98.3 6.09987 72.6001 3.69987 55.6001C2.69987 48.7001 1.99987 43.2001 1.69987 40.6001C0.69987 31.0001 3.29992 15 14.4999 10.3C20.4999 7.80001 22.1 8.30001 29.6 9.80001C30.4 10 31.3 10.1 32.3 10.3C33.2 10.5 34.3998 10.7001 35.8998 10.9001C48.4998 13.0001 79.8999 17 107.5 18C115.4 18.3 122.6 18.4001 129.3 18.4001C145.5 18.4001 159 17.5999 177.3 16.1999C179.6 15.9999 182 15.7999 184.5 15.6999C193.2 14.9999 199.2 14 203.5 13.3C207 12.7 209.6 12.3 211.9 12.3C214.8 12.3 217.3 12.9 220.9 14.8C223.4 16.1 226.4 18.0001 230.3 20.6001C247 32.0001 246.3 42.4 246 46.8C245.9 47.7 245.9 48.2999 246 48.6999C246.1 49.4999 245.4 55.8 244.4 63.8C242.1 82.2 238.4 113 237.9 136.4C237.2 168.8 241.6 210.4 244.3 233.4C244.5 236.5 244.8 238.9 245 241.1Z" fill="#5DACDA"/>
</svg>
