<?xml version="1.0" encoding="utf-8"?>
<!-- Generator: Adobe Illustrator 18.1.1, SVG Export Plug-In . SVG Version: 6.00 Build 0)  -->
<svg version="1.1" id="Layer_1" xmlns="http://www.w3.org/2000/svg" xmlns:xlink="http://www.w3.org/1999/xlink" x="0px" y="0px"
	 viewBox="-95.5 -8.9 673 619" enable-background="new -95.5 -8.9 673 619" xml:space="preserve">
<g>
	<path fill="#FFFFFF" d="M-95-8.4v618h672v-618H-95z M280,537.8c-35.6,0-69.5-7.2-100.3-20.1c-25,30.9-63.3,50.6-106.1,50.6
		c-39.4,0-74.9-16.7-99.8-43.4C-55,500-73.2,463.2-73.2,422.2c0-57,35.1-105.9,84.9-126.1l0.3-0.1l0-0.4c-0.9-8.7-1.3-17.5-1.3-26.5
		c0-142.9,115.8-258.7,258.7-258.7c65.8,0,125.8,24.5,171.4,65c59.9,47.5,98.4,120.9,98.4,203.3C539.1,421.8,423.1,537.8,280,537.8z
		"/>
	<path fill="#5DACDA" d="M440.7,75.3c53.5,47.4,87.3,116.6,87.3,193.7c0,142.9-115.8,258.7-258.7,258.7c-35.5,0-69.3-7.2-100.1-20.1
		l-0.3-0.1l-0.2,0.3c-25,30.8-63.1,50.4-105.8,50.4c-34.1,0-65.3-12.6-89.2-33.3c24.9,26.7,60.4,43.4,99.8,43.4
		c42.9,0,81.1-19.7,106.1-50.6c30.9,13,64.8,20.1,100.3,20.1c143.1,0,259.2-116,259.2-259.2C539.1,196.2,500.7,122.8,440.7,75.3z"/>
</g>
<path fill="none" stroke="#EC6277" stroke-width="4" d="M-9.6,279l1.4-0.6l-0.2-1.5c-0.9-8.6-1.3-17.4-1.3-26.3
	c0-142,115.1-257.2,257.2-257.2s257.2,115.1,257.2,257.2S389.6,507.8,247.5,507.8c-35.3,0-68.9-7.1-99.5-20l-1.4-0.6l-0.9,1.2
	c-24.7,30.4-62.4,49.9-104.6,49.9c-74.3,0-134.6-60.3-134.6-134.6C-93.5,347.3-58.8,299-9.6,279z"/>
<path fill="#FFFFFF" stroke="#5DACDA" stroke-width="3.6386" d="M523.8,521.9L523.8,521.9L523.8,521.9L523.8,521.9L523.8,521.9
	l-0.1,0h0h0h0h0h0h-0.1h-0.1h-0.1h-0.1h-0.1h-0.1h-0.1H523h-0.1h-0.1h-0.1h-0.1h-0.1h-0.1h-0.1h-0.1h-0.1H522h-0.1h-0.1h-0.1h-0.1
	h-0.1h-0.1h-0.1H521h-0.1h-0.1h-0.1h-0.2h-0.2h-0.2h-0.2h-0.2h-0.2h-0.2h-0.2h-0.2h-0.2h-0.2h-0.2h-0.2h-0.2h-0.2h-0.2h-0.2h-0.2
	h-0.2h-0.2h-0.2h-0.2h-0.2H516h-0.2h-0.2h-0.2h-0.2h-0.2h-0.2h-0.2h-0.2h-0.2h-0.3h-0.3h-0.3h-0.3h-0.3h-0.3h-0.3h-0.3h-0.3h-0.3
	H511h-0.3h-0.3h-0.3h-0.3h-0.3h-0.3H509h-0.3h-0.3h-0.3h-0.3h-0.3h-0.3h-0.3h-0.3h-0.3h-0.3h-0.3h-0.3h-0.3h-0.3h-0.3h-0.3h-0.3
	h-0.3h-0.3h-0.3h-0.3h-0.3h-0.4h-0.4h-0.4h-0.4h-0.4h-0.4h-0.4H499h-0.4h-0.4h-0.4h-0.4h-0.4h-0.4h-0.4H496h-0.4h-0.4h-0.4h-0.4
	h-0.4h-0.4h-0.4h-0.4h-0.4h-0.4h-0.4h-0.4h-0.4h-0.4h-0.4h-0.4h-0.4h-0.4h-0.4h-0.4h-0.4h-0.4h-0.4h-0.4h-0.4h-0.4h-0.4h-0.4h-0.4
	h-0.4h-0.4h-0.4h-0.4h-0.4h-0.4h-0.4h-0.4h-0.4h-0.4h-0.4H479h-0.4h-0.5h-0.5h-0.5h-0.5h-0.5h-0.5h-0.5h-0.5h-0.5H474h-0.5H473h-0.5
	h-0.5h-0.5h-0.5h-0.5h-0.5h-0.5h-0.5h-0.5h-0.5h-0.5h-0.5h-0.5h-0.5H466h-0.5H465h-0.5h-0.5h-0.5h-0.5h-0.5h-0.5h-0.5h-0.5h-0.5
	h-0.5h-0.5h-0.5h-0.5h-0.5h-0.5h-0.5h-0.5h-0.5h-0.5h-0.5h-0.5h-0.5h-0.5h-0.5h-0.5h-0.5h-0.5h-0.5h-0.5h-0.5h-0.5h-0.5h-0.5h-0.5
	h-0.5h-0.5h-0.5h-0.5h-0.5h-0.5h-0.5h-0.5h-0.5h-0.5h-0.5h-0.5h-0.5h-0.5h-0.5h-0.5h-0.5h-0.5h-0.5h-0.5h-0.5h-0.5h-0.5h-0.5h-0.5
	h-0.5h-0.5h-0.5h-0.5h-0.5h-0.5h-0.5h-0.5h-0.5h-0.5h-0.5h-0.5h-0.5h-0.5h-0.5h-0.5h-0.5h-0.5h-0.5h-0.5h-0.5h-0.5h-0.5h-0.5h-0.5
	h-0.5h-0.5h-0.5h-0.5h-0.5h-0.5h-0.5h-0.5h-0.5h-0.5h-0.5h-0.5h-0.5h-0.5h-0.5h-0.5h-0.5h-0.5h-0.5h-0.5h-0.5h-0.5h-0.5h-0.5h-0.5
	h-0.5h-0.5h-0.5h-0.5h-0.5h-0.5h-0.5h-0.5h-0.5h-0.5h-0.5h-0.5h-0.5H404h-0.5H403h-0.5h-0.5h-0.5h-0.5h-0.5h-0.5h-0.5h-0.5h-0.5
	h-0.5h-0.5h-0.5h-0.5h-0.5H396h-0.5h-0.5h-0.5h-0.5h-0.5h-0.4h-0.4h-0.4H392h-0.4h-0.4h-0.4h-0.4h-0.4h-0.4h-0.4h-0.4H388h-0.4h-0.4
	h-0.4h-0.4h-0.4h-0.4H385h-0.4h-0.4h-0.4h-0.4h-0.4h-0.4h-0.4h-0.4h-0.4h-0.4h-0.4h-0.4h-0.4h-0.4h-0.4h-0.4h-0.4h-0.4h-0.4h-0.4
	h-0.4h-0.4h-0.4h-0.4H375h-0.4h-0.4h-0.4h-0.4h-0.4h-0.4h-0.4H372h-0.4h-0.4H371h-0.4h-0.4h-0.4h-0.3h-0.3h-0.3h-0.3h-0.3h-0.3h-0.3
	h-0.3h-0.3h-0.3h-0.3h-0.3h-0.3h-0.3h-0.3h-0.3h-0.3H364h-0.3h-0.3h-0.3h-0.3h-0.3h-0.3h-0.3h-0.3h-0.3H361h-0.3h-0.3h-0.3h-0.3
	h-0.3h-0.3h-0.3h-0.3h-0.3h-0.3h-0.3h-0.3h-0.2h-0.2h-0.2h-0.2h-0.2h-0.2h-0.2h-0.2h-0.2h-0.2h-0.2H355h-0.2h-0.2h-0.2h-0.2H354
	h-0.2h-0.2h-0.2h-0.2H353h-0.2h-0.2h-0.2h-0.2h-0.2h-0.2h-0.2h-0.2h-0.2h-0.2h-0.2H351h-0.1h-0.1h-0.1h-0.1h-0.1h-0.1H350h-0.1h-0.1
	h-0.1h-0.1h-0.1h-0.1h-0.1h-0.1H349h-0.1h-0.1h-0.1h-0.1h-0.1h-0.1h-0.1h-0.1h-0.1h-0.1h-0.1h-0.1h0h0h0h0h0h0h0h0
	c-16.9-0.5-29-7.6-36.6-17.8c-7.6-10.3-10.8-23.9-9.2-37.4c1.6-13.5,7.9-26.8,18.9-36.5c11-9.7,26.8-15.8,47.7-14.9l1.3,0.1l0.5-1.3
	c8.3-23.1,27.5-39.8,50.2-41.3c25.3-1.5,48.3,16,57.7,42.1l0.5,1.5l1.5-0.3c28.1-5.2,50.8,12.7,50.8,36.9v1.8h1.8
	c7.5,0,15.2,4.3,21,10.8c5.8,6.5,9.3,14.8,8.5,22.5l0,0.1l0,0.1C563.7,503.4,551,522.6,523.8,521.9z"/>
<path fill="#5DACDA" d="M419,446c-3.1,0-5.8,2.3-5.8,5.4c0,3.1,2.3,5.8,5.8,5.8c3.5,0,5.8-2.3,5.8-5.8
	C424.8,448.7,422.5,446,419,446z"/>
<path fill="#5DACDA" d="M387.3,446c-3.1,0-5.8,2.3-5.8,5.4c0,3.1,2.3,5.8,5.8,5.8c3.5,0,5.8-2.3,5.8-5.8
	C393.1,448.7,390.4,446,387.3,446z"/>
<path fill="none" stroke="#5DACDA" stroke-width="3.6386" d="M375.3,471.6c0,0,7.7,15.5,29,15.5c21.3,0,29-15.5,29-15.5"/>
<path fill="#EC6277" d="M336.6,494.3c-25.1,9.3-37.9,37.5-28.2,62.3c9.7,24.8,37.5,37.9,62.3,28.2c25.1-9.3,37.9-37.5,28.2-62.3
	C389.6,497.8,361.8,485,336.6,494.3z"/>
<path fill="#595FA7" d="M371,585.2c25.1-9.3,37.9-37.5,28.2-62.3c-9.3-25.1-37.5-37.9-62.3-28.2L371,585.2z"/>
<path fill="#EC6277" d="M371,585.2c25.1-9.3,37.9-37.5,28.2-62.3c-9.3-25.1-37.5-37.9-62.3-28.2C370.7,494.3,402,546.5,371,585.2z"
	/>
<path fill="#595FA7" d="M370.7,585.2c-25.1,9.3-53-3.1-62.3-28.2c-9.7-25.1,3.1-53,27.8-62.3C310.7,516.7,321.9,576.7,370.7,585.2z"
	/>
<path fill="#FFFFFF" d="M408.2,539.9c11.6-3.5,18.6-10.8,22-20.1c3.1-8.1,3.1-18.2,1.5-28.2l15.1-2.3l12.8-1.9
	c0.8,3.9,0.8,7.7,0.8,12c-0.8,25.1-16.6,49.1-50.3,53.8c0.8,4.3,0.8,9.3-5,10.1l-18.9,2.7c-3.5,0.4-7-1.9-7.3-5.4l-1.9-14.3
	c-0.4-3.5,1.9-7,5.4-7.3C390.8,537.6,407,532.6,408.2,539.9z"/>
<path fill="#FFFFFF" d="M460.4,498.9c-0.8,25.1-16.6,49.1-50.3,53.8c0.8,4.3,0.8,9.3-5,10.1l-18.9,2.7c-3.5,0.4-7-1.9-7.3-5.4
	l-1.9-14.3c-0.4-3.5,1.9-7,5.4-7.3c8.9-1.2,24.7-6.2,25.9,1.2c11.6-3.5,20.1-12,22.4-21.7"/>
<defs>
	<filter id="Adobe_OpacityMaskFilter" filterUnits="userSpaceOnUse" x="373.2" y="498.8" width="90.8" height="70.3">
		<feColorMatrix  type="matrix" values="1 0 0 0 0  0 1 0 0 0  0 0 1 0 0  0 0 0 1 0"/>
	</filter>
</defs>
<mask maskUnits="userSpaceOnUse" x="373.2" y="498.8" width="90.8" height="70.3" id="path-14-inside-1_1_">
	<path fill="#FFFFFF" filter="url(#Adobe_OpacityMaskFilter)" d="M460.4,498.9c-0.8,25.1-16.6,49.1-50.3,53.8
		c0.8,4.3,0.8,9.3-5,10.1l-18.9,2.7c-3.5,0.4-7-1.9-7.3-5.4l-1.9-14.3c-0.4-3.5,1.9-7,5.4-7.3c8.9-1.2,24.7-6.2,25.9,1.2
		c11.6-3.5,20.1-12,22.4-21.7"/>
</mask>
<path mask="url(#path-14-inside-1_1_)" fill="#5DACDA" d="M410.1,552.7l-0.5-3.6l-3.8,0.5l0.7,3.7L410.1,552.7z M405.1,562.7
	l-0.5-3.6l0,0l0,0L405.1,562.7z M386.1,565.5l0.4,3.6l0.1,0l0.1,0L386.1,565.5z M378.8,560l3.6-0.4l0,0l0,0L378.8,560z M376.8,545.7
	l-3.6,0.4l0,0l0,0L376.8,545.7z M382.3,538.4l0.4,3.6l0,0l0,0L382.3,538.4z M408.2,539.5l-3.6,0.6l0.6,4.1l4-1.2L408.2,539.5z
	 M456.7,498.8c-0.4,11.9-4.3,23.3-11.9,32.3c-7.6,9-19.2,15.7-35.2,17.9l1,7.2c17.6-2.4,30.8-10,39.7-20.4
	c8.9-10.4,13.3-23.5,13.7-36.8L456.7,498.8z M406.5,553.3c0.4,2,0.4,3.6,0.1,4.5c-0.1,0.4-0.3,0.6-0.5,0.7c-0.2,0.1-0.6,0.4-1.5,0.5
	l1,7.2c2-0.3,3.7-0.9,5.1-2.1c1.4-1.2,2.3-2.6,2.8-4.1c0.9-2.8,0.6-5.9,0.2-8.1L406.5,553.3z M404.6,559.1l-18.9,2.7l1,7.2l18.9-2.7
	L404.6,559.1z M385.7,561.8c-1.9,0.2-3.2-1.1-3.3-2.2l-7.2,0.8c0.6,5.8,6.3,9.2,11.4,8.6L385.7,561.8z M382.4,559.6l-1.9-14.3
	l-7.2,1l1.9,14.3L382.4,559.6z M380.5,545.3c-0.2-1.9,1.1-3.2,2.2-3.3l-0.8-7.2c-5.8,0.6-9.2,6.3-8.6,11.4L380.5,545.3z M382.7,542
	c2.4-0.3,5.2-0.9,7.8-1.4c2.8-0.5,5.5-1,7.9-1.2c2.5-0.2,4.3-0.1,5.4,0.2c0.5,0.2,0.7,0.3,0.7,0.3c0,0,0,0,0,0c0,0,0,0.1,0,0.2
	l7.2-1.1c-0.3-1.6-1-3.1-2.1-4.2c-1.1-1.1-2.4-1.8-3.7-2.1c-2.5-0.8-5.4-0.7-8.2-0.5c-2.8,0.3-5.8,0.8-8.6,1.3
	c-2.8,0.5-5.3,1-7.4,1.3L382.7,542z M409.2,543c12.6-3.8,22.2-13.2,24.9-24.3l-7.1-1.7c-2,8.2-9.4,15.8-19.9,19L409.2,543z"/>
</svg>
