<svg width="800" height="600" viewBox="0 0 800 600" fill="none" xmlns="http://www.w3.org/2000/svg">
<path d="M0 0V600H800V0H0ZM794.444 315.915C784.921 427.48 794.444 463.607 794.444 487.798C794.444 511.989 785.238 536.817 762.222 554.164C718.095 587.109 689.683 585.995 672.222 586.472C654.921 586.95 512.54 580.265 400 586.472C301.111 591.883 256.19 598.09 157.302 598.09C128.889 598.09 81.5873 597.931 53.9683 570.557C28.7302 545.57 14 526.627 14 490.5L13 333C13 332.523 13.0032 330.5 12.5 326.5C12.1825 323.317 11.746 323.077 11.4286 319.735C9.36508 300.318 6.82556 271.671 6.5081 239.841C2.69857 208.647 -0.698413 184.329 2 156C4.5 132 14 117 27 101C30.3333 92.565 33.9683 84.032 38.4127 76.5519C80.1587 7.63941 108.095 10.0267 126.508 6.52536C143.175 3.34234 285.079 25.305 403.175 30.7162C520.318 21.6446 654.286 -1.11406 670.635 1.59151C689.524 4.77454 717.778 0.795753 761.905 70.0265C805.714 139.257 799.048 261.804 794.444 315.915Z" fill="white"/>
<path d="M27 101C13.08 116.2 3.68032 132.958 1.28032 157.278C-1.43968 185.758 2.40016 209.758 6.40016 241.118C5.92016 195.198 10.36 142.6 27 101Z" fill="#5DACDA"/>
<path d="M762.447 69.7453C718.369 0.373688 689.512 3.40355 670.644 0.214046C654.313 -2.49703 513.813 21.3098 396.8 30.3999C409.6 31.1999 428.848 31.3114 441.057 31.4708C500.832 32.1087 593.904 27.9626 593.904 27.9626C593.904 27.9626 687.609 28.9194 730.736 63.5255C760.545 87.6062 782.267 106.106 786.706 144.22C792.414 193.657 777.827 229.539 779.73 316.134L783.377 473.855C784.169 509.418 766.094 527.12 741.835 552.157C715.356 579.587 671.437 581.66 643.69 582.298C546.654 584.531 502.576 580.066 405.54 576.876C295.028 573.368 156.926 583.096 139.961 582.936C122.996 582.777 93.6628 584.052 49.5846 552.476C26.5941 536.05 19.4593 516.116 15.654 488.208C12.0072 461.257 22.9475 431.116 12.8 329.371C12.8 329.849 12.8 330.168 12.8 330.647V491.238C12.8 527.439 28.4969 546.257 53.7071 571.294C81.2957 598.724 128.545 600 156.768 600C255.706 600 301.37 593.461 400.15 588.039C512.565 581.82 653.203 588.518 670.485 588.039C687.768 587.561 718.369 588.358 762.447 555.347C785.596 537.964 794.793 512.448 794.793 488.208C794.793 463.968 785.438 428.883 794.951 316.932C799.708 263.189 806.367 139.117 762.447 69.7453Z" fill="#5DACDA"/>
</svg>
