<?xml version="1.0" encoding="utf-8"?>
<!-- Generator: Adobe Illustrator 18.1.1, SVG Export Plug-In . SVG Version: 6.00 Build 0)  -->
<svg version="1.1" id="Layer_1" xmlns="http://www.w3.org/2000/svg" xmlns:xlink="http://www.w3.org/1999/xlink" x="0px" y="0px"
	 viewBox="-3883 3325.2 841 436.8" enable-background="new -3883 3325.2 841 436.8" xml:space="preserve">
<path fill="#FFFFFF" d="M-3883,3325.2V3762h841v-436.8H-3883z M-3068.4,3673.9c-2.7,45.1-65.3,63.2-106.2,54.1
	c-10.8-2.4-28.5-4.1-49.7-5.3c-31.3,0.1-63.1,0.3-82.3,0.4c-31.4,0.1-67.9,1.8-114.1,1c-0.8,0.1-1.6,0.1-2.3,0.2
	c-93.4,8.1-156.2,3.9-206.5,3.7c-38.2-0.4-124.2-0.8-162.4,0c-47.8,1.1-56.8-20.2-62.6-32.9c-5.8-12.7,0-87.1,5.8-127.4
	c5.8-40.3-9.6-108.3-5.8-167.7c3.7-59.4,150.7-42.5,179.9-36.6c8.7,1.7,41.8,2.9,82.1,3.4c17.2-0.3,35.1-0.3,50.9,0.3
	c51.8-0.1,103.7-1.2,125.5-3.7c37.8-4.2,112-1.8,144.4,0c22.8,1,35,0,89.7-3.7c54.7-3.7,74-2.9,93.4,17
	c21.2,21.8,20.2,111.5,14.9,152.3C-3079,3569.9-3065.7,3628.8-3068.4,3673.9z"/>
<g>
	<path fill="#5DACDA" fill-opacity="0.85" d="M-3747.9,3723.2c-39.6,8.8-100.4-8.8-103-52.6s10.3-101.1,5.2-140.8
		c-5.2-39.7-6.2-126.9,14.4-148c18.8-19.3,37.6-20.1,90.6-16.5c53,3.6,64.9,4.6,87,3.6c14.3-0.8,37.1-1.7,61.2-2.1
		c-40.2-0.5-73.4-1.7-82.1-3.4c-29.2-5.8-176.2-22.8-179.9,36.6c-3.7,59.4,11.7,127.4,5.8,167.7c-5.8,40.3-11.7,114.7-5.8,127.4
		c5.8,12.7,14.9,34,62.6,32.9c38.2-0.8,124.2-0.4,162.4,0c50.2,0.2,113.1,4.4,206.5-3.7c0.8-0.1,1.5-0.1,2.3-0.2
		c-25.5-0.5-54-1.8-86.3-4.6C-3560.4,3714.9-3706.2,3713.9-3747.9,3723.2z"/>
	<path fill="#5DACDA" fill-opacity="0.85" d="M-3073.7,3529c5.3-40.9,6.4-130.6-14.9-152.3c-19.4-19.9-38.7-20.7-93.4-17
		c-54.7,3.7-66.9,4.8-89.7,3.7c-32.4-1.8-106.6-4.2-144.4,0c-21.8,2.4-73.7,3.6-125.5,3.7c10.5,0.4,20,0.9,28,1.8
		c45.8,5.2,228.9,4.4,250.8,0c28.3-5.7,171-22.2,174.6,35.6c3.6,57.8-11.3,123.8-5.7,163c5.7,39.2,11.3,111.4,5.7,123.8l-0.2,0.5
		c-5.7,12.4-14.8,32.5-60.5,31.4c-17.8-0.4-46.3-0.5-75.3-0.4c21.2,1.2,38.8,2.9,49.7,5.3c40.9,9.1,103.5-9,106.2-54.1
		C-3065.7,3628.8-3079,3569.9-3073.7,3529z"/>
	<g>
		<path fill="#5DACDA" fill-opacity="0.85" d="M-3747.9,3723.2c-39.6,8.8-100.4-8.8-103-52.6s10.3-101.1,5.2-140.8
			c-5.2-39.7-6.2-126.9,14.4-148c18.8-19.3,37.6-20.1,90.6-16.5c53,3.6,64.9,4.6,87,3.6c14.3-0.8,37.1-1.7,61.2-2.1
			c-40.2-0.5-73.4-1.7-82.1-3.4c-29.2-5.8-176.2-22.8-179.9,36.6c-3.7,59.4,11.7,127.4,5.8,167.7c-5.8,40.3-11.7,114.7-5.8,127.4
			c5.8,12.7,14.9,34,62.6,32.9c38.2-0.8,124.2-0.4,162.4,0c50.2,0.2,113.1,4.4,206.5-3.7c0.8-0.1,1.5-0.1,2.3-0.2
			c-25.5-0.5-54-1.8-86.3-4.6C-3560.4,3714.9-3706.2,3713.9-3747.9,3723.2z"/>
		<path fill="#5DACDA" fill-opacity="0.85" d="M-3073.7,3529c5.3-40.9,6.4-130.6-14.9-152.3c-19.4-19.9-38.7-20.7-93.4-17
			c-54.7,3.7-66.9,4.8-89.7,3.7c-32.4-1.8-106.6-4.2-144.4,0c-21.8,2.4-73.7,3.6-125.5,3.7c10.5,0.4,20,0.9,28,1.8
			c45.8,5.2,228.9,4.4,250.8,0c28.3-5.7,171-22.2,174.6,35.6c3.6,57.8-11.3,123.8-5.7,163c5.7,39.2,11.3,111.4,5.7,123.8l-0.2,0.5
			c-5.7,12.4-14.8,32.5-60.5,31.4c-17.8-0.4-46.3-0.5-75.3-0.4c21.2,1.2,38.8,2.9,49.7,5.3c40.9,9.1,103.5-9,106.2-54.1
			C-3065.7,3628.8-3079,3569.9-3073.7,3529z"/>
	</g>
	<g>
		<path fill="#5DACDA" fill-opacity="0.85" d="M-3747.9,3723.2c-39.6,8.8-100.4-8.8-103-52.6s10.3-101.1,5.2-140.8
			c-5.2-39.7-6.2-126.9,14.4-148c18.8-19.3,37.6-20.1,90.6-16.5c53,3.6,64.9,4.6,87,3.6c14.3-0.8,37.1-1.7,61.2-2.1
			c-40.2-0.5-73.4-1.7-82.1-3.4c-29.2-5.8-176.2-22.8-179.9,36.6c-3.7,59.4,11.7,127.4,5.8,167.7c-5.8,40.3-11.7,114.7-5.8,127.4
			c5.8,12.7,14.9,34,62.6,32.9c38.2-0.8,124.2-0.4,162.4,0c50.2,0.2,113.1,4.4,206.5-3.7c0.8-0.1,1.5-0.1,2.3-0.2
			c-25.5-0.5-54-1.8-86.3-4.6C-3560.4,3714.9-3706.2,3713.9-3747.9,3723.2z"/>
		<path fill="#5DACDA" fill-opacity="0.85" d="M-3073.7,3529c5.3-40.9,6.4-130.6-14.9-152.3c-19.4-19.9-38.7-20.7-93.4-17
			c-54.7,3.7-66.9,4.8-89.7,3.7c-32.4-1.8-106.6-4.2-144.4,0c-21.8,2.4-73.7,3.6-125.5,3.7c10.5,0.4,20,0.9,28,1.8
			c45.8,5.2,228.9,4.4,250.8,0c28.3-5.7,171-22.2,174.6,35.6c3.6,57.8-11.3,123.8-5.7,163c5.7,39.2,11.3,111.4,5.7,123.8l-0.2,0.5
			c-5.7,12.4-14.8,32.5-60.5,31.4c-17.8-0.4-46.3-0.5-75.3-0.4c21.2,1.2,38.8,2.9,49.7,5.3c40.9,9.1,103.5-9,106.2-54.1
			C-3065.7,3628.8-3079,3569.9-3073.7,3529z"/>
	</g>
	<g>
		<path fill="#5DACDA" fill-opacity="0.85" d="M-3747.9,3723.2c-39.6,8.8-100.4-8.8-103-52.6s10.3-101.1,5.2-140.8
			c-5.2-39.7-6.2-126.9,14.4-148c18.8-19.3,37.6-20.1,90.6-16.5c53,3.6,64.9,4.6,87,3.6c14.3-0.8,37.1-1.7,61.2-2.1
			c-40.2-0.5-73.4-1.7-82.1-3.4c-29.2-5.8-176.2-22.8-179.9,36.6c-3.7,59.4,11.7,127.4,5.8,167.7c-5.8,40.3-11.7,114.7-5.8,127.4
			c5.8,12.7,14.9,34,62.6,32.9c38.2-0.8,124.2-0.4,162.4,0c50.2,0.2,113.1,4.4,206.5-3.7c0.8-0.1,1.5-0.1,2.3-0.2
			c-25.5-0.5-54-1.8-86.3-4.6C-3560.4,3714.9-3706.2,3713.9-3747.9,3723.2z"/>
		<path fill="#5DACDA" fill-opacity="0.85" d="M-3073.7,3529c5.3-40.9,6.4-130.6-14.9-152.3c-19.4-19.9-38.7-20.7-93.4-17
			c-54.7,3.7-66.9,4.8-89.7,3.7c-32.4-1.8-106.6-4.2-144.4,0c-21.8,2.4-73.7,3.6-125.5,3.7c10.5,0.4,20,0.9,28,1.8
			c45.8,5.2,228.9,4.4,250.8,0c28.3-5.7,171-22.2,174.6,35.6c3.6,57.8-11.3,123.8-5.7,163c5.7,39.2,11.3,111.4,5.7,123.8l-0.2,0.5
			c-5.7,12.4-14.8,32.5-60.5,31.4c-17.8-0.4-46.3-0.5-75.3-0.4c21.2,1.2,38.8,2.9,49.7,5.3c40.9,9.1,103.5-9,106.2-54.1
			C-3065.7,3628.8-3079,3569.9-3073.7,3529z"/>
	</g>
	<g>
		<path fill="#5DACDA" fill-opacity="0.85" d="M-3747.9,3723.2c-39.6,8.8-100.4-8.8-103-52.6s10.3-101.1,5.2-140.8
			c-5.2-39.7-6.2-126.9,14.4-148c18.8-19.3,37.6-20.1,90.6-16.5c53,3.6,64.9,4.6,87,3.6c14.3-0.8,37.1-1.7,61.2-2.1
			c-40.2-0.5-73.4-1.7-82.1-3.4c-29.2-5.8-176.2-22.8-179.9,36.6c-3.7,59.4,11.7,127.4,5.8,167.7c-5.8,40.3-11.7,114.7-5.8,127.4
			c5.8,12.7,14.9,34,62.6,32.9c38.2-0.8,124.2-0.4,162.4,0c50.2,0.2,113.1,4.4,206.5-3.7c0.8-0.1,1.5-0.1,2.3-0.2
			c-25.5-0.5-54-1.8-86.3-4.6C-3560.4,3714.9-3706.2,3713.9-3747.9,3723.2z"/>
		<path fill="#5DACDA" fill-opacity="0.85" d="M-3073.7,3529c5.3-40.9,6.4-130.6-14.9-152.3c-19.4-19.9-38.7-20.7-93.4-17
			c-54.7,3.7-66.9,4.8-89.7,3.7c-32.4-1.8-106.6-4.2-144.4,0c-21.8,2.4-73.7,3.6-125.5,3.7c10.5,0.4,20,0.9,28,1.8
			c45.8,5.2,228.9,4.4,250.8,0c28.3-5.7,171-22.2,174.6,35.6c3.6,57.8-11.3,123.8-5.7,163c5.7,39.2,11.3,111.4,5.7,123.8l-0.2,0.5
			c-5.7,12.4-14.8,32.5-60.5,31.4c-17.8-0.4-46.3-0.5-75.3-0.4c21.2,1.2,38.8,2.9,49.7,5.3c40.9,9.1,103.5-9,106.2-54.1
			C-3065.7,3628.8-3079,3569.9-3073.7,3529z"/>
	</g>
	<g>
		<path fill="#5DACDA" fill-opacity="0.85" d="M-3747.9,3723.2c-39.6,8.8-100.4-8.8-103-52.6s10.3-101.1,5.2-140.8
			c-5.2-39.7-6.2-126.9,14.4-148c18.8-19.3,37.6-20.1,90.6-16.5c53,3.6,64.9,4.6,87,3.6c14.3-0.8,37.1-1.7,61.2-2.1
			c-40.2-0.5-73.4-1.7-82.1-3.4c-29.2-5.8-176.2-22.8-179.9,36.6c-3.7,59.4,11.7,127.4,5.8,167.7c-5.8,40.3-11.7,114.7-5.8,127.4
			c5.8,12.7,14.9,34,62.6,32.9c38.2-0.8,124.2-0.4,162.4,0c50.2,0.2,113.1,4.4,206.5-3.7c0.8-0.1,1.5-0.1,2.3-0.2
			c-25.5-0.5-54-1.8-86.3-4.6C-3560.4,3714.9-3706.2,3713.9-3747.9,3723.2z"/>
		<path fill="#5DACDA" fill-opacity="0.85" d="M-3073.7,3529c5.3-40.9,6.4-130.6-14.9-152.3c-19.4-19.9-38.7-20.7-93.4-17
			c-54.7,3.7-66.9,4.8-89.7,3.7c-32.4-1.8-106.6-4.2-144.4,0c-21.8,2.4-73.7,3.6-125.5,3.7c10.5,0.4,20,0.9,28,1.8
			c45.8,5.2,228.9,4.4,250.8,0c28.3-5.7,171-22.2,174.6,35.6c3.6,57.8-11.3,123.8-5.7,163c5.7,39.2,11.3,111.4,5.7,123.8l-0.2,0.5
			c-5.7,12.4-14.8,32.5-60.5,31.4c-17.8-0.4-46.3-0.5-75.3-0.4c21.2,1.2,38.8,2.9,49.7,5.3c40.9,9.1,103.5-9,106.2-54.1
			C-3065.7,3628.8-3079,3569.9-3073.7,3529z"/>
	</g>
	<g>
		<path fill="#5DACDA" fill-opacity="0.85" d="M-3747.9,3723.2c-39.6,8.8-100.4-8.8-103-52.6s10.3-101.1,5.2-140.8
			c-5.2-39.7-6.2-126.9,14.4-148c18.8-19.3,37.6-20.1,90.6-16.5c53,3.6,64.9,4.6,87,3.6c14.3-0.8,37.1-1.7,61.2-2.1
			c-40.2-0.5-73.4-1.7-82.1-3.4c-29.2-5.8-176.2-22.8-179.9,36.6c-3.7,59.4,11.7,127.4,5.8,167.7c-5.8,40.3-11.7,114.7-5.8,127.4
			c5.8,12.7,14.9,34,62.6,32.9c38.2-0.8,124.2-0.4,162.4,0c50.2,0.2,113.1,4.4,206.5-3.7c0.8-0.1,1.5-0.1,2.3-0.2
			c-25.5-0.5-54-1.8-86.3-4.6C-3560.4,3714.9-3706.2,3713.9-3747.9,3723.2z"/>
		<path fill="#5DACDA" fill-opacity="0.85" d="M-3073.7,3529c5.3-40.9,6.4-130.6-14.9-152.3c-19.4-19.9-38.7-20.7-93.4-17
			c-54.7,3.7-66.9,4.8-89.7,3.7c-32.4-1.8-106.6-4.2-144.4,0c-21.8,2.4-73.7,3.6-125.5,3.7c10.5,0.4,20,0.9,28,1.8
			c45.8,5.2,228.9,4.4,250.8,0c28.3-5.7,171-22.2,174.6,35.6c3.6,57.8-11.3,123.8-5.7,163c5.7,39.2,11.3,111.4,5.7,123.8l-0.2,0.5
			c-5.7,12.4-14.8,32.5-60.5,31.4c-17.8-0.4-46.3-0.5-75.3-0.4c21.2,1.2,38.8,2.9,49.7,5.3c40.9,9.1,103.5-9,106.2-54.1
			C-3065.7,3628.8-3079,3569.9-3073.7,3529z"/>
	</g>
	<g>
		<path fill="#5DACDA" fill-opacity="0.85" d="M-3747.9,3723.2c-39.6,8.8-100.4-8.8-103-52.6s10.3-101.1,5.2-140.8
			c-5.2-39.7-6.2-126.9,14.4-148c18.8-19.3,37.6-20.1,90.6-16.5c53,3.6,64.9,4.6,87,3.6c14.3-0.8,37.1-1.7,61.2-2.1
			c-40.2-0.5-73.4-1.7-82.1-3.4c-29.2-5.8-176.2-22.8-179.9,36.6c-3.7,59.4,11.7,127.4,5.8,167.7c-5.8,40.3-11.7,114.7-5.8,127.4
			c5.8,12.7,14.9,34,62.6,32.9c38.2-0.8,124.2-0.4,162.4,0c50.2,0.2,113.1,4.4,206.5-3.7c0.8-0.1,1.5-0.1,2.3-0.2
			c-25.5-0.5-54-1.8-86.3-4.6C-3560.4,3714.9-3706.2,3713.9-3747.9,3723.2z"/>
		<path fill="#5DACDA" fill-opacity="0.85" d="M-3073.7,3529c5.3-40.9,6.4-130.6-14.9-152.3c-19.4-19.9-38.7-20.7-93.4-17
			c-54.7,3.7-66.9,4.8-89.7,3.7c-32.4-1.8-106.6-4.2-144.4,0c-21.8,2.4-73.7,3.6-125.5,3.7c10.5,0.4,20,0.9,28,1.8
			c45.8,5.2,228.9,4.4,250.8,0c28.3-5.7,171-22.2,174.6,35.6c3.6,57.8-11.3,123.8-5.7,163c5.7,39.2,11.3,111.4,5.7,123.8l-0.2,0.5
			c-5.7,12.4-14.8,32.5-60.5,31.4c-17.8-0.4-46.3-0.5-75.3-0.4c21.2,1.2,38.8,2.9,49.7,5.3c40.9,9.1,103.5-9,106.2-54.1
			C-3065.7,3628.8-3079,3569.9-3073.7,3529z"/>
	</g>
</g>
<path fill="none" stroke="#EC6277" stroke-width="2" d="M-3417.7,3717.8c36.6,4.1,108.5,1.7,139.9,0c22.1-1,33.9,0,86.9,3.6
	c53,3.6,71.7,2.8,90.5-16.5c20.6-21.1,19.5-108,14.4-147.6c-5.1-39.6,7.7-96.7,5.1-140.4c-2.6-43.7-63.3-61.2-102.9-52.4
	c-41.7,9.3-187.2,8.2-240.7,3.6c-90.5-7.8-151.4-3.8-200.1-3.6c-37,0.3-120.3,0.8-157.4,0c-45.6-1-54.8,19-60.4,31.4l-0.2,0.5
	c-5.7,12.3,0,84.3,5.7,123.4c5.7,39.1-9.3,104.9-5.7,162.5c3.6,57.6,146.1,41.1,174.3,35.5
	C-3646.3,3713.4-3463.5,3712.6-3417.7,3717.8z"/>
</svg>
