<?xml version="1.0" encoding="utf-8"?>
<!-- Generator: Adobe Illustrator 18.1.1, SVG Export Plug-In . SVG Version: 6.00 Build 0)  -->
<svg version="1.1" id="Layer_1" xmlns="http://www.w3.org/2000/svg" xmlns:xlink="http://www.w3.org/1999/xlink" x="0px" y="0px"
	 viewBox="0 0 8503.9 7086.6" enable-background="new 0 0 8503.9 7086.6" xml:space="preserve">
<g>
	<path fill="#FFFFFF" d="M0,32.6v7073.6h8503.9V32.6h-8304L0,32.6z M7853.2,1735.2c-59.9,435.1-214.9,604.4-214.9,1461.6
		s214.9,2150.7,214.9,2150.7s-30,779-214.9,1124.2c-203.2,379.1-603.1,465.1-730.8,492.4s-1255.8,0-2150.7-252.7
		c-896.2-252.7-2030.9,393.4-2565,252.7c0,0-823.3-53.4-1165.9-453.3c-127.7,3.9-220.2,7.8-255.3,7.8
		c-169.3,0-327-113.3-366.1-330.9s13-383,58.6-941.8s44.3-1277.9,0-2090.8C424,2437.4,332.8,1529.4,319.7,1332.7
		c-13-196.7,14.3-590.1,188.9-703.5c86-56,113.3-46.9,224.1-11.7c43-59.9,96.4-109.4,160.2-145.9c541.9-308.7,1991.8,28.7,2727.8,0
		s2959.7-308.7,2959.7-308.7s1112.5-88.6,1272.7,730.8C7914.4,1206.3,7913.1,1300.1,7853.2,1735.2z"/>
	<path fill="#75B8E0" fill-opacity="0.85" d="M7853.2,892.4C7692.9,71.7,6580.5,161.6,6580.5,161.6s-2225,281.4-2961,308.7
		c-736,28.7-2185.9-308.7-2727.8,0c-63.8,36.5-115.9,86-160.2,145.9c11.7,3.9,23.4,7.8,37.8,11.7
		c143.3,44.3,659.2,151.1,1083.8,175.9c433.8,24.8,678.7,0,1109.9-52.1S3342,555,3628.6,865c287.9,310,221.5,590.1,228,652.6
		c6.5,62.5-106.8,1220.6-117.2,2008.7c-13,1009.6,110.7,2432.1,117.2,2578c6.5,144.6,65.1,228-117.2,414.3
		c-182.4,186.3-613.6,73-986.1,0c-293.1-57.3-1253.2-24.8-1730-7.8c341.3,401.2,1165.9,453.3,1165.9,453.3
		c534.1,140.7,1668.7-505.4,2563.7-252.7c894.9,252.7,2023.1,280.1,2150.7,252.7s527.6-112,730.8-492.4
		c186.3-346.5,214.9-1124.2,214.9-1124.2s-211-1292.3-211-2149.4s155-1026.5,214.9-1461.6C7913.1,1300.1,7914.4,1206.3,7853.2,892.4
		z"/>
	<path fill="#75B8E0" fill-opacity="0.85" d="M7853.2,892.4C7692.9,71.7,6580.5,161.6,6580.5,161.6s-2225,281.4-2961,308.7
		c-736,28.7-2185.9-308.7-2727.8,0c-63.8,36.5-115.9,86-160.2,145.9c11.7,3.9,23.4,7.8,37.8,11.7
		c143.3,44.3,659.2,151.1,1083.8,175.9c433.8,24.8,678.7,0,1109.9-52.1S3342,555,3628.6,865c287.9,310,221.5,590.1,228,652.6
		c6.5,62.5-106.8,1220.6-117.2,2008.7c-13,1009.6,110.7,2432.1,117.2,2578c6.5,144.6,65.1,228-117.2,414.3
		c-182.4,186.3-613.6,73-986.1,0c-293.1-57.3-1253.2-24.8-1730-7.8c341.3,401.2,1165.9,453.3,1165.9,453.3
		c534.1,140.7,1668.7-505.4,2563.7-252.7c894.9,252.7,2023.1,280.1,2150.7,252.7s527.6-112,730.8-492.4
		c186.3-346.5,214.9-1124.2,214.9-1124.2s-211-1292.3-211-2149.4s155-1026.5,214.9-1461.6C7913.1,1300.1,7914.4,1206.3,7853.2,892.4
		z"/>
	<path fill="#75B8E0" fill-opacity="0.85" d="M7853.2,892.4C7692.9,71.7,6580.5,161.6,6580.5,161.6s-2225,281.4-2961,308.7
		c-736,28.7-2185.9-308.7-2727.8,0c-63.8,36.5-115.9,86-160.2,145.9c11.7,3.9,23.4,7.8,37.8,11.7
		c143.3,44.3,659.2,151.1,1083.8,175.9c433.8,24.8,678.7,0,1109.9-52.1S3342,555,3628.6,865c287.9,310,221.5,590.1,228,652.6
		c6.5,62.5-106.8,1220.6-117.2,2008.7c-13,1009.6,110.7,2432.1,117.2,2578c6.5,144.6,65.1,228-117.2,414.3
		c-182.4,186.3-613.6,73-986.1,0c-293.1-57.3-1253.2-24.8-1730-7.8c341.3,401.2,1165.9,453.3,1165.9,453.3
		c534.1,140.7,1668.7-505.4,2563.7-252.7c894.9,252.7,2023.1,280.1,2150.7,252.7s527.6-112,730.8-492.4
		c186.3-346.5,214.9-1124.2,214.9-1124.2s-211-1292.3-211-2149.4s155-1026.5,214.9-1461.6C7913.1,1300.1,7914.4,1206.3,7853.2,892.4
		z"/>
	<path fill="#75B8E0" fill-opacity="0.85" d="M7853.2,892.4C7692.9,71.7,6580.5,161.6,6580.5,161.6s-2225,281.4-2961,308.7
		c-736,28.7-2185.9-308.7-2727.8,0c-63.8,36.5-115.9,86-160.2,145.9c11.7,3.9,23.4,7.8,37.8,11.7
		c143.3,44.3,659.2,151.1,1083.8,175.9c433.8,24.8,678.7,0,1109.9-52.1S3342,555,3628.6,865c287.9,310,221.5,590.1,228,652.6
		c6.5,62.5-106.8,1220.6-117.2,2008.7c-13,1009.6,110.7,2432.1,117.2,2578c6.5,144.6,65.1,228-117.2,414.3
		c-182.4,186.3-613.6,73-986.1,0c-293.1-57.3-1253.2-24.8-1730-7.8c341.3,401.2,1165.9,453.3,1165.9,453.3
		c534.1,140.7,1668.7-505.4,2563.7-252.7c894.9,252.7,2023.1,280.1,2150.7,252.7s527.6-112,730.8-492.4
		c186.3-346.5,214.9-1124.2,214.9-1124.2s-211-1292.3-211-2149.4s155-1026.5,214.9-1461.6C7913.1,1300.1,7914.4,1206.3,7853.2,892.4
		z"/>
	<path fill="#75B8E0" fill-opacity="0.85" d="M7853.2,892.4C7692.9,71.7,6580.5,161.6,6580.5,161.6s-2225,281.4-2961,308.7
		c-736,28.7-2185.9-308.7-2727.8,0c-63.8,36.5-115.9,86-160.2,145.9c11.7,3.9,23.4,7.8,37.8,11.7
		c143.3,44.3,659.2,151.1,1083.8,175.9c433.8,24.8,678.7,0,1109.9-52.1S3342,555,3628.6,865c287.9,310,221.5,590.1,228,652.6
		c6.5,62.5-106.8,1220.6-117.2,2008.7c-13,1009.6,110.7,2432.1,117.2,2578c6.5,144.6,65.1,228-117.2,414.3
		c-182.4,186.3-613.6,73-986.1,0c-293.1-57.3-1253.2-24.8-1730-7.8c341.3,401.2,1165.9,453.3,1165.9,453.3
		c534.1,140.7,1668.7-505.4,2563.7-252.7c894.9,252.7,2023.1,280.1,2150.7,252.7s527.6-112,730.8-492.4
		c186.3-346.5,214.9-1124.2,214.9-1124.2s-211-1292.3-211-2149.4s155-1026.5,214.9-1461.6C7913.1,1300.1,7914.4,1206.3,7853.2,892.4
		z"/>
	<path fill="#75B8E0" fill-opacity="0.85" d="M7853.2,892.4C7692.9,71.7,6580.5,161.6,6580.5,161.6s-2225,281.4-2961,308.7
		c-736,28.7-2185.9-308.7-2727.8,0c-63.8,36.5-115.9,86-160.2,145.9c11.7,3.9,23.4,7.8,37.8,11.7
		c143.3,44.3,659.2,151.1,1083.8,175.9c433.8,24.8,678.7,0,1109.9-52.1S3342,555,3628.6,865c287.9,310,221.5,590.1,228,652.6
		c6.5,62.5-106.8,1220.6-117.2,2008.7c-13,1009.6,110.7,2432.1,117.2,2578c6.5,144.6,65.1,228-117.2,414.3
		c-182.4,186.3-613.6,73-986.1,0c-293.1-57.3-1253.2-24.8-1730-7.8c341.3,401.2,1165.9,453.3,1165.9,453.3
		c534.1,140.7,1668.7-505.4,2563.7-252.7c894.9,252.7,2023.1,280.1,2150.7,252.7s527.6-112,730.8-492.4
		c186.3-346.5,214.9-1124.2,214.9-1124.2s-211-1292.3-211-2149.4s155-1026.5,214.9-1461.6C7913.1,1300.1,7914.4,1206.3,7853.2,892.4
		z"/>
	<path fill="#75B8E0" fill-opacity="0.85" d="M7853.2,892.4C7692.9,71.7,6580.5,161.6,6580.5,161.6s-2225,281.4-2961,308.7
		c-736,28.7-2185.9-308.7-2727.8,0c-63.8,36.5-115.9,86-160.2,145.9c11.7,3.9,23.4,7.8,37.8,11.7
		c143.3,44.3,659.2,151.1,1083.8,175.9c433.8,24.8,678.7,0,1109.9-52.1S3342,555,3628.6,865c287.9,310,221.5,590.1,228,652.6
		c6.5,62.5-106.8,1220.6-117.2,2008.7c-13,1009.6,110.7,2432.1,117.2,2578c6.5,144.6,65.1,228-117.2,414.3
		c-182.4,186.3-613.6,73-986.1,0c-293.1-57.3-1253.2-24.8-1730-7.8c341.3,401.2,1165.9,453.3,1165.9,453.3
		c534.1,140.7,1668.7-505.4,2563.7-252.7c894.9,252.7,2023.1,280.1,2150.7,252.7s527.6-112,730.8-492.4
		c186.3-346.5,214.9-1124.2,214.9-1124.2s-211-1292.3-211-2149.4s155-1026.5,214.9-1461.6C7913.1,1300.1,7914.4,1206.3,7853.2,892.4
		z"/>
	<path fill="#75B8E0" fill-opacity="0.85" d="M7853.2,892.4C7692.9,71.7,6580.5,161.6,6580.5,161.6s-2225,281.4-2961,308.7
		c-736,28.7-2185.9-308.7-2727.8,0c-63.8,36.5-115.9,86-160.2,145.9c11.7,3.9,23.4,7.8,37.8,11.7
		c143.3,44.3,659.2,151.1,1083.8,175.9c433.8,24.8,678.7,0,1109.9-52.1S3342,555,3628.6,865c287.9,310,221.5,590.1,228,652.6
		c6.5,62.5-106.8,1220.6-117.2,2008.7c-13,1009.6,110.7,2432.1,117.2,2578c6.5,144.6,65.1,228-117.2,414.3
		c-182.4,186.3-613.6,73-986.1,0c-293.1-57.3-1253.2-24.8-1730-7.8c341.3,401.2,1165.9,453.3,1165.9,453.3
		c534.1,140.7,1668.7-505.4,2563.7-252.7c894.9,252.7,2023.1,280.1,2150.7,252.7s527.6-112,730.8-492.4
		c186.3-346.5,214.9-1124.2,214.9-1124.2s-211-1292.3-211-2149.4s155-1026.5,214.9-1461.6C7913.1,1300.1,7914.4,1206.3,7853.2,892.4
		z"/>
	<path fill="#75B8E0" fill-opacity="0.85" d="M7853.2,892.4C7692.9,71.7,6580.5,161.6,6580.5,161.6s-2225,281.4-2961,308.7
		c-736,28.7-2185.9-308.7-2727.8,0c-63.8,36.5-115.9,86-160.2,145.9c11.7,3.9,23.4,7.8,37.8,11.7
		c143.3,44.3,659.2,151.1,1083.8,175.9c433.8,24.8,678.7,0,1109.9-52.1S3342,555,3628.6,865c287.9,310,221.5,590.1,228,652.6
		c6.5,62.5-106.8,1220.6-117.2,2008.7c-13,1009.6,110.7,2432.1,117.2,2578c6.5,144.6,65.1,228-117.2,414.3
		c-182.4,186.3-613.6,73-986.1,0c-293.1-57.3-1253.2-24.8-1730-7.8c341.3,401.2,1165.9,453.3,1165.9,453.3
		c534.1,140.7,1668.7-505.4,2563.7-252.7c894.9,252.7,2023.1,280.1,2150.7,252.7s527.6-112,730.8-492.4
		c186.3-346.5,214.9-1124.2,214.9-1124.2s-211-1292.3-211-2149.4s155-1026.5,214.9-1461.6C7913.1,1300.1,7914.4,1206.3,7853.2,892.4
		z"/>
	<path fill="#75B8E0" fill-opacity="0.85" d="M7853.2,892.4C7692.9,71.7,6580.5,161.6,6580.5,161.6s-2225,281.4-2961,308.7
		c-736,28.7-2185.9-308.7-2727.8,0c-63.8,36.5-115.9,86-160.2,145.9c11.7,3.9,23.4,7.8,37.8,11.7
		c143.3,44.3,659.2,151.1,1083.8,175.9c433.8,24.8,678.7,0,1109.9-52.1S3342,555,3628.6,865c287.9,310,221.5,590.1,228,652.6
		c6.5,62.5-106.8,1220.6-117.2,2008.7c-13,1009.6,110.7,2432.1,117.2,2578c6.5,144.6,65.1,228-117.2,414.3
		c-182.4,186.3-613.6,73-986.1,0c-293.1-57.3-1253.2-24.8-1730-7.8c341.3,401.2,1165.9,453.3,1165.9,453.3
		c534.1,140.7,1668.7-505.4,2563.7-252.7c894.9,252.7,2023.1,280.1,2150.7,252.7s527.6-112,730.8-492.4
		c186.3-346.5,214.9-1124.2,214.9-1124.2s-211-1292.3-211-2149.4s155-1026.5,214.9-1461.6C7913.1,1300.1,7914.4,1206.3,7853.2,892.4
		z"/>
	<path fill="#75B8E0" fill-opacity="0.85" d="M7853.2,892.4C7692.9,71.7,6580.5,161.6,6580.5,161.6s-2225,281.4-2961,308.7
		c-736,28.7-2185.9-308.7-2727.8,0c-63.8,36.5-115.9,86-160.2,145.9c11.7,3.9,23.4,7.8,37.8,11.7
		c143.3,44.3,659.2,151.1,1083.8,175.9c433.8,24.8,678.7,0,1109.9-52.1S3342,555,3628.6,865c287.9,310,221.5,590.1,228,652.6
		c6.5,62.5-106.8,1220.6-117.2,2008.7c-13,1009.6,110.7,2432.1,117.2,2578c6.5,144.6,65.1,228-117.2,414.3
		c-182.4,186.3-613.6,73-986.1,0c-293.1-57.3-1253.2-24.8-1730-7.8c341.3,401.2,1165.9,453.3,1165.9,453.3
		c534.1,140.7,1668.7-505.4,2563.7-252.7c894.9,252.7,2023.1,280.1,2150.7,252.7s527.6-112,730.8-492.4
		c186.3-346.5,214.9-1124.2,214.9-1124.2s-211-1292.3-211-2149.4s155-1026.5,214.9-1461.6C7913.1,1300.1,7914.4,1206.3,7853.2,892.4
		z"/>
</g>
<g>
	<path fill="#EC6277" d="M1776.1,6998.1c-135.5,0-399.9-14.3-647.4-114.6c-303.5-123.8-487.2-334.8-544.5-629.2
		c-61.2-311.3-61.2-406.4,0-848c19.5-144.6,49.5-257.9,82.1-379.1c62.5-238.4,132.9-508,132.9-1081.2
		c0-846.7-212.3-2135.1-214.9-2148.1v-1.3v-1.3c1.3-31.3,31.3-785.5,216.2-1130.7c208.4-388.2,605.7-491.1,742.5-498.9
		c19.5-1.3,53.4-1.3,95.1-1.3c118.5,0,1182.8,6.5,2059.5,255.3c145.9,41.7,295.7,61.2,457.2,61.2c325.7,0,648.7-83.4,961.4-165.4
		c306.1-79.5,622.7-161.5,936.6-161.5c70.3,0,139.4,3.9,205.8,11.7c7.8,0,884.5,61.2,1205,497.6
		c244.9,332.2,268.4,1099.5,269.7,1132c1.3,22.1,99,2257.6,112,3303.6c3.9,304.8,27.4,538,46.9,725.6
		c46.9,462.5,65.1,635.7-328.3,859.8c-157.6,89.9-401.2,132.9-747.7,132.9c-321.8,0-683.9-36.5-1034.3-71.6
		c-317.9-31.3-617.5-61.2-858.5-61.2c-32.6,0-63.8,0-92.5,1.3c-726.9,27.4-2936.3,306.1-2958.4,308.7
		C1869.9,6995.5,1834.8,6998.1,1776.1,6998.1z M610.2,1795.1c7.8,48.2,214.9,1314.4,214.9,2150.7c0,577.1-71.6,848-134.2,1087.7
		c-31.3,119.8-61.2,233.2-80.8,376.5c-59.9,437.7-59.9,531.5,0,838.9c127.7,652.6,858.5,723,1165.9,723c57.3,0,93.8-2.6,93.8-2.6
		c22.1-2.6,2232.8-281.4,2959.7-308.7c30-1.3,61.2-1.3,93.8-1.3c242.3,0,543.2,30,861.1,62.5c349.1,35.2,711.3,71.6,1031.7,71.6
		c341.3,0,582.3-43,736-130.3c377.8-216.2,362.1-371.3,315.3-835c-19.5-187.6-43-422.1-46.9-728.2
		c-13-1046.1-110.7-3280.2-112-3302.3c0-7.8-24.8-790.7-264.4-1117.7c-312.6-426-1177.6-485.9-1186.7-487.2
		c-66.4-7.8-134.2-11.7-203.2-11.7c-310,0-625.3,82.1-930.1,161.5c-313.9,79.5-638.3,164.1-967.9,164.1
		c-164.1,0-316.6-20.8-465.1-62.5c-872.8-246.2-1934.5-254-2053-254c-40.4,0-75.6,0-93.8,1.3c-131.6,6.5-518.5,108.1-720.4,484.6
		C645.4,1009.6,611.5,1758.7,610.2,1795.1z"/>
</g>
</svg>
