<svg width="479" height="502" viewBox="0 0 479 502" fill="none" xmlns="http://www.w3.org/2000/svg">
<g clip-path="url(#clip0)">
<path d="M0 0.700195V502H479V0.700195H0ZM478.7 73.0002C477.1 88.4002 465.7 159.5 460.8 215.9C457.7 252 456.3 285.6 456.7 316C457 339.4 458.4 360.8 460.8 379.9C466.5 423.7 473 436.7 468.1 453.8C463.2 470.8 443.8 479.8 422.6 479.8C401.5 479.8 222.1 474.1 175.9 479.8C131.2 485.3 79.8 493.8 55.8 481.2C54.9 480.7 54.1 480.3 53.3 479.8C30.6 465.2 37.9 458.7 38.7 447.3C39 443.5 40.8 428.7 43.2 407.7C47.9 365.4 54.4 298 53.3 245.2C52 183.4 37.9 92.6002 38.7 87.7002C39.5 82.8002 31.4 60.9002 67.1 36.6002C73.4 32.3002 78.4 29.1002 82.7 26.8002C102.4 16.1002 105.8 24.4002 149.9 27.7002C158.2 28.3002 166 28.9002 173.4 29.4002C213.6 32.2002 242.4 33.4002 287.9 31.7002C335.3 29.9002 391.8 23.0002 415.7 19.1002C418.4 18.7002 420.8 18.2002 422.6 17.9002C440.5 14.4002 443.3 13.1002 455.1 17.9002C476.8 26.7002 480.3 57.6002 478.7 73.0002Z" fill="#5DACDA" fill-opacity="0.15"/>
<path opacity="0.85" d="M467.3 402.8C464.9 391.3 461 357.6 456.7 316C457 339.4 458.4 360.8 460.8 379.9C466.5 423.7 473 436.7 468.1 453.8C463.2 470.8 443.8 479.8 422.6 479.8C401.5 479.8 222.1 474.1 175.9 479.8C131.2 485.3 79.7998 493.8 55.7998 481.2C64.7998 494.6 79.7998 504.4 104.8 501C170.5 492.1 289.6 484 356.9 484.8C424.2 485.6 447.7 488.9 467.1 467.8C486.7 446.6 475.4 441.8 467.3 402.8Z" fill="#5DACDA"/>
<path opacity="0.85" d="M287.9 31.6001C335.3 29.8001 391.8 22.9001 415.7 19.0001C413.4 16.2001 410.9 13.7001 408 11.8001C391.3 0.700078 382.1 -2.79992 357 4.50008C331.9 11.8001 261.1 23.2001 198.9 28.0001C190.5 28.7001 181.9 29.0001 173.4 29.2001C213.6 32.1001 242.4 33.3001 287.9 31.6001Z" fill="#5DACDA"/>
<path opacity="0.85" d="M38.7999 87.6001C39.5999 82.7001 31.4999 60.8001 67.1999 36.5001C73.4999 32.2001 78.4999 29.0001 82.7999 26.7001C57.1999 25.5001 35.5999 25.0001 21.3999 28.1001C-11.8001 35.4001 3.59987 101.1 3.59987 101.1C3.59987 101.1 36.6999 222 42.4999 301.5C44.9999 335 44.0999 381.4 43.2999 407.7C47.9999 365.4 54.4999 298 53.3999 245.2C52.0999 183.4 37.8999 92.5001 38.7999 87.6001Z" fill="#5DACDA"/>
</g>
<defs>
<clipPath id="clip0">
<rect width="479" height="502" fill="white"/>
</clipPath>
</defs>
</svg>
