<svg width="34" height="465" viewBox="0 0 34 465" fill="none" xmlns="http://www.w3.org/2000/svg">
<path d="M14.5245 3.08156C14.6741 2.6209 15.3259 2.62091 15.4755 3.08156L17.6677 9.82827C17.8685 10.4463 18.4444 10.8647 19.0943 10.8647H26.1882C26.6725 10.8647 26.8739 11.4846 26.4821 11.7693L20.743 15.9389C20.2172 16.3209 19.9972 16.998 20.1981 17.616L22.3902 24.3627C22.5399 24.8234 22.0126 25.2064 21.6208 24.9217L15.8817 20.752C15.3559 20.3701 14.6441 20.3701 14.1183 20.752L8.37923 24.9217C7.98737 25.2064 7.46013 24.8234 7.60981 24.3627L9.80195 17.616C10.0028 16.998 9.78277 16.3209 9.25704 15.9389L3.51794 11.7693C3.12609 11.4846 3.32747 10.8647 3.81184 10.8647H10.9057C11.5556 10.8647 12.1315 10.4463 12.3323 9.82827L14.5245 3.08156Z" stroke="#5DACDA"/>
<path d="M18.5245 438.082C18.6741 437.621 19.3259 437.621 19.4755 438.082L21.6677 444.828C21.8685 445.446 22.4444 445.865 23.0943 445.865H30.1882C30.6725 445.865 30.8739 446.485 30.4821 446.769L24.743 450.939C24.2172 451.321 23.9972 451.998 24.1981 452.616L26.3902 459.363C26.5399 459.823 26.0126 460.206 25.6208 459.922L19.8817 455.752C19.3559 455.37 18.6441 455.37 18.1183 455.752L12.3792 459.922C11.9874 460.206 11.4601 459.823 11.6098 459.363L13.8019 452.616C14.0028 451.998 13.7828 451.321 13.257 450.939L7.51794 446.769C7.12609 446.485 7.32747 445.865 7.81184 445.865H14.9057C15.5556 445.865 16.1315 445.446 16.3323 444.828L18.5245 438.082Z" stroke="#5DACDA"/>
</svg>
