<svg width="26" height="24" viewBox="0 0 26 24" fill="none" xmlns="http://www.w3.org/2000/svg">
<path d="M13.4755 1.08156C13.3259 0.620903 12.6741 0.620905 12.5245 1.08156L10.3323 7.82827C10.1315 8.4463 9.55559 8.86475 8.90575 8.86475H1.81184C1.32747 8.86475 1.12609 9.48455 1.51794 9.76925L7.25704 13.9389C7.78277 14.3209 8.00276 14.998 7.80194 15.616L5.60981 22.3627C5.46013 22.8234 5.98737 23.2064 6.37923 22.9217L12.1183 18.752C12.6441 18.3701 13.3559 18.3701 13.8817 18.752L19.6208 22.9217C20.0126 23.2064 20.5399 22.8234 20.3902 22.3627L18.1981 15.616C17.9972 14.998 18.2172 14.3209 18.743 13.9389L24.4821 9.76925C24.8739 9.48455 24.6725 8.86475 24.1882 8.86475H17.0943C16.4444 8.86475 15.8685 8.44631 15.6677 7.82827L13.4755 1.08156Z" stroke="#5DACDA"/>
</svg>
