<svg width="93" height="93" viewBox="0 0 93 93" fill="none" xmlns="http://www.w3.org/2000/svg">
<path d="M81.9616 53.5796L78.5344 52.6825L81.6228 50.8768C82.2405 50.5157 82.4967 49.5372 82.1351 48.9197C81.7736 48.3023 80.7944 48.0459 80.1767 48.4071L75.2353 51.296L71.3185 50.2707L75.6422 47.7429C76.2599 47.3818 76.5161 46.4032 76.1546 45.7858C75.793 45.1683 74.8138 44.912 74.1961 45.2731L67.4016 49.2454L62.5056 47.9637L59.787 38.3643L65.3461 35.1142L72.6902 37.0367C73.1798 37.1648 73.7975 36.8036 73.9256 36.3144C74.0536 35.8251 73.6921 35.2076 73.2025 35.0794L68.3065 33.7978L72.0126 31.6311L78.3774 33.2973C78.867 33.4254 79.4847 33.0643 79.6128 32.575C79.7409 32.0857 79.3794 31.4682 78.8898 31.34L75.4626 30.4429L78.551 28.6372C79.1687 28.2761 79.4248 27.2976 79.0633 26.6801C78.7018 26.0627 77.7226 25.8063 77.1049 26.1675L74.0165 27.9731L74.913 24.5482C75.0411 24.0589 74.6796 23.4414 74.19 23.3132C73.7004 23.185 73.0827 23.5462 72.9546 24.0355L71.4176 29.9069L67.7115 32.0736L68.9924 27.1807C69.1204 26.6915 68.7589 26.0739 68.2693 25.9458C67.7797 25.8176 67.162 26.1788 67.0339 26.6681L65.1127 34.0074L60.1713 36.8963L59.4709 33.5762L51.1477 31.3974L52.9409 24.5473L59.7354 20.5751C60.353 20.2139 60.6092 19.2352 60.2477 18.6178C59.8862 18.0003 58.907 17.744 58.2893 18.1051L53.9655 20.633L54.9901 16.7188L59.9316 13.8297C60.5493 13.4686 60.8055 12.4901 60.444 11.8726C60.0824 11.2552 59.1032 10.9988 58.4856 11.36L55.3971 13.1656L56.0375 10.7191C56.1656 10.2299 55.8041 9.61234 55.3145 9.48417C54.8249 9.35601 54.2072 9.71719 54.0791 10.2065L53.1825 13.6315L51.3749 10.5443C51.0134 9.92684 50.0342 9.67051 49.4165 10.0316C48.7989 10.3928 48.5427 11.3713 48.9042 11.9888L51.7964 16.9283L50.7717 20.8427L48.2411 16.5205C47.8796 15.903 46.9004 15.6467 46.2827 16.0078C45.665 16.3689 45.4088 17.3475 45.7704 17.9649L49.7471 24.7569L47.9539 31.6069L41.0995 29.8126L38.8622 32.3639L35.97 27.4243L37.8913 20.085C38.0193 19.5957 37.6578 18.9782 37.1682 18.8501C36.6786 18.7219 36.0609 19.0831 35.9328 19.5724L34.652 24.4652L32.4829 20.7605L34.0199 14.889C34.148 14.3997 33.7865 13.7823 33.2969 13.6542C32.8073 13.526 32.1896 13.887 32.0615 14.3763L31.1649 17.8014L29.3573 14.7141C28.9958 14.0967 28.0166 13.8404 27.3989 14.2015C26.7812 14.5626 26.5251 15.5411 26.8866 16.1586L28.6942 19.2459L24.7774 18.2205C24.2878 18.0924 23.6701 18.4536 23.542 18.9428C23.4139 19.4321 23.7755 20.0495 24.2651 20.1777L30.1403 21.7156L32.3094 25.4204L27.4134 24.1387C26.9238 24.0106 26.3061 24.3717 26.178 24.861C26.0499 25.3503 26.4114 25.9677 26.901 26.0958L34.2451 28.0183L37.4988 33.5754L30.4253 40.6116L25.5293 39.33L21.063 32.4098C20.7015 31.7924 19.7223 31.5361 19.1046 31.8972C18.4869 32.2583 18.2308 33.2368 18.5923 33.8543L21.1229 38.1765L17.6957 37.2794L14.8035 32.3398C14.442 31.7224 13.4628 31.466 12.8451 31.8272C12.2274 32.1883 11.9713 33.1668 12.3328 33.7843L14.1404 36.8715L10.7132 35.9744C10.2236 35.8462 9.6059 36.2073 9.47782 36.6965C9.34974 37.1858 9.71124 37.8033 10.2008 37.9315L13.6281 38.8287L10.5396 40.6343C9.92196 40.9954 9.6658 41.9739 10.0273 42.5914C10.0273 42.5914 10.3888 43.2089 10.8784 43.337C11.368 43.4652 11.368 43.4652 11.9857 43.104L16.9272 40.2151L20.844 41.2404L16.5202 43.7682C15.9025 44.1293 15.6464 45.108 16.0079 45.7255C16.0079 45.7255 16.3694 46.3428 16.859 46.471C17.3486 46.5991 17.3486 46.5993 17.9663 46.2381L24.7608 42.2658L29.6568 43.5474L32.3755 53.1468L26.8163 56.3971L18.9827 54.3464C18.4931 54.2183 17.8754 54.5793 17.7473 55.0686C17.6192 55.5579 17.9807 56.1754 18.4703 56.3036L23.3664 57.5852L19.6602 59.752L14.2746 58.3422C13.785 58.214 13.1674 58.575 13.0393 59.0643C12.9112 59.5536 13.2727 60.1711 13.7623 60.2993L17.1895 61.1964L14.1011 63.002C13.4834 63.3632 13.2273 64.3417 13.5888 64.9592C13.5888 64.9592 13.9503 65.5766 14.4399 65.7048C14.9295 65.833 14.9295 65.8329 15.5472 65.4718L18.146 63.538L17.2494 66.9631C17.1213 67.4524 17.4829 68.0698 17.9725 68.1979C18.4621 68.3261 19.0797 67.9651 19.2078 67.4758L20.7448 61.6043L24.4509 59.4375L23.1701 64.3304C23.042 64.8197 23.4035 65.4372 23.8931 65.5653C24.3827 65.6935 25.0004 65.3323 25.1285 64.843L27.0498 57.5037L31.9912 54.6148L32.6915 57.935L40.0355 59.8575L38.3705 66.2182L31.576 70.1906C30.9583 70.5517 30.7021 71.5302 31.0636 72.1477C31.4252 72.7651 32.4044 73.0215 33.022 72.6603L37.3458 70.1324L36.3212 74.0468L31.3797 76.9357C30.762 77.2968 30.5059 78.2754 30.8674 78.8928C31.2289 79.5103 32.2081 79.7666 32.8258 79.4055L35.9142 77.5999L35.0176 81.025C34.8895 81.5143 35.251 82.1318 35.7407 82.2599C36.2302 82.3881 36.848 82.0269 36.976 81.5376L37.8726 78.1126L39.6802 81.1998C39.6802 81.1998 40.0417 81.8173 40.5313 81.9455C41.0209 82.0736 41.0209 82.0736 41.6386 81.7125C42.2563 81.3513 42.5125 80.3728 42.151 79.7553L39.2588 74.8158L40.2835 70.9014L42.8141 75.2236C42.8141 75.2236 43.1756 75.8411 43.6652 75.9693C44.1548 76.0974 44.1548 76.0974 44.7725 75.7363C45.3902 75.3752 45.6463 74.3966 45.2848 73.7792L41.3081 66.9872L42.9732 60.6265L50.3172 62.549L52.5545 59.9977L55.4467 64.9373L53.5254 72.2766C53.3973 72.7659 53.7588 73.3834 54.2485 73.5115C54.738 73.6397 55.3558 73.2785 55.4838 72.7892L56.7647 67.8964L58.9338 71.6011L57.3968 77.4726C57.2687 77.9619 57.6302 78.5792 58.1198 78.7074C58.6094 78.8356 59.2271 78.4745 59.3552 77.9853L60.2518 74.5602L62.0594 77.6474C62.0594 77.6474 62.4209 78.2649 62.9105 78.3931C63.4001 78.5213 63.4001 78.5212 64.0178 78.1601C64.6355 77.799 64.8916 76.8204 64.5301 76.203L62.7225 73.1157L67.6185 74.3974C68.1081 74.5255 68.7258 74.1644 68.8539 73.6751C68.982 73.1858 68.6204 72.5684 68.1308 72.4403L62.2556 70.9023L60.0865 67.1975L64.9825 68.4792C65.4721 68.6073 66.0898 68.2462 66.2179 67.7569C66.346 67.2676 65.9844 66.6502 65.4948 66.5221L58.1508 64.5996L54.8972 59.0424L61.9706 52.0063L66.8666 53.2879L70.8433 60.0799C70.8433 60.0799 71.2048 60.6972 71.6944 60.8254C72.184 60.9536 72.184 60.9537 72.8017 60.5926C73.4194 60.2314 73.6756 59.2527 73.314 58.6353L70.7834 54.3132L74.7002 55.3385L77.5924 60.2781C77.5924 60.2781 77.9539 60.8956 78.4435 61.0237C78.9331 61.1519 78.9331 61.1519 79.5508 60.7908C80.1685 60.4296 80.4246 59.4511 80.0631 58.8336L78.2555 55.7464L81.6827 56.6435C82.1723 56.7717 82.79 56.4105 82.9181 55.9212C83.0462 55.4319 82.4512 53.7078 81.9616 53.5796ZM49.9784 59.8462L35.7799 56.1294L32.1276 42.1029L42.184 31.6651L56.3825 35.3818L60.0349 49.4083L49.9784 59.8462Z" fill="#8AC8D9"/>
<path d="M43.8439 37.3271L37.5163 43.5129L40.0015 52.0057L48.8143 54.3127L55.1419 48.1268L52.6568 39.634L43.8439 37.3271ZM47.9859 51.4817L42.1107 49.9437L40.4539 44.2819L44.6723 40.158L50.5475 41.696L52.2043 47.3578L47.9859 51.4817Z" fill="#8AC8D9"/>
</svg>
