<svg width="1600" height="1200" viewBox="0 0 1600 1200" fill="none" xmlns="http://www.w3.org/2000/svg">
<g clip-path="url(#clip0)">
<path d="M0.198853 1.10693V1201.11H1600.2V1.10693H0.198853ZM1576.26 636.614C1558.17 842.947 1576.26 952.83 1576.26 952.83C1576.26 952.83 1557.16 1043.04 1511.93 1074.71C1491.82 1089.11 1473.23 1099.66 1456.14 1108.3C1402.36 1145.25 1327.47 1146.69 1278.21 1146.69C1124.41 1146.69 1037.97 1139.97 910.806 1132.29C876.125 1133.25 841.946 1134.21 808.774 1136.13C616.778 1146.21 530.328 1156.28 338.33 1156.28C283.546 1156.28 196.092 1154.36 142.815 1103.98C126.731 1088.62 112.155 1075.19 99.5897 1061.28C58.3756 1026.25 40.7846 943.234 40.7846 943.234C40.7846 943.234 58.8785 832.87 40.7846 627.018C36.7637 579.034 31.2345 501.779 36.7633 420.207C34.2502 393.815 33.2459 368.384 36.2614 340.554C39.2771 310.323 48.3239 286.331 62.3969 265.697C72.9519 231.149 86.5223 198.999 105.119 171.169C190.563 43.5311 245.851 49.2887 282.541 43.5307C317.723 37.7725 636.38 92.4744 877.13 103.511C1087.73 84.3172 1306.36 48.3289 1335.01 53.1275C1371.7 58.8855 1426.48 53.1279 1512.43 180.766C1524.49 198.52 1534.04 218.194 1542.59 239.307C1563.7 264.258 1577.27 292.57 1581.29 330.956C1584.3 361.667 1582.8 389.017 1579.78 418.288C1586.31 504.179 1580.79 586.232 1576.26 636.614Z" fill="white"/>
<path d="M282.19 1124.19C248.557 1123.24 190.828 1124.19 104.988 1063.35C103.482 1061.92 101.474 1060.96 99.9684 1059.52C112.518 1073.41 127.076 1086.83 143.14 1102.16C196.35 1152.46 283.695 1154.37 338.413 1154.37C530.17 1154.37 617.016 1144.31 808.272 1134.25C841.403 1132.34 875.538 1131.38 910.175 1130.42C878.549 1128.51 844.917 1126.59 806.766 1124.67C588.903 1113.18 315.822 1125.15 282.19 1124.19Z" fill="#7CC1EE"/>
<path d="M1577.82 417.598C1571.79 476.999 1557.74 543.108 1557.74 651.852V947.425C1557.74 1014.01 1521.09 1046.11 1472.4 1092.58C1466.88 1097.85 1460.85 1102.16 1454.83 1106.47C1471.9 1098.33 1490.47 1087.31 1510.55 1072.94C1555.23 1040.84 1574.81 951.257 1574.81 951.257C1574.81 951.257 1556.73 841.077 1574.81 635.564C1578.82 585.265 1584.34 503.348 1577.82 417.598Z" fill="#7CC1EE"/>
<path d="M1540.67 238.913C1532.14 217.835 1522.6 198.194 1510.55 180.469C1425.21 53.042 1370 58.7901 1333.35 53.0416C1304.23 48.2512 1086.37 84.1797 876.041 103.342C884.575 103.821 893.108 104.301 901.643 104.301C1019.61 108.133 1203.84 104.301 1203.84 104.301C1203.84 104.301 1389.07 110.049 1472.4 176.636C1499.01 198.193 1522.6 217.355 1540.67 238.913Z" fill="#7CC1EE"/>
<path d="M37.2209 419.514C40.7348 367.777 48.2651 314.122 62.8227 265.26C48.7672 286.338 39.7303 309.812 36.7185 339.993C33.7065 367.777 34.711 393.166 37.2209 419.514Z" fill="#7CC1EE"/>
<path d="M855.962 102.863C612.999 115.797 269.138 85.617 232.996 94.2398C196.852 102.863 141.633 101.905 68.3431 236.039C-4.94692 370.171 28.6859 595.803 46.7576 694.486C83.9046 898.082 75.873 1009.22 75.873 1009.22C75.873 1009.22 103.482 1096.89 151.171 1125.15C242.031 1178.8 299.759 1172.58 332.889 1170.66C366.523 1168.74 637.597 1133.3 855.962 1126.59C1047.72 1120.36 1135.07 1123.24 1325.82 1106.95C1380.54 1102.16 1466.88 1093.06 1515.57 1038.44C1559.75 988.623 1593.38 953.173 1587.36 887.064L1559.75 592.449C1544.69 431.01 1568.78 362.027 1551.21 270.049C1537.66 199.15 1492.48 167.056 1430.74 125.858C1341.38 66.4555 1156.65 76.5153 1156.65 76.5153C1156.65 76.5153 973.929 96.6352 855.962 102.863Z" stroke="#EC6277" stroke-width="1.65"/>
</g>
<defs>
<clipPath id="clip0">
<rect width="1600" height="1200" fill="white"/>
</clipPath>
</defs>
</svg>
