<?xml version="1.0" encoding="utf-8"?>
<!-- Generator: Adobe Illustrator 18.1.1, SVG Export Plug-In . SVG Version: 6.00 Build 0)  -->
<svg version="1.1" id="Layer_1" xmlns="http://www.w3.org/2000/svg" xmlns:xlink="http://www.w3.org/1999/xlink" x="0px" y="0px"
	 viewBox="-137.5 26.1 602 544" enable-background="new -137.5 26.1 602 544" xml:space="preserve">
<g>
	<path fill="#FFFFFF" d="M-137,26.6v543h601v-543H-137z M450.5,157.3c-4.6,33.4-16.5,46.4-16.5,112.2s16.5,165.1,16.5,165.1
		s-2.3,59.8-16.5,86.3c-15.6,29.1-46.3,35.7-56.1,37.8c-9.8,2.1-96.4,0-165.1-19.4C144,519.9,56.9,569.5,15.9,558.7
		c0,0-63.2-4.1-89.5-34.8c-9.8,0.3-16.9,0.6-19.6,0.6c-13,0-25.1-8.7-28.1-25.4c-3-16.7,1-29.4,4.5-72.3c3.5-42.9,3.4-98.1,0-160.5
		c-3-55.1-10-124.8-11-139.9c-1-15.1,1.1-45.3,14.5-54c6.6-4.3,8.7-3.6,17.2-0.9c3.3-4.6,7.4-8.4,12.3-11.2
		c41.6-23.7,152.9,2.2,209.4,0c56.5-2.2,227.2-23.7,227.2-23.7s85.4-6.8,97.7,56.1C455.2,116.7,455.1,123.9,450.5,157.3z"/>
	<path fill="#5DACDA" fill-opacity="0.85" d="M450.5,92.6c-12.3-63-97.7-56.1-97.7-56.1S182,58.1,125.5,60.2
		c-56.5,2.2-167.8-23.7-209.4,0c-4.9,2.8-8.9,6.6-12.3,11.2c0.9,0.3,1.8,0.6,2.9,0.9c11,3.4,50.6,11.6,83.2,13.5
		c33.3,1.9,52.1,0,85.2-4c33.1-4,29.1-15.1,51.1,8.7c22.1,23.8,17,45.3,17.5,50.1c0.5,4.8-8.2,93.7-9,154.2
		c-1,77.5,8.5,186.7,9,197.9c0.5,11.1,5,17.5-9,31.8c-14,14.3-47.1,5.6-75.7,0c-22.5-4.4-96.2-1.9-132.8-0.6
		c26.2,30.8,89.5,34.8,89.5,34.8c41,10.8,128.1-38.8,196.8-19.4c68.7,19.4,155.3,21.5,165.1,19.4c9.8-2.1,40.5-8.6,56.1-37.8
		c14.3-26.6,16.5-86.3,16.5-86.3S434,335.4,434,269.6s11.9-78.8,16.5-112.2C455.1,123.9,455.2,116.7,450.5,92.6z"/>
	<g>
		<path fill="#EC6277" d="M-16,561.3c-10.4,0-30.7-1.1-49.7-8.8c-23.3-9.5-37.4-25.7-41.8-48.3c-4.7-23.9-4.7-31.2,0-65.1
			c1.5-11.1,3.8-19.8,6.3-29.1c4.8-18.3,10.2-39,10.2-83c0-65-16.3-163.9-16.5-164.9l0-0.1l0-0.1c0.1-2.4,2.4-60.3,16.6-86.8
			c16-29.8,46.5-37.7,57-38.3c1.5-0.1,4.1-0.1,7.3-0.1c9.1,0,90.8,0.5,158.1,19.6c11.2,3.2,22.7,4.7,35.1,4.7
			c25,0,49.8-6.4,73.8-12.7c23.5-6.1,47.8-12.4,71.9-12.4c5.4,0,10.7,0.3,15.8,0.9c0.6,0,67.9,4.7,92.5,38.2
			c18.8,25.5,20.6,84.4,20.7,86.9c0.1,1.7,7.6,173.3,8.6,253.6c0.3,23.4,2.1,41.3,3.6,55.7c3.6,35.5,5,48.8-25.2,66
			c-12.1,6.9-30.8,10.2-57.4,10.2c-24.7,0-52.5-2.8-79.4-5.5c-24.4-2.4-47.4-4.7-65.9-4.7c-2.5,0-4.9,0-7.1,0.1
			c-55.8,2.1-225.4,23.5-227.1,23.7C-8.8,561.1-11.5,561.3-16,561.3z M-105.5,161.9C-104.9,165.6-89,262.8-89,327
			c0,44.3-5.5,65.1-10.3,83.5c-2.4,9.2-4.7,17.9-6.2,28.9c-4.6,33.6-4.6,40.8,0,64.4c9.8,50.1,65.9,55.5,89.5,55.5
			c4.4,0,7.2-0.2,7.2-0.2c1.7-0.2,171.4-21.6,227.2-23.7c2.3-0.1,4.7-0.1,7.2-0.1c18.6,0,41.7,2.3,66.1,4.8
			c26.8,2.7,54.6,5.5,79.2,5.5c26.2,0,44.7-3.3,56.5-10c29-16.6,27.8-28.5,24.2-64.1c-1.5-14.4-3.3-32.4-3.6-55.9
			c-1-80.3-8.5-251.8-8.6-253.5c0-0.6-1.9-60.7-20.3-85.8c-24-32.7-90.4-37.3-91.1-37.4c-5.1-0.6-10.3-0.9-15.6-0.9
			c-23.8,0-48,6.3-71.4,12.4C216.9,56.5,192,63,166.7,63c-12.6,0-24.3-1.6-35.7-4.8C64,39.3-17.5,38.7-26.6,38.7
			c-3.1,0-5.8,0-7.2,0.1c-10.1,0.5-39.8,8.3-55.3,37.2C-102.8,101.6-105.4,159.1-105.5,161.9z"/>
	</g>
</g>
</svg>
