<svg width="39" height="39" fill="none" xmlns="http://www.w3.org/2000/svg"><path d="M4.875 0c-1.184 0-2.09.905-2.09 2.09v4.178h4.18V2.089C6.964.905 6.058 0 4.874 0zm29.25 34.821H13.929v2.09c0 .766-.279 1.462-.697 2.089h20.893c1.184 0 2.09-.905 2.09-2.09v-2.089h-2.09zM20.127 11.63l.07.07.07-.07c2.158-1.392 3.412-3.83 3.412-6.407V3.97l-3.483-1.184-3.482 1.184v1.323c0 2.577 1.254 4.945 3.413 6.337zm.766-6.128l1.393.14c-.14 1.6-1.045 3.063-2.368 3.969l-.766-1.184c.975-.627 1.601-1.741 1.74-2.925z" fill="#EDE9DE"/><path d="M32.732 2.09c0-1.185-.905-2.09-2.09-2.09H7.662c.487.627.696 1.323.696 2.09v34.82c0 1.185.905 2.09 2.09 2.09 1.184 0 2.089-.905 2.089-2.09v-3.48h20.196V2.089zm-17.41.905l4.874-1.602 4.875 1.602v2.298c0 2.994-1.532 5.85-4.039 7.521l-.836.558-.835-.558c-2.507-1.671-4.04-4.527-4.04-7.521V2.995zm0 11.63h9.75v1.393h-9.75v-1.393zM9.75 18.107h6.268V19.5H9.75v-1.393zm0 2.786h14.625v1.393H9.75v-1.393zm0 2.786h6.268v1.392H9.75V23.68zm0 2.785h2.786v1.393H9.75v-1.393zm11.143 4.179H9.75V29.25h11.143v1.393zm10.446 0h-9.053V29.25h9.053v1.393zm0-2.786H13.93v-1.393h17.41v1.393zm0-2.786H17.411V23.68h13.928v1.392zm0-2.785h-5.571v-1.393h5.571v1.393zm0-2.786H17.411v-1.393h13.928V19.5z" fill="#EDE9DE"/></svg>