<svg width="220" height="271" fill="none" xmlns="http://www.w3.org/2000/svg"><path d="M42.05 47.567l14.604-18.772-.875 23.773 23.248-5.001-15.952 17.65L84.102 76.33l-23.557 3.262 8.953 22.034-20.15-12.638-7.297 22.631-7.306-22.63-20.14 12.637 8.953-22.034L0 76.331l21.025-11.115-15.962-17.65 23.259 5.002-.875-23.773L42.05 47.567zm135.547 178.101c0 3.653-21.786 6.617-48.657 6.617-26.871 0-48.668-2.964-48.668-6.617 0-3.654 21.787-6.617 48.668-6.617s48.657 2.963 48.657 6.617z" fill="#EDE9DE"/><path d="M135.542 188.669c6.714-28.445-10.903-56.946-39.347-63.659-28.444-6.714-56.945 10.903-63.659 39.347-6.713 28.444 10.903 56.945 39.348 63.659 28.444 6.713 56.945-10.903 63.658-39.347z" fill="#FD5F31"/><path d="M54.492 220.43a52.919 52.919 0 0076.876-67.573c-36.184 7.101-60.502 35.248-76.875 67.573z" fill="#201E1D"/><path d="M58.3 180.767H22.888a9.343 9.343 0 01-9.324-9.313 9.352 9.352 0 019.324-9.324H58.3a9.342 9.342 0 019.324 9.324 9.344 9.344 0 01-9.324 9.313z" fill="#EDE9DE"/><path d="M22.126 181.745a9.656 9.656 0 01-9.632-9.633 9.652 9.652 0 019.632-9.633 9.657 9.657 0 019.633 9.633 9.657 9.657 0 01-9.633 9.633z" fill="#8E7C77"/><path d="M194.413 152.116l-34.424 34.425m49.841-33.406l-34.425 34.435" stroke="#201E1D" stroke-width="2" stroke-linecap="round" stroke-linejoin="round"/><path d="M84.44 18.504A9.252 9.252 0 1084.44 0a9.252 9.252 0 000 18.504zm5.506 226.563l7.461 12.926 7.461 12.926H75.013l7.462-12.926 7.471-12.926z" fill="#FD5F31"/><path d="M118.206 245.067l7.461 12.926 7.462 12.926h-29.856l7.472-12.926 7.461-12.926z" fill="#FD5F31"/><path d="M146.981 245.067l7.461 12.926 7.471 12.926h-29.855l7.461-12.926 7.462-12.926z" fill="#FD5F31"/><path d="M175.755 245.067l7.472 12.926 7.461 12.926h-29.855l7.461-12.926 7.461-12.926z" fill="#FD5F31"/><path d="M204.54 245.067l7.461 12.926 7.462 12.926h-29.856l7.472-12.926 7.461-12.926zm-168.683-8.294L27.3 227.81.42 253.471l8.555 8.962 26.88-25.66z" fill="#FD5F31"/></svg>