<svg width="588" height="1000" fill="none" xmlns="http://www.w3.org/2000/svg"><g clip-path="url(#clip0)"><path d="M36.129 63.801h426.342a14.369 14.369 0 100-28.74H36.129a14.369 14.369 0 00-10.16 24.531 14.368 14.368 0 0010.16 4.21z" fill="#EDE9DE"/><path d="M36.128 35.101h348.44v28.74H36.128a14.368 14.368 0 01-14.37-14.37 14.37 14.37 0 0114.37-14.37z" fill="#8E7C77"/><path d="M36.129 35.101h223.384v28.74H36.129a14.368 14.368 0 01-14.37-14.37 14.371 14.371 0 0114.37-14.37z" fill="#FD5F31"/><path d="M36.129 35.101H136.51v28.74H36.129a14.368 14.368 0 01-14.37-14.37 14.37 14.37 0 0114.37-14.37zm436.36 822.83c0 2.582 15.396 4.677 34.384 4.677s34.393-2.095 34.393-4.677c0-2.582-15.398-4.677-34.393-4.677-18.996 0-34.384 2.095-34.384 4.677z" fill="#EDE9DE"/><path d="M502.207 831.783c-4.743-20.101 7.705-40.239 27.806-44.985 20.1-4.746 40.242 7.704 44.982 27.805 4.746 20.1-7.703 40.243-27.803 44.989-20.1 4.741-40.24-7.709-44.985-27.809z" fill="#EDE9DE"/><path d="M559.482 854.233a37.39 37.39 0 01-23.285 6.291 37.368 37.368 0 01-22.284-9.227 37.401 37.401 0 01-8.757-44.82c25.571 5.021 42.755 24.91 54.326 47.756z" fill="#FD5F31"/><path d="M87.681 226.105H-58.066" stroke="#EDE9DE" stroke-width="5.66" stroke-linecap="round" stroke-linejoin="round"/><path d="M-293.668 991.714h721.957c4.71 0 9.227-1.19 12.558-3.312 3.331-2.116 5.202-4.989 5.202-7.979 0-2.994-1.871-5.867-5.202-7.984-3.331-2.121-7.848-3.307-12.558-3.307h-721.957c-4.711 0-9.228 1.186-12.559 3.307-3.33 2.117-5.202 4.99-5.202 7.984 0 2.99 1.872 5.863 5.202 7.979 3.331 2.122 7.848 3.312 12.559 3.312z" fill="#FD5F31"/><path d="M55.094 153.183l390.538 822.743M-93.281 158.371L297.2 981.111M127.845 309.409H-17.903m190.187 91.137H26.447m185.291 88.491H65.99m186.827 88.546H107.07m192.069 91.083H153.392m198.229 114.599H205.873" stroke="#EDE9DE" stroke-width="5.66" stroke-linecap="round" stroke-linejoin="round"/><path d="M402.94 892.566H259.245" stroke="#EDE9DE" stroke-width="6.6" stroke-linecap="round" stroke-linejoin="round"/><path d="M403.631 679.328c0 4.804 1.424 9.497 4.093 13.492a24.304 24.304 0 0010.9 8.947 24.308 24.308 0 0014.033 1.381 24.277 24.277 0 0019.083-19.084 24.291 24.291 0 00-23.821-29.027 24.253 24.253 0 00-17.174 7.117 24.287 24.287 0 00-7.114 17.174z" fill="#201E1D"/><path d="M477.79 634.837l-15.684-20.006.94 25.339-24.968-5.333 17.131 18.814-22.58 11.847 25.3 3.476-9.616 23.481 21.641-13.47 7.836 24.121 7.848-24.121 21.63 13.47-9.616-23.481 25.3-3.476-22.581-11.847 17.142-18.814-24.979 5.333.94-25.339-15.684 20.006zM95.888 158.255l21.436-22.456 67.345 64.293-21.435 22.456-67.346-64.293z" fill="#FD5F31"/><path d="M103.479 792.064l-8.618-15.746-15.744-8.614 15.744-8.619 8.618-15.773 8.618 15.773 15.77 8.619-15.77 8.614-8.618 15.746zm147.8-367.468l-8.618-15.745-15.744-8.619 15.744-8.619 8.618-15.771 8.618 15.771 15.771 8.619-15.771 8.619-8.618 15.745zm-368.544 318.51c0 4.65 27.712 8.418 61.89 8.418 34.177 0 61.902-3.768 61.902-8.418 0-4.646-27.712-8.418-61.902-8.418-34.192 0-61.89 3.772-61.89 8.418z" fill="#EDE9DE"/><path d="M-63.772 696.048c-8.54-36.185 13.867-72.439 50.047-80.979 36.18-8.539 72.431 13.868 80.97 50.053 8.539 36.18-13.868 72.434-50.047 80.974-36.18 8.54-72.431-13.868-80.97-50.048z" fill="#FD5F31"/><path d="M39.317 736.445a67.3 67.3 0 01-41.91 11.333 67.324 67.324 0 01-40.111-16.613 67.316 67.316 0 01-15.76-80.672c46.023 9.031 76.955 44.836 97.781 85.952z" fill="#8E7C77"/></g><defs><clipPath id="clip0"><path fill="#fff" d="M0 0h587.269v1000H0z"/></clipPath></defs></svg>