<svg width="39" height="40" fill="none" xmlns="http://www.w3.org/2000/svg"><g clip-path="url(#clip0)" fill="#EDE9DE"><path d="M39 26.724c0-4.9-2.776-9.274-6.935-11.401-.129 9.395-7.652 17.013-16.931 17.143 2.1 4.21 6.42 7.021 11.26 7.021 2.269 0 4.475-.611 6.414-1.774l6.137 1.719-1.697-6.214A12.84 12.84 0 0039 26.723z"/><path d="M29.783 15.078C29.783 6.764 23.103 0 14.892 0 6.68 0 0 6.764 0 15.078c0 2.71.712 5.348 2.065 7.664L.055 30.1l7.267-2.035a14.706 14.706 0 007.57 2.09c8.211 0 14.891-6.763 14.891-15.077zm-17.177-3.51h-2.285c0-2.551 2.05-4.627 4.57-4.627 2.52 0 4.57 2.076 4.57 4.628a4.66 4.66 0 01-1.485 3.414l-1.942 1.8v1.804H13.75v-2.823l2.684-2.487c.48-.445.744-1.051.744-1.708 0-1.276-1.025-2.314-2.285-2.314-1.26 0-2.286 1.038-2.286 2.314zm1.143 9.333h2.285v2.313H13.75v-2.313z"/></g><defs><clipPath id="clip0"><path fill="#fff" d="M0 0h39v39.487H0z"/></clipPath></defs></svg>