<svg width="39" height="39" fill="none" xmlns="http://www.w3.org/2000/svg"><g clip-path="url(#clip0)"><path d="M37.607 9.646h-6.964V1.378C30.643.617 30.019 0 29.25 0H1.393C.623 0 0 .617 0 1.378v31.695c0 3.044 2.494 5.512 5.571 5.512H33.43c3.077 0 5.571-2.468 5.571-5.512V11.024c0-.76-.624-1.378-1.393-1.378zM11.143 6.89H19.5c.77 0 1.393.617 1.393 1.378 0 .761-.624 1.378-1.393 1.378h-8.357c-.77 0-1.393-.617-1.393-1.378 0-.76.624-1.378 1.393-1.378zm12.535 26.183H6.965a1.386 1.386 0 01-1.393-1.378c0-.761.624-1.378 1.393-1.378H23.68c.769 0 1.392.617 1.392 1.378 0 .761-.623 1.378-1.393 1.378zm0-5.512H6.965a1.386 1.386 0 01-1.393-1.378c0-.761.624-1.378 1.393-1.378H23.68c.769 0 1.392.617 1.392 1.378 0 .76-.623 1.378-1.393 1.378zm0-5.512H6.965a1.386 1.386 0 01-1.393-1.378c0-.761.624-1.378 1.393-1.378H23.68c.769 0 1.392.617 1.392 1.378 0 .76-.623 1.378-1.393 1.378zm0-5.512H6.965a1.386 1.386 0 01-1.393-1.379c0-.76.624-1.378 1.393-1.378H23.68c.769 0 1.392.617 1.392 1.378 0 .761-.623 1.379-1.393 1.379zm12.536 16.536c0 1.522-1.247 2.756-2.785 2.756-1.539 0-2.786-1.234-2.786-2.756v-20.67h5.571v20.67z" fill="#EDE9DE"/></g><defs><clipPath id="clip0"><path fill="#fff" d="M0 0h39v38.585H0z"/></clipPath></defs></svg>