<svg width="39" height="39" fill="none" xmlns="http://www.w3.org/2000/svg"><path d="M19.5 27.625a8.125 8.125 0 100-16.25 8.125 8.125 0 000 16.25z" fill="#EDE9DE"/><path d="M37.375 17.875h-1.708C34.903 10.21 28.79 4.097 21.125 3.333V1.625a1.625 1.625 0 10-3.25 0v1.708C10.21 4.097 4.097 10.21 3.333 17.875H1.625a1.625 1.625 0 100 3.25h1.708c.765 7.665 6.877 13.778 14.542 14.542v1.708a1.625 1.625 0 103.25 0v-1.708c7.665-.765 13.778-6.877 14.542-14.542h1.708a1.625 1.625 0 100-3.25zM21.102 32.391a1.612 1.612 0 00-1.602-1.516c-.86 0-1.544.673-1.602 1.516-5.886-.728-10.56-5.401-11.287-11.287A1.615 1.615 0 008.124 19.5c0-.858-.671-1.544-1.516-1.602.728-5.886 5.401-10.56 11.287-11.287.06.841.744 1.514 1.604 1.514.86 0 1.544-.673 1.602-1.516 5.886.728 10.56 5.401 11.287 11.287a1.615 1.615 0 00-1.514 1.604c0 .858.671 1.544 1.516 1.602-.73 5.888-5.401 10.56-11.289 11.29z" fill="#EDE9DE"/></svg>