<svg width="39" height="38" fill="none" xmlns="http://www.w3.org/2000/svg"><g clip-path="url(#clip0)" fill="#EDE9DE"><path d="M10.752 21.648c-.512-6.47.07-11.255 1.78-14.63.274-.54.567-1.023.873-1.457-1.439 1.03-2.98 2.589-4.308 4.95-1.041 1.851-1.923 5.402-2.358 9.5-.275 2.585-.327 5.606-.123 7.182l.126.974h3.006c.021-.046.043-.091.064-.14.56-1.262 1.176-3.395.94-6.379zM23.203 0a5.124 5.124 0 00-1.413.295 3.87 3.87 0 00-1.26 1.078c-.621.833-.681 1.667-.681 1.675l-.258.715-.68.271c-1.924.768-7.034 2.806-5.875 17.444.227 2.862-.226 5.094-.836 6.73h15.97c-.074-.76-.295-1.681-.821-2.792-.785-1.658-4.283-8.777-4.724-9.9.265 0 .53-.014.796-.044 1.194-.132 1.76-.346 2.172-.502.456-.173.644-.244 2.012.08l3.538.87c.145.035.288.051.429.051 1.614 0 2.933-2.099 3.239-2.626.368-.536.5-1.177.369-1.81a2.389 2.389 0 00-1.091-1.554c-.502-.313-6.13-4.778-8.563-6.104a6.868 6.868 0 00-1.744-.664V0h-.579zm-.376 8.942c-.028-.6.546-1.113 1.145-1.113.642 0 1.118.51 1.145 1.113.028.601-.546 1.113-1.145 1.113-.642 0-1.117-.51-1.145-1.113zM8.12 30.433c-.81 0-1.582.375-2.03 1.03-.256.372-.405.82-.405 1.3v.676H32.78v-.675a2.3 2.3 0 00-.404-1.302c-.449-.654-1.221-1.029-2.03-1.029H8.12zm-4.349 5.232h30.923v2.22H3.771v-2.22z"/></g><defs><clipPath id="clip0"><path fill="#fff" d="M0 0h39v37.886H0z"/></clipPath></defs></svg>