<svg width="39" height="39" fill="none" xmlns="http://www.w3.org/2000/svg"><g clip-path="url(#clip0)" fill="#EDE9DE"><path d="M4.875 37.375c-.294 0-.588-.106-.822-.319-.164-.15-4.053-3.745-4.053-7.5 0-2.857 2.187-5.181 4.875-5.181s4.875 2.324 4.875 5.18c0 3.758-3.889 7.35-4.053 7.502a1.218 1.218 0 01-.822.318z"/><path d="M25.438 39H4.875a1.22 1.22 0 010-2.438h20.563a.38.38 0 00.378-.26.378.378 0 00-.105-.445l-10.808-9.78a2.82 2.82 0 01-.746-3.129 2.826 2.826 0 012.655-1.823h14.063a1.22 1.22 0 010 2.438H16.812a.38.38 0 00-.378.26.378.378 0 00.105.445l10.808 9.78a2.82 2.82 0 01.746 3.129A2.827 2.827 0 0125.438 39z"/><path d="M30.875 0c-4.48 0-8.125 3.69-8.125 8.226 0 6.26 7.033 12.35 7.334 12.606a1.212 1.212 0 001.582 0C31.967 20.576 39 14.488 39 8.226 39 3.69 35.355 0 30.875 0zm0 11.375a3.253 3.253 0 01-3.25-3.25 3.253 3.253 0 013.25-3.25 3.253 3.253 0 013.25 3.25 3.253 3.253 0 01-3.25 3.25z"/></g><defs><clipPath id="clip0"><path fill="#fff" d="M0 0h39v39H0z"/></clipPath></defs></svg>