<svg width="39" height="39" fill="none" xmlns="http://www.w3.org/2000/svg"><g clip-path="url(#clip0)" fill="#EDE9DE"><path d="M36.835 25.003a2.812 2.812 0 00-1.202-.894 2.9 2.9 0 00-2.494.174l-5.011 2.833a4.933 4.933 0 01-.25 1.246c-.86 2.545-3.642 3.955-6.287 3.26l-4.954-1.299a1.117 1.117 0 01-.807-1.37c.163-.597.79-.951 1.399-.791l5.03 1.32c1.523.4 3.09-.486 3.498-1.978.408-1.492-.496-3.026-2.02-3.426l-7.679-2.014a5.781 5.781 0 00-4.335.558l-9.575 5.413a1.106 1.106 0 00-.418 1.529l4.755 8.064c.152.257.401.445.694.521.293.077.605.037.867-.111l4.318-2.441 9.237.583a5.794 5.794 0 003.224-.738l11.17-6.315c1.47-.83 1.9-2.756.84-4.124zM11.883 17.9h15.234c.631 0 1.143-.5 1.143-1.118 0-2.97-1.55-5.591-3.898-7.132a7.1 7.1 0 01-4.862 1.91 7.1 7.1 0 01-4.862-1.91c-2.348 1.54-3.898 4.162-3.898 7.132a1.13 1.13 0 001.143 1.118zM19.5 9.323c2.63 0 4.76-2.087 4.76-4.661C24.26 2.087 22.13 0 19.5 0s-4.76 2.087-4.76 4.662c0 2.574 2.13 4.661 4.76 4.661z"/></g><defs><clipPath id="clip0"><path fill="#fff" d="M0 0h39v38.188H0z"/></clipPath></defs></svg>