<svg width="39" height="39" fill="none" xmlns="http://www.w3.org/2000/svg"><g clip-path="url(#clip0)" fill="#EDE9DE"><path d="M18.003 11.84a9.533 9.533 0 00-.568.32v.948a5.236 5.236 0 01-1.074-.803 5.444 5.444 0 01-1.496-2.508c.171-.24.302-.507.388-.79h.859a4.061 4.061 0 001.212 2.3c.208.201.435.38.68.534zm7.719-2.958a5.26 5.26 0 01-.118.672 5.415 5.415 0 01-1.559 2.758L23.09 11.3a3.987 3.987 0 001.164-2.058 3.732 3.732 0 00.097-1.233l.506.506c.23.23.54.362.866.367zM12.149 30.75c-.066.68.347 1.314.995 1.53l13.999 5.095 3.973-1.341a.694.694 0 01.459.006l.651.236 2.37-6.513-4.351-1.583-9.232 1.628a1.391 1.391 0 00-1.062.892.761.761 0 00-.048.172.683.683 0 01-.012.07c-.03.157-.032.32-.003.478.14.748.855 1.246 1.605 1.119l7.8-1.376.24 1.366-7.802 1.378a2.783 2.783 0 01-3.211-2.248 2.985 2.985 0 01-.032-.382l-4.495-1.636a1.385 1.385 0 00-1.847 1.109h.003zm20.904 7.302l3.318-9.115 2.604.948L35.658 39l-2.605-.948zM21.566 4.39c.382.424.622.957.687 1.524l2.096 2.096a4.158 4.158 0 00-2.783-3.62z"/><path d="M25.75 8.882c.433.005.837-.215 1.069-.581.31-.54.208-1.224-.248-1.65l-5.637-5.637A3.442 3.442 0 0018.485 0h-7.147L6.623 2.022a.684.684 0 01-.273.057h-.693V7.62h.693c.382 0 .693.31.693.693 0 1.05 1.716 2.079 3.464 2.079s3.464-1.03 3.464-2.079c0-.383.31-.693.693-.693h4.85a1.386 1.386 0 000-2.771h-7.621V3.464h5.654a5.483 5.483 0 012.66-.693 5.549 5.549 0 015.542 5.543 5.43 5.43 0 01-.032.565c.01 0 .021.003.032.003zM.114 0h4.157v9.7H.114V0zm22.864 15.935v-3.773a6.496 6.496 0 00-2.771-1.077 5.441 5.441 0 00-2.195.752c.345.212.718.37 1.11.473a1.38 1.38 0 11-.195 1.393 5.442 5.442 0 01-1.492-.596v2.828c0 .383.31.693.693.693h4.157c.383 0 .693-.31.693-.693zm-2.771 8.925l.693-.346v-6.5h-1.386v6.5l.693.346z"/></g><defs><clipPath id="clip0"><path fill="#fff" d="M0 0h39v39H0z"/></clipPath></defs></svg>