<svg width="39" height="39" fill="none" xmlns="http://www.w3.org/2000/svg"><g clip-path="url(#clip0)" fill="#EDE9DE"><path d="M1.143 38.572H21.86c.631 0 1.143-.506 1.143-1.13v-1.206c0-1.248-1.023-2.26-2.285-2.26v-1.351c0-1.789-1.472-3.244-3.28-3.244H5.565c-1.81 0-3.28 1.455-3.28 3.244v1.351C1.022 33.976 0 34.988 0 36.236v1.205c0 .624.512 1.13 1.143 1.13zM14.3 24.886a2.302 2.302 0 003.2.445 2.244 2.244 0 00.45-3.165l-6.876-9.025a2.302 2.302 0 00-3.2-.445 2.244 2.244 0 00-.45 3.165l6.876 9.025zm16.425-12.241a2.302 2.302 0 003.2.445 2.243 2.243 0 00.45-3.165L27.499.9a2.302 2.302 0 00-3.2-.445 2.244 2.244 0 00-.45 3.166l6.876 9.024zm-5.012 6.565c1.689-1.258 2.956-2.821 3.75-4.467l-8.002-10.5c-1.818.3-3.686 1.074-5.375 2.333-1.689 1.259-2.957 2.821-3.75 4.467l8.001 10.501c1.818-.3 3.687-1.075 5.376-2.334zm3.085.295a15.327 15.327 0 01-1.71 1.51c-.618.46-1.272.852-1.94 1.21l1.49 1.955 3.65-2.72-1.49-1.955zm2.865 3.76l-3.65 2.72 6.877 9.025a2.302 2.302 0 003.2.445 2.244 2.244 0 00.45-3.165l-6.877-9.025z"/></g><defs><clipPath id="clip0"><path fill="#fff" d="M0 0h39v38.571H0z"/></clipPath></defs></svg>