<svg width="712" height="1000" fill="none" xmlns="http://www.w3.org/2000/svg"><path d="M587.757 49.633L630.71 0l-2.573 62.857 68.38-13.224-46.919 46.666 61.842 29.388-69.288 8.626 26.335 58.258-59.269-33.415-21.461 59.837-21.492-59.837-59.238 33.415 26.335-58.258-69.288-8.626 61.841-29.388-46.948-46.666 68.41 13.224L544.804 0l42.953 49.633zm47.797 352.192H531.395c-7.263-.014-14.225-2.612-19.364-7.227-5.138-4.614-8.036-10.869-8.06-17.398.024-6.532 2.921-12.79 8.059-17.409s12.099-7.223 19.365-7.244h104.159c7.269.014 14.235 2.616 19.374 7.236 5.14 4.62 8.035 10.883 8.051 17.417-.024 6.529-2.922 12.784-8.061 17.398-5.139 4.615-12.101 7.213-19.364 7.227z" fill="#FD5F31"/><path d="M529.155 404.408c-7.509-.015-14.707-2.703-20.017-7.476-5.31-4.773-8.3-11.243-8.316-17.994.016-6.75 3.006-13.22 8.316-17.993 5.31-4.774 12.508-7.462 20.017-7.476 7.509.014 14.707 2.702 20.016 7.476 5.31 4.773 8.301 11.243 8.317 17.993-.016 6.751-3.007 13.221-8.317 17.994-5.309 4.773-12.507 7.461-20.016 7.476z" fill="#EDE9DE"/><path d="M569.54 549.903l-25.166-23.697-79.063 67.848 25.165 23.697 79.064-67.848z" fill="#201E1D"/><path d="M542.048 618.806l26.362-22.622-75.475-71.073-26.362 22.622 75.475 71.073z" fill="#201E1D"/><path d="M70.505 34.912l10.14 16.68 18.525 9.116-18.525 9.116-10.14 16.653-10.14-16.653-18.556-9.116 18.555-9.116 10.14-16.68zm-9.959 573.417l10.14 16.653 18.556 9.115-18.555 9.116-10.14 16.68-10.141-16.68-18.525-9.116 18.525-9.115 10.14-16.653zm432.74 391.668H369.421c-4.402-.014-8.62-1.592-11.733-4.391-3.113-2.798-4.869-6.59-4.885-10.547.016-3.958 1.772-7.749 4.885-10.548 3.113-2.798 7.331-4.377 11.733-4.391h123.956c4.402.014 8.62 1.593 11.733 4.391 3.113 2.799 4.869 6.59 4.885 10.548-.016 3.971-1.785 7.775-4.917 10.576-3.133 2.801-7.374 4.365-11.792 4.362zM257.241 175.346h-1.483c-2.057 0-3.724 1.499-3.724 3.347V690.91c0 1.849 1.667 3.347 3.724 3.347h1.483c2.056 0 3.723-1.498 3.723-3.347V178.693c0-1.848-1.667-3.347-3.723-3.347zm-58.936 71.02c.558-4.052.72-8.14.484-12.217-.78-13.163-5.85-25.828-14.578-36.42-8.729-10.591-20.731-18.64-34.511-23.145-13.78-4.505-28.73-5.266-42.988-2.19-14.258 3.077-27.194 9.857-37.197 19.494-10.004 9.638-16.632 21.707-19.06 34.707-2.43 12.999-.55 26.353 5.402 38.399 5.952 12.047 15.715 22.253 28.072 29.348 12.358 7.095 26.764 10.766 41.425 10.555 3.867-.05 7.617 1.19 10.525 3.483 2.908 2.292 4.766 5.472 5.216 8.925.014.136.014.273 0 .408 1.098 7.254 4.227 14.139 9.093 20.009 4.867 5.869 11.311 10.532 18.73 13.551 7.419 3.019 15.57 4.296 23.687 3.709 8.118-.586 15.937-3.015 22.725-7.06 6.788-4.045 12.322-9.573 16.084-16.065 3.762-6.493 5.628-13.739 5.424-21.057-.204-7.318-2.472-14.471-6.591-20.786-4.119-6.315-9.954-11.587-16.959-15.321-5.298-2.893-9.54-7.117-12.202-12.15-2.662-5.033-3.629-10.656-2.781-16.177z" fill="#EDE9DE"/><path d="M317.962 131.101a75.314 75.314 0 009.414-10.313c9.018-11.919 13.937-25.959 14.143-40.372.207-14.413-4.307-28.563-12.98-40.687-8.674-12.124-21.123-21.686-35.797-27.497-14.675-5.81-30.926-7.612-46.732-5.18-15.805 2.432-30.465 8.989-42.155 18.856-11.69 9.866-19.893 22.606-23.587 36.633-3.695 14.026-2.718 28.72 2.809 42.251 5.527 13.531 15.36 25.302 28.274 33.847 3.402 2.263 5.749 5.581 6.588 9.31.839 3.73.109 7.606-2.048 10.88a2.771 2.771 0 01-.242.408c-4.369 6.973-6.698 14.828-6.769 22.831-.071 8.003 2.118 15.891 6.362 22.925 4.245 7.035 10.405 12.987 17.906 17.298 7.5 4.311 16.095 6.84 24.979 7.351 8.885.511 17.768-1.013 25.819-4.429 8.05-3.416 15.005-8.613 20.212-15.104 5.207-6.491 8.497-14.064 9.561-22.009 1.064-7.946-.132-16.004-3.476-23.421-2.477-5.666-3.065-11.858-1.695-17.821 1.371-5.962 4.642-11.437 9.414-15.757zm4.268 112.978a58.222 58.222 0 01-.484-12.19c.774-12.507 5.429-24.569 13.437-34.82 8.008-10.251 19.049-18.281 31.873-23.182 12.824-4.9 26.918-6.474 40.686-4.544 13.768 1.93 26.66 7.287 37.215 15.464 10.555 8.178 18.352 18.849 22.508 30.805 4.156 11.956 4.504 24.72 1.006 36.845-3.498 12.125-10.704 23.127-20.8 31.76-10.097 8.633-22.68 14.552-36.326 17.087a84.838 84.838 0 01-16.165 1.388c-3.87-.052-7.624 1.188-10.537 3.48-2.912 2.292-4.777 5.472-5.233 8.928v.381c-1.116 7.251-4.262 14.128-9.142 19.988-4.88 5.86-11.336 10.51-18.761 13.514-7.425 3.005-15.578 4.265-23.693 3.664-8.116-.601-15.929-3.045-22.707-7.102-6.777-4.057-12.299-9.594-16.046-16.093-3.747-6.499-5.597-13.747-5.378-21.064.22-7.317 2.503-14.465 6.635-20.772 4.132-6.308 9.977-11.57 16.989-15.292 5.263-2.902 9.476-7.117 12.125-12.131 2.649-5.014 3.621-10.612 2.798-16.114zm-16.225 177.742a49.16 49.16 0 01-.364-9.469c.619-10.215 4.565-20.041 11.348-28.255 6.783-8.214 16.103-14.454 26.8-17.944 10.698-3.489 22.3-4.074 33.365-1.682 11.064 2.392 21.102 7.657 28.864 15.138 7.761 7.481 12.905 16.848 14.791 26.937 1.885 10.088.429 20.452-4.188 29.803-4.616 9.35-12.189 17.274-21.776 22.785-9.588 5.511-20.766 8.367-32.145 8.211-3.01-.052-5.933.906-8.2 2.687-2.266 1.781-3.713 4.257-4.059 6.946v.326c-.877 5.625-3.328 10.958-7.122 15.501-3.794 4.542-8.808 8.144-14.572 10.471-5.765 2.326-12.091 3.3-18.388 2.83-6.297-.47-12.359-2.369-17.618-5.518-5.258-3.149-9.543-7.446-12.451-12.488-2.909-5.043-4.347-10.666-4.181-16.344.167-5.678 1.934-11.226 5.135-16.123 3.2-4.897 7.731-8.985 13.167-11.88 4.096-2.246 7.374-5.517 9.433-9.413 2.059-3.895 2.81-8.246 2.161-12.519zm-96.622 0c1.505-10.548-.613-21.258-6.07-30.693-5.456-9.436-13.991-17.147-24.459-22.1-10.469-4.953-22.371-6.912-34.113-5.613-11.741 1.299-22.761 5.792-31.581 12.879-8.821 7.086-15.022 16.427-17.771 26.77-2.75 10.343-1.917 21.195 2.387 31.1 4.303 9.906 11.872 18.393 21.692 24.323 9.82 5.931 21.421 9.021 33.25 8.858 2.984-.018 5.87.955 8.105 2.733 2.234 1.778 3.66 4.235 4.003 6.899v.327c.901 5.604 3.364 10.912 7.16 15.431 3.796 4.519 8.801 8.101 14.551 10.414 5.749 2.313 12.056 3.281 18.333 2.815 6.278-.466 12.322-2.351 17.571-5.481 5.249-3.13 9.533-7.402 12.452-12.419 2.92-5.018 4.381-10.617 4.246-16.278-.134-5.662-1.858-11.2-5.012-16.101-3.155-4.901-7.637-9.006-13.029-11.932-4.112-2.237-7.411-5.503-9.491-9.398-2.08-3.895-2.853-8.25-2.224-12.534zM309.426 551.13a33.093 33.093 0 011.876-5.796c2.523-5.748 6.785-10.746 12.305-14.429 5.52-3.682 12.077-5.902 18.928-6.407 6.851-.505 13.722.725 19.836 3.55 6.113 2.825 11.224 7.133 14.755 12.435 3.53 5.302 5.338 11.386 5.219 17.565-.118 6.178-2.159 12.203-5.891 17.392s-9.006 9.336-15.224 11.969c-6.219 2.634-13.133 3.649-19.96 2.932a41.28 41.28 0 01-7.81-1.606 8.562 8.562 0 00-5.531.158c-1.76.663-3.185 1.885-4.004 3.434v.191c-1.777 3.23-4.437 6.003-7.73 8.058-3.293 2.056-7.113 3.326-11.101 3.694a26.118 26.118 0 01-11.704-1.594c-3.688-1.412-6.918-3.643-9.387-6.482-2.468-2.84-4.095-6.196-4.728-9.755a19.287 19.287 0 011.108-10.594c1.361-3.39 3.656-6.415 6.67-8.791 3.015-2.376 6.65-4.026 10.567-4.795 2.952-.634 5.637-2.022 7.732-3.997 2.094-1.974 3.509-4.451 4.074-7.132zm-114.088 3.129c-1.71-7.823-5.923-15.028-12.12-20.731-6.198-5.703-14.111-9.657-22.771-11.378-8.66-1.72-17.69-1.133-25.984 1.691s-15.492 7.761-20.711 14.207c-5.22 6.446-8.234 14.12-8.674 22.083-.44 7.963 1.713 15.868 6.196 22.747 4.484 6.88 11.102 12.434 19.044 15.982 7.942 3.549 16.863 4.938 25.67 3.997a51.341 51.341 0 009.656-2.013 10.597 10.597 0 016.852.202c2.178.823 3.942 2.34 4.953 4.26v.245c2.203 4.002 5.499 7.435 9.58 9.98 4.081 2.545 8.814 4.117 13.755 4.57 4.941.454 9.929-.227 14.497-1.979 4.569-1.751 8.569-4.515 11.625-8.034 3.057-3.519 5.071-7.678 5.853-12.087.783-4.409.308-8.924-1.379-13.123-1.687-4.2-4.532-7.946-8.267-10.888-3.736-2.942-8.241-4.984-13.094-5.935-3.668-.778-7.008-2.495-9.614-4.943-2.605-2.449-4.365-5.524-5.067-8.853z" fill="#EDE9DE"/><path d="M120.481 225.386s132.794 122.802 136.578 193.197m-112.544-12.408s107.489 69.334 111.303 139.837" stroke="#EDE9DE" stroke-width="2.51" stroke-linecap="round" stroke-linejoin="round"/><path d="M154.505 552.843s95.29 66.531 98.65 134.15" stroke="#EDE9DE" stroke-width="2.31" stroke-linecap="round" stroke-linejoin="round"/><path d="M393.636 226.529S260.842 349.304 257.028 419.726m112.605-12.436S262.144 476.651 258.33 547.154" stroke="#EDE9DE" stroke-width="2.51" stroke-linecap="round" stroke-linejoin="round"/><path d="M359.522 553.985s-95.29 66.53-98.65 134.149" stroke="#EDE9DE" stroke-width="2.31" stroke-linecap="round" stroke-linejoin="round"/><path d="M309.485 708.024h-97.469c-5.109-.014-10.004-1.845-13.616-5.093-3.613-3.247-5.65-7.648-5.666-12.24.008-4.598 2.041-9.005 5.655-12.259 3.613-3.253 8.513-5.088 13.627-5.102h97.469c5.112.022 10.007 1.858 13.619 5.11 3.612 3.252 5.647 7.655 5.663 12.251-.016 4.592-2.052 8.993-5.665 12.24-3.612 3.248-8.508 5.079-13.617 5.093z" fill="#FD5F31"/><path d="M365.334 780.109c0-50.9-45.902-92.163-102.524-92.163-56.623 0-102.524 41.263-102.524 92.163s45.901 92.163 102.524 92.163c56.622 0 102.524-41.263 102.524-92.163z" fill="#FD5F31"/><path d="M434.531 925.605c.021 26.111-7.6 51.768-22.097 74.394H122.357c-18.831-29.545-25.923-63.97-20.109-97.618 5.813-33.649 24.186-64.518 52.099-87.537 27.914-23.019 63.707-36.819 101.5-39.13 37.792-2.312 75.335 7.001 106.46 26.408 26.596 16.541 47.313 39.634 59.662 66.503 8.304 18.069 12.572 37.43 12.562 56.98z" fill="#FD5F31"/><path d="M440.433 868.595c-23.128-.058-45.291-8.34-61.648-23.039-16.357-14.699-25.578-34.619-25.65-55.41.072-20.794 9.292-40.717 25.648-55.42 16.356-14.703 38.519-22.992 61.65-23.056v0c23.128.064 45.288 8.354 61.639 23.058 16.352 14.704 25.565 34.627 25.629 55.418v0c-.064 20.788-9.278 40.709-25.63 55.408-16.353 14.7-38.512 22.983-61.638 23.041v0zm-347.135 0c23.126-.058 45.286-8.341 61.638-23.041 16.352-14.699 25.567-34.62 25.631-55.408v0c-.064-20.791-9.278-40.714-25.629-55.418-16.352-14.704-38.511-22.994-61.64-23.058-23.13.064-45.293 8.353-61.65 23.056C15.292 749.429 6.072 769.352 6 790.146v0c.072 20.791 9.293 40.711 25.65 55.41 16.357 14.699 38.52 22.981 61.648 23.039v0z" stroke="#FD5F31" stroke-width="11.07" stroke-linecap="round" stroke-linejoin="round"/><path d="M434.532 925.606c.021 26.111-7.6 51.767-22.097 74.394H122.358c-11.712-18.306-18.973-38.635-21.306-59.648-2.332-21.013.318-42.232 7.776-62.257l43.346 105.497 56.181-125.497 6.69-15.047 8.929 22.313 45.89 114.557 59.177-129.659 5.812-12.681 2.149 5.932 46.555 127.293 38.383-102.177c8.314 18.067 12.593 37.428 12.592 56.98z" fill="#201E1D"/><path d="M263.809 776.842c33.519 0 60.691-9.575 60.691-21.387 0-11.813-27.172-21.388-60.691-21.388-33.519 0-60.691 9.575-60.691 21.388 0 11.812 27.172 21.387 60.691 21.387zm2.391 64.872c33.519 0 60.691-9.576 60.691-21.388 0-11.812-27.172-21.388-60.691-21.388-33.519 0-60.691 9.576-60.691 21.388 0 11.812 27.172 21.388 60.691 21.388z" fill="#EDE9DE"/><path d="M286.148 756.325c0 3.767-1.242 7.45-3.571 10.582-2.328 3.133-5.637 5.574-9.509 7.016a23.415 23.415 0 01-12.242 1.084c-4.111-.735-7.886-2.55-10.849-5.213-2.964-2.664-4.982-6.058-5.799-9.753-.818-3.695-.398-7.525 1.205-11.005 1.604-3.481 4.32-6.456 7.805-8.549 3.484-2.093 7.581-3.21 11.771-3.21 5.62 0 11.01 2.007 14.983 5.579 3.974 3.572 6.206 8.417 6.206 13.469zm2.028 63.917c0 3.767-1.243 7.45-3.571 10.582-2.329 3.133-5.638 5.574-9.51 7.016a23.414 23.414 0 01-12.242 1.084c-4.11-.735-7.886-2.549-10.849-5.213s-4.981-6.058-5.799-9.753c-.818-3.695-.398-7.525 1.206-11.005 1.604-3.481 4.319-6.455 7.804-8.548 3.484-2.093 7.581-3.211 11.772-3.211 5.619 0 11.009 2.007 14.983 5.579 3.973 3.573 6.206 8.417 6.206 13.469z" fill="#FD5F31"/></svg>