<svg width="423" height="544" fill="none" xmlns="http://www.w3.org/2000/svg"><path d="M194.854 114.844C194.854 51.843 245.926.771 308.927.771 371.928.77 423 51.843 423 114.844v428.385H194.854V114.844z" fill="#201E1D"/><path d="M15.68 161.61l4.643-5.157a12.53 12.53 0 0118.154-.47l2.735 2.726a6.555 6.555 0 004.647 1.927 6.562 6.562 0 004.648-1.927l2.613-2.613a11.588 11.588 0 0116.394 0l2.614 2.613a4.814 4.814 0 006.812 0l3.92-3.928a10.664 10.664 0 0114.808-.279c4.356 4.033 5.776 6.864 4.582 6.864m196.539 76.901l4.643-5.156a12.517 12.517 0 018.976-4.131 12.531 12.531 0 019.178 3.66l2.735 2.727a6.576 6.576 0 004.648 1.926 6.576 6.576 0 004.647-1.926l2.613-2.614a11.602 11.602 0 018.197-3.398 11.585 11.585 0 018.198 3.398l2.613 2.614a4.816 4.816 0 006.812 0l3.92-3.929a10.663 10.663 0 0114.809-.279c4.355 4.033 5.775 6.865 4.582 6.865" stroke="#EDE9DE" stroke-width="2" stroke-linecap="round" stroke-linejoin="round"/><path d="M239.284 74.991H58.364a6.097 6.097 0 110-12.195h180.92a6.1 6.1 0 016.098 6.098 6.1 6.1 0 01-6.098 6.097z" fill="#EDE9DE"/><path d="M239.284 62.813H91.423V75.01h147.861a6.1 6.1 0 006.098-6.098 6.1 6.1 0 00-6.098-6.098z" fill="#201E1D"/><path d="M239.284 62.813H144.49V75.01h94.794a6.1 6.1 0 006.098-6.098 6.1 6.1 0 00-6.098-6.098z" fill="#FD5F31"/><path d="M239.284 62.813h-42.597V75.01h42.597a6.1 6.1 0 006.098-6.098 6.1 6.1 0 00-6.098-6.098z" fill="#EDE9DE"/><path d="M253.779 461.849v-.488a22.02 22.02 0 0144.043 0v.488h12.518v-.488a34.522 34.522 0 00-69.044 0v.488h12.483z" fill="#FD5F31"/><path d="M259.842 454.227a5.981 5.981 0 01-3.694 5.529 5.985 5.985 0 113.694-5.529zm12.509-6.638a5.985 5.985 0 100-11.97 5.985 5.985 0 000 11.97zm-9.033-15.549a5.99 5.99 0 01-3.691 5.536 5.987 5.987 0 01-6.525-1.296 5.98 5.98 0 01.912-9.211 5.981 5.981 0 017.551.748 5.988 5.988 0 011.753 4.223zm21.054.749a5.984 5.984 0 100-11.969 5.985 5.985 0 000 11.969zm14.722 19.373a5.984 5.984 0 11-5.976-5.984 5.97 5.97 0 014.229 1.753 5.983 5.983 0 011.747 4.231zm7.901-4.146a5.984 5.984 0 000-11.969 5.985 5.985 0 100 11.969zM54.113 411.965c0 1.096-6.533 1.984-14.59 1.984-8.058 0-14.595-.888-14.595-1.984 0-1.095 6.534-1.984 14.594-1.984 8.061 0 14.591.889 14.591 1.984z" fill="#EDE9DE"/><path d="M41.502 400.87c2.013-8.529-3.27-17.076-11.799-19.089-8.53-2.013-17.076 3.269-19.089 11.799-2.013 8.529 3.27 17.076 11.799 19.089 8.53 2.013 17.076-3.269 19.09-11.799z" fill="#FD5F31"/><path d="M17.198 410.394a15.867 15.867 0 0023.053-20.263c-10.85 2.13-18.143 10.57-23.053 20.263z" fill="#201E1D"/><path d="M217.408 143.861h61.848" stroke="#EDE9DE" stroke-width="5.66" stroke-linecap="round" stroke-linejoin="round"/><path d="M379.234 468.731H72.87c-2 0-3.916-.505-5.33-1.403-1.413-.899-2.207-2.118-2.207-3.388 0-1.271.794-2.49 2.207-3.388 1.414-.899 3.33-1.403 5.33-1.403h306.364c1.999 0 3.916.504 5.329 1.403 1.414.898 2.208 2.117 2.208 3.388 0 1.27-.794 2.489-2.208 3.388-1.413.898-3.33 1.403-5.329 1.403z" fill="#FD5F31"/><path d="M231.236 112.918L65.51 462.031M294.199 115.12L128.497 464.233m71.867-285.025h61.848m-80.706 38.674h61.887m-78.63 37.548h61.849m-79.28 37.573h61.848m-81.506 38.65h61.849m-84.119 48.628h61.848" stroke="#EDE9DE" stroke-width="5.66" stroke-linecap="round" stroke-linejoin="round"/><path d="M83.626 426.661h60.978" stroke="#EDE9DE" stroke-width="6.6" stroke-linecap="round" stroke-linejoin="round"/><path d="M83.333 336.176a10.305 10.305 0 11-20.61 0 10.305 10.305 0 0120.61 0z" fill="#201E1D"/><path d="M313.384 286.223a10.301 10.301 0 01-6.362 9.522 10.306 10.306 0 116.362-9.522z" fill="#EDE9DE"/><path d="M338.061 64.173l11.218-14.444-.672 18.293 17.859-3.849-12.254 13.581 16.151 8.553-18.096 2.51 6.878 16.955-15.479-9.725-5.605 17.414-5.613-17.414-15.472 9.725 6.878-16.955-18.096-2.51 16.151-8.553-12.261-13.58 17.866 3.848-.672-18.293 11.219 14.444zm-318.897 194.4l6.656-8.49-.399 10.752 10.595-2.262-7.27 7.982 9.583 5.026-10.736 1.476 4.08 9.965-9.183-5.716-3.326 10.235-3.33-10.235-9.179 5.716 4.081-9.965L0 271.581l9.582-5.026-7.274-7.982 10.6 2.262-.4-10.752 6.656 8.49zM213.925 115.07l-9.097-9.528-28.578 27.281 9.096 9.529 28.579-27.282z" fill="#FD5F31"/><path d="M283.537 220.229l3.657-6.681 6.681-3.657-6.681-3.657-3.657-6.692-3.657 6.692-6.692 3.657 6.692 3.657 3.657 6.681z" fill="#8E7C77"/><path d="M210.704 384.015l3.657-6.682 6.681-3.657-6.681-3.657-3.657-6.692-3.658 6.692-6.692 3.657 6.692 3.657 3.658 6.682zm-62.72-155.928l3.657-6.681 6.681-3.658-6.681-3.657-3.657-6.692-3.657 6.692-6.692 3.657 6.692 3.658 3.657 6.681zm156.393 135.154c0 1.972-11.76 3.572-26.263 3.572-14.504 0-26.269-1.6-26.269-3.572s11.76-3.571 26.269-3.571c14.509 0 26.263 1.599 26.263 3.571z" fill="#EDE9DE"/><path d="M281.677 343.271c3.624-15.353-5.884-30.737-21.237-34.36-15.353-3.624-30.737 5.885-34.36 21.238-3.624 15.352 5.885 30.736 21.237 34.36 15.353 3.623 30.737-5.885 34.36-21.238z" fill="#FD5F31"/><path d="M237.931 360.414a28.559 28.559 0 0034.805-2.242 28.559 28.559 0 006.689-34.231c-19.531 3.833-32.657 19.025-41.494 36.473z" fill="#8E7C77"/><path d="M375.58 270.044l-9.076-9.507-28.515 27.221 9.076 9.507 28.515-27.221zM186.782 404.269l-9.076 9.508 28.514 27.221 9.077-9.508-28.515-27.221zm135.021-241.296l-9.076 9.507 28.515 27.221 9.076-9.507-28.515-27.221zM83.12 259.666l-9.076 9.507 28.515 27.221 9.076-9.508-28.515-27.22z" fill="#FD5F31"/><path d="M354.071 404.351l-46.01-23.456" stroke="#8E7C77" stroke-width="2" stroke-linecap="round" stroke-linejoin="round"/><path d="M114.046 183.008l-36.518 36.518m34.776-18.224l-36.518 36.517" stroke="#201E1D" stroke-width="2" stroke-linecap="round" stroke-linejoin="round"/><path d="M336.134 408.343l-46.01-23.456" stroke="#8E7C77" stroke-width="2" stroke-linecap="round" stroke-linejoin="round"/></svg>