<svg width="364" height="620" fill="none" xmlns="http://www.w3.org/2000/svg"><path d="M313.039 344.384H163v284.889h150.039V344.384z" fill="#8E7C77"/><path d="M313.039 344.384H163v284.889h150.039V344.384z" fill="#8E7C77"/><path d="M266.105 416.904c38.523-15.447 57.23-59.198 41.783-97.722-15.447-38.523-59.199-57.23-97.722-41.782-38.523 15.447-57.23 59.198-41.783 97.722 15.447 38.523 59.199 57.229 97.722 41.782z" fill="#EDE9DE"/><path d="M240.071 271.944h-1.882a75.152 75.152 0 100 150.284h1.882V271.944z" fill="#EDE9DE"/><path d="M318.271 395.35c-2.296 19.987-24.617 28.231-40.031 36.324-17.447 9.184-36.004 20.552-43.288 39.975-5.251 14.096-2.24 31.016 10.37 40.107 8.488 6.098 19.103 8.206 29.191 10.935a66.348 66.348 0 0122.905 10.859c12.441 9.599 12.328 22.848 4.084 35.327-7.359 11.16-19.837 19.216-24.203 32.334-3.52 10.539-1.882 23.601 6.926 30.508" stroke="#EDE9DE" stroke-width="5.78" stroke-linecap="round" stroke-linejoin="round"/><path d="M156.018 385.977a75.28 75.28 0 0123.787 92.431 75.284 75.284 0 01-21.039 26.911m-20.59 47.636c8.733-5.006 17.541-10.031 27.121-13.061 9.579-3.03 20.157-3.877 29.623-.508 13.175 4.667 22.472 17.108 25.71 30.621 3.237 13.513.941 27.873-3.972 40.878-4.912 13.006-12.327 24.863-19.705 36.626" stroke="#EDE9DE" stroke-width="5.38" stroke-linecap="round" stroke-linejoin="round"/><path d="M168.064 433.801H65.114v195.472h102.95V433.801z" fill="#201E1D"/><path d="M116.702 487.233c28.501 0 51.606-23.105 51.606-51.607 0-28.501-23.105-51.606-51.606-51.606s-51.606 23.105-51.606 51.606c0 28.502 23.105 51.607 51.606 51.607z" fill="#EDE9DE"/><path d="M118.038 384.058h-1.317a51.607 51.607 0 100 103.212h1.317V384.058z" fill="#EDE9DE"/><path d="M112.564 506.129l-20.588 20.588 6.72 6.72 20.589-20.587-6.721-6.721zm21.516 83.268l-20.588 20.588 6.72 6.721 20.588-20.588-6.72-6.721z" fill="#201E1D"/><path d="M132.311 566.333l-17.865-22.99-7.505 5.832 17.865 22.99 7.505-5.832zm-38.737 28.12l-20.588 20.588 6.72 6.72 20.588-20.588-6.72-6.72z" fill="#EDE9DE"/><path d="M166.178 527.099l-20.588 20.588 6.721 6.721 20.588-20.588-6.721-6.721zm2.723-54.203l-20.588 20.588 6.72 6.721 20.588-20.588-6.72-6.721z" fill="#201E1D"/><path d="M86.125 496.69L68.26 473.7l-7.505 5.832 17.865 22.99 7.505-5.832zm91.794 125.04l-17.866-22.991-7.505 5.832 17.866 22.991 7.505-5.832zM77.727 547.324l-19.152 21.931 7.16 6.252 19.15-21.931-7.158-6.252z" fill="#EDE9DE"/><path d="M257.61 386.872c22.621-9.541 33.224-35.615 23.683-58.236-9.542-22.622-35.616-33.225-58.237-23.683-22.622 9.541-33.225 35.615-23.683 58.236 9.542 22.622 35.615 33.225 58.237 23.683z" stroke="#EDE9DE" stroke-width=".72" stroke-miterlimit="10"/><path d="M116.702 467.603c16.808 0 30.433-13.625 30.433-30.433s-13.625-30.433-30.433-30.433-30.433 13.625-30.433 30.433 13.625 30.433 30.433 30.433z" stroke="#EDE9DE" stroke-width=".49" stroke-miterlimit="10"/><path d="M241.935 270.476c18.668 0 33.802-15.134 33.802-33.802 0-18.669-15.134-33.802-33.802-33.802-18.669 0-33.802 15.133-33.802 33.802 0 18.668 15.133 33.802 33.802 33.802z" fill="#201E1D"/><path d="M117.417 383.211c18.668 0 33.802-15.133 33.802-33.802 0-18.668-15.134-33.802-33.802-33.802s-33.802 15.134-33.802 33.802c0 18.669 15.134 33.802 33.802 33.802z" fill="#8E7C77"/><path d="M138.058 311.178c30.01-13.249 43.599-48.317 30.35-78.327-13.249-30.011-48.317-43.599-78.328-30.35-30.01 13.249-43.598 48.317-30.35 78.327 13.25 30.011 48.318 43.599 78.328 30.35z" fill="#EDE9DE"/><path d="M272.33 195.586c40.835-16.773 60.341-63.473 43.569-104.307-16.773-40.835-63.473-60.341-104.307-43.569-40.835 16.773-60.341 63.473-43.569 104.307 16.773 40.835 63.473 60.341 104.307 43.569z" fill="#201E1D"/><path d="M243.045 200.819c29.739 0 53.846-35.82 53.846-80.007 0-44.186-24.107-80.007-53.846-80.007-29.738 0-53.846 35.82-53.846 80.007 0 44.187 24.108 80.007 53.846 80.007z" stroke="#201E1D" stroke-width="1.84" stroke-linecap="round" stroke-linejoin="round"/><path d="M241.935 41.652v159.845" stroke="#EDE9DE" stroke-width="1.79" stroke-linecap="round" stroke-linejoin="round"/><path d="M243.459 202.495c14.407 0 26.086-35.82 26.086-80.007 0-44.186-11.679-80.007-26.086-80.007-14.406 0-26.085 35.82-26.085 80.007 0 44.187 11.679 80.007 26.085 80.007z" stroke="#EDE9DE" stroke-width="1.84" stroke-linecap="round" stroke-linejoin="round"/><path d="M243.045 200.819c29.739 0 53.846-35.82 53.846-80.007 0-44.186-24.107-80.007-53.846-80.007-29.738 0-53.846 35.82-53.846 80.007 0 44.187 24.108 80.007 53.846 80.007z" stroke="#EDE9DE" stroke-width="1.84" stroke-linecap="round" stroke-linejoin="round"/><path d="M113.502 200.444v118.251" stroke="#FD5F31" stroke-width="1.32" stroke-linecap="round" stroke-linejoin="round"/><path d="M114.631 319.447c10.654 0 19.291-26.501 19.291-59.191 0-32.691-8.637-59.192-19.291-59.192S95.34 227.565 95.34 260.256c0 32.69 8.637 59.191 19.291 59.191z" stroke="#FD5F31" stroke-width="1.36" stroke-linecap="round" stroke-linejoin="round"/><path d="M114.33 318.185c22.005 0 39.844-26.501 39.844-59.191s-17.839-59.191-39.844-59.191c-22.004 0-39.843 26.501-39.843 59.191s17.839 59.191 39.843 59.191z" stroke="#FD5F31" stroke-width="1.36" stroke-linecap="round" stroke-linejoin="round"/><path d="M55.647 109.445c29.947 0 54.223-24.276 54.223-54.222C109.87 25.275 85.594 1 55.647 1 25.701 1 1.425 25.276 1.425 55.222c0 29.947 24.276 54.223 54.222 54.223z" stroke="#EDE9DE" stroke-width=".86" stroke-miterlimit="10"/><path d="M363.366 185.367a5.324 5.324 0 01-10.55 1.039 5.322 5.322 0 012.265-5.467 5.326 5.326 0 018.285 4.428zm-24.862 52.415a9.413 9.413 0 01-11.247 9.23 9.41 9.41 0 1111.247-9.23z" fill="#EDE9DE"/><path d="M231.771 346.286a7.53 7.53 0 01-4.647 6.955 7.528 7.528 0 114.647-6.955zm31.356-.585a7.532 7.532 0 01-4.647 6.955 7.533 7.533 0 01-8.205-1.632 7.534 7.534 0 01-1.632-8.204 7.53 7.53 0 0112.279-2.442 7.528 7.528 0 012.205 5.323z" fill="#201E1D"/><path d="M232.939 364.164s7.829 5.646 13.927.433" stroke="#8E7C77" stroke-width="6.6" stroke-linecap="round" stroke-linejoin="round"/><path d="M232.939 364.164s7.829 5.646 13.927.433" stroke="#FD5F31" stroke-width="1.84" stroke-linecap="round" stroke-linejoin="round"/><path d="M117.548 128.229a7.107 7.107 0 01-4.383 6.588 7.11 7.11 0 01-7.761-1.538 7.12 7.12 0 01-1.539-7.762 7.113 7.113 0 016.588-4.383 7.092 7.092 0 017.095 7.095z" fill="#201E1D"/></svg>