<svg width="339" height="494" fill="none" xmlns="http://www.w3.org/2000/svg"><path d="M159.408 94.132h61.848" stroke="#EDE9DE" stroke-width="5.66" stroke-linecap="round" stroke-linejoin="round"/><path d="M321.234 419.002H14.87c-2 0-3.916-.505-5.33-1.404-1.413-.898-2.207-2.117-2.207-3.387 0-1.271.794-2.49 2.207-3.388 1.414-.899 3.33-1.404 5.33-1.404h306.364c1.999 0 3.916.505 5.329 1.404 1.414.898 2.208 2.117 2.208 3.388 0 1.27-.794 2.489-2.208 3.387-1.413.899-3.33 1.404-5.329 1.404z" fill="#FD5F31"/><path d="M173.236 63.189L7.51 412.302M236.199 65.39L70.497 414.504m71.867-285.025h61.848m-80.706 38.673h61.887m-78.63 37.549h61.849m-79.28 37.573h61.848m-81.506 38.65h61.849m-84.119 48.628h61.848" stroke="#EDE9DE" stroke-width="5.66" stroke-linecap="round" stroke-linejoin="round"/><path d="M25.626 376.932h60.977" stroke="#EDE9DE" stroke-width="6.6" stroke-linecap="round" stroke-linejoin="round"/><path d="M25.333 286.447a10.308 10.308 0 01-20.415 2.011 10.306 10.306 0 1120.415-2.011z" fill="#201E1D"/><path d="M255.384 236.494a10.301 10.301 0 01-6.362 9.522 10.311 10.311 0 01-14.053-7.511 10.305 10.305 0 0117.396-9.299 10.316 10.316 0 013.019 7.288z" fill="#EDE9DE"/><path d="M280.061 14.444L291.279 0l-.672 18.293 17.859-3.849-12.254 13.581 16.151 8.553-18.096 2.51 6.878 16.955-15.479-9.725-5.605 17.414-5.613-17.414-15.472 9.725 6.878-16.955-18.096-2.51 16.151-8.553-12.261-13.58 17.866 3.848L268.842 0l11.219 14.444zM155.925 65.341l-9.097-9.528-28.578 27.28 9.096 9.53 28.579-27.282z" fill="#FD5F31"/><path d="M225.537 170.5l3.657-6.681 6.681-3.657-6.681-3.657-3.657-6.692-3.657 6.692-6.692 3.657 6.692 3.657 3.657 6.681z" fill="#8E7C77"/><path d="M152.704 334.286l3.657-6.682 6.681-3.657-6.681-3.657-3.657-6.692-3.658 6.692-6.692 3.657 6.692 3.657 3.658 6.682zm-62.72-155.928l3.657-6.682 6.681-3.657-6.68-3.657-3.658-6.692-3.657 6.692-6.692 3.657 6.692 3.657 3.657 6.682zm156.393 135.154c0 1.972-11.76 3.572-26.263 3.572-14.504 0-26.269-1.6-26.269-3.572s11.76-3.571 26.269-3.571c14.509 0 26.263 1.599 26.263 3.571z" fill="#EDE9DE"/><path d="M223.677 293.542c3.624-15.353-5.884-30.737-21.237-34.36-15.353-3.624-30.737 5.885-34.36 21.237-3.624 15.353 5.885 30.737 21.237 34.36 15.353 3.624 30.737-5.884 34.36-21.237z" fill="#FD5F31"/><path d="M179.931 310.685a28.559 28.559 0 0034.805-2.242 28.559 28.559 0 006.689-34.231c-19.531 3.833-32.657 19.025-41.494 36.473z" fill="#8E7C77"/><path d="M151 459.199L158.988 449l-.479 12.916 12.716-2.717-8.725 9.589 11.5 6.039-12.885 1.772 4.897 11.972-11.021-6.867L151 494l-3.997-12.296-11.015 6.867 4.897-11.972L128 474.827l11.5-6.039-8.731-9.589 12.722 2.717-.479-12.916L151 459.199z" fill="#EDE9DE"/><path d="M215.291 410v.558a25.21 25.21 0 1050.421 0V410h14.331v.558a39.52 39.52 0 01-39.522 39.522A39.52 39.52 0 01201 410.558V410h14.291z" fill="#FD5F31"/><path d="M222.232 418.726a6.848 6.848 0 00-4.23-6.33 6.857 6.857 0 00-7.466 1.485 6.853 6.853 0 001.038 10.542 6.857 6.857 0 008.651-.853 6.848 6.848 0 002.007-4.844zm14.32 7.599a6.851 6.851 0 110 13.703 6.851 6.851 0 010-13.703zm-10.341 17.801a6.851 6.851 0 10-13.702-.018 6.851 6.851 0 0013.702.018zm24.103-.857a6.851 6.851 0 11.001 13.703 6.851 6.851 0 01-.001-13.703zm16.854-22.18a6.853 6.853 0 00-4.231-6.33 6.856 6.856 0 00-7.468 1.49 6.852 6.852 0 1011.699 4.84zm9.045 4.748a6.85 6.85 0 110 13.702 6.851 6.851 0 010-13.702zm61.931 57.992c0 1.096-6.533 1.985-14.591 1.985-8.057 0-14.593-.889-14.593-1.985 0-1.095 6.533-1.984 14.593-1.984 8.061 0 14.591.889 14.591 1.984z" fill="#EDE9DE"/><path d="M325.533 472.734c2.013-8.529-3.269-17.076-11.799-19.089-8.529-2.013-17.076 3.27-19.089 11.799-2.013 8.53 3.27 17.076 11.799 19.089 8.53 2.013 17.076-3.269 19.089-11.799z" fill="#FD5F31"/><path d="M301.229 482.259a15.872 15.872 0 0019.337-1.246 15.87 15.87 0 003.716-19.017c-10.851 2.129-18.143 10.569-23.053 20.263z" fill="#201E1D"/></svg>