<svg width="301" height="465" fill="none" xmlns="http://www.w3.org/2000/svg"><path d="M249.179 23.08L267.134 0l-1.076 29.229 28.583-6.15-19.612 21.7 25.85 13.665-28.963 4.011 11.009 27.09-24.775-15.537-8.971 27.824-8.984-27.824-24.762 15.538 11.008-27.09-28.962-4.012 25.85-13.665-19.625-21.7 28.596 6.15L231.224 0l17.955 23.08zm19.979 163.768h-43.539a11.488 11.488 0 01-11.464-11.451 11.502 11.502 0 0111.464-11.463h43.539a11.486 11.486 0 0111.464 11.463 11.492 11.492 0 01-11.464 11.451z" fill="#FD5F31"/><path d="M224.683 188.05a11.875 11.875 0 01-8.368-3.476 11.874 11.874 0 01-3.476-8.367 11.875 11.875 0 013.476-8.368 11.875 11.875 0 018.368-3.476 11.873 11.873 0 018.367 3.476 11.875 11.875 0 013.476 8.368 11.874 11.874 0 01-3.476 8.367 11.873 11.873 0 01-8.367 3.476z" fill="#EDE9DE"/><path d="M241.564 255.705l-10.519-11.019-33.049 31.549 10.519 11.019 33.049-31.549z" fill="#8E7C77"/><path d="M230.072 287.745l11.019-10.519-31.549-33.049-11.019 10.519 31.549 33.049z" fill="#8E7C77"/><path d="M32.964 16.234l4.239 7.757 7.743 4.239-7.743 4.238-4.24 7.744-4.238-7.744-7.756-4.239 7.756-4.238 4.239-7.757zM28.8 282.872l4.24 7.744 7.756 4.239-7.756 4.238-4.24 7.757-4.238-7.757-7.744-4.238 7.744-4.239 4.239-7.744zm180.889 182.126h-51.776a6.969 6.969 0 01-6.947-6.946 6.974 6.974 0 016.947-6.947h51.814a6.973 6.973 0 016.946 6.947 6.97 6.97 0 01-6.984 6.946zM111.02 81.535h-.62c-.859 0-1.556.697-1.556 1.556v238.181c0 .86.697 1.557 1.556 1.557h.62c.86 0 1.557-.697 1.557-1.557V83.092c0-.86-.697-1.557-1.557-1.557zm-24.635 33.026c.233-1.884.3-3.785.202-5.681a31.24 31.24 0 10-30.696 32.898 6.525 6.525 0 016.58 5.769.973.973 0 010 .19 20.108 20.108 0 0021.531 17.33 20.098 20.098 0 0016.223-10.753 20.1 20.1 0 00-7.577-26.581 13.291 13.291 0 01-6.263-13.172z" fill="#EDE9DE"/><path d="M136.402 60.962a33.932 33.932 0 003.935-4.796 34.157 34.157 0 00.486-37.692 34.16 34.16 0 00-34.497-15.195 34.163 34.163 0 00-14.488 61.187 7.149 7.149 0 011.898 9.389c-.029.066-.063.13-.101.19a21.99 21.99 0 1039.541 2.53 14.59 14.59 0 013.226-15.614zm1.784 52.535a30.176 30.176 0 01-.202-5.669 31.188 31.188 0 0135.947-29.084 31.19 31.19 0 011.506 61.362 31.94 31.94 0 01-6.757.646 6.543 6.543 0 00-6.592 5.769v.178a20.102 20.102 0 01-21.568 17.282 20.11 20.11 0 01-15.673-30.24 20.111 20.111 0 017.101-7.11 13.323 13.323 0 006.238-13.134zm-6.782 82.65a25.407 25.407 0 01-.152-4.403 24.264 24.264 0 0115.946-21.483 24.261 24.261 0 0132.195 18.783 24.253 24.253 0 01-10.853 24.453 24.258 24.258 0 01-13.437 3.819 5.06 5.06 0 00-5.124 4.479v.152a15.617 15.617 0 01-24.119 10.827 15.61 15.61 0 01-4.806-20.904 15.62 15.62 0 015.504-5.525 10.307 10.307 0 004.846-10.198zm-40.388 0a24.254 24.254 0 00-12.762-24.549 24.256 24.256 0 10-10.925 45.718 5.06 5.06 0 015.061 4.479v.152a15.615 15.615 0 0029.289 5.003 15.608 15.608 0 00-.32-15.056 15.623 15.623 0 00-5.447-5.549 10.332 10.332 0 01-4.896-10.198zm41.818 60.128c.185-.919.448-1.82.785-2.695a15.39 15.39 0 0113.055-9.689 15.393 15.393 0 0114.459 7.433 15.38 15.38 0 01-.281 16.255 15.384 15.384 0 01-17.971 6.182 3.245 3.245 0 00-3.986 1.671v.088a9.905 9.905 0 01-16.687 1.71 9.917 9.917 0 01-1.514-9.463 9.913 9.913 0 017.206-6.317 6.573 6.573 0 003.231-1.859 6.572 6.572 0 001.703-3.316zm-47.689 1.455a19.055 19.055 0 10-16.45 22.598 19.55 19.55 0 004.037-.936 4.013 4.013 0 014.935 2.075v.114a12.278 12.278 0 009.754 6.766 12.274 12.274 0 003.86-24.202 8.149 8.149 0 01-6.136-6.415z" fill="#EDE9DE"/><path d="M53.854 104.805s55.509 57.103 57.09 89.836m-47.044-5.77s44.931 32.24 46.526 65.024" stroke="#EDE9DE" stroke-width="2.51" stroke-linecap="round" stroke-linejoin="round"/><path d="M68.076 257.072s39.832 30.937 41.236 62.38" stroke="#EDE9DE" stroke-width="2.31" stroke-linecap="round" stroke-linejoin="round"/><path d="M168.035 105.337s-55.509 57.09-57.103 89.836m47.069-5.782s-44.931 32.252-46.525 65.036" stroke="#EDE9DE" stroke-width="2.51" stroke-linecap="round" stroke-linejoin="round"/><path d="M153.775 257.604s-39.832 30.936-41.236 62.379" stroke="#EDE9DE" stroke-width="2.31" stroke-linecap="round" stroke-linejoin="round"/><path d="M132.859 329.231H92.116a8.083 8.083 0 01-8.06-8.06 8.085 8.085 0 018.06-8.072h40.743a8.099 8.099 0 018.06 8.072 8.082 8.082 0 01-8.06 8.06z" fill="#FD5F31"/><path d="M156.204 362.749c0-23.668-19.187-42.855-42.856-42.855-23.668 0-42.855 19.187-42.855 42.855 0 23.669 19.187 42.856 42.855 42.856 23.669 0 42.856-19.187 42.856-42.856z" fill="#FD5F31"/><path d="M185.129 430.405a69.212 69.212 0 01-9.237 34.594H54.638a69.77 69.77 0 01100.301-92.013 70.204 70.204 0 0124.939 30.924 69.294 69.294 0 015.251 26.495z" fill="#FD5F31"/><path d="M187.596 403.897a36.593 36.593 0 01-36.491-36.479 36.604 36.604 0 0136.491-36.491v0a36.59 36.59 0 0136.479 36.491v0a36.577 36.577 0 01-36.479 36.479v0zm-145.105 0a36.583 36.583 0 0036.48-36.479v0a36.591 36.591 0 00-36.48-36.491A36.605 36.605 0 006 367.418v0a36.593 36.593 0 0036.491 36.479v0z" stroke="#FD5F31" stroke-width="11.07" stroke-linecap="round" stroke-linejoin="round"/><path d="M185.129 430.406A69.212 69.212 0 01175.892 465H54.638a69.468 69.468 0 01-5.655-56.686l18.119 49.056 23.484-58.356 2.796-6.997 3.733 10.375 19.182 53.27 24.736-60.292 2.43-5.896.898 2.758 19.46 59.191 16.045-47.512a69.299 69.299 0 015.263 26.495z" fill="#8E7C77"/><path d="M113.766 361.231c14.011 0 25.369-4.452 25.369-9.945s-11.358-9.945-25.369-9.945-25.37 4.452-25.37 9.945 11.359 9.945 25.37 9.945zm.999 30.165c14.012 0 25.37-4.452 25.37-9.945 0-5.492-11.358-9.945-25.37-9.945-14.011 0-25.369 4.453-25.369 9.945 0 5.493 11.358 9.945 25.369 9.945z" fill="#EDE9DE"/><path d="M123.104 351.691a8.853 8.853 0 01-5.468 8.183 8.857 8.857 0 115.468-8.183zm.848 29.722a8.86 8.86 0 01-5.468 8.183 8.857 8.857 0 115.468-8.183z" fill="#FD5F31"/></svg>