<svg width="96" height="33" fill="none" xmlns="http://www.w3.org/2000/svg"><g filter="url(#filter0_i)" fill="#FD5F31"><path d="M4.097 2.077c0-.577-.19-1.039-.607-1.462C3.11.192 2.618 0 2.05 0 1.479 0 1.024.192.607.615.19 1.038 0 1.5 0 2.077v28.846C0 31.5.19 32 .607 32.385c.417.423.873.615 1.442.615.493 0 .872-.115 1.176-.308.303-.23.53-.5.72-.846l5.35-9.384 5.348 9.384c.266.5.683.846 1.252.962.531.154 1.063.077 1.556-.193.493-.269.796-.692.948-1.269a2.188 2.188 0 00-.227-1.538l-6.526-11.462 6.526-11.461c.19-.347.265-.693.265-1.039.038-.192 0-.346-.038-.538-.152-.577-.455-1-.948-1.27-.494-.269-1.025-.346-1.556-.192-.569.116-.986.462-1.252.962-4.666 8.23-8.194 14.384-10.546 18.5V2.077zm33.821 14.769a8.687 8.687 0 00-2.276-1.038 7.528 7.528 0 00-2.466-.385c-2.39 0-4.4.846-6.108 2.577-1.707 1.73-2.541 3.808-2.541 6.23 0 2.424.834 4.462 2.541 6.193C28.775 32.153 30.786 33 33.176 33c.873 0 1.67-.115 2.466-.346.796-.27 1.555-.616 2.276-1.077.114.423.342.77.683 1.038.341.27.759.385 1.214.385.569 0 1.024-.192 1.404-.577.417-.423.606-.885.606-1.462v-13.5c0-.576-.19-1.038-.607-1.422-.379-.424-.834-.616-1.403-.616-.455 0-.873.154-1.214.423-.341.27-.57.577-.683 1zm-9.332 7.385c0-1.308.455-2.423 1.365-3.308.873-.923 1.973-1.384 3.225-1.384 1.29 0 2.39.461 3.262 1.384.911.885 1.366 2 1.366 3.308 0 1.269-.455 2.384-1.366 3.307-.872.885-1.972 1.347-3.262 1.347a4.41 4.41 0 01-3.225-1.347c-.91-.923-1.365-2.038-1.365-3.307zm31.658-7.923c-.72-.347-1.48-.616-2.276-.731a10.27 10.27 0 00-2.428-.077c-2.162.27-3.945 1.23-5.425 2.885-1.48 1.692-2.238 3.653-2.238 5.846v6.73c0 .578.19 1.039.607 1.424.38.423.873.615 1.442.615s1.024-.192 1.403-.615c.418-.385.607-.846.607-1.423v-7.077c0-.693.266-1.385.759-2.077a6.967 6.967 0 011.745-1.616c.38-.192.759-.384 1.138-.5.38-.115.72-.154 1.062-.154-.417.731-.758 1.462-.986 2.27a8.496 8.496 0 00-.341 2.423v6.73c0 .578.19 1.039.607 1.424.417.423.872.615 1.441.615.57 0 1.024-.192 1.442-.615.38-.385.569-.846.569-1.423v-7.077h.038c.076-1.231.569-2.27 1.441-3.077.873-.846 1.935-1.27 3.111-1.27 1.214 0 2.276.424 3.149 1.27.872.807 1.365 1.846 1.441 3.077h.038v7.076c0 .578.19 1.039.57 1.424.417.423.872.615 1.44.615.57 0 1.025-.192 1.443-.615.417-.385.606-.846.606-1.423v-6.808c0-1.577-.379-2.962-1.138-4.23-.758-1.309-1.745-2.347-2.997-3.116a9.205 9.205 0 00-2.162-1A9.697 9.697 0 0064 15.423h-.038c-.645.038-1.252.116-1.897.23a9.325 9.325 0 00-1.82.655zm31.849.538a8.685 8.685 0 00-2.277-1.038 7.528 7.528 0 00-2.466-.385c-2.39 0-4.4.846-6.107 2.577-1.707 1.73-2.542 3.808-2.542 6.23 0 2.424.835 4.462 2.542 6.193C82.95 32.153 84.96 33 87.35 33c.872 0 1.669-.115 2.465-.346a10.28 10.28 0 002.277-1.077c.113.423.341.77.682 1.038.342.27.76.385 1.214.385.57 0 1.025-.192 1.404-.577.417-.423.607-.885.607-1.462v-13.5c0-.576-.19-1.038-.607-1.422-.38-.424-.835-.616-1.404-.616-.455 0-.872.154-1.214.423-.341.27-.569.577-.682 1zm-9.333 7.385c0-1.308.456-2.423 1.366-3.308.873-.923 1.973-1.384 3.224-1.384 1.29 0 2.39.461 3.263 1.384.91.885 1.366 2 1.366 3.308 0 1.269-.456 2.384-1.366 3.307-.873.885-1.973 1.347-3.263 1.347a4.41 4.41 0 01-3.224-1.347c-.91-.923-1.366-2.038-1.366-3.307z"/></g><defs><filter id="filter0_i" x="0" y="0" width="96" height="35" filterUnits="userSpaceOnUse" color-interpolation-filters="sRGB"><feFlood flood-opacity="0" result="BackgroundImageFix"/><feBlend in="SourceGraphic" in2="BackgroundImageFix" result="shape"/><feColorMatrix in="SourceAlpha" values="0 0 0 0 0 0 0 0 0 0 0 0 0 0 0 0 0 0 127 0" result="hardAlpha"/><feOffset dy="2"/><feGaussianBlur stdDeviation="2"/><feComposite in2="hardAlpha" operator="arithmetic" k2="-1" k3="1"/><feColorMatrix values="0 0 0 0 0 0 0 0 0 0 0 0 0 0 0 0 0 0 0.08 0"/><feBlend in2="shape" result="effect1_innerShadow"/></filter></defs></svg>