<svg width="215" height="69" viewBox="0 0 215 69" fill="none" xmlns="http://www.w3.org/2000/svg">
<path fill-rule="evenodd" clip-rule="evenodd" d="M88.1809 36.9028C87.9023 35.8896 87.7504 34.8258 87.7504 33.6607C87.7504 29.1269 90.6884 2 98.8695 2C104.188 2 107.279 13.4232 108.773 22.7441C131.037 16.4373 164.42 13.9804 172.17 13.9804C187.469 13.9804 200.032 23.0227 201.172 34.6485C201.526 34.5725 201.881 34.5725 202.311 34.5725C208.213 34.5725 213 39.3849 213 45.2612C213 51.1374 208.112 54.962 202.311 55.9498C188.811 58.3814 183.923 58.5334 172.17 58.5334C160.545 58.584 89.9539 52.8344 88.1809 36.9028Z" fill="white"/>
<path d="M88.1809 36.9028C87.9023 35.8896 87.7504 34.8258 87.7504 33.6607C87.7504 29.1269 90.6884 2 98.8695 2C104.188 2 107.279 13.4232 108.773 22.7441C131.037 16.4373 164.42 13.9804 172.17 13.9804C187.469 13.9804 200.032 23.0227 201.172 34.6485C201.526 34.5725 201.881 34.5725 202.311 34.5725C208.213 34.5725 213 39.3849 213 45.2612C213 51.1374 208.112 54.962 202.311 55.9498C188.811 58.3814 183.923 58.5334 172.17 58.5334C160.545 58.584 89.9539 52.8344 88.1809 36.9028Z" stroke="#5DACDA" stroke-width="2.5" stroke-miterlimit="3.8637"/>
<path fill-rule="evenodd" clip-rule="evenodd" d="M132.531 32.9498C137.267 29.2772 144.309 30.1383 148.108 34.8748C151.907 39.7632 151.122 46.7286 146.386 50.4519C142.865 53.2634 111.28 72.5637 106.189 66.1809C101.174 59.7475 129.01 35.6853 132.531 32.9498Z" fill="white"/>
<path d="M132.531 32.9498C137.267 29.2772 144.309 30.1383 148.108 34.8748C151.907 39.7632 151.122 46.7286 146.386 50.4519C142.865 53.2634 111.28 72.5637 106.189 66.1809C101.174 59.7475 129.01 35.6853 132.531 32.9498Z" stroke="#5DACDA" stroke-width="2.5" stroke-miterlimit="3.8637"/>
<path fill-rule="evenodd" clip-rule="evenodd" d="M121.767 33.3046C121.843 33.3046 121.843 33.3046 121.919 33.3046C122.501 33.3046 123.135 33.4566 123.641 33.8112C124.224 34.0898 124.654 34.5204 124.933 35.1029C125.288 35.6095 125.439 36.2427 125.439 36.8253C125.439 37.4838 125.288 38.117 124.933 38.6236C124.654 39.2061 124.224 39.6367 123.641 39.9154C123.135 40.27 122.501 40.4219 121.919 40.4219C121.26 40.4219 120.627 40.27 120.121 39.9154C119.538 39.6367 119.107 39.2061 118.829 38.6236C118.474 38.117 118.322 37.4838 118.322 36.8253C118.322 36.2427 118.474 35.6095 118.829 35.1029C119.107 34.5204 119.538 34.0898 120.121 33.8112C120.627 33.4566 121.184 33.3046 121.767 33.3046Z" fill="#5DACDA"/>
<path fill-rule="evenodd" clip-rule="evenodd" d="M109.482 33.3046C109.558 33.3046 109.558 33.3046 109.634 33.3046C110.217 33.3046 110.85 33.4566 111.357 33.8112C111.939 34.0898 112.37 34.5204 112.648 35.1029C113.003 35.6095 113.155 36.2427 113.155 36.8253C113.155 37.4838 113.003 38.117 112.648 38.6236C112.37 39.2061 111.939 39.6367 111.357 39.9154C110.85 40.27 110.217 40.4219 109.634 40.4219C108.976 40.4219 108.343 40.27 107.836 39.9154C107.253 39.6367 106.823 39.2061 106.544 38.6236C106.19 38.117 106.038 37.4838 106.038 36.8253C106.038 36.2427 106.19 35.6095 106.544 35.1029C106.823 34.5204 107.253 34.0898 107.836 33.8112C108.343 33.4566 108.925 33.3046 109.482 33.3046Z" fill="#5DACDA"/>
<path d="M1 28.6446C23.3398 47.7424 86.0785 46.6026 107.253 21.9579L111.129 20.5142" stroke="#EC6277" stroke-width="2.5" stroke-miterlimit="3.8637"/>
<path fill-rule="evenodd" clip-rule="evenodd" d="M170.803 32.241H170.727C171.233 32.241 171.74 32.3929 172.095 32.5955C172.525 32.7982 172.88 33.1781 173.108 33.6087C173.336 33.9633 173.462 34.4699 173.462 34.9004V34.9764C173.462 35.407 173.31 35.9136 173.108 36.2682C172.88 36.6988 172.525 37.0534 172.095 37.2813C171.74 37.5093 171.233 37.636 170.803 37.636C170.296 37.636 169.79 37.484 169.435 37.2813C169.005 37.0787 168.65 36.6988 168.422 36.2682C168.194 35.9136 168.067 35.407 168.067 34.9764C168.067 34.4698 168.219 33.9633 168.422 33.6087C168.625 33.1781 169.005 32.8235 169.435 32.5955C169.79 32.3676 170.296 32.241 170.727 32.241H170.803Z" fill="#5DACDA"/>
<path d="M193.776 41.7137C191.268 46.1715 185.595 49.1856 179.06 49.1856C172.449 49.1856 166.775 46.0955 164.268 41.6377" stroke="#5DACDA" stroke-width="2.5" stroke-miterlimit="3.8637"/>
<path fill-rule="evenodd" clip-rule="evenodd" d="M186.025 32.241H185.949C186.456 32.241 186.962 32.3929 187.317 32.5955C187.747 32.7982 188.102 33.1781 188.33 33.6087C188.533 33.9633 188.685 34.4699 188.685 34.9004V34.9764C188.685 35.407 188.533 35.9136 188.33 36.2682C188.102 36.6988 187.747 37.0534 187.317 37.2813C186.962 37.5093 186.456 37.636 186.025 37.636C185.519 37.636 185.012 37.484 184.657 37.2813C184.227 37.0787 183.872 36.6988 183.644 36.2682C183.416 35.9136 183.29 35.407 183.29 34.9764C183.29 34.4698 183.442 33.9633 183.644 33.6087C183.872 33.1781 184.227 32.8235 184.657 32.5955C185.012 32.3676 185.518 32.241 185.949 32.241H186.025Z" fill="#5DACDA"/>
<path d="M21.2626 47.1853C19.1096 40.1439 10.0672 33.4066 5.17883 30.7471" stroke="#EC6277" stroke-width="2.5" stroke-miterlimit="3.8637"/>
<path d="M4.74854 30.4437C12.727 24.1875 31.2422 22.3386 30.7357 30.1651C30.3051 37.9156 9.56092 32.9766 5.17908 30.7477C5.02711 30.6717 4.87518 30.5957 4.74854 30.4437Z" stroke="#EC6277" stroke-width="2.5" stroke-miterlimit="3.8637"/>
</svg>
